M48
; DRILL file {KiCad 8.0.5} date 2025-01-26T22:40:38-0800
; FORMAT={-:-/ absolute / inch / decimal}
; #@! TF.CreationDate,2025-01-26T22:40:38-08:00
; #@! TF.GenerationSoftware,Kicad,Pcbnew,8.0.5
; #@! TF.FileFunction,Plated,1,4,PTH
FMAT,2
INCH
; #@! TA.AperFunction,Plated,PTH,ViaDrill
T1C0.0079
; #@! TA.AperFunction,Plated,PTH,ViaDrill
T2C0.0118
; #@! TA.AperFunction,Plated,PTH,ViaDrill
T3C0.0157
; #@! TA.AperFunction,Plated,PTH,ComponentDrill
T4C0.0157
; #@! TA.AperFunction,Plated,PTH,ComponentDrill
T5C0.0197
; #@! TA.AperFunction,Plated,PTH,ComponentDrill
T6C0.0236
; #@! TA.AperFunction,Plated,PTH,ComponentDrill
T7C0.0354
; #@! TA.AperFunction,Plated,PTH,ComponentDrill
T8C0.0394
; #@! TA.AperFunction,Plated,PTH,ComponentDrill
T9C0.0402
; #@! TA.AperFunction,Plated,PTH,ComponentDrill
T10C0.0433
; #@! TA.AperFunction,Plated,PTH,ComponentDrill
T11C0.0492
; #@! TA.AperFunction,Plated,PTH,ComponentDrill
T12C0.0630
%
G90
G05
T1
X1.9827Y-2.4961
X1.9941Y-2.6969
X2.0331Y-2.9429
X2.0331Y-2.9969
X2.0453Y-3.4035
X2.0484Y-6.1102
X2.0563Y-2.8209
X2.0878Y-2.9969
X2.0894Y-5.428
X2.0913Y-5.8988
X2.1079Y-2.8642
X2.1079Y-2.9429
X2.1646Y-2.6406
X2.1681Y-4.952
X2.1718Y-3.3361
X2.1732Y-4.4862
X2.198Y-2.9335
X2.2004Y-2.3949
X2.2343Y-2.5236
X2.2425Y-2.6409
X2.2429Y-2.3705
X2.2606Y-3.3488
X2.2846Y-2.3417
X2.2854Y-4.6169
X2.2866Y-2.0433
X2.2874Y-2.7252
X2.3071Y-4.6858
X2.3125Y-5.5669
X2.3126Y-2.5146
X2.3128Y-5.986
X2.3138Y-2.5382
X2.3138Y-3.3469
X2.3201Y-4.1846
X2.3354Y-2.0465
X2.3398Y-4.1484
X2.385Y-5.0594
X2.3858Y-3.1343
X2.3949Y-5.5386
X2.435Y-3.024
X2.4362Y-3.0921
X2.4484Y-2.639
X2.4591Y-3.8614
X2.4596Y-4.189
X2.4596Y-2.9226
X2.4681Y-2.3098
X2.4744Y-2.1031
X2.4752Y-2.1543
X2.4768Y-2.226
X2.4894Y-3.1252
X2.498Y-2.5858
X2.498Y-2.6701
X2.5114Y-4.1626
X2.5161Y-2.6161
X2.5161Y-2.8315
X2.5268Y-2.9126
X2.5331Y-2.5795
X2.5331Y-2.8512
X2.535Y-2.4583
X2.5354Y-2.5433
X2.5378Y-2.5118
X2.5402Y-2.4331
X2.5425Y-2.9323
X2.5469Y-2.8717
X2.5694Y-3.5418
X2.5795Y-2.6295
X2.5795Y-2.6563
X2.5795Y-2.6791
X2.5819Y-3.085
X2.5835Y-3.4378
X2.5846Y-5.0102
X2.5858Y-2.3098
X2.5878Y-3.8768
X2.5933Y-2.5276
X2.5937Y-2.5906
X2.5945Y-2.4807
X2.5953Y-2.8925
X2.5984Y-2.4016
X2.6016Y-4.2232
X2.6063Y-2.4343
X2.6122Y-2.5591
X2.6122Y-2.8118
X2.6201Y-3.2303
X2.6244Y-2.4646
X2.6303Y-2.6709
X2.6303Y-2.7917
X2.6307Y-2.4
X2.6327Y-2.5827
X2.6461Y-2.3402
X2.6516Y-3.2681
X2.6524Y-3.4398
X2.6579Y-5.2323
X2.6591Y-2.5972
X2.6598Y-5.4823
X2.6616Y-2.4167
X2.6772Y-2.3398
X2.6772Y-2.6756
X2.6791Y-2.6122
X2.6817Y-4.6441
X2.6819Y-2.7587
X2.6886Y-2.7114
X2.7004Y-2.8693
X2.7008Y-3.3894
X2.7091Y-2.4
X2.724Y-4.3177
X2.726Y-3.4118
X2.7323Y-5.4492
X2.7343Y-3.1079
X2.735Y-4.7898
X2.737Y-2.4063
X2.7398Y-2.3421
X2.7402Y-5.6654
X2.7441Y-5.7409
X2.7457Y-4.6157
X2.7504Y-2.1256
X2.7504Y-2.6713
X2.7508Y-2.1807
X2.7567Y-2.3949
X2.7571Y-2.226
X2.7587Y-2.6051
X2.7618Y-3.5423
X2.7634Y-4.15
X2.7638Y-3.9886
X2.7642Y-2.1031
X2.7646Y-2.1535
X2.7713Y-2.0535
X2.7717Y-2.3323
X2.7717Y-5.5118
X2.7795Y-2.4945
X2.7854Y-2.8118
X2.7854Y-3.6309
X2.7862Y-2.5441
X2.7878Y-2.3945
X2.7878Y-2.6689
X2.7909Y-2.5948
X2.7961Y-6.2413
X2.7996Y-2.5055
X2.8051Y-2.939
X2.8055Y-2.613
X2.8059Y-2.3421
X2.8083Y-2.5276
X2.8087Y-2.8146
X2.811Y-3.9178
X2.811Y-4.1996
X2.8244Y-3.0843
X2.8256Y-2.3071
X2.8268Y-3.2264
X2.8297Y-3.5344
X2.8307Y-3.8376
X2.8343Y-4.6846
X2.8356Y-3.7412
X2.8445Y-2.7047
X2.8492Y-4.665
X2.8504Y-3.1122
X2.8553Y-3.6102
X2.8553Y-3.7608
X2.8579Y-2.178
X2.8646Y-2.5946
X2.8661Y-2.3409
X2.8661Y-2.4016
X2.8681Y-2.5433
X2.8748Y-2.5091
X2.8799Y-2.0429
X2.8809Y-3.6102
X2.8809Y-3.6988
X2.8957Y-2.25
X2.8965Y-4.3012
X2.9028Y-2.8783
X2.9055Y-3.6545
X2.9065Y-3.7628
X2.9079Y-2.4457
X2.9087Y-2.6941
X2.9094Y-5.437
X2.9142Y-3.0827
X2.9157Y-4.1322
X2.9173Y-4.0004
X2.9252Y-2.4291
X2.9277Y-5.0566
X2.9331Y-2.9996
X2.9402Y-4.6453
X2.9488Y-5.1339
X2.9503Y-5.6639
X2.9528Y-2.8508
X2.9531Y-2.6024
X2.9567Y-3.6102
X2.9577Y-3.6772
X2.9614Y-4.6252
X2.9783Y-2.9996
X2.9783Y-3.2575
X2.9799Y-2.5886
X2.9833Y-3.624
X3.0083Y-2.485
X3.013Y-3.7992
X3.0148Y-4.0886
X3.0173Y-2.3657
X3.0276Y-4.2244
X3.0394Y-3.5713
X3.0394Y-4.1535
X3.0679Y-4.8297
X3.072Y-2.8508
X3.0728Y-3.1122
X3.0732Y-2.898
X3.0795Y-3.4937
X3.0866Y-3.6201
X3.0866Y-4.126
X3.0965Y-5.1858
X3.1071Y-3.2579
X3.1102Y-3.3976
X3.1102Y-4.1732
X3.1102Y-4.665
X3.1102Y-4.7043
X3.111Y-4.6256
X3.113Y-2.3886
X3.1161Y-3.4925
X3.1327Y-4.6846
X3.137Y-2.6295
X3.137Y-3.5055
X3.1409Y-5.526
X3.1417Y-3.6988
X3.161Y-2.6106
X3.1815Y-2.6531
X3.1823Y-3.4799
X3.1823Y-3.7024
X3.1854Y-5.4217
X3.1902Y-4.5752
X3.2047Y-3.7205
X3.2047Y-5.3228
X3.2079Y-2.6772
X3.215Y-2.5886
X3.2283Y-3.7579
X3.2311Y-2.9815
X3.2362Y-3.2323
X3.237Y-2.5071
X3.2382Y-2.6106
X3.2579Y-3.4016
X3.2709Y-4.3268
X3.2819Y-4.8898
X3.2929Y-2.7886
X3.3177Y-3.0827
X3.3189Y-3.8917
X3.3189Y-4.0374
X3.3236Y-2.937
X3.3327Y-3.5039
X3.3382Y-3.5992
X3.351Y-2.4581
X3.3539Y-4.8622
X3.3575Y-2.963
X3.3618Y-3.452
X3.3654Y-2.5524
X3.3744Y-4.3571
X3.3744Y-5.2004
X3.3917Y-4.4366
X3.4094Y-3.4016
X3.4094Y-4.1063
X3.4244Y-4.5862
X3.4244Y-5.1224
X3.4244Y-5.4996
X3.4524Y-3.4091
X3.4528Y-4.0169
X3.4638Y-4.7961
X3.4646Y-2.7878
X3.4732Y-4.6669
X3.4736Y-4.5882
X3.4839Y-3.4516
X3.4902Y-4.9598
X3.4937Y-5.0075
X3.4965Y-5.2008
X3.4996Y-2.6472
X3.4996Y-2.7028
X3.5283Y-2.6941
X3.5283Y-3.2323
X3.5398Y-5.161
X3.5425Y-5.0827
X3.5492Y-5.3673
X3.5531Y-4.7461
X3.5535Y-4.8465
X3.5543Y-4.3071
X3.5543Y-5.2512
X3.5567Y-4.7961
X3.5961Y-4.3185
X3.6004Y-4.6169
X3.6126Y-4.2157
X3.624Y-4.3571
X3.6343Y-5.2626
X3.6409Y-5.5976
X3.6563Y-4.8961
X3.6575Y-3.6764
X3.6803Y-3.8953
X3.6906Y-4.152
X3.7098Y-4.1728
X3.7283Y-5.3953
X3.7433Y-2.6476
X3.7539Y-5.2717
X3.7543Y-3.8169
X3.7555Y-4.6315
X3.7571Y-4.4835
X3.7638Y-2.6701
X3.7638Y-3.4091
X3.778Y-3.9075
X3.7953Y-4.2815
X3.8004Y-4.3732
X3.8138Y-3.9862
X3.8169Y-5.6953
X3.8291Y-5.7835
X3.8299Y-2.3799
X3.8327Y-5.8622
X3.8445Y-2.8783
X3.8677Y-5.7594
X3.8681Y-5.8232
X3.8866Y-3.5799
X3.9087Y-3.8165
X3.9469Y-5.4201
X3.9579Y-4.1752
X3.9587Y-4.3386
X4.0043Y-5.6835
X4.0047Y-2.278
X4.0047Y-3.0705
X4.0047Y-3.7579
X4.0051Y-4.785
X4.0055Y-4.0976
X4.0067Y-5.1118
X4.0587Y-3.5657
X4.0614Y-5.7772
X4.1039Y-3.0705
X4.1043Y-4.0669
X4.1047Y-2.3563
X4.1047Y-3.7602
X4.1047Y-4.7835
X4.1051Y-5.0941
X4.1051Y-5.6547
X4.1091Y-3.4437
X4.1268Y-3.6937
X4.1417Y-3.6559
X4.1476Y-2.2547
X4.1492Y-4.7315
X4.1516Y-4.1476
X4.1524Y-4.037
X4.1524Y-5.0524
X4.1764Y-3.9083
X4.1843Y-4.1823
X4.1882Y-2.7598
X4.1898Y-3.1559
X4.1906Y-2.876
X4.1953Y-2.4134
X4.2059Y-4.3555
X4.2087Y-3.8094
X4.211Y-5.1346
X4.2134Y-4.9346
X4.2146Y-4.1193
X4.2213Y-4.6878
X4.2228Y-4.6071
X4.2232Y-6.1988
X4.2252Y-3.0091
X4.2256Y-2.6323
X4.226Y-5.624
X4.2268Y-4.0008
X4.2287Y-2.6764
X4.2303Y-5.5476
X4.2453Y-3.1563
X4.2528Y-4.2205
X4.2543Y-4.3004
X4.2545Y-3.4902
X4.2559Y-4.1476
X4.2571Y-3.7594
X4.2577Y-4.5161
X4.2612Y-5.4555
X4.2705Y-2.5642
X4.274Y-3.0516
X4.2791Y-2.1346
X4.2791Y-2.2547
X4.2835Y-2.085
X4.2835Y-6.0413
X4.2858Y-2.7598
X4.287Y-4.7835
X4.2909Y-5.6839
X4.2933Y-5.1531
X4.3012Y-4.0358
X4.302Y-3.5433
X4.3028Y-3.7717
X4.3043Y-2.7087
X4.3047Y-2.8327
X4.3047Y-4.5709
X4.3083Y-4.8461
X4.3087Y-5.7213
X4.3102Y-5.5094
X4.311Y-3.361
X4.3165Y-5.2614
X4.3177Y-2.465
X4.3354Y-2.2114
X4.3404Y-5.7222
X4.3406Y-3.1929
X4.3406Y-3.8205
X4.3437Y-5.2327
X4.3469Y-4.1776
X4.3637Y-2.2953
X4.3657Y-2.4031
X4.3669Y-3.7571
X4.3689Y-5.8705
X4.3689Y-6.0177
X4.376Y-4.7
X4.3807Y-5.6567
X4.3815Y-2.3154
X4.385Y-4.4315
X4.3921Y-4.261
X4.4035Y-3.7094
X4.4083Y-5.7476
X4.4102Y-4.3004
X4.4138Y-5.1354
X4.4213Y-4.8098
X4.4335Y-2.035
X4.4335Y-2.3579
X4.4362Y-3.6677
X4.4669Y-4.15
X4.4713Y-5.3291
X4.4713Y-6.1567
X4.4732Y-3.8724
X4.4748Y-6.2409
X4.4756Y-3.0598
X4.476Y-3.0098
X4.4764Y-4.889
X4.4768Y-3.1205
X4.4772Y-2.1354
X4.4772Y-3.2843
X4.4795Y-2.1854
X4.4795Y-4.3906
X4.4799Y-5.1028
X4.4807Y-5.0528
X4.4811Y-5.1528
X4.4811Y-5.2886
X4.4866Y-4.1
X4.4866Y-4.3402
X4.487Y-4.05
X4.4874Y-4.7713
X4.4878Y-2.4045
X4.4902Y-3.9992
X4.4917Y-3.4961
X4.4917Y-5.5894
X4.4984Y-4.5264
X4.5035Y-2.8539
X4.5122Y-6.0929
X4.5126Y-6.0429
X4.5134Y-5.9929
X4.5154Y-3.3846
X4.5165Y-4.7177
X4.5165Y-5.7476
X4.5169Y-4.2118
X4.5287Y-3.7925
X4.5403Y-2.498
X4.5406Y-5.2882
X4.5449Y-3.6677
X4.5472Y-4.7051
X4.5526Y-5.44
X4.5531Y-2.7823
X4.5535Y-2.5846
X4.56Y-3.739
X4.5724Y-6.1902
X4.5831Y-2.085
X4.5831Y-2.2764
X4.5882Y-3.1587
X4.5909Y-5.2024
X4.5969Y-4.15
X4.6106Y-2.3161
X4.6307Y-3.7937
X4.6335Y-4.724
X4.6406Y-2.748
X4.661Y-2.3681
X4.6626Y-4.9453
X4.6713Y-3.463
X4.6752Y-3.5457
X4.6768Y-4.5756
X4.6776Y-2.1394
X4.6776Y-2.6181
X4.6776Y-5.5063
X4.6776Y-5.6449
X4.6783Y-4.4969
X4.6791Y-6.0315
X4.6815Y-5.4291
X4.6819Y-2.663
X4.7071Y-5.1591
X4.7102Y-3.722
X4.7102Y-4.8185
X4.7106Y-3.1173
X4.7165Y-4.1083
T2
X2.1305Y-4.0295
X2.161Y-2.1933
X2.185Y-4.3685
X2.2189Y-3.4035
X2.2406Y-4.0618
X2.2409Y-4.113
X2.312Y-3.8986
X2.328Y-4.3614
X2.3846Y-3.5571
X2.389Y-3.3197
X2.4232Y-4.0618
X2.4232Y-4.1126
X2.5069Y-4.1132
X2.51Y-3.24
X2.51Y-3.4
X2.5551Y-3.7055
X2.6543Y-2.5516
X2.6547Y-2.4689
X2.7055Y-2.2437
X2.7067Y-4.0098
X2.7232Y-2.6035
X2.7409Y-2.5496
X2.7492Y-2.4677
X2.9091Y-2.7665
X2.9571Y-2.5114
X2.9906Y-2.4016
X3.0079Y-3.3976
X3.2031Y-2.2598
X3.372Y-3.5413
X3.5508Y-2.5079
T3
X3.8854Y-2.1181
T4
X2.1083Y-3.0413
X2.1083Y-3.0787
X2.1083Y-3.1161
X2.1083Y-3.1516
X2.1083Y-3.187
X2.1083Y-3.2224
X2.1083Y-3.2598
X2.1083Y-3.2972
X2.1634Y-3.0413
X2.1634Y-3.0787
X2.1634Y-3.1161
X2.1634Y-3.1516
X2.1634Y-3.187
X2.1634Y-3.2224
X2.1634Y-3.2598
X2.1634Y-3.2972
T7
X2.9193Y-4.4094
X2.9193Y-4.8819
X2.9193Y-5.3543
X2.9193Y-5.8268
X3.0193Y-4.4094
X3.0193Y-4.8819
X3.0193Y-5.3543
X3.0193Y-5.8268
X3.2126Y-4.8031
X3.2126Y-5.748
X3.3126Y-4.8031
X3.3126Y-5.748
X4.0047Y-2.4547
X4.0047Y-2.9134
X4.0047Y-3.3858
X4.0047Y-3.8583
X4.0047Y-4.4094
X4.0047Y-4.8819
X4.0047Y-5.3543
X4.0047Y-5.8268
X4.1047Y-2.4547
X4.1047Y-2.9134
X4.1047Y-3.3858
X4.1047Y-3.8583
X4.1047Y-4.4094
X4.1047Y-4.8819
X4.1047Y-5.3543
X4.1047Y-5.8268
T8
X2.0488Y-2.0445
X2.0488Y-2.1445
X2.0906Y-3.5173
X2.0906Y-3.6173
X2.0906Y-3.7173
X2.0906Y-3.8173
X2.0906Y-3.9173
X2.1406Y-4.6512
X2.1906Y-3.5173
X2.1906Y-3.6173
X2.1906Y-3.7173
X2.1906Y-3.8173
X2.1906Y-3.9173
X2.7047Y-3.5669
X2.7047Y-3.6457
X2.7047Y-3.7244
X2.7047Y-3.8031
X3.0728Y-2.75
X3.0728Y-2.9783
X3.0776Y-5.6177
X3.5449Y-5.8579
X4.0484Y-4.6098
X4.1213Y-6.0185
X4.1224Y-6.1642
T9
X2.8323Y-2.0866
X2.9323Y-2.0866
X3.0323Y-2.0866
X3.1323Y-2.0866
T10
X2.0472Y-4.2815
X2.0472Y-4.5374
X2.0472Y-4.7539
X2.0472Y-5.0098
X2.0472Y-5.2264
X2.0472Y-5.4823
X2.0472Y-5.6988
X2.0472Y-5.9547
X2.1496Y-2.2677
X2.1496Y-2.4449
X2.1496Y-2.5709
X2.1496Y-2.748
X2.2244Y-4.2815
X2.2244Y-4.5374
X2.2244Y-4.7539
X2.2244Y-5.0098
X2.2244Y-5.2264
X2.2244Y-5.4823
X2.2244Y-5.6988
X2.2244Y-5.9547
X2.4055Y-2.2677
X2.4055Y-2.4449
X2.4055Y-2.5709
X2.4055Y-2.748
X2.6457Y-3.1693
X2.6457Y-3.3465
X2.9016Y-3.1693
X2.9016Y-3.3465
X3.0591Y-3.1693
X3.0591Y-3.3465
X3.2756Y-3.5866
X3.2756Y-3.685
X3.2756Y-3.7835
X3.315Y-3.1693
X3.315Y-3.3465
X3.7094Y-2.3268
X3.7094Y-2.5827
X3.7094Y-2.7854
X3.7094Y-3.0413
X3.7094Y-3.2579
X3.7094Y-3.5138
X3.7094Y-3.7303
X3.7094Y-3.9862
X3.7094Y-4.2815
X3.7094Y-4.5374
X3.7094Y-4.7539
X3.7094Y-5.0098
X3.7094Y-5.2264
X3.7094Y-5.4823
X3.7094Y-5.6988
X3.7094Y-5.9547
X3.8346Y-2.0276
X3.8346Y-2.2047
X3.8866Y-2.3268
X3.8866Y-2.5827
X3.8866Y-2.7854
X3.8866Y-3.0413
X3.8866Y-3.2579
X3.8866Y-3.5138
X3.8866Y-3.7303
X3.8866Y-3.9862
X3.8866Y-4.2815
X3.8866Y-4.5374
X3.8866Y-4.7539
X3.8866Y-5.0098
X3.8866Y-5.2264
X3.8866Y-5.4823
X3.8866Y-5.6988
X3.8866Y-5.9547
X4.0906Y-2.0276
X4.0906Y-2.2047
T12
X2.3386Y-6.1811
X2.6919Y-6.1811
X2.9823Y-6.152
X3.7091Y-6.1543
T5
G00X2.0598Y-3.0709
M15
G01X2.0598Y-3.1102
M16
G05
G00X2.0598Y-3.2283
M15
G01X2.0598Y-3.2677
M16
G05
G00X2.2118Y-3.0709
M15
G01X2.2118Y-3.1102
M16
G05
G00X2.2118Y-3.2283
M15
G01X2.2118Y-3.2677
M16
G05
T6
G00X2.3799Y-4.4291
M15
G01X2.3799Y-4.3898
M16
G05
G00X2.3799Y-4.9016
M15
G01X2.3799Y-4.8622
M16
G05
G00X2.3799Y-5.374
M15
G01X2.3799Y-5.3346
M16
G05
G00X2.3799Y-5.8465
M15
G01X2.3799Y-5.8071
M16
G05
G00X2.7067Y-4.4291
M15
G01X2.7067Y-4.3898
M16
G05
G00X2.7067Y-4.9016
M15
G01X2.7067Y-4.8622
M16
G05
G00X2.7067Y-5.374
M15
G01X2.7067Y-5.3346
M16
G05
G00X2.7067Y-5.8465
M15
G01X2.7067Y-5.8071
M16
G05
G00X2.8287Y-4.4291
M15
G01X2.8287Y-4.3898
M16
G05
G00X2.8287Y-4.9016
M15
G01X2.8287Y-4.8622
M16
G05
G00X2.8287Y-5.374
M15
G01X2.8287Y-5.3346
M16
G05
G00X2.8287Y-5.8465
M15
G01X2.8287Y-5.8071
M16
G05
G00X3.2429Y-4.2157
M15
G01X3.2823Y-4.2157
M16
G05
G00X3.2429Y-4.5425
M15
G01X3.2823Y-4.5425
M16
G05
G00X3.2429Y-4.6646
M15
G01X3.2823Y-4.6646
M16
G05
G00X3.2429Y-5.1606
M15
G01X3.2823Y-5.1606
M16
G05
G00X3.2429Y-5.4874
M15
G01X3.2823Y-5.4874
M16
G05
G00X3.2429Y-5.6094
M15
G01X3.2823Y-5.6094
M16
G05
G00X4.2461Y-2.4606
M15
G01X4.2461Y-2.4213
M16
G05
G00X4.2461Y-2.9331
M15
G01X4.2461Y-2.8937
M16
G05
G00X4.2461Y-3.4055
M15
G01X4.2461Y-3.3661
M16
G05
G00X4.2461Y-3.878
M15
G01X4.2461Y-3.8386
M16
G05
G00X4.2461Y-4.4291
M15
G01X4.2461Y-4.3898
M16
G05
G00X4.2461Y-4.9016
M15
G01X4.2461Y-4.8622
M16
G05
G00X4.2461Y-5.374
M15
G01X4.2461Y-5.3346
M16
G05
G00X4.2461Y-5.8465
M15
G01X4.2461Y-5.8071
M16
G05
G00X4.5728Y-2.4606
M15
G01X4.5728Y-2.4213
M16
G05
G00X4.5728Y-2.9331
M15
G01X4.5728Y-2.8937
M16
G05
G00X4.5728Y-3.4055
M15
G01X4.5728Y-3.3661
M16
G05
G00X4.5728Y-3.878
M15
G01X4.5728Y-3.8386
M16
G05
G00X4.5728Y-4.4291
M15
G01X4.5728Y-4.3898
M16
G05
G00X4.5728Y-4.9016
M15
G01X4.5728Y-4.8622
M16
G05
G00X4.5728Y-5.374
M15
G01X4.5728Y-5.3346
M16
G05
G00X4.5728Y-5.8465
M15
G01X4.5728Y-5.8071
M16
G05
G00X4.6949Y-2.4606
M15
G01X4.6949Y-2.4213
M16
G05
G00X4.6949Y-2.9331
M15
G01X4.6949Y-2.8937
M16
G05
G00X4.6949Y-3.4055
M15
G01X4.6949Y-3.3661
M16
G05
G00X4.6949Y-3.878
M15
G01X4.6949Y-3.8386
M16
G05
G00X4.6949Y-4.4291
M15
G01X4.6949Y-4.3898
M16
G05
G00X4.6949Y-4.9016
M15
G01X4.6949Y-4.8622
M16
G05
G00X4.6949Y-5.374
M15
G01X4.6949Y-5.3346
M16
G05
G00X4.6949Y-5.8465
M15
G01X4.6949Y-5.8071
M16
G05
T11
G00X2.997Y-3.4646
M15
G01X2.9636Y-3.4646
M16
G05
G00X2.997Y-3.9055
M15
G01X2.9636Y-3.9055
M16
G05
M30
