%TF.GenerationSoftware,KiCad,Pcbnew,8.0.5*%
%TF.CreationDate,2025-01-26T22:40:45-08:00*%
%TF.ProjectId,main_board,6d61696e-5f62-46f6-9172-642e6b696361,1.0*%
%TF.SameCoordinates,Original*%
%TF.FileFunction,Soldermask,Bot*%
%TF.FilePolarity,Negative*%
%FSLAX46Y46*%
G04 Gerber Fmt 4.6, Leading zero omitted, Abs format (unit mm)*
G04 Created by KiCad (PCBNEW 8.0.5) date 2025-01-26 22:40:45*
%MOMM*%
%LPD*%
G01*
G04 APERTURE LIST*
G04 Aperture macros list*
%AMRoundRect*
0 Rectangle with rounded corners*
0 $1 Rounding radius*
0 $2 $3 $4 $5 $6 $7 $8 $9 X,Y pos of 4 corners*
0 Add a 4 corners polygon primitive as box body*
4,1,4,$2,$3,$4,$5,$6,$7,$8,$9,$2,$3,0*
0 Add four circle primitives for the rounded corners*
1,1,$1+$1,$2,$3*
1,1,$1+$1,$4,$5*
1,1,$1+$1,$6,$7*
1,1,$1+$1,$8,$9*
0 Add four rect primitives between the rounded corners*
20,1,$1+$1,$2,$3,$4,$5,0*
20,1,$1+$1,$4,$5,$6,$7,0*
20,1,$1+$1,$6,$7,$8,$9,0*
20,1,$1+$1,$8,$9,$2,$3,0*%
G04 Aperture macros list end*
%ADD10R,1.800000X1.800000*%
%ADD11C,1.800000*%
%ADD12C,2.000000*%
%ADD13O,1.200000X2.200000*%
%ADD14RoundRect,0.300000X0.300000X-0.700000X0.300000X0.700000X-0.300000X0.700000X-0.300000X-0.700000X0*%
%ADD15O,2.200000X1.200000*%
%ADD16RoundRect,0.300000X-0.700000X-0.300000X0.700000X-0.300000X0.700000X0.300000X-0.700000X0.300000X0*%
%ADD17RoundRect,0.400000X0.400000X-0.400000X0.400000X0.400000X-0.400000X0.400000X-0.400000X-0.400000X0*%
%ADD18C,1.600000*%
%ADD19RoundRect,0.217391X1.032609X0.782609X-1.032609X0.782609X-1.032609X-0.782609X1.032609X-0.782609X0*%
%ADD20C,2.500000*%
%ADD21C,0.650000*%
%ADD22RoundRect,0.360000X-0.090000X0.540000X-0.090000X-0.540000X0.090000X-0.540000X0.090000X0.540000X0*%
%ADD23RoundRect,0.250000X0.350000X0.450000X-0.350000X0.450000X-0.350000X-0.450000X0.350000X-0.450000X0*%
%ADD24RoundRect,0.225000X-0.225000X-0.250000X0.225000X-0.250000X0.225000X0.250000X-0.225000X0.250000X0*%
%ADD25RoundRect,0.200000X-0.200000X-0.275000X0.200000X-0.275000X0.200000X0.275000X-0.200000X0.275000X0*%
%ADD26RoundRect,0.200000X0.200000X0.275000X-0.200000X0.275000X-0.200000X-0.275000X0.200000X-0.275000X0*%
%ADD27RoundRect,0.200000X0.275000X-0.200000X0.275000X0.200000X-0.275000X0.200000X-0.275000X-0.200000X0*%
%ADD28RoundRect,0.250000X0.337500X0.475000X-0.337500X0.475000X-0.337500X-0.475000X0.337500X-0.475000X0*%
%ADD29RoundRect,0.225000X0.250000X-0.225000X0.250000X0.225000X-0.250000X0.225000X-0.250000X-0.225000X0*%
%ADD30RoundRect,0.250000X-0.450000X0.350000X-0.450000X-0.350000X0.450000X-0.350000X0.450000X0.350000X0*%
%ADD31RoundRect,0.225000X0.225000X0.250000X-0.225000X0.250000X-0.225000X-0.250000X0.225000X-0.250000X0*%
%ADD32R,1.500000X1.500000*%
%ADD33R,1.200000X1.200000*%
%ADD34R,1.500000X1.600000*%
%ADD35RoundRect,0.175000X-0.175000X-0.175000X0.175000X-0.175000X0.175000X0.175000X-0.175000X0.175000X0*%
%ADD36RoundRect,0.250000X-0.475000X0.337500X-0.475000X-0.337500X0.475000X-0.337500X0.475000X0.337500X0*%
%ADD37RoundRect,0.150000X0.825000X0.150000X-0.825000X0.150000X-0.825000X-0.150000X0.825000X-0.150000X0*%
%ADD38RoundRect,0.250000X-0.350000X-0.450000X0.350000X-0.450000X0.350000X0.450000X-0.350000X0.450000X0*%
%ADD39R,0.450000X0.450000*%
%ADD40RoundRect,0.225000X-0.250000X0.225000X-0.250000X-0.225000X0.250000X-0.225000X0.250000X0.225000X0*%
%ADD41RoundRect,0.062500X0.325000X0.062500X-0.325000X0.062500X-0.325000X-0.062500X0.325000X-0.062500X0*%
%ADD42R,0.600000X1.200000*%
%ADD43RoundRect,0.237500X0.237500X-0.287500X0.237500X0.287500X-0.237500X0.287500X-0.237500X-0.287500X0*%
%ADD44RoundRect,0.175000X-0.175000X0.175000X-0.175000X-0.175000X0.175000X-0.175000X0.175000X0.175000X0*%
%ADD45R,1.100000X0.250000*%
%ADD46RoundRect,0.150000X-0.587500X-0.150000X0.587500X-0.150000X0.587500X0.150000X-0.587500X0.150000X0*%
%ADD47RoundRect,0.175000X-0.325000X0.175000X-0.325000X-0.175000X0.325000X-0.175000X0.325000X0.175000X0*%
%ADD48RoundRect,0.150000X-0.150000X0.200000X-0.150000X-0.200000X0.150000X-0.200000X0.150000X0.200000X0*%
%ADD49RoundRect,0.250000X0.450000X-0.350000X0.450000X0.350000X-0.450000X0.350000X-0.450000X-0.350000X0*%
%ADD50RoundRect,0.150000X-0.150000X0.825000X-0.150000X-0.825000X0.150000X-0.825000X0.150000X0.825000X0*%
%ADD51RoundRect,0.250000X0.475000X-0.250000X0.475000X0.250000X-0.475000X0.250000X-0.475000X-0.250000X0*%
%ADD52R,1.600000X1.300000*%
%ADD53R,1.600000X2.000000*%
%ADD54RoundRect,0.150000X0.650000X0.150000X-0.650000X0.150000X-0.650000X-0.150000X0.650000X-0.150000X0*%
%ADD55C,2.800000*%
%ADD56RoundRect,0.135000X0.185000X-0.135000X0.185000X0.135000X-0.185000X0.135000X-0.185000X-0.135000X0*%
%ADD57RoundRect,0.175000X0.175000X0.175000X-0.175000X0.175000X-0.175000X-0.175000X0.175000X-0.175000X0*%
%ADD58R,1.600000X1.500000*%
%ADD59RoundRect,0.200000X-0.275000X0.200000X-0.275000X-0.200000X0.275000X-0.200000X0.275000X0.200000X0*%
%ADD60RoundRect,0.250000X0.475000X-0.337500X0.475000X0.337500X-0.475000X0.337500X-0.475000X-0.337500X0*%
%ADD61RoundRect,0.162500X0.162500X0.187500X-0.162500X0.187500X-0.162500X-0.187500X0.162500X-0.187500X0*%
%ADD62RoundRect,0.135000X0.135000X0.185000X-0.135000X0.185000X-0.135000X-0.185000X0.135000X-0.185000X0*%
%ADD63RoundRect,0.250000X-0.550000X1.500000X-0.550000X-1.500000X0.550000X-1.500000X0.550000X1.500000X0*%
%ADD64RoundRect,0.150000X0.150000X-0.587500X0.150000X0.587500X-0.150000X0.587500X-0.150000X-0.587500X0*%
%ADD65RoundRect,0.100000X0.100000X-0.637500X0.100000X0.637500X-0.100000X0.637500X-0.100000X-0.637500X0*%
%ADD66R,1.700000X1.700000*%
%ADD67O,1.700000X1.700000*%
%ADD68RoundRect,0.175000X0.175000X-0.175000X0.175000X0.175000X-0.175000X0.175000X-0.175000X-0.175000X0*%
%ADD69RoundRect,0.237500X-0.287500X-0.237500X0.287500X-0.237500X0.287500X0.237500X-0.287500X0.237500X0*%
%ADD70RoundRect,0.050000X0.387500X0.050000X-0.387500X0.050000X-0.387500X-0.050000X0.387500X-0.050000X0*%
%ADD71RoundRect,0.050000X0.050000X0.387500X-0.050000X0.387500X-0.050000X-0.387500X0.050000X-0.387500X0*%
%ADD72R,3.200000X3.200000*%
%ADD73RoundRect,0.150000X-0.150000X0.587500X-0.150000X-0.587500X0.150000X-0.587500X0.150000X0.587500X0*%
%ADD74RoundRect,0.150000X-0.825000X-0.150000X0.825000X-0.150000X0.825000X0.150000X-0.825000X0.150000X0*%
%ADD75R,0.900000X1.000000*%
%ADD76RoundRect,0.250000X1.450000X-0.312500X1.450000X0.312500X-1.450000X0.312500X-1.450000X-0.312500X0*%
%ADD77RoundRect,0.250000X-1.500000X-0.550000X1.500000X-0.550000X1.500000X0.550000X-1.500000X0.550000X0*%
G04 APERTURE END LIST*
D10*
X101720000Y-124000000D03*
D11*
X104260000Y-124000000D03*
D12*
X103900000Y-56000000D03*
X97400000Y-56000000D03*
X103900000Y-51500000D03*
X97400000Y-51500000D03*
X94220000Y-139250000D03*
X94220000Y-132750000D03*
X98720000Y-139250000D03*
X98720000Y-132750000D03*
X94220000Y-151250000D03*
X94220000Y-144750000D03*
X98720000Y-151250000D03*
X98720000Y-144750000D03*
D13*
X119250000Y-148000000D03*
D14*
X107850000Y-148000000D03*
X116150000Y-148000000D03*
D12*
X94220000Y-65600000D03*
X94220000Y-59100000D03*
X98720000Y-65600000D03*
X98720000Y-59100000D03*
D10*
X101720000Y-62350000D03*
D11*
X104260000Y-62350000D03*
D12*
X94220000Y-127250000D03*
X94220000Y-120750000D03*
X98720000Y-127250000D03*
X98720000Y-120750000D03*
D10*
X101720000Y-148000000D03*
D11*
X104260000Y-148000000D03*
D12*
X61100000Y-62100000D03*
X54600000Y-62100000D03*
X61100000Y-57600000D03*
X54600000Y-57600000D03*
D10*
X101720000Y-74000000D03*
D11*
X104260000Y-74000000D03*
D13*
X119250000Y-62000000D03*
D14*
X107850000Y-62000000D03*
X116150000Y-62000000D03*
D12*
X94220000Y-89250000D03*
X94220000Y-82750000D03*
X98720000Y-89250000D03*
X98720000Y-82750000D03*
D15*
X82870000Y-118480000D03*
D16*
X82870000Y-107080000D03*
X82870000Y-115380000D03*
D12*
X61100000Y-69800000D03*
X54600000Y-69800000D03*
X61100000Y-65300000D03*
X54600000Y-65300000D03*
X52000000Y-151250000D03*
X52000000Y-144750000D03*
X56500000Y-151250000D03*
X56500000Y-144750000D03*
D17*
X68700000Y-90600000D03*
D18*
X68700000Y-96600000D03*
D19*
X75700000Y-88000000D03*
X75700000Y-99200000D03*
D11*
X83200000Y-96100000D03*
X83200000Y-91100000D03*
X83200000Y-93600000D03*
D18*
X68700000Y-92600000D03*
X68700000Y-94600000D03*
D10*
X76690000Y-112000000D03*
D11*
X74150000Y-112000000D03*
D12*
X94220000Y-115250000D03*
X94220000Y-108750000D03*
X98720000Y-115250000D03*
X98720000Y-108750000D03*
X52000000Y-115250000D03*
X52000000Y-108750000D03*
X56500000Y-115250000D03*
X56500000Y-108750000D03*
D10*
X81600000Y-146000000D03*
D11*
X84140000Y-146000000D03*
D15*
X82870000Y-142480000D03*
D16*
X82870000Y-131080000D03*
X82870000Y-139380000D03*
D10*
X81600000Y-122000000D03*
D11*
X84140000Y-122000000D03*
D12*
X52000000Y-139250000D03*
X52000000Y-132750000D03*
X56500000Y-139250000D03*
X56500000Y-132750000D03*
D20*
X64050000Y-77500000D03*
D13*
X119250000Y-112000000D03*
D14*
X107850000Y-112000000D03*
X116150000Y-112000000D03*
D10*
X76690000Y-136000000D03*
D11*
X74150000Y-136000000D03*
D10*
X101720000Y-136000000D03*
D11*
X104260000Y-136000000D03*
D10*
X76690000Y-124000000D03*
D11*
X74150000Y-124000000D03*
D13*
X71850000Y-112000000D03*
D14*
X60450000Y-112000000D03*
X68750000Y-112000000D03*
D10*
X101720000Y-98000000D03*
D11*
X104260000Y-98000000D03*
D13*
X71850000Y-124000000D03*
D14*
X60450000Y-124000000D03*
X68750000Y-124000000D03*
D13*
X71850000Y-136000000D03*
D14*
X60450000Y-136000000D03*
X68750000Y-136000000D03*
D13*
X119250000Y-136000000D03*
D14*
X107850000Y-136000000D03*
X116150000Y-136000000D03*
D12*
X94220000Y-101250000D03*
X94220000Y-94750000D03*
X98720000Y-101250000D03*
X98720000Y-94750000D03*
D20*
X87450000Y-77500000D03*
D10*
X101720000Y-86000000D03*
D11*
X104260000Y-86000000D03*
D13*
X119250000Y-86000000D03*
D14*
X107850000Y-86000000D03*
X116150000Y-86000000D03*
D12*
X94220000Y-77250000D03*
X94220000Y-70750000D03*
X98720000Y-77250000D03*
X98720000Y-70750000D03*
D13*
X119250000Y-124000000D03*
D14*
X107850000Y-124000000D03*
X116150000Y-124000000D03*
D13*
X119250000Y-98000000D03*
D14*
X107850000Y-98000000D03*
X116150000Y-98000000D03*
D13*
X71850000Y-148000000D03*
D14*
X60450000Y-148000000D03*
X68750000Y-148000000D03*
D21*
X54950000Y-77250000D03*
X54950000Y-78200000D03*
X54950000Y-79150000D03*
X54950000Y-80050000D03*
X54950000Y-80950000D03*
X54950000Y-81850000D03*
X54950000Y-82800000D03*
X54950000Y-83750000D03*
X53550000Y-83750000D03*
X53550000Y-82800000D03*
X53550000Y-81850000D03*
X53550000Y-80950000D03*
X53550000Y-80050000D03*
X53550000Y-79150000D03*
X53550000Y-78200000D03*
X53550000Y-77250000D03*
D22*
X56180000Y-78500000D03*
X52320000Y-78500000D03*
X56180000Y-82500000D03*
X52320000Y-82500000D03*
D10*
X71940000Y-53000000D03*
D11*
X74480000Y-53000000D03*
X77020000Y-53000000D03*
X79560000Y-53000000D03*
D12*
X52000000Y-127250000D03*
X52000000Y-120750000D03*
X56500000Y-127250000D03*
X56500000Y-120750000D03*
D13*
X119250000Y-74000000D03*
D14*
X107850000Y-74000000D03*
X116150000Y-74000000D03*
D10*
X101720000Y-112000000D03*
D11*
X104260000Y-112000000D03*
D10*
X76690000Y-148000000D03*
D11*
X74150000Y-148000000D03*
D12*
X77700000Y-80500000D03*
X84200000Y-80500000D03*
X77700000Y-85000000D03*
X84200000Y-85000000D03*
X67200000Y-80500000D03*
X73700000Y-80500000D03*
X67200000Y-85000000D03*
X73700000Y-85000000D03*
D23*
X119660000Y-77710000D03*
X117660000Y-77710000D03*
D24*
X106515000Y-87910000D03*
X108065000Y-87910000D03*
D25*
X69425000Y-83000000D03*
X71075000Y-83000000D03*
D26*
X55025000Y-123150000D03*
X53375000Y-123150000D03*
D27*
X61850000Y-79305000D03*
X61850000Y-77655000D03*
D26*
X108095000Y-92860000D03*
X106445000Y-92860000D03*
D25*
X117845000Y-114225000D03*
X119495000Y-114225000D03*
D28*
X80917500Y-90730000D03*
X78842500Y-90730000D03*
D29*
X73550000Y-59460000D03*
X73550000Y-57910000D03*
D30*
X113620000Y-97460000D03*
X113620000Y-99460000D03*
D31*
X85700000Y-116910000D03*
X84150000Y-116910000D03*
D25*
X117955000Y-66495000D03*
X119605000Y-66495000D03*
D32*
X99070000Y-106060000D03*
D33*
X94505000Y-99050000D03*
D34*
X97755000Y-98050000D03*
D33*
X94505000Y-97050000D03*
D35*
X58715000Y-139250000D03*
X60865000Y-139250000D03*
D26*
X108195000Y-117025000D03*
X106545000Y-117025000D03*
D36*
X67000000Y-76212500D03*
X67000000Y-78287500D03*
D37*
X115445000Y-88805000D03*
X115445000Y-90075000D03*
X115445000Y-91345000D03*
X115445000Y-92615000D03*
X110495000Y-92615000D03*
X110495000Y-91345000D03*
X110495000Y-90075000D03*
X110495000Y-88805000D03*
D26*
X83030000Y-74800000D03*
X81380000Y-74800000D03*
D30*
X109880000Y-146290000D03*
X109880000Y-148290000D03*
D32*
X119100000Y-71220000D03*
D38*
X112700000Y-111530000D03*
X114700000Y-111530000D03*
D24*
X73550000Y-64600000D03*
X75100000Y-64600000D03*
D26*
X72100000Y-143900000D03*
X70450000Y-143900000D03*
D25*
X117985000Y-139860000D03*
X119635000Y-139860000D03*
D37*
X88775000Y-59895000D03*
X88775000Y-61165000D03*
X88775000Y-62435000D03*
X88775000Y-63705000D03*
X83825000Y-63705000D03*
X83825000Y-62435000D03*
X83825000Y-61165000D03*
X83825000Y-59895000D03*
D25*
X117795000Y-87960000D03*
X119445000Y-87960000D03*
D29*
X81360000Y-59990000D03*
X81360000Y-58440000D03*
D39*
X85240000Y-75840000D03*
X84470000Y-75840000D03*
X84470000Y-76610000D03*
X85240000Y-76610000D03*
D40*
X67450000Y-68525000D03*
X67450000Y-70075000D03*
D23*
X95390000Y-118630000D03*
X93390000Y-118630000D03*
D32*
X119070000Y-83620000D03*
D41*
X63437500Y-73485000D03*
X63437500Y-73985000D03*
X63437500Y-74485000D03*
X63437500Y-74985000D03*
X61512500Y-74985000D03*
X61512500Y-74485000D03*
X61512500Y-73985000D03*
X61512500Y-73485000D03*
D42*
X62475000Y-74235000D03*
D37*
X115920000Y-150950000D03*
X115920000Y-152220000D03*
X115920000Y-153490000D03*
X115920000Y-154760000D03*
X110970000Y-154760000D03*
X110970000Y-153490000D03*
X110970000Y-152220000D03*
X110970000Y-150950000D03*
D26*
X108275000Y-139360000D03*
X106625000Y-139360000D03*
X108095000Y-90910000D03*
X106445000Y-90910000D03*
D43*
X79000000Y-138600000D03*
X79000000Y-136850000D03*
D29*
X110500000Y-137160000D03*
X110500000Y-135610000D03*
D44*
X59460000Y-74215000D03*
X59460000Y-76365000D03*
D45*
X78165000Y-117490000D03*
X78165000Y-117990000D03*
X78165000Y-118490000D03*
X78165000Y-118990000D03*
X78165000Y-119490000D03*
X73865000Y-119490000D03*
X73865000Y-118990000D03*
X73865000Y-118490000D03*
X73865000Y-117990000D03*
X73865000Y-117490000D03*
D28*
X65137500Y-70800000D03*
X63062500Y-70800000D03*
D30*
X59345000Y-53150000D03*
X59345000Y-55150000D03*
D37*
X115635000Y-138755000D03*
X115635000Y-140025000D03*
X115635000Y-141295000D03*
X115635000Y-142565000D03*
X110685000Y-142565000D03*
X110685000Y-141295000D03*
X110685000Y-140025000D03*
X110685000Y-138755000D03*
D26*
X108195000Y-119075000D03*
X106545000Y-119075000D03*
X73225000Y-140000000D03*
X71575000Y-140000000D03*
D46*
X74900000Y-132900000D03*
X74900000Y-131000000D03*
X76775000Y-131950000D03*
D24*
X69530000Y-58600000D03*
X71080000Y-58600000D03*
X106595000Y-113870000D03*
X108145000Y-113870000D03*
D33*
X107245000Y-109330000D03*
D34*
X110495000Y-108330000D03*
D33*
X107245000Y-107330000D03*
D35*
X93295000Y-137035000D03*
X95445000Y-137035000D03*
D38*
X99710000Y-53800000D03*
X101710000Y-53800000D03*
D29*
X54570000Y-112525000D03*
X54570000Y-110975000D03*
D24*
X67925000Y-106120000D03*
X69475000Y-106120000D03*
D47*
X51240000Y-72750000D03*
D48*
X52940000Y-72750000D03*
X52940000Y-74750000D03*
X51040000Y-74750000D03*
D26*
X115815000Y-94220000D03*
X114165000Y-94220000D03*
D24*
X113075000Y-137130000D03*
X114625000Y-137130000D03*
D49*
X62770000Y-139270000D03*
X62770000Y-137270000D03*
D26*
X108275000Y-67980000D03*
X106625000Y-67980000D03*
D24*
X66495000Y-58590000D03*
X68045000Y-58590000D03*
D26*
X109915000Y-157890000D03*
X108265000Y-157890000D03*
D37*
X91620000Y-120550000D03*
X91620000Y-121820000D03*
X91620000Y-123090000D03*
X91620000Y-124360000D03*
X86670000Y-124360000D03*
X86670000Y-123090000D03*
X86670000Y-121820000D03*
X86670000Y-120550000D03*
X115495000Y-114970000D03*
X115495000Y-116240000D03*
X115495000Y-117510000D03*
X115495000Y-118780000D03*
X110545000Y-118780000D03*
X110545000Y-117510000D03*
X110545000Y-116240000D03*
X110545000Y-114970000D03*
D44*
X60530000Y-143875000D03*
X60530000Y-146025000D03*
D23*
X105000000Y-68320000D03*
X103000000Y-68320000D03*
D35*
X54875000Y-86450000D03*
X57025000Y-86450000D03*
D37*
X115280000Y-128340000D03*
X115280000Y-129610000D03*
X115280000Y-130880000D03*
X115280000Y-132150000D03*
X110330000Y-132150000D03*
X110330000Y-130880000D03*
X110330000Y-129610000D03*
X110330000Y-128340000D03*
X115200000Y-76450000D03*
X115200000Y-77720000D03*
X115200000Y-78990000D03*
X115200000Y-80260000D03*
X110250000Y-80260000D03*
X110250000Y-78990000D03*
X110250000Y-77720000D03*
X110250000Y-76450000D03*
D29*
X91150000Y-134420000D03*
X91150000Y-132870000D03*
D24*
X112840000Y-64520000D03*
X114390000Y-64520000D03*
D26*
X108285000Y-140910000D03*
X106635000Y-140910000D03*
D50*
X85710000Y-133380000D03*
X86980000Y-133380000D03*
X88250000Y-133380000D03*
X89520000Y-133380000D03*
X89520000Y-138330000D03*
X88250000Y-138330000D03*
X86980000Y-138330000D03*
X85710000Y-138330000D03*
D31*
X119185000Y-105410000D03*
X117635000Y-105410000D03*
X108235000Y-64230000D03*
X106685000Y-64230000D03*
D26*
X53075000Y-147200000D03*
X51425000Y-147200000D03*
D24*
X113975000Y-120470000D03*
X115525000Y-120470000D03*
D26*
X68010000Y-83010000D03*
X66360000Y-83010000D03*
D25*
X117795000Y-90060000D03*
X119445000Y-90060000D03*
D51*
X51260000Y-71330000D03*
X51260000Y-69430000D03*
D52*
X72350000Y-74550000D03*
D53*
X69450000Y-75800000D03*
D52*
X72350000Y-77050000D03*
D29*
X115890000Y-145825000D03*
X115890000Y-144275000D03*
D28*
X80987500Y-96400000D03*
X78912500Y-96400000D03*
D54*
X68720000Y-52155000D03*
X68720000Y-53425000D03*
X68720000Y-54695000D03*
X68720000Y-55965000D03*
X61520000Y-55965000D03*
X61520000Y-54695000D03*
X61520000Y-53425000D03*
X61520000Y-52155000D03*
D40*
X108800000Y-150950000D03*
X108800000Y-152500000D03*
D29*
X63650000Y-64725000D03*
X63650000Y-63175000D03*
D24*
X113290000Y-113300000D03*
X114840000Y-113300000D03*
D26*
X68090000Y-87380000D03*
X66440000Y-87380000D03*
D55*
X94210000Y-156320000D03*
D25*
X117955000Y-68495000D03*
X119605000Y-68495000D03*
D49*
X60450000Y-116040000D03*
X60450000Y-114040000D03*
D31*
X59630000Y-50950000D03*
X58080000Y-50950000D03*
D26*
X83040000Y-76690000D03*
X81390000Y-76690000D03*
D49*
X91360000Y-114370000D03*
X91360000Y-112370000D03*
D32*
X104120000Y-89310000D03*
D23*
X119800000Y-102880000D03*
X117800000Y-102880000D03*
D26*
X67675000Y-74500000D03*
X66025000Y-74500000D03*
D56*
X60600000Y-78990000D03*
X60600000Y-77970000D03*
D35*
X61825000Y-81150000D03*
X63975000Y-81150000D03*
D24*
X73550000Y-61000000D03*
X75100000Y-61000000D03*
D49*
X91340000Y-138330000D03*
X91340000Y-136330000D03*
D37*
X115070000Y-51695000D03*
X115070000Y-52965000D03*
X115070000Y-54235000D03*
X115070000Y-55505000D03*
X110120000Y-55505000D03*
X110120000Y-54235000D03*
X110120000Y-52965000D03*
X110120000Y-51695000D03*
D56*
X84790000Y-90800000D03*
X84790000Y-89780000D03*
D57*
X95395000Y-134980000D03*
X93245000Y-134980000D03*
D26*
X108115000Y-89410000D03*
X106465000Y-89410000D03*
D32*
X119320000Y-108530000D03*
D33*
X119780000Y-121440000D03*
D58*
X118780000Y-118190000D03*
D33*
X117780000Y-121440000D03*
D12*
X104680000Y-152870000D03*
D59*
X66100000Y-104825000D03*
X66100000Y-106475000D03*
D60*
X91450000Y-118235000D03*
X91450000Y-116160000D03*
D35*
X58465000Y-127230000D03*
X60615000Y-127230000D03*
D31*
X101710000Y-52020000D03*
X100160000Y-52020000D03*
D61*
X58945000Y-60210000D03*
X57595000Y-60210000D03*
D12*
X104710000Y-156570000D03*
D24*
X89665000Y-125970000D03*
X91215000Y-125970000D03*
D62*
X87860000Y-87680000D03*
X86840000Y-87680000D03*
D63*
X61750000Y-84325000D03*
X61750000Y-89725000D03*
D49*
X70200000Y-100450000D03*
X70200000Y-98450000D03*
D32*
X101580000Y-139140000D03*
D29*
X57690000Y-76175000D03*
X57690000Y-74625000D03*
D49*
X77650000Y-62075000D03*
X77650000Y-60075000D03*
D44*
X52020000Y-153740000D03*
X52020000Y-155890000D03*
D38*
X82910000Y-128950000D03*
X84910000Y-128950000D03*
X88810000Y-131090000D03*
X90810000Y-131090000D03*
D40*
X63650000Y-60150000D03*
X63650000Y-61700000D03*
D31*
X62120000Y-60200000D03*
X60570000Y-60200000D03*
D64*
X77050000Y-128437500D03*
X75150000Y-128437500D03*
X76100000Y-126562500D03*
D25*
X61450000Y-105725000D03*
X63100000Y-105725000D03*
D29*
X110240000Y-64765000D03*
X110240000Y-63215000D03*
D25*
X117985000Y-137910000D03*
X119635000Y-137910000D03*
D26*
X108185000Y-115430000D03*
X106535000Y-115430000D03*
D55*
X75750000Y-156260000D03*
D37*
X115655000Y-66290000D03*
X115655000Y-67560000D03*
X115655000Y-68830000D03*
X115655000Y-70100000D03*
X110705000Y-70100000D03*
X110705000Y-68830000D03*
X110705000Y-67560000D03*
X110705000Y-66290000D03*
D31*
X118925000Y-80250000D03*
X117375000Y-80250000D03*
D49*
X54780000Y-74510000D03*
X54780000Y-72510000D03*
D65*
X75775000Y-96512500D03*
X75125000Y-96512500D03*
X74475000Y-96512500D03*
X73825000Y-96512500D03*
X73175000Y-96512500D03*
X72525000Y-96512500D03*
X71875000Y-96512500D03*
X71225000Y-96512500D03*
X71225000Y-90787500D03*
X71875000Y-90787500D03*
X72525000Y-90787500D03*
X73175000Y-90787500D03*
X73825000Y-90787500D03*
X74475000Y-90787500D03*
X75125000Y-90787500D03*
X75775000Y-90787500D03*
D49*
X86980000Y-129190000D03*
X86980000Y-127190000D03*
D31*
X118815000Y-55510000D03*
X117265000Y-55510000D03*
D30*
X113700000Y-123260000D03*
X113700000Y-125260000D03*
D38*
X90690000Y-105040000D03*
X92690000Y-105040000D03*
D26*
X116140000Y-158010000D03*
X114490000Y-158010000D03*
D33*
X115245000Y-59940000D03*
D34*
X118495000Y-58940000D03*
D33*
X115245000Y-57940000D03*
D24*
X114385000Y-71760000D03*
X115935000Y-71760000D03*
D31*
X107870000Y-128340000D03*
X106320000Y-128340000D03*
D25*
X115855000Y-64520000D03*
X117505000Y-64520000D03*
D33*
X109890000Y-57900000D03*
D34*
X106640000Y-58900000D03*
D33*
X109890000Y-59900000D03*
D12*
X90040000Y-148790000D03*
D50*
X85710000Y-109405000D03*
X86980000Y-109405000D03*
X88250000Y-109405000D03*
X89520000Y-109405000D03*
X89520000Y-114355000D03*
X88250000Y-114355000D03*
X86980000Y-114355000D03*
X85710000Y-114355000D03*
D66*
X53100000Y-99500000D03*
D67*
X55640000Y-99500000D03*
X53100000Y-96960000D03*
X55640000Y-96960000D03*
X53100000Y-94420000D03*
X55640000Y-94420000D03*
X53100000Y-91880000D03*
X55640000Y-91880000D03*
X53100000Y-89340000D03*
X55640000Y-89340000D03*
D12*
X54370000Y-118140000D03*
D26*
X85250000Y-78300000D03*
X83600000Y-78300000D03*
D57*
X95900000Y-125050000D03*
X93750000Y-125050000D03*
D23*
X76240000Y-55330000D03*
X74240000Y-55330000D03*
D31*
X68065000Y-98470000D03*
X66515000Y-98470000D03*
D25*
X70305000Y-121660000D03*
X71955000Y-121660000D03*
D24*
X111130000Y-94230000D03*
X112680000Y-94230000D03*
X109685000Y-113340000D03*
X111235000Y-113340000D03*
D23*
X90790000Y-107080000D03*
X88790000Y-107080000D03*
D57*
X55212500Y-104550000D03*
X53062500Y-104550000D03*
D23*
X86940000Y-70820000D03*
X84940000Y-70820000D03*
D68*
X58440000Y-112932500D03*
X58440000Y-110782500D03*
D57*
X95900000Y-122980000D03*
X93750000Y-122980000D03*
D33*
X113960000Y-148030000D03*
D58*
X112960000Y-144780000D03*
D33*
X111960000Y-148030000D03*
D24*
X51525000Y-137000000D03*
X53075000Y-137000000D03*
X51575000Y-149030000D03*
X53125000Y-149030000D03*
D29*
X91140000Y-110430000D03*
X91140000Y-108880000D03*
D59*
X117710000Y-134265000D03*
X117710000Y-135915000D03*
D12*
X102830000Y-117090000D03*
D40*
X73050000Y-68725000D03*
X73050000Y-70275000D03*
D23*
X114370000Y-62610000D03*
X112370000Y-62610000D03*
D31*
X85700000Y-140940000D03*
X84150000Y-140940000D03*
D27*
X66100000Y-101625000D03*
X66100000Y-99975000D03*
D26*
X60070000Y-105370000D03*
X58420000Y-105370000D03*
D25*
X60835000Y-107260000D03*
X62485000Y-107260000D03*
D35*
X64287500Y-127250000D03*
X66437500Y-127250000D03*
D31*
X86650000Y-118900000D03*
X85100000Y-118900000D03*
D25*
X56020000Y-53150000D03*
X57670000Y-53150000D03*
D38*
X79070000Y-63960000D03*
X81070000Y-63960000D03*
D31*
X119005000Y-132140000D03*
X117455000Y-132140000D03*
D27*
X75700000Y-105500000D03*
X75700000Y-103850000D03*
D25*
X110965000Y-156390000D03*
X112615000Y-156390000D03*
D12*
X78050000Y-69850000D03*
D38*
X56765000Y-65425000D03*
X58765000Y-65425000D03*
D24*
X106685000Y-137830000D03*
X108235000Y-137830000D03*
D31*
X70465000Y-117960000D03*
X68915000Y-117960000D03*
D29*
X110470000Y-86785000D03*
X110470000Y-85235000D03*
D26*
X116135000Y-156390000D03*
X114485000Y-156390000D03*
D27*
X53000000Y-71425000D03*
X53000000Y-69775000D03*
D35*
X93277500Y-113170000D03*
X95427500Y-113170000D03*
D26*
X73125000Y-132900000D03*
X71475000Y-132900000D03*
X86795000Y-131080000D03*
X85145000Y-131080000D03*
D57*
X95402500Y-111080000D03*
X93252500Y-111080000D03*
D31*
X54985000Y-67840000D03*
X53435000Y-67840000D03*
D59*
X53050000Y-110875000D03*
X53050000Y-112525000D03*
D66*
X52040000Y-51930000D03*
D67*
X52040000Y-54470000D03*
D31*
X64950000Y-58670000D03*
X63400000Y-58670000D03*
D23*
X111080000Y-83400000D03*
X109080000Y-83400000D03*
D69*
X54895000Y-54780000D03*
X56645000Y-54780000D03*
D24*
X114275000Y-95760000D03*
X115825000Y-95760000D03*
D25*
X70175000Y-138410000D03*
X71825000Y-138410000D03*
X106625000Y-65980000D03*
X108275000Y-65980000D03*
D70*
X72050000Y-61000000D03*
X72050000Y-61400000D03*
X72050000Y-61800000D03*
X72050000Y-62200000D03*
X72050000Y-62600000D03*
X72050000Y-63000000D03*
X72050000Y-63400000D03*
X72050000Y-63800000D03*
X72050000Y-64200000D03*
X72050000Y-64600000D03*
X72050000Y-65000000D03*
X72050000Y-65400000D03*
X72050000Y-65800000D03*
X72050000Y-66200000D03*
D71*
X71212500Y-67037500D03*
X70812500Y-67037500D03*
X70412500Y-67037500D03*
X70012500Y-67037500D03*
X69612500Y-67037500D03*
X69212500Y-67037500D03*
X68812500Y-67037500D03*
X68412500Y-67037500D03*
X68012500Y-67037500D03*
X67612500Y-67037500D03*
X67212500Y-67037500D03*
X66812500Y-67037500D03*
X66412500Y-67037500D03*
X66012500Y-67037500D03*
D70*
X65175000Y-66200000D03*
X65175000Y-65800000D03*
X65175000Y-65400000D03*
X65175000Y-65000000D03*
X65175000Y-64600000D03*
X65175000Y-64200000D03*
X65175000Y-63800000D03*
X65175000Y-63400000D03*
X65175000Y-63000000D03*
X65175000Y-62600000D03*
X65175000Y-62200000D03*
X65175000Y-61800000D03*
X65175000Y-61400000D03*
X65175000Y-61000000D03*
D71*
X66012500Y-60162500D03*
X66412500Y-60162500D03*
X66812500Y-60162500D03*
X67212500Y-60162500D03*
X67612500Y-60162500D03*
X68012500Y-60162500D03*
X68412500Y-60162500D03*
X68812500Y-60162500D03*
X69212500Y-60162500D03*
X69612500Y-60162500D03*
X70012500Y-60162500D03*
X70412500Y-60162500D03*
X70812500Y-60162500D03*
X71212500Y-60162500D03*
D72*
X68612500Y-63600000D03*
D38*
X88840000Y-129100000D03*
X90840000Y-129100000D03*
D33*
X119740000Y-95345000D03*
D58*
X118740000Y-92095000D03*
D33*
X117740000Y-95345000D03*
D27*
X75010000Y-68730000D03*
X75010000Y-67080000D03*
D73*
X75700000Y-107300000D03*
X77600000Y-107300000D03*
X76650000Y-109175000D03*
D35*
X53025000Y-102350000D03*
X55175000Y-102350000D03*
D25*
X117845000Y-116225000D03*
X119495000Y-116225000D03*
D38*
X82440000Y-124200000D03*
X84440000Y-124200000D03*
D37*
X115350000Y-101600000D03*
X115350000Y-102870000D03*
X115350000Y-104140000D03*
X115350000Y-105410000D03*
X110400000Y-105410000D03*
X110400000Y-104140000D03*
X110400000Y-102870000D03*
X110400000Y-101600000D03*
D26*
X108265000Y-71960000D03*
X106615000Y-71960000D03*
D44*
X56330000Y-110847500D03*
X56330000Y-112997500D03*
D31*
X70155000Y-88940000D03*
X68605000Y-88940000D03*
D32*
X103830000Y-141770000D03*
D74*
X58725000Y-103655000D03*
X58725000Y-102385000D03*
X58725000Y-101115000D03*
X58725000Y-99845000D03*
X63675000Y-99845000D03*
X63675000Y-101115000D03*
X63675000Y-102385000D03*
X63675000Y-103655000D03*
D49*
X62450000Y-127250000D03*
X62450000Y-125250000D03*
D46*
X69762500Y-81350000D03*
X69762500Y-79450000D03*
X71637500Y-80400000D03*
D12*
X78050000Y-75650000D03*
D30*
X89340000Y-116540000D03*
X89340000Y-118540000D03*
D73*
X73850000Y-143862500D03*
X75750000Y-143862500D03*
X74800000Y-145737500D03*
D49*
X60450000Y-152060000D03*
X60450000Y-150060000D03*
D26*
X71425000Y-84750000D03*
X69775000Y-84750000D03*
D59*
X117720000Y-110515000D03*
X117720000Y-112165000D03*
D57*
X83185000Y-132890000D03*
X81035000Y-132890000D03*
D31*
X108135000Y-76440000D03*
X106585000Y-76440000D03*
D38*
X106080000Y-130295000D03*
X108080000Y-130295000D03*
X106100000Y-104130000D03*
X108100000Y-104130000D03*
D25*
X70035000Y-109680000D03*
X71685000Y-109680000D03*
D23*
X119380000Y-52970000D03*
X117380000Y-52970000D03*
D55*
X59400000Y-157000000D03*
D31*
X108200000Y-101630000D03*
X106650000Y-101630000D03*
D26*
X86795000Y-107070000D03*
X85145000Y-107070000D03*
D29*
X70150000Y-104575000D03*
X70150000Y-103025000D03*
D75*
X71300000Y-70575000D03*
X69200000Y-70575000D03*
X69200000Y-68675000D03*
X71300000Y-68675000D03*
D27*
X78700000Y-124325000D03*
X78700000Y-122675000D03*
D38*
X105825000Y-79005000D03*
X107825000Y-79005000D03*
X112520000Y-135370000D03*
X114520000Y-135370000D03*
D40*
X62970000Y-67035000D03*
X62970000Y-68585000D03*
D24*
X53525000Y-124950000D03*
X55075000Y-124950000D03*
D38*
X51050000Y-86450000D03*
X53050000Y-86450000D03*
D40*
X118050000Y-153200000D03*
X118050000Y-154750000D03*
D31*
X107860000Y-52170000D03*
X106310000Y-52170000D03*
D33*
X96425000Y-149010000D03*
D34*
X99675000Y-148010000D03*
D33*
X96425000Y-147010000D03*
D26*
X80535000Y-135200000D03*
X78885000Y-135200000D03*
D25*
X70395000Y-145820000D03*
X72045000Y-145820000D03*
D26*
X108285000Y-142860000D03*
X106635000Y-142860000D03*
D23*
X119550000Y-129610000D03*
X117550000Y-129610000D03*
D60*
X91350000Y-142175000D03*
X91350000Y-140100000D03*
D32*
X97640000Y-74650000D03*
D26*
X52975000Y-135150000D03*
X51325000Y-135150000D03*
D40*
X72550000Y-98825000D03*
X72550000Y-100375000D03*
D38*
X105720000Y-54225000D03*
X107720000Y-54225000D03*
D76*
X57760000Y-72390000D03*
X57760000Y-68115000D03*
D35*
X64685000Y-139260000D03*
X66835000Y-139260000D03*
D46*
X75000000Y-140000000D03*
X75000000Y-138100000D03*
X76875000Y-139050000D03*
D12*
X78170000Y-142690000D03*
D49*
X88800000Y-105190000D03*
X88800000Y-103190000D03*
D77*
X59500000Y-95350000D03*
X64900000Y-95350000D03*
D38*
X56740000Y-62950000D03*
X58740000Y-62950000D03*
D40*
X66575000Y-90225000D03*
X66575000Y-91775000D03*
D55*
X68375000Y-157000000D03*
D57*
X80752500Y-130610000D03*
X78602500Y-130610000D03*
M02*
