%TF.GenerationSoftware,KiCad,Pcbnew,8.0.5*%
%TF.CreationDate,2025-01-26T22:40:45-08:00*%
%TF.ProjectId,main_board,6d61696e-5f62-46f6-9172-642e6b696361,1.0*%
%TF.SameCoordinates,Original*%
%TF.FileFunction,Legend,Top*%
%TF.FilePolarity,Positive*%
%FSLAX46Y46*%
G04 Gerber Fmt 4.6, Leading zero omitted, Abs format (unit mm)*
G04 Created by KiCad (PCBNEW 8.0.5) date 2025-01-26 22:40:45*
%MOMM*%
%LPD*%
G01*
G04 APERTURE LIST*
%ADD10C,0.150000*%
%ADD11C,0.120000*%
%ADD12C,0.200000*%
%ADD13C,0.127000*%
%ADD14C,0.100000*%
G04 APERTURE END LIST*
D10*
X101775714Y-121654819D02*
X101775714Y-120654819D01*
X101775714Y-120654819D02*
X102013809Y-120654819D01*
X102013809Y-120654819D02*
X102156666Y-120702438D01*
X102156666Y-120702438D02*
X102251904Y-120797676D01*
X102251904Y-120797676D02*
X102299523Y-120892914D01*
X102299523Y-120892914D02*
X102347142Y-121083390D01*
X102347142Y-121083390D02*
X102347142Y-121226247D01*
X102347142Y-121226247D02*
X102299523Y-121416723D01*
X102299523Y-121416723D02*
X102251904Y-121511961D01*
X102251904Y-121511961D02*
X102156666Y-121607200D01*
X102156666Y-121607200D02*
X102013809Y-121654819D01*
X102013809Y-121654819D02*
X101775714Y-121654819D01*
X102680476Y-120654819D02*
X103299523Y-120654819D01*
X103299523Y-120654819D02*
X102966190Y-121035771D01*
X102966190Y-121035771D02*
X103109047Y-121035771D01*
X103109047Y-121035771D02*
X103204285Y-121083390D01*
X103204285Y-121083390D02*
X103251904Y-121131009D01*
X103251904Y-121131009D02*
X103299523Y-121226247D01*
X103299523Y-121226247D02*
X103299523Y-121464342D01*
X103299523Y-121464342D02*
X103251904Y-121559580D01*
X103251904Y-121559580D02*
X103204285Y-121607200D01*
X103204285Y-121607200D02*
X103109047Y-121654819D01*
X103109047Y-121654819D02*
X102823333Y-121654819D01*
X102823333Y-121654819D02*
X102728095Y-121607200D01*
X102728095Y-121607200D02*
X102680476Y-121559580D01*
X104156666Y-120988152D02*
X104156666Y-121654819D01*
X103918571Y-120607200D02*
X103680476Y-121321485D01*
X103680476Y-121321485D02*
X104299523Y-121321485D01*
X105590476Y-54157200D02*
X105733333Y-54204819D01*
X105733333Y-54204819D02*
X105971428Y-54204819D01*
X105971428Y-54204819D02*
X106066666Y-54157200D01*
X106066666Y-54157200D02*
X106114285Y-54109580D01*
X106114285Y-54109580D02*
X106161904Y-54014342D01*
X106161904Y-54014342D02*
X106161904Y-53919104D01*
X106161904Y-53919104D02*
X106114285Y-53823866D01*
X106114285Y-53823866D02*
X106066666Y-53776247D01*
X106066666Y-53776247D02*
X105971428Y-53728628D01*
X105971428Y-53728628D02*
X105780952Y-53681009D01*
X105780952Y-53681009D02*
X105685714Y-53633390D01*
X105685714Y-53633390D02*
X105638095Y-53585771D01*
X105638095Y-53585771D02*
X105590476Y-53490533D01*
X105590476Y-53490533D02*
X105590476Y-53395295D01*
X105590476Y-53395295D02*
X105638095Y-53300057D01*
X105638095Y-53300057D02*
X105685714Y-53252438D01*
X105685714Y-53252438D02*
X105780952Y-53204819D01*
X105780952Y-53204819D02*
X106019047Y-53204819D01*
X106019047Y-53204819D02*
X106161904Y-53252438D01*
X106495238Y-53204819D02*
X106733333Y-54204819D01*
X106733333Y-54204819D02*
X106923809Y-53490533D01*
X106923809Y-53490533D02*
X107114285Y-54204819D01*
X107114285Y-54204819D02*
X107352381Y-53204819D01*
X108257142Y-54204819D02*
X107685714Y-54204819D01*
X107971428Y-54204819D02*
X107971428Y-53204819D01*
X107971428Y-53204819D02*
X107876190Y-53347676D01*
X107876190Y-53347676D02*
X107780952Y-53442914D01*
X107780952Y-53442914D02*
X107685714Y-53490533D01*
X108828571Y-53633390D02*
X108733333Y-53585771D01*
X108733333Y-53585771D02*
X108685714Y-53538152D01*
X108685714Y-53538152D02*
X108638095Y-53442914D01*
X108638095Y-53442914D02*
X108638095Y-53395295D01*
X108638095Y-53395295D02*
X108685714Y-53300057D01*
X108685714Y-53300057D02*
X108733333Y-53252438D01*
X108733333Y-53252438D02*
X108828571Y-53204819D01*
X108828571Y-53204819D02*
X109019047Y-53204819D01*
X109019047Y-53204819D02*
X109114285Y-53252438D01*
X109114285Y-53252438D02*
X109161904Y-53300057D01*
X109161904Y-53300057D02*
X109209523Y-53395295D01*
X109209523Y-53395295D02*
X109209523Y-53442914D01*
X109209523Y-53442914D02*
X109161904Y-53538152D01*
X109161904Y-53538152D02*
X109114285Y-53585771D01*
X109114285Y-53585771D02*
X109019047Y-53633390D01*
X109019047Y-53633390D02*
X108828571Y-53633390D01*
X108828571Y-53633390D02*
X108733333Y-53681009D01*
X108733333Y-53681009D02*
X108685714Y-53728628D01*
X108685714Y-53728628D02*
X108638095Y-53823866D01*
X108638095Y-53823866D02*
X108638095Y-54014342D01*
X108638095Y-54014342D02*
X108685714Y-54109580D01*
X108685714Y-54109580D02*
X108733333Y-54157200D01*
X108733333Y-54157200D02*
X108828571Y-54204819D01*
X108828571Y-54204819D02*
X109019047Y-54204819D01*
X109019047Y-54204819D02*
X109114285Y-54157200D01*
X109114285Y-54157200D02*
X109161904Y-54109580D01*
X109161904Y-54109580D02*
X109209523Y-54014342D01*
X109209523Y-54014342D02*
X109209523Y-53823866D01*
X109209523Y-53823866D02*
X109161904Y-53728628D01*
X109161904Y-53728628D02*
X109114285Y-53681009D01*
X109114285Y-53681009D02*
X109019047Y-53633390D01*
X94760476Y-141907200D02*
X94903333Y-141954819D01*
X94903333Y-141954819D02*
X95141428Y-141954819D01*
X95141428Y-141954819D02*
X95236666Y-141907200D01*
X95236666Y-141907200D02*
X95284285Y-141859580D01*
X95284285Y-141859580D02*
X95331904Y-141764342D01*
X95331904Y-141764342D02*
X95331904Y-141669104D01*
X95331904Y-141669104D02*
X95284285Y-141573866D01*
X95284285Y-141573866D02*
X95236666Y-141526247D01*
X95236666Y-141526247D02*
X95141428Y-141478628D01*
X95141428Y-141478628D02*
X94950952Y-141431009D01*
X94950952Y-141431009D02*
X94855714Y-141383390D01*
X94855714Y-141383390D02*
X94808095Y-141335771D01*
X94808095Y-141335771D02*
X94760476Y-141240533D01*
X94760476Y-141240533D02*
X94760476Y-141145295D01*
X94760476Y-141145295D02*
X94808095Y-141050057D01*
X94808095Y-141050057D02*
X94855714Y-141002438D01*
X94855714Y-141002438D02*
X94950952Y-140954819D01*
X94950952Y-140954819D02*
X95189047Y-140954819D01*
X95189047Y-140954819D02*
X95331904Y-141002438D01*
X95665238Y-140954819D02*
X95903333Y-141954819D01*
X95903333Y-141954819D02*
X96093809Y-141240533D01*
X96093809Y-141240533D02*
X96284285Y-141954819D01*
X96284285Y-141954819D02*
X96522381Y-140954819D01*
X97427142Y-141954819D02*
X96855714Y-141954819D01*
X97141428Y-141954819D02*
X97141428Y-140954819D01*
X97141428Y-140954819D02*
X97046190Y-141097676D01*
X97046190Y-141097676D02*
X96950952Y-141192914D01*
X96950952Y-141192914D02*
X96855714Y-141240533D01*
X98284285Y-140954819D02*
X98093809Y-140954819D01*
X98093809Y-140954819D02*
X97998571Y-141002438D01*
X97998571Y-141002438D02*
X97950952Y-141050057D01*
X97950952Y-141050057D02*
X97855714Y-141192914D01*
X97855714Y-141192914D02*
X97808095Y-141383390D01*
X97808095Y-141383390D02*
X97808095Y-141764342D01*
X97808095Y-141764342D02*
X97855714Y-141859580D01*
X97855714Y-141859580D02*
X97903333Y-141907200D01*
X97903333Y-141907200D02*
X97998571Y-141954819D01*
X97998571Y-141954819D02*
X98189047Y-141954819D01*
X98189047Y-141954819D02*
X98284285Y-141907200D01*
X98284285Y-141907200D02*
X98331904Y-141859580D01*
X98331904Y-141859580D02*
X98379523Y-141764342D01*
X98379523Y-141764342D02*
X98379523Y-141526247D01*
X98379523Y-141526247D02*
X98331904Y-141431009D01*
X98331904Y-141431009D02*
X98284285Y-141383390D01*
X98284285Y-141383390D02*
X98189047Y-141335771D01*
X98189047Y-141335771D02*
X97998571Y-141335771D01*
X97998571Y-141335771D02*
X97903333Y-141383390D01*
X97903333Y-141383390D02*
X97855714Y-141431009D01*
X97855714Y-141431009D02*
X97808095Y-141526247D01*
X94560476Y-154107200D02*
X94703333Y-154154819D01*
X94703333Y-154154819D02*
X94941428Y-154154819D01*
X94941428Y-154154819D02*
X95036666Y-154107200D01*
X95036666Y-154107200D02*
X95084285Y-154059580D01*
X95084285Y-154059580D02*
X95131904Y-153964342D01*
X95131904Y-153964342D02*
X95131904Y-153869104D01*
X95131904Y-153869104D02*
X95084285Y-153773866D01*
X95084285Y-153773866D02*
X95036666Y-153726247D01*
X95036666Y-153726247D02*
X94941428Y-153678628D01*
X94941428Y-153678628D02*
X94750952Y-153631009D01*
X94750952Y-153631009D02*
X94655714Y-153583390D01*
X94655714Y-153583390D02*
X94608095Y-153535771D01*
X94608095Y-153535771D02*
X94560476Y-153440533D01*
X94560476Y-153440533D02*
X94560476Y-153345295D01*
X94560476Y-153345295D02*
X94608095Y-153250057D01*
X94608095Y-153250057D02*
X94655714Y-153202438D01*
X94655714Y-153202438D02*
X94750952Y-153154819D01*
X94750952Y-153154819D02*
X94989047Y-153154819D01*
X94989047Y-153154819D02*
X95131904Y-153202438D01*
X95465238Y-153154819D02*
X95703333Y-154154819D01*
X95703333Y-154154819D02*
X95893809Y-153440533D01*
X95893809Y-153440533D02*
X96084285Y-154154819D01*
X96084285Y-154154819D02*
X96322381Y-153154819D01*
X97227142Y-154154819D02*
X96655714Y-154154819D01*
X96941428Y-154154819D02*
X96941428Y-153154819D01*
X96941428Y-153154819D02*
X96846190Y-153297676D01*
X96846190Y-153297676D02*
X96750952Y-153392914D01*
X96750952Y-153392914D02*
X96655714Y-153440533D01*
X97560476Y-153154819D02*
X98227142Y-153154819D01*
X98227142Y-153154819D02*
X97798571Y-154154819D01*
X105424819Y-151309523D02*
X106139104Y-151309523D01*
X106139104Y-151309523D02*
X106281961Y-151357142D01*
X106281961Y-151357142D02*
X106377200Y-151452380D01*
X106377200Y-151452380D02*
X106424819Y-151595237D01*
X106424819Y-151595237D02*
X106424819Y-151690475D01*
X106424819Y-150309523D02*
X106424819Y-150880951D01*
X106424819Y-150595237D02*
X105424819Y-150595237D01*
X105424819Y-150595237D02*
X105567676Y-150690475D01*
X105567676Y-150690475D02*
X105662914Y-150785713D01*
X105662914Y-150785713D02*
X105710533Y-150880951D01*
X105424819Y-149404761D02*
X105424819Y-149880951D01*
X105424819Y-149880951D02*
X105901009Y-149928570D01*
X105901009Y-149928570D02*
X105853390Y-149880951D01*
X105853390Y-149880951D02*
X105805771Y-149785713D01*
X105805771Y-149785713D02*
X105805771Y-149547618D01*
X105805771Y-149547618D02*
X105853390Y-149452380D01*
X105853390Y-149452380D02*
X105901009Y-149404761D01*
X105901009Y-149404761D02*
X105996247Y-149357142D01*
X105996247Y-149357142D02*
X106234342Y-149357142D01*
X106234342Y-149357142D02*
X106329580Y-149404761D01*
X106329580Y-149404761D02*
X106377200Y-149452380D01*
X106377200Y-149452380D02*
X106424819Y-149547618D01*
X106424819Y-149547618D02*
X106424819Y-149785713D01*
X106424819Y-149785713D02*
X106377200Y-149880951D01*
X106377200Y-149880951D02*
X106329580Y-149928570D01*
X94710476Y-68307200D02*
X94853333Y-68354819D01*
X94853333Y-68354819D02*
X95091428Y-68354819D01*
X95091428Y-68354819D02*
X95186666Y-68307200D01*
X95186666Y-68307200D02*
X95234285Y-68259580D01*
X95234285Y-68259580D02*
X95281904Y-68164342D01*
X95281904Y-68164342D02*
X95281904Y-68069104D01*
X95281904Y-68069104D02*
X95234285Y-67973866D01*
X95234285Y-67973866D02*
X95186666Y-67926247D01*
X95186666Y-67926247D02*
X95091428Y-67878628D01*
X95091428Y-67878628D02*
X94900952Y-67831009D01*
X94900952Y-67831009D02*
X94805714Y-67783390D01*
X94805714Y-67783390D02*
X94758095Y-67735771D01*
X94758095Y-67735771D02*
X94710476Y-67640533D01*
X94710476Y-67640533D02*
X94710476Y-67545295D01*
X94710476Y-67545295D02*
X94758095Y-67450057D01*
X94758095Y-67450057D02*
X94805714Y-67402438D01*
X94805714Y-67402438D02*
X94900952Y-67354819D01*
X94900952Y-67354819D02*
X95139047Y-67354819D01*
X95139047Y-67354819D02*
X95281904Y-67402438D01*
X95615238Y-67354819D02*
X95853333Y-68354819D01*
X95853333Y-68354819D02*
X96043809Y-67640533D01*
X96043809Y-67640533D02*
X96234285Y-68354819D01*
X96234285Y-68354819D02*
X96472381Y-67354819D01*
X97377142Y-68354819D02*
X96805714Y-68354819D01*
X97091428Y-68354819D02*
X97091428Y-67354819D01*
X97091428Y-67354819D02*
X96996190Y-67497676D01*
X96996190Y-67497676D02*
X96900952Y-67592914D01*
X96900952Y-67592914D02*
X96805714Y-67640533D01*
X97996190Y-67354819D02*
X98091428Y-67354819D01*
X98091428Y-67354819D02*
X98186666Y-67402438D01*
X98186666Y-67402438D02*
X98234285Y-67450057D01*
X98234285Y-67450057D02*
X98281904Y-67545295D01*
X98281904Y-67545295D02*
X98329523Y-67735771D01*
X98329523Y-67735771D02*
X98329523Y-67973866D01*
X98329523Y-67973866D02*
X98281904Y-68164342D01*
X98281904Y-68164342D02*
X98234285Y-68259580D01*
X98234285Y-68259580D02*
X98186666Y-68307200D01*
X98186666Y-68307200D02*
X98091428Y-68354819D01*
X98091428Y-68354819D02*
X97996190Y-68354819D01*
X97996190Y-68354819D02*
X97900952Y-68307200D01*
X97900952Y-68307200D02*
X97853333Y-68259580D01*
X97853333Y-68259580D02*
X97805714Y-68164342D01*
X97805714Y-68164342D02*
X97758095Y-67973866D01*
X97758095Y-67973866D02*
X97758095Y-67735771D01*
X97758095Y-67735771D02*
X97805714Y-67545295D01*
X97805714Y-67545295D02*
X97853333Y-67450057D01*
X97853333Y-67450057D02*
X97900952Y-67402438D01*
X97900952Y-67402438D02*
X97996190Y-67354819D01*
X101655714Y-59824819D02*
X101655714Y-58824819D01*
X101655714Y-58824819D02*
X101893809Y-58824819D01*
X101893809Y-58824819D02*
X102036666Y-58872438D01*
X102036666Y-58872438D02*
X102131904Y-58967676D01*
X102131904Y-58967676D02*
X102179523Y-59062914D01*
X102179523Y-59062914D02*
X102227142Y-59253390D01*
X102227142Y-59253390D02*
X102227142Y-59396247D01*
X102227142Y-59396247D02*
X102179523Y-59586723D01*
X102179523Y-59586723D02*
X102131904Y-59681961D01*
X102131904Y-59681961D02*
X102036666Y-59777200D01*
X102036666Y-59777200D02*
X101893809Y-59824819D01*
X101893809Y-59824819D02*
X101655714Y-59824819D01*
X102608095Y-58920057D02*
X102655714Y-58872438D01*
X102655714Y-58872438D02*
X102750952Y-58824819D01*
X102750952Y-58824819D02*
X102989047Y-58824819D01*
X102989047Y-58824819D02*
X103084285Y-58872438D01*
X103084285Y-58872438D02*
X103131904Y-58920057D01*
X103131904Y-58920057D02*
X103179523Y-59015295D01*
X103179523Y-59015295D02*
X103179523Y-59110533D01*
X103179523Y-59110533D02*
X103131904Y-59253390D01*
X103131904Y-59253390D02*
X102560476Y-59824819D01*
X102560476Y-59824819D02*
X103179523Y-59824819D01*
X104084285Y-58824819D02*
X103608095Y-58824819D01*
X103608095Y-58824819D02*
X103560476Y-59301009D01*
X103560476Y-59301009D02*
X103608095Y-59253390D01*
X103608095Y-59253390D02*
X103703333Y-59205771D01*
X103703333Y-59205771D02*
X103941428Y-59205771D01*
X103941428Y-59205771D02*
X104036666Y-59253390D01*
X104036666Y-59253390D02*
X104084285Y-59301009D01*
X104084285Y-59301009D02*
X104131904Y-59396247D01*
X104131904Y-59396247D02*
X104131904Y-59634342D01*
X104131904Y-59634342D02*
X104084285Y-59729580D01*
X104084285Y-59729580D02*
X104036666Y-59777200D01*
X104036666Y-59777200D02*
X103941428Y-59824819D01*
X103941428Y-59824819D02*
X103703333Y-59824819D01*
X103703333Y-59824819D02*
X103608095Y-59777200D01*
X103608095Y-59777200D02*
X103560476Y-59729580D01*
X94760476Y-130007200D02*
X94903333Y-130054819D01*
X94903333Y-130054819D02*
X95141428Y-130054819D01*
X95141428Y-130054819D02*
X95236666Y-130007200D01*
X95236666Y-130007200D02*
X95284285Y-129959580D01*
X95284285Y-129959580D02*
X95331904Y-129864342D01*
X95331904Y-129864342D02*
X95331904Y-129769104D01*
X95331904Y-129769104D02*
X95284285Y-129673866D01*
X95284285Y-129673866D02*
X95236666Y-129626247D01*
X95236666Y-129626247D02*
X95141428Y-129578628D01*
X95141428Y-129578628D02*
X94950952Y-129531009D01*
X94950952Y-129531009D02*
X94855714Y-129483390D01*
X94855714Y-129483390D02*
X94808095Y-129435771D01*
X94808095Y-129435771D02*
X94760476Y-129340533D01*
X94760476Y-129340533D02*
X94760476Y-129245295D01*
X94760476Y-129245295D02*
X94808095Y-129150057D01*
X94808095Y-129150057D02*
X94855714Y-129102438D01*
X94855714Y-129102438D02*
X94950952Y-129054819D01*
X94950952Y-129054819D02*
X95189047Y-129054819D01*
X95189047Y-129054819D02*
X95331904Y-129102438D01*
X95665238Y-129054819D02*
X95903333Y-130054819D01*
X95903333Y-130054819D02*
X96093809Y-129340533D01*
X96093809Y-129340533D02*
X96284285Y-130054819D01*
X96284285Y-130054819D02*
X96522381Y-129054819D01*
X97427142Y-130054819D02*
X96855714Y-130054819D01*
X97141428Y-130054819D02*
X97141428Y-129054819D01*
X97141428Y-129054819D02*
X97046190Y-129197676D01*
X97046190Y-129197676D02*
X96950952Y-129292914D01*
X96950952Y-129292914D02*
X96855714Y-129340533D01*
X98331904Y-129054819D02*
X97855714Y-129054819D01*
X97855714Y-129054819D02*
X97808095Y-129531009D01*
X97808095Y-129531009D02*
X97855714Y-129483390D01*
X97855714Y-129483390D02*
X97950952Y-129435771D01*
X97950952Y-129435771D02*
X98189047Y-129435771D01*
X98189047Y-129435771D02*
X98284285Y-129483390D01*
X98284285Y-129483390D02*
X98331904Y-129531009D01*
X98331904Y-129531009D02*
X98379523Y-129626247D01*
X98379523Y-129626247D02*
X98379523Y-129864342D01*
X98379523Y-129864342D02*
X98331904Y-129959580D01*
X98331904Y-129959580D02*
X98284285Y-130007200D01*
X98284285Y-130007200D02*
X98189047Y-130054819D01*
X98189047Y-130054819D02*
X97950952Y-130054819D01*
X97950952Y-130054819D02*
X97855714Y-130007200D01*
X97855714Y-130007200D02*
X97808095Y-129959580D01*
X101775714Y-145654819D02*
X101775714Y-144654819D01*
X101775714Y-144654819D02*
X102013809Y-144654819D01*
X102013809Y-144654819D02*
X102156666Y-144702438D01*
X102156666Y-144702438D02*
X102251904Y-144797676D01*
X102251904Y-144797676D02*
X102299523Y-144892914D01*
X102299523Y-144892914D02*
X102347142Y-145083390D01*
X102347142Y-145083390D02*
X102347142Y-145226247D01*
X102347142Y-145226247D02*
X102299523Y-145416723D01*
X102299523Y-145416723D02*
X102251904Y-145511961D01*
X102251904Y-145511961D02*
X102156666Y-145607200D01*
X102156666Y-145607200D02*
X102013809Y-145654819D01*
X102013809Y-145654819D02*
X101775714Y-145654819D01*
X102680476Y-144654819D02*
X103299523Y-144654819D01*
X103299523Y-144654819D02*
X102966190Y-145035771D01*
X102966190Y-145035771D02*
X103109047Y-145035771D01*
X103109047Y-145035771D02*
X103204285Y-145083390D01*
X103204285Y-145083390D02*
X103251904Y-145131009D01*
X103251904Y-145131009D02*
X103299523Y-145226247D01*
X103299523Y-145226247D02*
X103299523Y-145464342D01*
X103299523Y-145464342D02*
X103251904Y-145559580D01*
X103251904Y-145559580D02*
X103204285Y-145607200D01*
X103204285Y-145607200D02*
X103109047Y-145654819D01*
X103109047Y-145654819D02*
X102823333Y-145654819D01*
X102823333Y-145654819D02*
X102728095Y-145607200D01*
X102728095Y-145607200D02*
X102680476Y-145559580D01*
X104156666Y-144654819D02*
X103966190Y-144654819D01*
X103966190Y-144654819D02*
X103870952Y-144702438D01*
X103870952Y-144702438D02*
X103823333Y-144750057D01*
X103823333Y-144750057D02*
X103728095Y-144892914D01*
X103728095Y-144892914D02*
X103680476Y-145083390D01*
X103680476Y-145083390D02*
X103680476Y-145464342D01*
X103680476Y-145464342D02*
X103728095Y-145559580D01*
X103728095Y-145559580D02*
X103775714Y-145607200D01*
X103775714Y-145607200D02*
X103870952Y-145654819D01*
X103870952Y-145654819D02*
X104061428Y-145654819D01*
X104061428Y-145654819D02*
X104156666Y-145607200D01*
X104156666Y-145607200D02*
X104204285Y-145559580D01*
X104204285Y-145559580D02*
X104251904Y-145464342D01*
X104251904Y-145464342D02*
X104251904Y-145226247D01*
X104251904Y-145226247D02*
X104204285Y-145131009D01*
X104204285Y-145131009D02*
X104156666Y-145083390D01*
X104156666Y-145083390D02*
X104061428Y-145035771D01*
X104061428Y-145035771D02*
X103870952Y-145035771D01*
X103870952Y-145035771D02*
X103775714Y-145083390D01*
X103775714Y-145083390D02*
X103728095Y-145131009D01*
X103728095Y-145131009D02*
X103680476Y-145226247D01*
X56516667Y-55557200D02*
X56659524Y-55604819D01*
X56659524Y-55604819D02*
X56897619Y-55604819D01*
X56897619Y-55604819D02*
X56992857Y-55557200D01*
X56992857Y-55557200D02*
X57040476Y-55509580D01*
X57040476Y-55509580D02*
X57088095Y-55414342D01*
X57088095Y-55414342D02*
X57088095Y-55319104D01*
X57088095Y-55319104D02*
X57040476Y-55223866D01*
X57040476Y-55223866D02*
X56992857Y-55176247D01*
X56992857Y-55176247D02*
X56897619Y-55128628D01*
X56897619Y-55128628D02*
X56707143Y-55081009D01*
X56707143Y-55081009D02*
X56611905Y-55033390D01*
X56611905Y-55033390D02*
X56564286Y-54985771D01*
X56564286Y-54985771D02*
X56516667Y-54890533D01*
X56516667Y-54890533D02*
X56516667Y-54795295D01*
X56516667Y-54795295D02*
X56564286Y-54700057D01*
X56564286Y-54700057D02*
X56611905Y-54652438D01*
X56611905Y-54652438D02*
X56707143Y-54604819D01*
X56707143Y-54604819D02*
X56945238Y-54604819D01*
X56945238Y-54604819D02*
X57088095Y-54652438D01*
X57421429Y-54604819D02*
X57659524Y-55604819D01*
X57659524Y-55604819D02*
X57850000Y-54890533D01*
X57850000Y-54890533D02*
X58040476Y-55604819D01*
X58040476Y-55604819D02*
X58278572Y-54604819D01*
X59088095Y-54604819D02*
X58897619Y-54604819D01*
X58897619Y-54604819D02*
X58802381Y-54652438D01*
X58802381Y-54652438D02*
X58754762Y-54700057D01*
X58754762Y-54700057D02*
X58659524Y-54842914D01*
X58659524Y-54842914D02*
X58611905Y-55033390D01*
X58611905Y-55033390D02*
X58611905Y-55414342D01*
X58611905Y-55414342D02*
X58659524Y-55509580D01*
X58659524Y-55509580D02*
X58707143Y-55557200D01*
X58707143Y-55557200D02*
X58802381Y-55604819D01*
X58802381Y-55604819D02*
X58992857Y-55604819D01*
X58992857Y-55604819D02*
X59088095Y-55557200D01*
X59088095Y-55557200D02*
X59135714Y-55509580D01*
X59135714Y-55509580D02*
X59183333Y-55414342D01*
X59183333Y-55414342D02*
X59183333Y-55176247D01*
X59183333Y-55176247D02*
X59135714Y-55081009D01*
X59135714Y-55081009D02*
X59088095Y-55033390D01*
X59088095Y-55033390D02*
X58992857Y-54985771D01*
X58992857Y-54985771D02*
X58802381Y-54985771D01*
X58802381Y-54985771D02*
X58707143Y-55033390D01*
X58707143Y-55033390D02*
X58659524Y-55081009D01*
X58659524Y-55081009D02*
X58611905Y-55176247D01*
X101675714Y-71714819D02*
X101675714Y-70714819D01*
X101675714Y-70714819D02*
X101913809Y-70714819D01*
X101913809Y-70714819D02*
X102056666Y-70762438D01*
X102056666Y-70762438D02*
X102151904Y-70857676D01*
X102151904Y-70857676D02*
X102199523Y-70952914D01*
X102199523Y-70952914D02*
X102247142Y-71143390D01*
X102247142Y-71143390D02*
X102247142Y-71286247D01*
X102247142Y-71286247D02*
X102199523Y-71476723D01*
X102199523Y-71476723D02*
X102151904Y-71571961D01*
X102151904Y-71571961D02*
X102056666Y-71667200D01*
X102056666Y-71667200D02*
X101913809Y-71714819D01*
X101913809Y-71714819D02*
X101675714Y-71714819D01*
X102628095Y-70810057D02*
X102675714Y-70762438D01*
X102675714Y-70762438D02*
X102770952Y-70714819D01*
X102770952Y-70714819D02*
X103009047Y-70714819D01*
X103009047Y-70714819D02*
X103104285Y-70762438D01*
X103104285Y-70762438D02*
X103151904Y-70810057D01*
X103151904Y-70810057D02*
X103199523Y-70905295D01*
X103199523Y-70905295D02*
X103199523Y-71000533D01*
X103199523Y-71000533D02*
X103151904Y-71143390D01*
X103151904Y-71143390D02*
X102580476Y-71714819D01*
X102580476Y-71714819D02*
X103199523Y-71714819D01*
X104056666Y-70714819D02*
X103866190Y-70714819D01*
X103866190Y-70714819D02*
X103770952Y-70762438D01*
X103770952Y-70762438D02*
X103723333Y-70810057D01*
X103723333Y-70810057D02*
X103628095Y-70952914D01*
X103628095Y-70952914D02*
X103580476Y-71143390D01*
X103580476Y-71143390D02*
X103580476Y-71524342D01*
X103580476Y-71524342D02*
X103628095Y-71619580D01*
X103628095Y-71619580D02*
X103675714Y-71667200D01*
X103675714Y-71667200D02*
X103770952Y-71714819D01*
X103770952Y-71714819D02*
X103961428Y-71714819D01*
X103961428Y-71714819D02*
X104056666Y-71667200D01*
X104056666Y-71667200D02*
X104104285Y-71619580D01*
X104104285Y-71619580D02*
X104151904Y-71524342D01*
X104151904Y-71524342D02*
X104151904Y-71286247D01*
X104151904Y-71286247D02*
X104104285Y-71191009D01*
X104104285Y-71191009D02*
X104056666Y-71143390D01*
X104056666Y-71143390D02*
X103961428Y-71095771D01*
X103961428Y-71095771D02*
X103770952Y-71095771D01*
X103770952Y-71095771D02*
X103675714Y-71143390D01*
X103675714Y-71143390D02*
X103628095Y-71191009D01*
X103628095Y-71191009D02*
X103580476Y-71286247D01*
X105424819Y-64833333D02*
X106139104Y-64833333D01*
X106139104Y-64833333D02*
X106281961Y-64880952D01*
X106281961Y-64880952D02*
X106377200Y-64976190D01*
X106377200Y-64976190D02*
X106424819Y-65119047D01*
X106424819Y-65119047D02*
X106424819Y-65214285D01*
X105853390Y-64214285D02*
X105805771Y-64309523D01*
X105805771Y-64309523D02*
X105758152Y-64357142D01*
X105758152Y-64357142D02*
X105662914Y-64404761D01*
X105662914Y-64404761D02*
X105615295Y-64404761D01*
X105615295Y-64404761D02*
X105520057Y-64357142D01*
X105520057Y-64357142D02*
X105472438Y-64309523D01*
X105472438Y-64309523D02*
X105424819Y-64214285D01*
X105424819Y-64214285D02*
X105424819Y-64023809D01*
X105424819Y-64023809D02*
X105472438Y-63928571D01*
X105472438Y-63928571D02*
X105520057Y-63880952D01*
X105520057Y-63880952D02*
X105615295Y-63833333D01*
X105615295Y-63833333D02*
X105662914Y-63833333D01*
X105662914Y-63833333D02*
X105758152Y-63880952D01*
X105758152Y-63880952D02*
X105805771Y-63928571D01*
X105805771Y-63928571D02*
X105853390Y-64023809D01*
X105853390Y-64023809D02*
X105853390Y-64214285D01*
X105853390Y-64214285D02*
X105901009Y-64309523D01*
X105901009Y-64309523D02*
X105948628Y-64357142D01*
X105948628Y-64357142D02*
X106043866Y-64404761D01*
X106043866Y-64404761D02*
X106234342Y-64404761D01*
X106234342Y-64404761D02*
X106329580Y-64357142D01*
X106329580Y-64357142D02*
X106377200Y-64309523D01*
X106377200Y-64309523D02*
X106424819Y-64214285D01*
X106424819Y-64214285D02*
X106424819Y-64023809D01*
X106424819Y-64023809D02*
X106377200Y-63928571D01*
X106377200Y-63928571D02*
X106329580Y-63880952D01*
X106329580Y-63880952D02*
X106234342Y-63833333D01*
X106234342Y-63833333D02*
X106043866Y-63833333D01*
X106043866Y-63833333D02*
X105948628Y-63880952D01*
X105948628Y-63880952D02*
X105901009Y-63928571D01*
X105901009Y-63928571D02*
X105853390Y-64023809D01*
X94510476Y-92007200D02*
X94653333Y-92054819D01*
X94653333Y-92054819D02*
X94891428Y-92054819D01*
X94891428Y-92054819D02*
X94986666Y-92007200D01*
X94986666Y-92007200D02*
X95034285Y-91959580D01*
X95034285Y-91959580D02*
X95081904Y-91864342D01*
X95081904Y-91864342D02*
X95081904Y-91769104D01*
X95081904Y-91769104D02*
X95034285Y-91673866D01*
X95034285Y-91673866D02*
X94986666Y-91626247D01*
X94986666Y-91626247D02*
X94891428Y-91578628D01*
X94891428Y-91578628D02*
X94700952Y-91531009D01*
X94700952Y-91531009D02*
X94605714Y-91483390D01*
X94605714Y-91483390D02*
X94558095Y-91435771D01*
X94558095Y-91435771D02*
X94510476Y-91340533D01*
X94510476Y-91340533D02*
X94510476Y-91245295D01*
X94510476Y-91245295D02*
X94558095Y-91150057D01*
X94558095Y-91150057D02*
X94605714Y-91102438D01*
X94605714Y-91102438D02*
X94700952Y-91054819D01*
X94700952Y-91054819D02*
X94939047Y-91054819D01*
X94939047Y-91054819D02*
X95081904Y-91102438D01*
X95415238Y-91054819D02*
X95653333Y-92054819D01*
X95653333Y-92054819D02*
X95843809Y-91340533D01*
X95843809Y-91340533D02*
X96034285Y-92054819D01*
X96034285Y-92054819D02*
X96272381Y-91054819D01*
X97177142Y-92054819D02*
X96605714Y-92054819D01*
X96891428Y-92054819D02*
X96891428Y-91054819D01*
X96891428Y-91054819D02*
X96796190Y-91197676D01*
X96796190Y-91197676D02*
X96700952Y-91292914D01*
X96700952Y-91292914D02*
X96605714Y-91340533D01*
X97558095Y-91150057D02*
X97605714Y-91102438D01*
X97605714Y-91102438D02*
X97700952Y-91054819D01*
X97700952Y-91054819D02*
X97939047Y-91054819D01*
X97939047Y-91054819D02*
X98034285Y-91102438D01*
X98034285Y-91102438D02*
X98081904Y-91150057D01*
X98081904Y-91150057D02*
X98129523Y-91245295D01*
X98129523Y-91245295D02*
X98129523Y-91340533D01*
X98129523Y-91340533D02*
X98081904Y-91483390D01*
X98081904Y-91483390D02*
X97510476Y-92054819D01*
X97510476Y-92054819D02*
X98129523Y-92054819D01*
X79560476Y-104654819D02*
X79560476Y-105369104D01*
X79560476Y-105369104D02*
X79512857Y-105511961D01*
X79512857Y-105511961D02*
X79417619Y-105607200D01*
X79417619Y-105607200D02*
X79274762Y-105654819D01*
X79274762Y-105654819D02*
X79179524Y-105654819D01*
X80560476Y-105654819D02*
X79989048Y-105654819D01*
X80274762Y-105654819D02*
X80274762Y-104654819D01*
X80274762Y-104654819D02*
X80179524Y-104797676D01*
X80179524Y-104797676D02*
X80084286Y-104892914D01*
X80084286Y-104892914D02*
X79989048Y-104940533D01*
X81417619Y-104654819D02*
X81227143Y-104654819D01*
X81227143Y-104654819D02*
X81131905Y-104702438D01*
X81131905Y-104702438D02*
X81084286Y-104750057D01*
X81084286Y-104750057D02*
X80989048Y-104892914D01*
X80989048Y-104892914D02*
X80941429Y-105083390D01*
X80941429Y-105083390D02*
X80941429Y-105464342D01*
X80941429Y-105464342D02*
X80989048Y-105559580D01*
X80989048Y-105559580D02*
X81036667Y-105607200D01*
X81036667Y-105607200D02*
X81131905Y-105654819D01*
X81131905Y-105654819D02*
X81322381Y-105654819D01*
X81322381Y-105654819D02*
X81417619Y-105607200D01*
X81417619Y-105607200D02*
X81465238Y-105559580D01*
X81465238Y-105559580D02*
X81512857Y-105464342D01*
X81512857Y-105464342D02*
X81512857Y-105226247D01*
X81512857Y-105226247D02*
X81465238Y-105131009D01*
X81465238Y-105131009D02*
X81417619Y-105083390D01*
X81417619Y-105083390D02*
X81322381Y-105035771D01*
X81322381Y-105035771D02*
X81131905Y-105035771D01*
X81131905Y-105035771D02*
X81036667Y-105083390D01*
X81036667Y-105083390D02*
X80989048Y-105131009D01*
X80989048Y-105131009D02*
X80941429Y-105226247D01*
X62896667Y-70947200D02*
X63039524Y-70994819D01*
X63039524Y-70994819D02*
X63277619Y-70994819D01*
X63277619Y-70994819D02*
X63372857Y-70947200D01*
X63372857Y-70947200D02*
X63420476Y-70899580D01*
X63420476Y-70899580D02*
X63468095Y-70804342D01*
X63468095Y-70804342D02*
X63468095Y-70709104D01*
X63468095Y-70709104D02*
X63420476Y-70613866D01*
X63420476Y-70613866D02*
X63372857Y-70566247D01*
X63372857Y-70566247D02*
X63277619Y-70518628D01*
X63277619Y-70518628D02*
X63087143Y-70471009D01*
X63087143Y-70471009D02*
X62991905Y-70423390D01*
X62991905Y-70423390D02*
X62944286Y-70375771D01*
X62944286Y-70375771D02*
X62896667Y-70280533D01*
X62896667Y-70280533D02*
X62896667Y-70185295D01*
X62896667Y-70185295D02*
X62944286Y-70090057D01*
X62944286Y-70090057D02*
X62991905Y-70042438D01*
X62991905Y-70042438D02*
X63087143Y-69994819D01*
X63087143Y-69994819D02*
X63325238Y-69994819D01*
X63325238Y-69994819D02*
X63468095Y-70042438D01*
X63801429Y-69994819D02*
X64039524Y-70994819D01*
X64039524Y-70994819D02*
X64230000Y-70280533D01*
X64230000Y-70280533D02*
X64420476Y-70994819D01*
X64420476Y-70994819D02*
X64658572Y-69994819D01*
X64944286Y-69994819D02*
X65610952Y-69994819D01*
X65610952Y-69994819D02*
X65182381Y-70994819D01*
X53266667Y-154007200D02*
X53409524Y-154054819D01*
X53409524Y-154054819D02*
X53647619Y-154054819D01*
X53647619Y-154054819D02*
X53742857Y-154007200D01*
X53742857Y-154007200D02*
X53790476Y-153959580D01*
X53790476Y-153959580D02*
X53838095Y-153864342D01*
X53838095Y-153864342D02*
X53838095Y-153769104D01*
X53838095Y-153769104D02*
X53790476Y-153673866D01*
X53790476Y-153673866D02*
X53742857Y-153626247D01*
X53742857Y-153626247D02*
X53647619Y-153578628D01*
X53647619Y-153578628D02*
X53457143Y-153531009D01*
X53457143Y-153531009D02*
X53361905Y-153483390D01*
X53361905Y-153483390D02*
X53314286Y-153435771D01*
X53314286Y-153435771D02*
X53266667Y-153340533D01*
X53266667Y-153340533D02*
X53266667Y-153245295D01*
X53266667Y-153245295D02*
X53314286Y-153150057D01*
X53314286Y-153150057D02*
X53361905Y-153102438D01*
X53361905Y-153102438D02*
X53457143Y-153054819D01*
X53457143Y-153054819D02*
X53695238Y-153054819D01*
X53695238Y-153054819D02*
X53838095Y-153102438D01*
X54171429Y-153054819D02*
X54409524Y-154054819D01*
X54409524Y-154054819D02*
X54600000Y-153340533D01*
X54600000Y-153340533D02*
X54790476Y-154054819D01*
X54790476Y-154054819D02*
X55028572Y-153054819D01*
X55838095Y-153388152D02*
X55838095Y-154054819D01*
X55600000Y-153007200D02*
X55361905Y-153721485D01*
X55361905Y-153721485D02*
X55980952Y-153721485D01*
X62826667Y-83077200D02*
X62969524Y-83124819D01*
X62969524Y-83124819D02*
X63207619Y-83124819D01*
X63207619Y-83124819D02*
X63302857Y-83077200D01*
X63302857Y-83077200D02*
X63350476Y-83029580D01*
X63350476Y-83029580D02*
X63398095Y-82934342D01*
X63398095Y-82934342D02*
X63398095Y-82839104D01*
X63398095Y-82839104D02*
X63350476Y-82743866D01*
X63350476Y-82743866D02*
X63302857Y-82696247D01*
X63302857Y-82696247D02*
X63207619Y-82648628D01*
X63207619Y-82648628D02*
X63017143Y-82601009D01*
X63017143Y-82601009D02*
X62921905Y-82553390D01*
X62921905Y-82553390D02*
X62874286Y-82505771D01*
X62874286Y-82505771D02*
X62826667Y-82410533D01*
X62826667Y-82410533D02*
X62826667Y-82315295D01*
X62826667Y-82315295D02*
X62874286Y-82220057D01*
X62874286Y-82220057D02*
X62921905Y-82172438D01*
X62921905Y-82172438D02*
X63017143Y-82124819D01*
X63017143Y-82124819D02*
X63255238Y-82124819D01*
X63255238Y-82124819D02*
X63398095Y-82172438D01*
X63731429Y-82124819D02*
X63969524Y-83124819D01*
X63969524Y-83124819D02*
X64160000Y-82410533D01*
X64160000Y-82410533D02*
X64350476Y-83124819D01*
X64350476Y-83124819D02*
X64588572Y-82124819D01*
X65445714Y-82124819D02*
X64969524Y-82124819D01*
X64969524Y-82124819D02*
X64921905Y-82601009D01*
X64921905Y-82601009D02*
X64969524Y-82553390D01*
X64969524Y-82553390D02*
X65064762Y-82505771D01*
X65064762Y-82505771D02*
X65302857Y-82505771D01*
X65302857Y-82505771D02*
X65398095Y-82553390D01*
X65398095Y-82553390D02*
X65445714Y-82601009D01*
X65445714Y-82601009D02*
X65493333Y-82696247D01*
X65493333Y-82696247D02*
X65493333Y-82934342D01*
X65493333Y-82934342D02*
X65445714Y-83029580D01*
X65445714Y-83029580D02*
X65398095Y-83077200D01*
X65398095Y-83077200D02*
X65302857Y-83124819D01*
X65302857Y-83124819D02*
X65064762Y-83124819D01*
X65064762Y-83124819D02*
X64969524Y-83077200D01*
X64969524Y-83077200D02*
X64921905Y-83029580D01*
X74205714Y-115414819D02*
X74205714Y-114414819D01*
X74205714Y-114414819D02*
X74443809Y-114414819D01*
X74443809Y-114414819D02*
X74586666Y-114462438D01*
X74586666Y-114462438D02*
X74681904Y-114557676D01*
X74681904Y-114557676D02*
X74729523Y-114652914D01*
X74729523Y-114652914D02*
X74777142Y-114843390D01*
X74777142Y-114843390D02*
X74777142Y-114986247D01*
X74777142Y-114986247D02*
X74729523Y-115176723D01*
X74729523Y-115176723D02*
X74681904Y-115271961D01*
X74681904Y-115271961D02*
X74586666Y-115367200D01*
X74586666Y-115367200D02*
X74443809Y-115414819D01*
X74443809Y-115414819D02*
X74205714Y-115414819D01*
X75729523Y-115414819D02*
X75158095Y-115414819D01*
X75443809Y-115414819D02*
X75443809Y-114414819D01*
X75443809Y-114414819D02*
X75348571Y-114557676D01*
X75348571Y-114557676D02*
X75253333Y-114652914D01*
X75253333Y-114652914D02*
X75158095Y-114700533D01*
X76110476Y-114510057D02*
X76158095Y-114462438D01*
X76158095Y-114462438D02*
X76253333Y-114414819D01*
X76253333Y-114414819D02*
X76491428Y-114414819D01*
X76491428Y-114414819D02*
X76586666Y-114462438D01*
X76586666Y-114462438D02*
X76634285Y-114510057D01*
X76634285Y-114510057D02*
X76681904Y-114605295D01*
X76681904Y-114605295D02*
X76681904Y-114700533D01*
X76681904Y-114700533D02*
X76634285Y-114843390D01*
X76634285Y-114843390D02*
X76062857Y-115414819D01*
X76062857Y-115414819D02*
X76681904Y-115414819D01*
X95010476Y-117957200D02*
X95153333Y-118004819D01*
X95153333Y-118004819D02*
X95391428Y-118004819D01*
X95391428Y-118004819D02*
X95486666Y-117957200D01*
X95486666Y-117957200D02*
X95534285Y-117909580D01*
X95534285Y-117909580D02*
X95581904Y-117814342D01*
X95581904Y-117814342D02*
X95581904Y-117719104D01*
X95581904Y-117719104D02*
X95534285Y-117623866D01*
X95534285Y-117623866D02*
X95486666Y-117576247D01*
X95486666Y-117576247D02*
X95391428Y-117528628D01*
X95391428Y-117528628D02*
X95200952Y-117481009D01*
X95200952Y-117481009D02*
X95105714Y-117433390D01*
X95105714Y-117433390D02*
X95058095Y-117385771D01*
X95058095Y-117385771D02*
X95010476Y-117290533D01*
X95010476Y-117290533D02*
X95010476Y-117195295D01*
X95010476Y-117195295D02*
X95058095Y-117100057D01*
X95058095Y-117100057D02*
X95105714Y-117052438D01*
X95105714Y-117052438D02*
X95200952Y-117004819D01*
X95200952Y-117004819D02*
X95439047Y-117004819D01*
X95439047Y-117004819D02*
X95581904Y-117052438D01*
X95915238Y-117004819D02*
X96153333Y-118004819D01*
X96153333Y-118004819D02*
X96343809Y-117290533D01*
X96343809Y-117290533D02*
X96534285Y-118004819D01*
X96534285Y-118004819D02*
X96772381Y-117004819D01*
X97677142Y-118004819D02*
X97105714Y-118004819D01*
X97391428Y-118004819D02*
X97391428Y-117004819D01*
X97391428Y-117004819D02*
X97296190Y-117147676D01*
X97296190Y-117147676D02*
X97200952Y-117242914D01*
X97200952Y-117242914D02*
X97105714Y-117290533D01*
X98534285Y-117338152D02*
X98534285Y-118004819D01*
X98296190Y-116957200D02*
X98058095Y-117671485D01*
X98058095Y-117671485D02*
X98677142Y-117671485D01*
X53296667Y-106997200D02*
X53439524Y-107044819D01*
X53439524Y-107044819D02*
X53677619Y-107044819D01*
X53677619Y-107044819D02*
X53772857Y-106997200D01*
X53772857Y-106997200D02*
X53820476Y-106949580D01*
X53820476Y-106949580D02*
X53868095Y-106854342D01*
X53868095Y-106854342D02*
X53868095Y-106759104D01*
X53868095Y-106759104D02*
X53820476Y-106663866D01*
X53820476Y-106663866D02*
X53772857Y-106616247D01*
X53772857Y-106616247D02*
X53677619Y-106568628D01*
X53677619Y-106568628D02*
X53487143Y-106521009D01*
X53487143Y-106521009D02*
X53391905Y-106473390D01*
X53391905Y-106473390D02*
X53344286Y-106425771D01*
X53344286Y-106425771D02*
X53296667Y-106330533D01*
X53296667Y-106330533D02*
X53296667Y-106235295D01*
X53296667Y-106235295D02*
X53344286Y-106140057D01*
X53344286Y-106140057D02*
X53391905Y-106092438D01*
X53391905Y-106092438D02*
X53487143Y-106044819D01*
X53487143Y-106044819D02*
X53725238Y-106044819D01*
X53725238Y-106044819D02*
X53868095Y-106092438D01*
X54201429Y-106044819D02*
X54439524Y-107044819D01*
X54439524Y-107044819D02*
X54630000Y-106330533D01*
X54630000Y-106330533D02*
X54820476Y-107044819D01*
X54820476Y-107044819D02*
X55058572Y-106044819D01*
X55963333Y-107044819D02*
X55391905Y-107044819D01*
X55677619Y-107044819D02*
X55677619Y-106044819D01*
X55677619Y-106044819D02*
X55582381Y-106187676D01*
X55582381Y-106187676D02*
X55487143Y-106282914D01*
X55487143Y-106282914D02*
X55391905Y-106330533D01*
X85365714Y-146454819D02*
X85365714Y-145454819D01*
X85365714Y-145454819D02*
X85603809Y-145454819D01*
X85603809Y-145454819D02*
X85746666Y-145502438D01*
X85746666Y-145502438D02*
X85841904Y-145597676D01*
X85841904Y-145597676D02*
X85889523Y-145692914D01*
X85889523Y-145692914D02*
X85937142Y-145883390D01*
X85937142Y-145883390D02*
X85937142Y-146026247D01*
X85937142Y-146026247D02*
X85889523Y-146216723D01*
X85889523Y-146216723D02*
X85841904Y-146311961D01*
X85841904Y-146311961D02*
X85746666Y-146407200D01*
X85746666Y-146407200D02*
X85603809Y-146454819D01*
X85603809Y-146454819D02*
X85365714Y-146454819D01*
X86270476Y-145454819D02*
X86889523Y-145454819D01*
X86889523Y-145454819D02*
X86556190Y-145835771D01*
X86556190Y-145835771D02*
X86699047Y-145835771D01*
X86699047Y-145835771D02*
X86794285Y-145883390D01*
X86794285Y-145883390D02*
X86841904Y-145931009D01*
X86841904Y-145931009D02*
X86889523Y-146026247D01*
X86889523Y-146026247D02*
X86889523Y-146264342D01*
X86889523Y-146264342D02*
X86841904Y-146359580D01*
X86841904Y-146359580D02*
X86794285Y-146407200D01*
X86794285Y-146407200D02*
X86699047Y-146454819D01*
X86699047Y-146454819D02*
X86413333Y-146454819D01*
X86413333Y-146454819D02*
X86318095Y-146407200D01*
X86318095Y-146407200D02*
X86270476Y-146359580D01*
X87460952Y-145883390D02*
X87365714Y-145835771D01*
X87365714Y-145835771D02*
X87318095Y-145788152D01*
X87318095Y-145788152D02*
X87270476Y-145692914D01*
X87270476Y-145692914D02*
X87270476Y-145645295D01*
X87270476Y-145645295D02*
X87318095Y-145550057D01*
X87318095Y-145550057D02*
X87365714Y-145502438D01*
X87365714Y-145502438D02*
X87460952Y-145454819D01*
X87460952Y-145454819D02*
X87651428Y-145454819D01*
X87651428Y-145454819D02*
X87746666Y-145502438D01*
X87746666Y-145502438D02*
X87794285Y-145550057D01*
X87794285Y-145550057D02*
X87841904Y-145645295D01*
X87841904Y-145645295D02*
X87841904Y-145692914D01*
X87841904Y-145692914D02*
X87794285Y-145788152D01*
X87794285Y-145788152D02*
X87746666Y-145835771D01*
X87746666Y-145835771D02*
X87651428Y-145883390D01*
X87651428Y-145883390D02*
X87460952Y-145883390D01*
X87460952Y-145883390D02*
X87365714Y-145931009D01*
X87365714Y-145931009D02*
X87318095Y-145978628D01*
X87318095Y-145978628D02*
X87270476Y-146073866D01*
X87270476Y-146073866D02*
X87270476Y-146264342D01*
X87270476Y-146264342D02*
X87318095Y-146359580D01*
X87318095Y-146359580D02*
X87365714Y-146407200D01*
X87365714Y-146407200D02*
X87460952Y-146454819D01*
X87460952Y-146454819D02*
X87651428Y-146454819D01*
X87651428Y-146454819D02*
X87746666Y-146407200D01*
X87746666Y-146407200D02*
X87794285Y-146359580D01*
X87794285Y-146359580D02*
X87841904Y-146264342D01*
X87841904Y-146264342D02*
X87841904Y-146073866D01*
X87841904Y-146073866D02*
X87794285Y-145978628D01*
X87794285Y-145978628D02*
X87746666Y-145931009D01*
X87746666Y-145931009D02*
X87651428Y-145883390D01*
X79560476Y-128654819D02*
X79560476Y-129369104D01*
X79560476Y-129369104D02*
X79512857Y-129511961D01*
X79512857Y-129511961D02*
X79417619Y-129607200D01*
X79417619Y-129607200D02*
X79274762Y-129654819D01*
X79274762Y-129654819D02*
X79179524Y-129654819D01*
X80560476Y-129654819D02*
X79989048Y-129654819D01*
X80274762Y-129654819D02*
X80274762Y-128654819D01*
X80274762Y-128654819D02*
X80179524Y-128797676D01*
X80179524Y-128797676D02*
X80084286Y-128892914D01*
X80084286Y-128892914D02*
X79989048Y-128940533D01*
X80893810Y-128654819D02*
X81560476Y-128654819D01*
X81560476Y-128654819D02*
X81131905Y-129654819D01*
X85765714Y-122464819D02*
X85765714Y-121464819D01*
X85765714Y-121464819D02*
X86003809Y-121464819D01*
X86003809Y-121464819D02*
X86146666Y-121512438D01*
X86146666Y-121512438D02*
X86241904Y-121607676D01*
X86241904Y-121607676D02*
X86289523Y-121702914D01*
X86289523Y-121702914D02*
X86337142Y-121893390D01*
X86337142Y-121893390D02*
X86337142Y-122036247D01*
X86337142Y-122036247D02*
X86289523Y-122226723D01*
X86289523Y-122226723D02*
X86241904Y-122321961D01*
X86241904Y-122321961D02*
X86146666Y-122417200D01*
X86146666Y-122417200D02*
X86003809Y-122464819D01*
X86003809Y-122464819D02*
X85765714Y-122464819D01*
X86670476Y-121464819D02*
X87289523Y-121464819D01*
X87289523Y-121464819D02*
X86956190Y-121845771D01*
X86956190Y-121845771D02*
X87099047Y-121845771D01*
X87099047Y-121845771D02*
X87194285Y-121893390D01*
X87194285Y-121893390D02*
X87241904Y-121941009D01*
X87241904Y-121941009D02*
X87289523Y-122036247D01*
X87289523Y-122036247D02*
X87289523Y-122274342D01*
X87289523Y-122274342D02*
X87241904Y-122369580D01*
X87241904Y-122369580D02*
X87194285Y-122417200D01*
X87194285Y-122417200D02*
X87099047Y-122464819D01*
X87099047Y-122464819D02*
X86813333Y-122464819D01*
X86813333Y-122464819D02*
X86718095Y-122417200D01*
X86718095Y-122417200D02*
X86670476Y-122369580D01*
X87622857Y-121464819D02*
X88289523Y-121464819D01*
X88289523Y-121464819D02*
X87860952Y-122464819D01*
X53116667Y-142007200D02*
X53259524Y-142054819D01*
X53259524Y-142054819D02*
X53497619Y-142054819D01*
X53497619Y-142054819D02*
X53592857Y-142007200D01*
X53592857Y-142007200D02*
X53640476Y-141959580D01*
X53640476Y-141959580D02*
X53688095Y-141864342D01*
X53688095Y-141864342D02*
X53688095Y-141769104D01*
X53688095Y-141769104D02*
X53640476Y-141673866D01*
X53640476Y-141673866D02*
X53592857Y-141626247D01*
X53592857Y-141626247D02*
X53497619Y-141578628D01*
X53497619Y-141578628D02*
X53307143Y-141531009D01*
X53307143Y-141531009D02*
X53211905Y-141483390D01*
X53211905Y-141483390D02*
X53164286Y-141435771D01*
X53164286Y-141435771D02*
X53116667Y-141340533D01*
X53116667Y-141340533D02*
X53116667Y-141245295D01*
X53116667Y-141245295D02*
X53164286Y-141150057D01*
X53164286Y-141150057D02*
X53211905Y-141102438D01*
X53211905Y-141102438D02*
X53307143Y-141054819D01*
X53307143Y-141054819D02*
X53545238Y-141054819D01*
X53545238Y-141054819D02*
X53688095Y-141102438D01*
X54021429Y-141054819D02*
X54259524Y-142054819D01*
X54259524Y-142054819D02*
X54450000Y-141340533D01*
X54450000Y-141340533D02*
X54640476Y-142054819D01*
X54640476Y-142054819D02*
X54878572Y-141054819D01*
X55164286Y-141054819D02*
X55783333Y-141054819D01*
X55783333Y-141054819D02*
X55450000Y-141435771D01*
X55450000Y-141435771D02*
X55592857Y-141435771D01*
X55592857Y-141435771D02*
X55688095Y-141483390D01*
X55688095Y-141483390D02*
X55735714Y-141531009D01*
X55735714Y-141531009D02*
X55783333Y-141626247D01*
X55783333Y-141626247D02*
X55783333Y-141864342D01*
X55783333Y-141864342D02*
X55735714Y-141959580D01*
X55735714Y-141959580D02*
X55688095Y-142007200D01*
X55688095Y-142007200D02*
X55592857Y-142054819D01*
X55592857Y-142054819D02*
X55307143Y-142054819D01*
X55307143Y-142054819D02*
X55211905Y-142007200D01*
X55211905Y-142007200D02*
X55164286Y-141959580D01*
X63288095Y-74454819D02*
X63288095Y-73454819D01*
X63288095Y-73931009D02*
X63859523Y-73931009D01*
X63859523Y-74454819D02*
X63859523Y-73454819D01*
X64811904Y-73454819D02*
X64335714Y-73454819D01*
X64335714Y-73454819D02*
X64288095Y-73931009D01*
X64288095Y-73931009D02*
X64335714Y-73883390D01*
X64335714Y-73883390D02*
X64430952Y-73835771D01*
X64430952Y-73835771D02*
X64669047Y-73835771D01*
X64669047Y-73835771D02*
X64764285Y-73883390D01*
X64764285Y-73883390D02*
X64811904Y-73931009D01*
X64811904Y-73931009D02*
X64859523Y-74026247D01*
X64859523Y-74026247D02*
X64859523Y-74264342D01*
X64859523Y-74264342D02*
X64811904Y-74359580D01*
X64811904Y-74359580D02*
X64764285Y-74407200D01*
X64764285Y-74407200D02*
X64669047Y-74454819D01*
X64669047Y-74454819D02*
X64430952Y-74454819D01*
X64430952Y-74454819D02*
X64335714Y-74407200D01*
X64335714Y-74407200D02*
X64288095Y-74359580D01*
X105424819Y-115309523D02*
X106139104Y-115309523D01*
X106139104Y-115309523D02*
X106281961Y-115357142D01*
X106281961Y-115357142D02*
X106377200Y-115452380D01*
X106377200Y-115452380D02*
X106424819Y-115595237D01*
X106424819Y-115595237D02*
X106424819Y-115690475D01*
X106424819Y-114309523D02*
X106424819Y-114880951D01*
X106424819Y-114595237D02*
X105424819Y-114595237D01*
X105424819Y-114595237D02*
X105567676Y-114690475D01*
X105567676Y-114690475D02*
X105662914Y-114785713D01*
X105662914Y-114785713D02*
X105710533Y-114880951D01*
X105520057Y-113928570D02*
X105472438Y-113880951D01*
X105472438Y-113880951D02*
X105424819Y-113785713D01*
X105424819Y-113785713D02*
X105424819Y-113547618D01*
X105424819Y-113547618D02*
X105472438Y-113452380D01*
X105472438Y-113452380D02*
X105520057Y-113404761D01*
X105520057Y-113404761D02*
X105615295Y-113357142D01*
X105615295Y-113357142D02*
X105710533Y-113357142D01*
X105710533Y-113357142D02*
X105853390Y-113404761D01*
X105853390Y-113404761D02*
X106424819Y-113976189D01*
X106424819Y-113976189D02*
X106424819Y-113357142D01*
X74175714Y-133454819D02*
X74175714Y-132454819D01*
X74175714Y-132454819D02*
X74413809Y-132454819D01*
X74413809Y-132454819D02*
X74556666Y-132502438D01*
X74556666Y-132502438D02*
X74651904Y-132597676D01*
X74651904Y-132597676D02*
X74699523Y-132692914D01*
X74699523Y-132692914D02*
X74747142Y-132883390D01*
X74747142Y-132883390D02*
X74747142Y-133026247D01*
X74747142Y-133026247D02*
X74699523Y-133216723D01*
X74699523Y-133216723D02*
X74651904Y-133311961D01*
X74651904Y-133311961D02*
X74556666Y-133407200D01*
X74556666Y-133407200D02*
X74413809Y-133454819D01*
X74413809Y-133454819D02*
X74175714Y-133454819D01*
X75699523Y-133454819D02*
X75128095Y-133454819D01*
X75413809Y-133454819D02*
X75413809Y-132454819D01*
X75413809Y-132454819D02*
X75318571Y-132597676D01*
X75318571Y-132597676D02*
X75223333Y-132692914D01*
X75223333Y-132692914D02*
X75128095Y-132740533D01*
X76318571Y-132454819D02*
X76413809Y-132454819D01*
X76413809Y-132454819D02*
X76509047Y-132502438D01*
X76509047Y-132502438D02*
X76556666Y-132550057D01*
X76556666Y-132550057D02*
X76604285Y-132645295D01*
X76604285Y-132645295D02*
X76651904Y-132835771D01*
X76651904Y-132835771D02*
X76651904Y-133073866D01*
X76651904Y-133073866D02*
X76604285Y-133264342D01*
X76604285Y-133264342D02*
X76556666Y-133359580D01*
X76556666Y-133359580D02*
X76509047Y-133407200D01*
X76509047Y-133407200D02*
X76413809Y-133454819D01*
X76413809Y-133454819D02*
X76318571Y-133454819D01*
X76318571Y-133454819D02*
X76223333Y-133407200D01*
X76223333Y-133407200D02*
X76175714Y-133359580D01*
X76175714Y-133359580D02*
X76128095Y-133264342D01*
X76128095Y-133264342D02*
X76080476Y-133073866D01*
X76080476Y-133073866D02*
X76080476Y-132835771D01*
X76080476Y-132835771D02*
X76128095Y-132645295D01*
X76128095Y-132645295D02*
X76175714Y-132550057D01*
X76175714Y-132550057D02*
X76223333Y-132502438D01*
X76223333Y-132502438D02*
X76318571Y-132454819D01*
X101775714Y-133654819D02*
X101775714Y-132654819D01*
X101775714Y-132654819D02*
X102013809Y-132654819D01*
X102013809Y-132654819D02*
X102156666Y-132702438D01*
X102156666Y-132702438D02*
X102251904Y-132797676D01*
X102251904Y-132797676D02*
X102299523Y-132892914D01*
X102299523Y-132892914D02*
X102347142Y-133083390D01*
X102347142Y-133083390D02*
X102347142Y-133226247D01*
X102347142Y-133226247D02*
X102299523Y-133416723D01*
X102299523Y-133416723D02*
X102251904Y-133511961D01*
X102251904Y-133511961D02*
X102156666Y-133607200D01*
X102156666Y-133607200D02*
X102013809Y-133654819D01*
X102013809Y-133654819D02*
X101775714Y-133654819D01*
X102680476Y-132654819D02*
X103299523Y-132654819D01*
X103299523Y-132654819D02*
X102966190Y-133035771D01*
X102966190Y-133035771D02*
X103109047Y-133035771D01*
X103109047Y-133035771D02*
X103204285Y-133083390D01*
X103204285Y-133083390D02*
X103251904Y-133131009D01*
X103251904Y-133131009D02*
X103299523Y-133226247D01*
X103299523Y-133226247D02*
X103299523Y-133464342D01*
X103299523Y-133464342D02*
X103251904Y-133559580D01*
X103251904Y-133559580D02*
X103204285Y-133607200D01*
X103204285Y-133607200D02*
X103109047Y-133654819D01*
X103109047Y-133654819D02*
X102823333Y-133654819D01*
X102823333Y-133654819D02*
X102728095Y-133607200D01*
X102728095Y-133607200D02*
X102680476Y-133559580D01*
X104204285Y-132654819D02*
X103728095Y-132654819D01*
X103728095Y-132654819D02*
X103680476Y-133131009D01*
X103680476Y-133131009D02*
X103728095Y-133083390D01*
X103728095Y-133083390D02*
X103823333Y-133035771D01*
X103823333Y-133035771D02*
X104061428Y-133035771D01*
X104061428Y-133035771D02*
X104156666Y-133083390D01*
X104156666Y-133083390D02*
X104204285Y-133131009D01*
X104204285Y-133131009D02*
X104251904Y-133226247D01*
X104251904Y-133226247D02*
X104251904Y-133464342D01*
X104251904Y-133464342D02*
X104204285Y-133559580D01*
X104204285Y-133559580D02*
X104156666Y-133607200D01*
X104156666Y-133607200D02*
X104061428Y-133654819D01*
X104061428Y-133654819D02*
X103823333Y-133654819D01*
X103823333Y-133654819D02*
X103728095Y-133607200D01*
X103728095Y-133607200D02*
X103680476Y-133559580D01*
X74681905Y-127414819D02*
X74681905Y-126414819D01*
X74681905Y-126414819D02*
X74920000Y-126414819D01*
X74920000Y-126414819D02*
X75062857Y-126462438D01*
X75062857Y-126462438D02*
X75158095Y-126557676D01*
X75158095Y-126557676D02*
X75205714Y-126652914D01*
X75205714Y-126652914D02*
X75253333Y-126843390D01*
X75253333Y-126843390D02*
X75253333Y-126986247D01*
X75253333Y-126986247D02*
X75205714Y-127176723D01*
X75205714Y-127176723D02*
X75158095Y-127271961D01*
X75158095Y-127271961D02*
X75062857Y-127367200D01*
X75062857Y-127367200D02*
X74920000Y-127414819D01*
X74920000Y-127414819D02*
X74681905Y-127414819D01*
X75729524Y-127414819D02*
X75920000Y-127414819D01*
X75920000Y-127414819D02*
X76015238Y-127367200D01*
X76015238Y-127367200D02*
X76062857Y-127319580D01*
X76062857Y-127319580D02*
X76158095Y-127176723D01*
X76158095Y-127176723D02*
X76205714Y-126986247D01*
X76205714Y-126986247D02*
X76205714Y-126605295D01*
X76205714Y-126605295D02*
X76158095Y-126510057D01*
X76158095Y-126510057D02*
X76110476Y-126462438D01*
X76110476Y-126462438D02*
X76015238Y-126414819D01*
X76015238Y-126414819D02*
X75824762Y-126414819D01*
X75824762Y-126414819D02*
X75729524Y-126462438D01*
X75729524Y-126462438D02*
X75681905Y-126510057D01*
X75681905Y-126510057D02*
X75634286Y-126605295D01*
X75634286Y-126605295D02*
X75634286Y-126843390D01*
X75634286Y-126843390D02*
X75681905Y-126938628D01*
X75681905Y-126938628D02*
X75729524Y-126986247D01*
X75729524Y-126986247D02*
X75824762Y-127033866D01*
X75824762Y-127033866D02*
X76015238Y-127033866D01*
X76015238Y-127033866D02*
X76110476Y-126986247D01*
X76110476Y-126986247D02*
X76158095Y-126938628D01*
X76158095Y-126938628D02*
X76205714Y-126843390D01*
X58024819Y-114833333D02*
X58739104Y-114833333D01*
X58739104Y-114833333D02*
X58881961Y-114880952D01*
X58881961Y-114880952D02*
X58977200Y-114976190D01*
X58977200Y-114976190D02*
X59024819Y-115119047D01*
X59024819Y-115119047D02*
X59024819Y-115214285D01*
X59024819Y-113833333D02*
X59024819Y-114404761D01*
X59024819Y-114119047D02*
X58024819Y-114119047D01*
X58024819Y-114119047D02*
X58167676Y-114214285D01*
X58167676Y-114214285D02*
X58262914Y-114309523D01*
X58262914Y-114309523D02*
X58310533Y-114404761D01*
X101685714Y-95654819D02*
X101685714Y-94654819D01*
X101685714Y-94654819D02*
X101923809Y-94654819D01*
X101923809Y-94654819D02*
X102066666Y-94702438D01*
X102066666Y-94702438D02*
X102161904Y-94797676D01*
X102161904Y-94797676D02*
X102209523Y-94892914D01*
X102209523Y-94892914D02*
X102257142Y-95083390D01*
X102257142Y-95083390D02*
X102257142Y-95226247D01*
X102257142Y-95226247D02*
X102209523Y-95416723D01*
X102209523Y-95416723D02*
X102161904Y-95511961D01*
X102161904Y-95511961D02*
X102066666Y-95607200D01*
X102066666Y-95607200D02*
X101923809Y-95654819D01*
X101923809Y-95654819D02*
X101685714Y-95654819D01*
X102638095Y-94750057D02*
X102685714Y-94702438D01*
X102685714Y-94702438D02*
X102780952Y-94654819D01*
X102780952Y-94654819D02*
X103019047Y-94654819D01*
X103019047Y-94654819D02*
X103114285Y-94702438D01*
X103114285Y-94702438D02*
X103161904Y-94750057D01*
X103161904Y-94750057D02*
X103209523Y-94845295D01*
X103209523Y-94845295D02*
X103209523Y-94940533D01*
X103209523Y-94940533D02*
X103161904Y-95083390D01*
X103161904Y-95083390D02*
X102590476Y-95654819D01*
X102590476Y-95654819D02*
X103209523Y-95654819D01*
X103780952Y-95083390D02*
X103685714Y-95035771D01*
X103685714Y-95035771D02*
X103638095Y-94988152D01*
X103638095Y-94988152D02*
X103590476Y-94892914D01*
X103590476Y-94892914D02*
X103590476Y-94845295D01*
X103590476Y-94845295D02*
X103638095Y-94750057D01*
X103638095Y-94750057D02*
X103685714Y-94702438D01*
X103685714Y-94702438D02*
X103780952Y-94654819D01*
X103780952Y-94654819D02*
X103971428Y-94654819D01*
X103971428Y-94654819D02*
X104066666Y-94702438D01*
X104066666Y-94702438D02*
X104114285Y-94750057D01*
X104114285Y-94750057D02*
X104161904Y-94845295D01*
X104161904Y-94845295D02*
X104161904Y-94892914D01*
X104161904Y-94892914D02*
X104114285Y-94988152D01*
X104114285Y-94988152D02*
X104066666Y-95035771D01*
X104066666Y-95035771D02*
X103971428Y-95083390D01*
X103971428Y-95083390D02*
X103780952Y-95083390D01*
X103780952Y-95083390D02*
X103685714Y-95131009D01*
X103685714Y-95131009D02*
X103638095Y-95178628D01*
X103638095Y-95178628D02*
X103590476Y-95273866D01*
X103590476Y-95273866D02*
X103590476Y-95464342D01*
X103590476Y-95464342D02*
X103638095Y-95559580D01*
X103638095Y-95559580D02*
X103685714Y-95607200D01*
X103685714Y-95607200D02*
X103780952Y-95654819D01*
X103780952Y-95654819D02*
X103971428Y-95654819D01*
X103971428Y-95654819D02*
X104066666Y-95607200D01*
X104066666Y-95607200D02*
X104114285Y-95559580D01*
X104114285Y-95559580D02*
X104161904Y-95464342D01*
X104161904Y-95464342D02*
X104161904Y-95273866D01*
X104161904Y-95273866D02*
X104114285Y-95178628D01*
X104114285Y-95178628D02*
X104066666Y-95131009D01*
X104066666Y-95131009D02*
X103971428Y-95083390D01*
X58024819Y-126833333D02*
X58739104Y-126833333D01*
X58739104Y-126833333D02*
X58881961Y-126880952D01*
X58881961Y-126880952D02*
X58977200Y-126976190D01*
X58977200Y-126976190D02*
X59024819Y-127119047D01*
X59024819Y-127119047D02*
X59024819Y-127214285D01*
X58120057Y-126404761D02*
X58072438Y-126357142D01*
X58072438Y-126357142D02*
X58024819Y-126261904D01*
X58024819Y-126261904D02*
X58024819Y-126023809D01*
X58024819Y-126023809D02*
X58072438Y-125928571D01*
X58072438Y-125928571D02*
X58120057Y-125880952D01*
X58120057Y-125880952D02*
X58215295Y-125833333D01*
X58215295Y-125833333D02*
X58310533Y-125833333D01*
X58310533Y-125833333D02*
X58453390Y-125880952D01*
X58453390Y-125880952D02*
X59024819Y-126452380D01*
X59024819Y-126452380D02*
X59024819Y-125833333D01*
X58024819Y-138833333D02*
X58739104Y-138833333D01*
X58739104Y-138833333D02*
X58881961Y-138880952D01*
X58881961Y-138880952D02*
X58977200Y-138976190D01*
X58977200Y-138976190D02*
X59024819Y-139119047D01*
X59024819Y-139119047D02*
X59024819Y-139214285D01*
X58024819Y-138452380D02*
X58024819Y-137833333D01*
X58024819Y-137833333D02*
X58405771Y-138166666D01*
X58405771Y-138166666D02*
X58405771Y-138023809D01*
X58405771Y-138023809D02*
X58453390Y-137928571D01*
X58453390Y-137928571D02*
X58501009Y-137880952D01*
X58501009Y-137880952D02*
X58596247Y-137833333D01*
X58596247Y-137833333D02*
X58834342Y-137833333D01*
X58834342Y-137833333D02*
X58929580Y-137880952D01*
X58929580Y-137880952D02*
X58977200Y-137928571D01*
X58977200Y-137928571D02*
X59024819Y-138023809D01*
X59024819Y-138023809D02*
X59024819Y-138309523D01*
X59024819Y-138309523D02*
X58977200Y-138404761D01*
X58977200Y-138404761D02*
X58929580Y-138452380D01*
X105424819Y-139309523D02*
X106139104Y-139309523D01*
X106139104Y-139309523D02*
X106281961Y-139357142D01*
X106281961Y-139357142D02*
X106377200Y-139452380D01*
X106377200Y-139452380D02*
X106424819Y-139595237D01*
X106424819Y-139595237D02*
X106424819Y-139690475D01*
X106424819Y-138309523D02*
X106424819Y-138880951D01*
X106424819Y-138595237D02*
X105424819Y-138595237D01*
X105424819Y-138595237D02*
X105567676Y-138690475D01*
X105567676Y-138690475D02*
X105662914Y-138785713D01*
X105662914Y-138785713D02*
X105710533Y-138880951D01*
X105758152Y-137452380D02*
X106424819Y-137452380D01*
X105377200Y-137690475D02*
X106091485Y-137928570D01*
X106091485Y-137928570D02*
X106091485Y-137309523D01*
X94560476Y-104007200D02*
X94703333Y-104054819D01*
X94703333Y-104054819D02*
X94941428Y-104054819D01*
X94941428Y-104054819D02*
X95036666Y-104007200D01*
X95036666Y-104007200D02*
X95084285Y-103959580D01*
X95084285Y-103959580D02*
X95131904Y-103864342D01*
X95131904Y-103864342D02*
X95131904Y-103769104D01*
X95131904Y-103769104D02*
X95084285Y-103673866D01*
X95084285Y-103673866D02*
X95036666Y-103626247D01*
X95036666Y-103626247D02*
X94941428Y-103578628D01*
X94941428Y-103578628D02*
X94750952Y-103531009D01*
X94750952Y-103531009D02*
X94655714Y-103483390D01*
X94655714Y-103483390D02*
X94608095Y-103435771D01*
X94608095Y-103435771D02*
X94560476Y-103340533D01*
X94560476Y-103340533D02*
X94560476Y-103245295D01*
X94560476Y-103245295D02*
X94608095Y-103150057D01*
X94608095Y-103150057D02*
X94655714Y-103102438D01*
X94655714Y-103102438D02*
X94750952Y-103054819D01*
X94750952Y-103054819D02*
X94989047Y-103054819D01*
X94989047Y-103054819D02*
X95131904Y-103102438D01*
X95465238Y-103054819D02*
X95703333Y-104054819D01*
X95703333Y-104054819D02*
X95893809Y-103340533D01*
X95893809Y-103340533D02*
X96084285Y-104054819D01*
X96084285Y-104054819D02*
X96322381Y-103054819D01*
X97227142Y-104054819D02*
X96655714Y-104054819D01*
X96941428Y-104054819D02*
X96941428Y-103054819D01*
X96941428Y-103054819D02*
X96846190Y-103197676D01*
X96846190Y-103197676D02*
X96750952Y-103292914D01*
X96750952Y-103292914D02*
X96655714Y-103340533D01*
X97560476Y-103054819D02*
X98179523Y-103054819D01*
X98179523Y-103054819D02*
X97846190Y-103435771D01*
X97846190Y-103435771D02*
X97989047Y-103435771D01*
X97989047Y-103435771D02*
X98084285Y-103483390D01*
X98084285Y-103483390D02*
X98131904Y-103531009D01*
X98131904Y-103531009D02*
X98179523Y-103626247D01*
X98179523Y-103626247D02*
X98179523Y-103864342D01*
X98179523Y-103864342D02*
X98131904Y-103959580D01*
X98131904Y-103959580D02*
X98084285Y-104007200D01*
X98084285Y-104007200D02*
X97989047Y-104054819D01*
X97989047Y-104054819D02*
X97703333Y-104054819D01*
X97703333Y-104054819D02*
X97608095Y-104007200D01*
X97608095Y-104007200D02*
X97560476Y-103959580D01*
X86688095Y-74454819D02*
X86688095Y-73454819D01*
X86688095Y-73931009D02*
X87259523Y-73931009D01*
X87259523Y-74454819D02*
X87259523Y-73454819D01*
X88164285Y-73454819D02*
X87973809Y-73454819D01*
X87973809Y-73454819D02*
X87878571Y-73502438D01*
X87878571Y-73502438D02*
X87830952Y-73550057D01*
X87830952Y-73550057D02*
X87735714Y-73692914D01*
X87735714Y-73692914D02*
X87688095Y-73883390D01*
X87688095Y-73883390D02*
X87688095Y-74264342D01*
X87688095Y-74264342D02*
X87735714Y-74359580D01*
X87735714Y-74359580D02*
X87783333Y-74407200D01*
X87783333Y-74407200D02*
X87878571Y-74454819D01*
X87878571Y-74454819D02*
X88069047Y-74454819D01*
X88069047Y-74454819D02*
X88164285Y-74407200D01*
X88164285Y-74407200D02*
X88211904Y-74359580D01*
X88211904Y-74359580D02*
X88259523Y-74264342D01*
X88259523Y-74264342D02*
X88259523Y-74026247D01*
X88259523Y-74026247D02*
X88211904Y-73931009D01*
X88211904Y-73931009D02*
X88164285Y-73883390D01*
X88164285Y-73883390D02*
X88069047Y-73835771D01*
X88069047Y-73835771D02*
X87878571Y-73835771D01*
X87878571Y-73835771D02*
X87783333Y-73883390D01*
X87783333Y-73883390D02*
X87735714Y-73931009D01*
X87735714Y-73931009D02*
X87688095Y-74026247D01*
X101785714Y-83654819D02*
X101785714Y-82654819D01*
X101785714Y-82654819D02*
X102023809Y-82654819D01*
X102023809Y-82654819D02*
X102166666Y-82702438D01*
X102166666Y-82702438D02*
X102261904Y-82797676D01*
X102261904Y-82797676D02*
X102309523Y-82892914D01*
X102309523Y-82892914D02*
X102357142Y-83083390D01*
X102357142Y-83083390D02*
X102357142Y-83226247D01*
X102357142Y-83226247D02*
X102309523Y-83416723D01*
X102309523Y-83416723D02*
X102261904Y-83511961D01*
X102261904Y-83511961D02*
X102166666Y-83607200D01*
X102166666Y-83607200D02*
X102023809Y-83654819D01*
X102023809Y-83654819D02*
X101785714Y-83654819D01*
X102738095Y-82750057D02*
X102785714Y-82702438D01*
X102785714Y-82702438D02*
X102880952Y-82654819D01*
X102880952Y-82654819D02*
X103119047Y-82654819D01*
X103119047Y-82654819D02*
X103214285Y-82702438D01*
X103214285Y-82702438D02*
X103261904Y-82750057D01*
X103261904Y-82750057D02*
X103309523Y-82845295D01*
X103309523Y-82845295D02*
X103309523Y-82940533D01*
X103309523Y-82940533D02*
X103261904Y-83083390D01*
X103261904Y-83083390D02*
X102690476Y-83654819D01*
X102690476Y-83654819D02*
X103309523Y-83654819D01*
X103642857Y-82654819D02*
X104309523Y-82654819D01*
X104309523Y-82654819D02*
X103880952Y-83654819D01*
X105424819Y-89309523D02*
X106139104Y-89309523D01*
X106139104Y-89309523D02*
X106281961Y-89357142D01*
X106281961Y-89357142D02*
X106377200Y-89452380D01*
X106377200Y-89452380D02*
X106424819Y-89595237D01*
X106424819Y-89595237D02*
X106424819Y-89690475D01*
X106424819Y-88309523D02*
X106424819Y-88880951D01*
X106424819Y-88595237D02*
X105424819Y-88595237D01*
X105424819Y-88595237D02*
X105567676Y-88690475D01*
X105567676Y-88690475D02*
X105662914Y-88785713D01*
X105662914Y-88785713D02*
X105710533Y-88880951D01*
X105424819Y-87690475D02*
X105424819Y-87595237D01*
X105424819Y-87595237D02*
X105472438Y-87499999D01*
X105472438Y-87499999D02*
X105520057Y-87452380D01*
X105520057Y-87452380D02*
X105615295Y-87404761D01*
X105615295Y-87404761D02*
X105805771Y-87357142D01*
X105805771Y-87357142D02*
X106043866Y-87357142D01*
X106043866Y-87357142D02*
X106234342Y-87404761D01*
X106234342Y-87404761D02*
X106329580Y-87452380D01*
X106329580Y-87452380D02*
X106377200Y-87499999D01*
X106377200Y-87499999D02*
X106424819Y-87595237D01*
X106424819Y-87595237D02*
X106424819Y-87690475D01*
X106424819Y-87690475D02*
X106377200Y-87785713D01*
X106377200Y-87785713D02*
X106329580Y-87833332D01*
X106329580Y-87833332D02*
X106234342Y-87880951D01*
X106234342Y-87880951D02*
X106043866Y-87928570D01*
X106043866Y-87928570D02*
X105805771Y-87928570D01*
X105805771Y-87928570D02*
X105615295Y-87880951D01*
X105615295Y-87880951D02*
X105520057Y-87833332D01*
X105520057Y-87833332D02*
X105472438Y-87785713D01*
X105472438Y-87785713D02*
X105424819Y-87690475D01*
X94710476Y-80007200D02*
X94853333Y-80054819D01*
X94853333Y-80054819D02*
X95091428Y-80054819D01*
X95091428Y-80054819D02*
X95186666Y-80007200D01*
X95186666Y-80007200D02*
X95234285Y-79959580D01*
X95234285Y-79959580D02*
X95281904Y-79864342D01*
X95281904Y-79864342D02*
X95281904Y-79769104D01*
X95281904Y-79769104D02*
X95234285Y-79673866D01*
X95234285Y-79673866D02*
X95186666Y-79626247D01*
X95186666Y-79626247D02*
X95091428Y-79578628D01*
X95091428Y-79578628D02*
X94900952Y-79531009D01*
X94900952Y-79531009D02*
X94805714Y-79483390D01*
X94805714Y-79483390D02*
X94758095Y-79435771D01*
X94758095Y-79435771D02*
X94710476Y-79340533D01*
X94710476Y-79340533D02*
X94710476Y-79245295D01*
X94710476Y-79245295D02*
X94758095Y-79150057D01*
X94758095Y-79150057D02*
X94805714Y-79102438D01*
X94805714Y-79102438D02*
X94900952Y-79054819D01*
X94900952Y-79054819D02*
X95139047Y-79054819D01*
X95139047Y-79054819D02*
X95281904Y-79102438D01*
X95615238Y-79054819D02*
X95853333Y-80054819D01*
X95853333Y-80054819D02*
X96043809Y-79340533D01*
X96043809Y-79340533D02*
X96234285Y-80054819D01*
X96234285Y-80054819D02*
X96472381Y-79054819D01*
X97377142Y-80054819D02*
X96805714Y-80054819D01*
X97091428Y-80054819D02*
X97091428Y-79054819D01*
X97091428Y-79054819D02*
X96996190Y-79197676D01*
X96996190Y-79197676D02*
X96900952Y-79292914D01*
X96900952Y-79292914D02*
X96805714Y-79340533D01*
X98329523Y-80054819D02*
X97758095Y-80054819D01*
X98043809Y-80054819D02*
X98043809Y-79054819D01*
X98043809Y-79054819D02*
X97948571Y-79197676D01*
X97948571Y-79197676D02*
X97853333Y-79292914D01*
X97853333Y-79292914D02*
X97758095Y-79340533D01*
X105424819Y-127309523D02*
X106139104Y-127309523D01*
X106139104Y-127309523D02*
X106281961Y-127357142D01*
X106281961Y-127357142D02*
X106377200Y-127452380D01*
X106377200Y-127452380D02*
X106424819Y-127595237D01*
X106424819Y-127595237D02*
X106424819Y-127690475D01*
X106424819Y-126309523D02*
X106424819Y-126880951D01*
X106424819Y-126595237D02*
X105424819Y-126595237D01*
X105424819Y-126595237D02*
X105567676Y-126690475D01*
X105567676Y-126690475D02*
X105662914Y-126785713D01*
X105662914Y-126785713D02*
X105710533Y-126880951D01*
X105424819Y-125976189D02*
X105424819Y-125357142D01*
X105424819Y-125357142D02*
X105805771Y-125690475D01*
X105805771Y-125690475D02*
X105805771Y-125547618D01*
X105805771Y-125547618D02*
X105853390Y-125452380D01*
X105853390Y-125452380D02*
X105901009Y-125404761D01*
X105901009Y-125404761D02*
X105996247Y-125357142D01*
X105996247Y-125357142D02*
X106234342Y-125357142D01*
X106234342Y-125357142D02*
X106329580Y-125404761D01*
X106329580Y-125404761D02*
X106377200Y-125452380D01*
X106377200Y-125452380D02*
X106424819Y-125547618D01*
X106424819Y-125547618D02*
X106424819Y-125833332D01*
X106424819Y-125833332D02*
X106377200Y-125928570D01*
X106377200Y-125928570D02*
X106329580Y-125976189D01*
X105424819Y-101309523D02*
X106139104Y-101309523D01*
X106139104Y-101309523D02*
X106281961Y-101357142D01*
X106281961Y-101357142D02*
X106377200Y-101452380D01*
X106377200Y-101452380D02*
X106424819Y-101595237D01*
X106424819Y-101595237D02*
X106424819Y-101690475D01*
X106424819Y-100309523D02*
X106424819Y-100880951D01*
X106424819Y-100595237D02*
X105424819Y-100595237D01*
X105424819Y-100595237D02*
X105567676Y-100690475D01*
X105567676Y-100690475D02*
X105662914Y-100785713D01*
X105662914Y-100785713D02*
X105710533Y-100880951D01*
X106424819Y-99357142D02*
X106424819Y-99928570D01*
X106424819Y-99642856D02*
X105424819Y-99642856D01*
X105424819Y-99642856D02*
X105567676Y-99738094D01*
X105567676Y-99738094D02*
X105662914Y-99833332D01*
X105662914Y-99833332D02*
X105710533Y-99928570D01*
X58024819Y-150833333D02*
X58739104Y-150833333D01*
X58739104Y-150833333D02*
X58881961Y-150880952D01*
X58881961Y-150880952D02*
X58977200Y-150976190D01*
X58977200Y-150976190D02*
X59024819Y-151119047D01*
X59024819Y-151119047D02*
X59024819Y-151214285D01*
X58358152Y-149928571D02*
X59024819Y-149928571D01*
X57977200Y-150166666D02*
X58691485Y-150404761D01*
X58691485Y-150404761D02*
X58691485Y-149785714D01*
X57089819Y-79734523D02*
X57804104Y-79734523D01*
X57804104Y-79734523D02*
X57946961Y-79782142D01*
X57946961Y-79782142D02*
X58042200Y-79877380D01*
X58042200Y-79877380D02*
X58089819Y-80020237D01*
X58089819Y-80020237D02*
X58089819Y-80115475D01*
X57185057Y-79305951D02*
X57137438Y-79258332D01*
X57137438Y-79258332D02*
X57089819Y-79163094D01*
X57089819Y-79163094D02*
X57089819Y-78924999D01*
X57089819Y-78924999D02*
X57137438Y-78829761D01*
X57137438Y-78829761D02*
X57185057Y-78782142D01*
X57185057Y-78782142D02*
X57280295Y-78734523D01*
X57280295Y-78734523D02*
X57375533Y-78734523D01*
X57375533Y-78734523D02*
X57518390Y-78782142D01*
X57518390Y-78782142D02*
X58089819Y-79353570D01*
X58089819Y-79353570D02*
X58089819Y-78734523D01*
X57185057Y-78353570D02*
X57137438Y-78305951D01*
X57137438Y-78305951D02*
X57089819Y-78210713D01*
X57089819Y-78210713D02*
X57089819Y-77972618D01*
X57089819Y-77972618D02*
X57137438Y-77877380D01*
X57137438Y-77877380D02*
X57185057Y-77829761D01*
X57185057Y-77829761D02*
X57280295Y-77782142D01*
X57280295Y-77782142D02*
X57375533Y-77782142D01*
X57375533Y-77782142D02*
X57518390Y-77829761D01*
X57518390Y-77829761D02*
X58089819Y-78401189D01*
X58089819Y-78401189D02*
X58089819Y-77782142D01*
X81546666Y-52644819D02*
X81546666Y-53359104D01*
X81546666Y-53359104D02*
X81499047Y-53501961D01*
X81499047Y-53501961D02*
X81403809Y-53597200D01*
X81403809Y-53597200D02*
X81260952Y-53644819D01*
X81260952Y-53644819D02*
X81165714Y-53644819D01*
X82499047Y-52644819D02*
X82022857Y-52644819D01*
X82022857Y-52644819D02*
X81975238Y-53121009D01*
X81975238Y-53121009D02*
X82022857Y-53073390D01*
X82022857Y-53073390D02*
X82118095Y-53025771D01*
X82118095Y-53025771D02*
X82356190Y-53025771D01*
X82356190Y-53025771D02*
X82451428Y-53073390D01*
X82451428Y-53073390D02*
X82499047Y-53121009D01*
X82499047Y-53121009D02*
X82546666Y-53216247D01*
X82546666Y-53216247D02*
X82546666Y-53454342D01*
X82546666Y-53454342D02*
X82499047Y-53549580D01*
X82499047Y-53549580D02*
X82451428Y-53597200D01*
X82451428Y-53597200D02*
X82356190Y-53644819D01*
X82356190Y-53644819D02*
X82118095Y-53644819D01*
X82118095Y-53644819D02*
X82022857Y-53597200D01*
X82022857Y-53597200D02*
X81975238Y-53549580D01*
X53116667Y-130007200D02*
X53259524Y-130054819D01*
X53259524Y-130054819D02*
X53497619Y-130054819D01*
X53497619Y-130054819D02*
X53592857Y-130007200D01*
X53592857Y-130007200D02*
X53640476Y-129959580D01*
X53640476Y-129959580D02*
X53688095Y-129864342D01*
X53688095Y-129864342D02*
X53688095Y-129769104D01*
X53688095Y-129769104D02*
X53640476Y-129673866D01*
X53640476Y-129673866D02*
X53592857Y-129626247D01*
X53592857Y-129626247D02*
X53497619Y-129578628D01*
X53497619Y-129578628D02*
X53307143Y-129531009D01*
X53307143Y-129531009D02*
X53211905Y-129483390D01*
X53211905Y-129483390D02*
X53164286Y-129435771D01*
X53164286Y-129435771D02*
X53116667Y-129340533D01*
X53116667Y-129340533D02*
X53116667Y-129245295D01*
X53116667Y-129245295D02*
X53164286Y-129150057D01*
X53164286Y-129150057D02*
X53211905Y-129102438D01*
X53211905Y-129102438D02*
X53307143Y-129054819D01*
X53307143Y-129054819D02*
X53545238Y-129054819D01*
X53545238Y-129054819D02*
X53688095Y-129102438D01*
X54021429Y-129054819D02*
X54259524Y-130054819D01*
X54259524Y-130054819D02*
X54450000Y-129340533D01*
X54450000Y-129340533D02*
X54640476Y-130054819D01*
X54640476Y-130054819D02*
X54878572Y-129054819D01*
X55211905Y-129150057D02*
X55259524Y-129102438D01*
X55259524Y-129102438D02*
X55354762Y-129054819D01*
X55354762Y-129054819D02*
X55592857Y-129054819D01*
X55592857Y-129054819D02*
X55688095Y-129102438D01*
X55688095Y-129102438D02*
X55735714Y-129150057D01*
X55735714Y-129150057D02*
X55783333Y-129245295D01*
X55783333Y-129245295D02*
X55783333Y-129340533D01*
X55783333Y-129340533D02*
X55735714Y-129483390D01*
X55735714Y-129483390D02*
X55164286Y-130054819D01*
X55164286Y-130054819D02*
X55783333Y-130054819D01*
X105424819Y-76833333D02*
X106139104Y-76833333D01*
X106139104Y-76833333D02*
X106281961Y-76880952D01*
X106281961Y-76880952D02*
X106377200Y-76976190D01*
X106377200Y-76976190D02*
X106424819Y-77119047D01*
X106424819Y-77119047D02*
X106424819Y-77214285D01*
X106424819Y-76309523D02*
X106424819Y-76119047D01*
X106424819Y-76119047D02*
X106377200Y-76023809D01*
X106377200Y-76023809D02*
X106329580Y-75976190D01*
X106329580Y-75976190D02*
X106186723Y-75880952D01*
X106186723Y-75880952D02*
X105996247Y-75833333D01*
X105996247Y-75833333D02*
X105615295Y-75833333D01*
X105615295Y-75833333D02*
X105520057Y-75880952D01*
X105520057Y-75880952D02*
X105472438Y-75928571D01*
X105472438Y-75928571D02*
X105424819Y-76023809D01*
X105424819Y-76023809D02*
X105424819Y-76214285D01*
X105424819Y-76214285D02*
X105472438Y-76309523D01*
X105472438Y-76309523D02*
X105520057Y-76357142D01*
X105520057Y-76357142D02*
X105615295Y-76404761D01*
X105615295Y-76404761D02*
X105853390Y-76404761D01*
X105853390Y-76404761D02*
X105948628Y-76357142D01*
X105948628Y-76357142D02*
X105996247Y-76309523D01*
X105996247Y-76309523D02*
X106043866Y-76214285D01*
X106043866Y-76214285D02*
X106043866Y-76023809D01*
X106043866Y-76023809D02*
X105996247Y-75928571D01*
X105996247Y-75928571D02*
X105948628Y-75880952D01*
X105948628Y-75880952D02*
X105853390Y-75833333D01*
X101785714Y-109554819D02*
X101785714Y-108554819D01*
X101785714Y-108554819D02*
X102023809Y-108554819D01*
X102023809Y-108554819D02*
X102166666Y-108602438D01*
X102166666Y-108602438D02*
X102261904Y-108697676D01*
X102261904Y-108697676D02*
X102309523Y-108792914D01*
X102309523Y-108792914D02*
X102357142Y-108983390D01*
X102357142Y-108983390D02*
X102357142Y-109126247D01*
X102357142Y-109126247D02*
X102309523Y-109316723D01*
X102309523Y-109316723D02*
X102261904Y-109411961D01*
X102261904Y-109411961D02*
X102166666Y-109507200D01*
X102166666Y-109507200D02*
X102023809Y-109554819D01*
X102023809Y-109554819D02*
X101785714Y-109554819D01*
X102690476Y-108554819D02*
X103309523Y-108554819D01*
X103309523Y-108554819D02*
X102976190Y-108935771D01*
X102976190Y-108935771D02*
X103119047Y-108935771D01*
X103119047Y-108935771D02*
X103214285Y-108983390D01*
X103214285Y-108983390D02*
X103261904Y-109031009D01*
X103261904Y-109031009D02*
X103309523Y-109126247D01*
X103309523Y-109126247D02*
X103309523Y-109364342D01*
X103309523Y-109364342D02*
X103261904Y-109459580D01*
X103261904Y-109459580D02*
X103214285Y-109507200D01*
X103214285Y-109507200D02*
X103119047Y-109554819D01*
X103119047Y-109554819D02*
X102833333Y-109554819D01*
X102833333Y-109554819D02*
X102738095Y-109507200D01*
X102738095Y-109507200D02*
X102690476Y-109459580D01*
X103642857Y-108554819D02*
X104261904Y-108554819D01*
X104261904Y-108554819D02*
X103928571Y-108935771D01*
X103928571Y-108935771D02*
X104071428Y-108935771D01*
X104071428Y-108935771D02*
X104166666Y-108983390D01*
X104166666Y-108983390D02*
X104214285Y-109031009D01*
X104214285Y-109031009D02*
X104261904Y-109126247D01*
X104261904Y-109126247D02*
X104261904Y-109364342D01*
X104261904Y-109364342D02*
X104214285Y-109459580D01*
X104214285Y-109459580D02*
X104166666Y-109507200D01*
X104166666Y-109507200D02*
X104071428Y-109554819D01*
X104071428Y-109554819D02*
X103785714Y-109554819D01*
X103785714Y-109554819D02*
X103690476Y-109507200D01*
X103690476Y-109507200D02*
X103642857Y-109459580D01*
X74205714Y-151414819D02*
X74205714Y-150414819D01*
X74205714Y-150414819D02*
X74443809Y-150414819D01*
X74443809Y-150414819D02*
X74586666Y-150462438D01*
X74586666Y-150462438D02*
X74681904Y-150557676D01*
X74681904Y-150557676D02*
X74729523Y-150652914D01*
X74729523Y-150652914D02*
X74777142Y-150843390D01*
X74777142Y-150843390D02*
X74777142Y-150986247D01*
X74777142Y-150986247D02*
X74729523Y-151176723D01*
X74729523Y-151176723D02*
X74681904Y-151271961D01*
X74681904Y-151271961D02*
X74586666Y-151367200D01*
X74586666Y-151367200D02*
X74443809Y-151414819D01*
X74443809Y-151414819D02*
X74205714Y-151414819D01*
X75729523Y-151414819D02*
X75158095Y-151414819D01*
X75443809Y-151414819D02*
X75443809Y-150414819D01*
X75443809Y-150414819D02*
X75348571Y-150557676D01*
X75348571Y-150557676D02*
X75253333Y-150652914D01*
X75253333Y-150652914D02*
X75158095Y-150700533D01*
X76681904Y-151414819D02*
X76110476Y-151414819D01*
X76396190Y-151414819D02*
X76396190Y-150414819D01*
X76396190Y-150414819D02*
X76300952Y-150557676D01*
X76300952Y-150557676D02*
X76205714Y-150652914D01*
X76205714Y-150652914D02*
X76110476Y-150700533D01*
X79616667Y-78907200D02*
X79759524Y-78954819D01*
X79759524Y-78954819D02*
X79997619Y-78954819D01*
X79997619Y-78954819D02*
X80092857Y-78907200D01*
X80092857Y-78907200D02*
X80140476Y-78859580D01*
X80140476Y-78859580D02*
X80188095Y-78764342D01*
X80188095Y-78764342D02*
X80188095Y-78669104D01*
X80188095Y-78669104D02*
X80140476Y-78573866D01*
X80140476Y-78573866D02*
X80092857Y-78526247D01*
X80092857Y-78526247D02*
X79997619Y-78478628D01*
X79997619Y-78478628D02*
X79807143Y-78431009D01*
X79807143Y-78431009D02*
X79711905Y-78383390D01*
X79711905Y-78383390D02*
X79664286Y-78335771D01*
X79664286Y-78335771D02*
X79616667Y-78240533D01*
X79616667Y-78240533D02*
X79616667Y-78145295D01*
X79616667Y-78145295D02*
X79664286Y-78050057D01*
X79664286Y-78050057D02*
X79711905Y-78002438D01*
X79711905Y-78002438D02*
X79807143Y-77954819D01*
X79807143Y-77954819D02*
X80045238Y-77954819D01*
X80045238Y-77954819D02*
X80188095Y-78002438D01*
X80521429Y-77954819D02*
X80759524Y-78954819D01*
X80759524Y-78954819D02*
X80950000Y-78240533D01*
X80950000Y-78240533D02*
X81140476Y-78954819D01*
X81140476Y-78954819D02*
X81378572Y-77954819D01*
X81807143Y-78954819D02*
X81997619Y-78954819D01*
X81997619Y-78954819D02*
X82092857Y-78907200D01*
X82092857Y-78907200D02*
X82140476Y-78859580D01*
X82140476Y-78859580D02*
X82235714Y-78716723D01*
X82235714Y-78716723D02*
X82283333Y-78526247D01*
X82283333Y-78526247D02*
X82283333Y-78145295D01*
X82283333Y-78145295D02*
X82235714Y-78050057D01*
X82235714Y-78050057D02*
X82188095Y-78002438D01*
X82188095Y-78002438D02*
X82092857Y-77954819D01*
X82092857Y-77954819D02*
X81902381Y-77954819D01*
X81902381Y-77954819D02*
X81807143Y-78002438D01*
X81807143Y-78002438D02*
X81759524Y-78050057D01*
X81759524Y-78050057D02*
X81711905Y-78145295D01*
X81711905Y-78145295D02*
X81711905Y-78383390D01*
X81711905Y-78383390D02*
X81759524Y-78478628D01*
X81759524Y-78478628D02*
X81807143Y-78526247D01*
X81807143Y-78526247D02*
X81902381Y-78573866D01*
X81902381Y-78573866D02*
X82092857Y-78573866D01*
X82092857Y-78573866D02*
X82188095Y-78526247D01*
X82188095Y-78526247D02*
X82235714Y-78478628D01*
X82235714Y-78478628D02*
X82283333Y-78383390D01*
X69116667Y-78907200D02*
X69259524Y-78954819D01*
X69259524Y-78954819D02*
X69497619Y-78954819D01*
X69497619Y-78954819D02*
X69592857Y-78907200D01*
X69592857Y-78907200D02*
X69640476Y-78859580D01*
X69640476Y-78859580D02*
X69688095Y-78764342D01*
X69688095Y-78764342D02*
X69688095Y-78669104D01*
X69688095Y-78669104D02*
X69640476Y-78573866D01*
X69640476Y-78573866D02*
X69592857Y-78526247D01*
X69592857Y-78526247D02*
X69497619Y-78478628D01*
X69497619Y-78478628D02*
X69307143Y-78431009D01*
X69307143Y-78431009D02*
X69211905Y-78383390D01*
X69211905Y-78383390D02*
X69164286Y-78335771D01*
X69164286Y-78335771D02*
X69116667Y-78240533D01*
X69116667Y-78240533D02*
X69116667Y-78145295D01*
X69116667Y-78145295D02*
X69164286Y-78050057D01*
X69164286Y-78050057D02*
X69211905Y-78002438D01*
X69211905Y-78002438D02*
X69307143Y-77954819D01*
X69307143Y-77954819D02*
X69545238Y-77954819D01*
X69545238Y-77954819D02*
X69688095Y-78002438D01*
X70021429Y-77954819D02*
X70259524Y-78954819D01*
X70259524Y-78954819D02*
X70450000Y-78240533D01*
X70450000Y-78240533D02*
X70640476Y-78954819D01*
X70640476Y-78954819D02*
X70878572Y-77954819D01*
X71402381Y-78383390D02*
X71307143Y-78335771D01*
X71307143Y-78335771D02*
X71259524Y-78288152D01*
X71259524Y-78288152D02*
X71211905Y-78192914D01*
X71211905Y-78192914D02*
X71211905Y-78145295D01*
X71211905Y-78145295D02*
X71259524Y-78050057D01*
X71259524Y-78050057D02*
X71307143Y-78002438D01*
X71307143Y-78002438D02*
X71402381Y-77954819D01*
X71402381Y-77954819D02*
X71592857Y-77954819D01*
X71592857Y-77954819D02*
X71688095Y-78002438D01*
X71688095Y-78002438D02*
X71735714Y-78050057D01*
X71735714Y-78050057D02*
X71783333Y-78145295D01*
X71783333Y-78145295D02*
X71783333Y-78192914D01*
X71783333Y-78192914D02*
X71735714Y-78288152D01*
X71735714Y-78288152D02*
X71688095Y-78335771D01*
X71688095Y-78335771D02*
X71592857Y-78383390D01*
X71592857Y-78383390D02*
X71402381Y-78383390D01*
X71402381Y-78383390D02*
X71307143Y-78431009D01*
X71307143Y-78431009D02*
X71259524Y-78478628D01*
X71259524Y-78478628D02*
X71211905Y-78573866D01*
X71211905Y-78573866D02*
X71211905Y-78764342D01*
X71211905Y-78764342D02*
X71259524Y-78859580D01*
X71259524Y-78859580D02*
X71307143Y-78907200D01*
X71307143Y-78907200D02*
X71402381Y-78954819D01*
X71402381Y-78954819D02*
X71592857Y-78954819D01*
X71592857Y-78954819D02*
X71688095Y-78907200D01*
X71688095Y-78907200D02*
X71735714Y-78859580D01*
X71735714Y-78859580D02*
X71783333Y-78764342D01*
X71783333Y-78764342D02*
X71783333Y-78573866D01*
X71783333Y-78573866D02*
X71735714Y-78478628D01*
X71735714Y-78478628D02*
X71688095Y-78431009D01*
X71688095Y-78431009D02*
X71592857Y-78383390D01*
D11*
X101430000Y-122764000D02*
X101430000Y-122920000D01*
X101430000Y-125080000D02*
X101430000Y-125236000D01*
X101430000Y-122764484D02*
G75*
G02*
X104662335Y-122921392I1560000J-1235516D01*
G01*
X101949039Y-122920000D02*
G75*
G02*
X104031130Y-122920163I1040961J-1080000D01*
G01*
X104031130Y-125079837D02*
G75*
G02*
X101949039Y-125080000I-1041130J1079837D01*
G01*
X104662335Y-125078608D02*
G75*
G02*
X101430000Y-125235516I-1672335J1078608D01*
G01*
X97150000Y-53000000D02*
X97150000Y-54500000D01*
X98400000Y-57000000D02*
X102900000Y-57000000D01*
X102900000Y-50500000D02*
X98400000Y-50500000D01*
X104150000Y-54500000D02*
X104150000Y-53000000D01*
X93220000Y-133750000D02*
X93220000Y-138250000D01*
X95720000Y-139500000D02*
X97220000Y-139500000D01*
X97220000Y-132500000D02*
X95720000Y-132500000D01*
X99720000Y-138250000D02*
X99720000Y-133750000D01*
X93220000Y-145750000D02*
X93220000Y-150250000D01*
X95720000Y-151500000D02*
X97220000Y-151500000D01*
X97220000Y-144500000D02*
X95720000Y-144500000D01*
X99720000Y-150250000D02*
X99720000Y-145750000D01*
D12*
X106770000Y-146400000D02*
X106770000Y-143500000D01*
X106770000Y-152500000D02*
X106770000Y-149600000D01*
X117270000Y-143500000D02*
X106770000Y-143500000D01*
X117270000Y-146500000D02*
X117270000Y-143500000D01*
X117270000Y-152500000D02*
X106770000Y-152500000D01*
X117270000Y-152500000D02*
X117270000Y-149500000D01*
D11*
X109875000Y-148000000D02*
G75*
G02*
X115358576Y-146703737I2895000J0D01*
G01*
X115358577Y-149296263D02*
G75*
G02*
X109874999Y-148000000I-2588577J1296263D01*
G01*
X93220000Y-60100000D02*
X93220000Y-64600000D01*
X95720000Y-65850000D02*
X97220000Y-65850000D01*
X97220000Y-58850000D02*
X95720000Y-58850000D01*
X99720000Y-64600000D02*
X99720000Y-60100000D01*
X101430000Y-61114000D02*
X101430000Y-61270000D01*
X101430000Y-63430000D02*
X101430000Y-63586000D01*
X101430000Y-61114484D02*
G75*
G02*
X104662335Y-61271392I1560000J-1235516D01*
G01*
X101949039Y-61270000D02*
G75*
G02*
X104031130Y-61270163I1040961J-1080000D01*
G01*
X104031130Y-63429837D02*
G75*
G02*
X101949039Y-63430000I-1041130J1079837D01*
G01*
X104662335Y-63428608D02*
G75*
G02*
X101430000Y-63585516I-1672335J1078608D01*
G01*
X93220000Y-121750000D02*
X93220000Y-126250000D01*
X95720000Y-127500000D02*
X97220000Y-127500000D01*
X97220000Y-120500000D02*
X95720000Y-120500000D01*
X99720000Y-126250000D02*
X99720000Y-121750000D01*
X101430000Y-146764000D02*
X101430000Y-146920000D01*
X101430000Y-149080000D02*
X101430000Y-149236000D01*
X101430000Y-146764484D02*
G75*
G02*
X104662335Y-146921392I1560000J-1235516D01*
G01*
X101949039Y-146920000D02*
G75*
G02*
X104031130Y-146920163I1040961J-1080000D01*
G01*
X104031130Y-149079837D02*
G75*
G02*
X101949039Y-149080000I-1041130J1079837D01*
G01*
X104662335Y-149078608D02*
G75*
G02*
X101430000Y-149235516I-1672335J1078608D01*
G01*
X54350000Y-59100000D02*
X54350000Y-60600000D01*
X55600000Y-63100000D02*
X60100000Y-63100000D01*
X60100000Y-56600000D02*
X55600000Y-56600000D01*
X61350000Y-60600000D02*
X61350000Y-59100000D01*
X101430000Y-72764000D02*
X101430000Y-72920000D01*
X101430000Y-75080000D02*
X101430000Y-75236000D01*
X101430000Y-72764484D02*
G75*
G02*
X104662335Y-72921392I1560000J-1235516D01*
G01*
X101949039Y-72920000D02*
G75*
G02*
X104031130Y-72920163I1040961J-1080000D01*
G01*
X104031130Y-75079837D02*
G75*
G02*
X101949039Y-75080000I-1041130J1079837D01*
G01*
X104662335Y-75078608D02*
G75*
G02*
X101430000Y-75235516I-1672335J1078608D01*
G01*
D12*
X106770000Y-60400000D02*
X106770000Y-57500000D01*
X106770000Y-66500000D02*
X106770000Y-63600000D01*
X117270000Y-57500000D02*
X106770000Y-57500000D01*
X117270000Y-60500000D02*
X117270000Y-57500000D01*
X117270000Y-66500000D02*
X106770000Y-66500000D01*
X117270000Y-66500000D02*
X117270000Y-63500000D01*
D11*
X109875000Y-62000000D02*
G75*
G02*
X115358576Y-60703737I2895000J0D01*
G01*
X115358577Y-63296263D02*
G75*
G02*
X109874999Y-62000000I-2588577J1296263D01*
G01*
X93220000Y-83750000D02*
X93220000Y-88250000D01*
X95720000Y-89500000D02*
X97220000Y-89500000D01*
X97220000Y-82500000D02*
X95720000Y-82500000D01*
X99720000Y-88250000D02*
X99720000Y-83750000D01*
D12*
X78370000Y-106000000D02*
X81270000Y-106000000D01*
X78370000Y-116500000D02*
X78370000Y-106000000D01*
X78370000Y-116500000D02*
X81370000Y-116500000D01*
X84370000Y-116500000D02*
X87370000Y-116500000D01*
X84470000Y-106000000D02*
X87370000Y-106000000D01*
X87370000Y-116500000D02*
X87370000Y-106000000D01*
D11*
X81573737Y-114588577D02*
G75*
G02*
X82870000Y-109104999I1296263J2588577D01*
G01*
X82870000Y-109105000D02*
G75*
G02*
X84166263Y-114588576I0J-2895000D01*
G01*
X54350000Y-66800000D02*
X54350000Y-68300000D01*
X55600000Y-70800000D02*
X60100000Y-70800000D01*
X60100000Y-64300000D02*
X55600000Y-64300000D01*
X61350000Y-68300000D02*
X61350000Y-66800000D01*
X51000000Y-145750000D02*
X51000000Y-150250000D01*
X53500000Y-151500000D02*
X55000000Y-151500000D01*
X55000000Y-144500000D02*
X53500000Y-144500000D01*
X57500000Y-150250000D02*
X57500000Y-145750000D01*
X69000000Y-87300000D02*
X69000000Y-89500000D01*
X69000000Y-97700000D02*
X69000000Y-99900000D01*
X69000000Y-99900000D02*
X73800000Y-99900000D01*
X73800000Y-87300000D02*
X69000000Y-87300000D01*
X77600000Y-87300000D02*
X82400000Y-87300000D01*
X82400000Y-87300000D02*
X82400000Y-90100000D01*
X82400000Y-97100000D02*
X82400000Y-99900000D01*
X82400000Y-99900000D02*
X77600000Y-99900000D01*
X76980000Y-110920000D02*
X76980000Y-110764000D01*
X76980000Y-113236000D02*
X76980000Y-113080000D01*
X73747665Y-110921392D02*
G75*
G02*
X76980000Y-110764484I1672335J-1078608D01*
G01*
X74378870Y-110920163D02*
G75*
G02*
X76460961Y-110920000I1041130J-1079837D01*
G01*
X76460961Y-113080000D02*
G75*
G02*
X74378870Y-113079837I-1040961J1080000D01*
G01*
X76980000Y-113235516D02*
G75*
G02*
X73747665Y-113078608I-1560000J1235516D01*
G01*
X93220000Y-109750000D02*
X93220000Y-114250000D01*
X95720000Y-115500000D02*
X97220000Y-115500000D01*
X97220000Y-108500000D02*
X95720000Y-108500000D01*
X99720000Y-114250000D02*
X99720000Y-109750000D01*
X51000000Y-109750000D02*
X51000000Y-114250000D01*
X53500000Y-115500000D02*
X55000000Y-115500000D01*
X55000000Y-108500000D02*
X53500000Y-108500000D01*
X57500000Y-114250000D02*
X57500000Y-109750000D01*
X81310000Y-144764000D02*
X81310000Y-144920000D01*
X81310000Y-147080000D02*
X81310000Y-147236000D01*
X81310000Y-144764484D02*
G75*
G02*
X84542335Y-144921392I1560000J-1235516D01*
G01*
X81829039Y-144920000D02*
G75*
G02*
X83911130Y-144920163I1040961J-1080000D01*
G01*
X83911130Y-147079837D02*
G75*
G02*
X81829039Y-147080000I-1041130J1079837D01*
G01*
X84542335Y-147078608D02*
G75*
G02*
X81310000Y-147235516I-1672335J1078608D01*
G01*
D12*
X78370000Y-130000000D02*
X81270000Y-130000000D01*
X78370000Y-140500000D02*
X78370000Y-130000000D01*
X78370000Y-140500000D02*
X81370000Y-140500000D01*
X84370000Y-140500000D02*
X87370000Y-140500000D01*
X84470000Y-130000000D02*
X87370000Y-130000000D01*
X87370000Y-140500000D02*
X87370000Y-130000000D01*
D11*
X81573737Y-138588577D02*
G75*
G02*
X82870000Y-133104999I1296263J2588577D01*
G01*
X82870000Y-133105000D02*
G75*
G02*
X84166263Y-138588576I0J-2895000D01*
G01*
X81310000Y-120764000D02*
X81310000Y-120920000D01*
X81310000Y-123080000D02*
X81310000Y-123236000D01*
X81310000Y-120764484D02*
G75*
G02*
X84542335Y-120921392I1560000J-1235516D01*
G01*
X81829039Y-120920000D02*
G75*
G02*
X83911130Y-120920163I1040961J-1080000D01*
G01*
X83911130Y-123079837D02*
G75*
G02*
X81829039Y-123080000I-1041130J1079837D01*
G01*
X84542335Y-123078608D02*
G75*
G02*
X81310000Y-123235516I-1672335J1078608D01*
G01*
X51000000Y-133750000D02*
X51000000Y-138250000D01*
X53500000Y-139500000D02*
X55000000Y-139500000D01*
X55000000Y-132500000D02*
X53500000Y-132500000D01*
X57500000Y-138250000D02*
X57500000Y-133750000D01*
D12*
X106770000Y-110400000D02*
X106770000Y-107500000D01*
X106770000Y-116500000D02*
X106770000Y-113600000D01*
X117270000Y-107500000D02*
X106770000Y-107500000D01*
X117270000Y-110500000D02*
X117270000Y-107500000D01*
X117270000Y-116500000D02*
X106770000Y-116500000D01*
X117270000Y-116500000D02*
X117270000Y-113500000D01*
D11*
X109875000Y-112000000D02*
G75*
G02*
X115358576Y-110703737I2895000J0D01*
G01*
X115358577Y-113296263D02*
G75*
G02*
X109874999Y-112000000I-2588577J1296263D01*
G01*
X76980000Y-134920000D02*
X76980000Y-134764000D01*
X76980000Y-137236000D02*
X76980000Y-137080000D01*
X73747665Y-134921392D02*
G75*
G02*
X76980000Y-134764484I1672335J-1078608D01*
G01*
X74378870Y-134920163D02*
G75*
G02*
X76460961Y-134920000I1041130J-1079837D01*
G01*
X76460961Y-137080000D02*
G75*
G02*
X74378870Y-137079837I-1040961J1080000D01*
G01*
X76980000Y-137235516D02*
G75*
G02*
X73747665Y-137078608I-1560000J1235516D01*
G01*
X101430000Y-134764000D02*
X101430000Y-134920000D01*
X101430000Y-137080000D02*
X101430000Y-137236000D01*
X101430000Y-134764484D02*
G75*
G02*
X104662335Y-134921392I1560000J-1235516D01*
G01*
X101949039Y-134920000D02*
G75*
G02*
X104031130Y-134920163I1040961J-1080000D01*
G01*
X104031130Y-137079837D02*
G75*
G02*
X101949039Y-137080000I-1041130J1079837D01*
G01*
X104662335Y-137078608D02*
G75*
G02*
X101430000Y-137235516I-1672335J1078608D01*
G01*
X76980000Y-122920000D02*
X76980000Y-122764000D01*
X76980000Y-125236000D02*
X76980000Y-125080000D01*
X73747665Y-122921392D02*
G75*
G02*
X76980000Y-122764484I1672335J-1078608D01*
G01*
X74378870Y-122920163D02*
G75*
G02*
X76460961Y-122920000I1041130J-1079837D01*
G01*
X76460961Y-125080000D02*
G75*
G02*
X74378870Y-125079837I-1040961J1080000D01*
G01*
X76980000Y-125235516D02*
G75*
G02*
X73747665Y-125078608I-1560000J1235516D01*
G01*
D12*
X59370000Y-110400000D02*
X59370000Y-107500000D01*
X59370000Y-116500000D02*
X59370000Y-113600000D01*
X69870000Y-107500000D02*
X59370000Y-107500000D01*
X69870000Y-110500000D02*
X69870000Y-107500000D01*
X69870000Y-116500000D02*
X59370000Y-116500000D01*
X69870000Y-116500000D02*
X69870000Y-113500000D01*
D11*
X62475000Y-112000000D02*
G75*
G02*
X67958576Y-110703737I2895000J0D01*
G01*
X67958577Y-113296263D02*
G75*
G02*
X62474999Y-112000000I-2588577J1296263D01*
G01*
X101430000Y-96764000D02*
X101430000Y-96920000D01*
X101430000Y-99080000D02*
X101430000Y-99236000D01*
X101430000Y-96764484D02*
G75*
G02*
X104662335Y-96921392I1560000J-1235516D01*
G01*
X101949039Y-96920000D02*
G75*
G02*
X104031130Y-96920163I1040961J-1080000D01*
G01*
X104031130Y-99079837D02*
G75*
G02*
X101949039Y-99080000I-1041130J1079837D01*
G01*
X104662335Y-99078608D02*
G75*
G02*
X101430000Y-99235516I-1672335J1078608D01*
G01*
D12*
X59370000Y-122400000D02*
X59370000Y-119500000D01*
X59370000Y-128500000D02*
X59370000Y-125600000D01*
X69870000Y-119500000D02*
X59370000Y-119500000D01*
X69870000Y-122500000D02*
X69870000Y-119500000D01*
X69870000Y-128500000D02*
X59370000Y-128500000D01*
X69870000Y-128500000D02*
X69870000Y-125500000D01*
D11*
X62475000Y-124000000D02*
G75*
G02*
X67958576Y-122703737I2895000J0D01*
G01*
X67958577Y-125296263D02*
G75*
G02*
X62474999Y-124000000I-2588577J1296263D01*
G01*
D12*
X59370000Y-134400000D02*
X59370000Y-131500000D01*
X59370000Y-140500000D02*
X59370000Y-137600000D01*
X69870000Y-131500000D02*
X59370000Y-131500000D01*
X69870000Y-134500000D02*
X69870000Y-131500000D01*
X69870000Y-140500000D02*
X59370000Y-140500000D01*
X69870000Y-140500000D02*
X69870000Y-137500000D01*
D11*
X62475000Y-136000000D02*
G75*
G02*
X67958576Y-134703737I2895000J0D01*
G01*
X67958577Y-137296263D02*
G75*
G02*
X62474999Y-136000000I-2588577J1296263D01*
G01*
D12*
X106770000Y-134400000D02*
X106770000Y-131500000D01*
X106770000Y-140500000D02*
X106770000Y-137600000D01*
X117270000Y-131500000D02*
X106770000Y-131500000D01*
X117270000Y-134500000D02*
X117270000Y-131500000D01*
X117270000Y-140500000D02*
X106770000Y-140500000D01*
X117270000Y-140500000D02*
X117270000Y-137500000D01*
D11*
X109875000Y-136000000D02*
G75*
G02*
X115358576Y-134703737I2895000J0D01*
G01*
X115358577Y-137296263D02*
G75*
G02*
X109874999Y-136000000I-2588577J1296263D01*
G01*
X93220000Y-95750000D02*
X93220000Y-100250000D01*
X95720000Y-101500000D02*
X97220000Y-101500000D01*
X97220000Y-94500000D02*
X95720000Y-94500000D01*
X99720000Y-100250000D02*
X99720000Y-95750000D01*
X101430000Y-84764000D02*
X101430000Y-84920000D01*
X101430000Y-87080000D02*
X101430000Y-87236000D01*
X101430000Y-84764484D02*
G75*
G02*
X104662335Y-84921392I1560000J-1235516D01*
G01*
X101949039Y-84920000D02*
G75*
G02*
X104031130Y-84920163I1040961J-1080000D01*
G01*
X104031130Y-87079837D02*
G75*
G02*
X101949039Y-87080000I-1041130J1079837D01*
G01*
X104662335Y-87078608D02*
G75*
G02*
X101430000Y-87235516I-1672335J1078608D01*
G01*
D12*
X106770000Y-84400000D02*
X106770000Y-81500000D01*
X106770000Y-90500000D02*
X106770000Y-87600000D01*
X117270000Y-81500000D02*
X106770000Y-81500000D01*
X117270000Y-84500000D02*
X117270000Y-81500000D01*
X117270000Y-90500000D02*
X106770000Y-90500000D01*
X117270000Y-90500000D02*
X117270000Y-87500000D01*
D11*
X109875000Y-86000000D02*
G75*
G02*
X115358576Y-84703737I2895000J0D01*
G01*
X115358577Y-87296263D02*
G75*
G02*
X109874999Y-86000000I-2588577J1296263D01*
G01*
X93220000Y-71750000D02*
X93220000Y-76250000D01*
X95720000Y-77500000D02*
X97220000Y-77500000D01*
X97220000Y-70500000D02*
X95720000Y-70500000D01*
X99720000Y-76250000D02*
X99720000Y-71750000D01*
D12*
X106770000Y-122400000D02*
X106770000Y-119500000D01*
X106770000Y-128500000D02*
X106770000Y-125600000D01*
X117270000Y-119500000D02*
X106770000Y-119500000D01*
X117270000Y-122500000D02*
X117270000Y-119500000D01*
X117270000Y-128500000D02*
X106770000Y-128500000D01*
X117270000Y-128500000D02*
X117270000Y-125500000D01*
D11*
X109875000Y-124000000D02*
G75*
G02*
X115358576Y-122703737I2895000J0D01*
G01*
X115358577Y-125296263D02*
G75*
G02*
X109874999Y-124000000I-2588577J1296263D01*
G01*
D12*
X106770000Y-96400000D02*
X106770000Y-93500000D01*
X106770000Y-102500000D02*
X106770000Y-99600000D01*
X117270000Y-93500000D02*
X106770000Y-93500000D01*
X117270000Y-96500000D02*
X117270000Y-93500000D01*
X117270000Y-102500000D02*
X106770000Y-102500000D01*
X117270000Y-102500000D02*
X117270000Y-99500000D01*
D11*
X109875000Y-98000000D02*
G75*
G02*
X115358576Y-96703737I2895000J0D01*
G01*
X115358577Y-99296263D02*
G75*
G02*
X109874999Y-98000000I-2588577J1296263D01*
G01*
D12*
X59370000Y-146400000D02*
X59370000Y-143500000D01*
X59370000Y-152500000D02*
X59370000Y-149600000D01*
X69870000Y-143500000D02*
X59370000Y-143500000D01*
X69870000Y-146500000D02*
X69870000Y-143500000D01*
X69870000Y-152500000D02*
X59370000Y-152500000D01*
X69870000Y-152500000D02*
X69870000Y-149500000D01*
D11*
X62475000Y-148000000D02*
G75*
G02*
X67958576Y-146703737I2895000J0D01*
G01*
X67958577Y-149296263D02*
G75*
G02*
X62474999Y-148000000I-2588577J1296263D01*
G01*
D13*
X52350000Y-75750000D02*
X56150000Y-75750000D01*
X52350000Y-77280000D02*
X52350000Y-75750000D01*
X52350000Y-81280000D02*
X52350000Y-79720000D01*
X52350000Y-85250000D02*
X52350000Y-83720000D01*
X56150000Y-75750000D02*
X56150000Y-77280000D01*
X56150000Y-79720000D02*
X56150000Y-81280000D01*
X56150000Y-83720000D02*
X56150000Y-85250000D01*
X56150000Y-85250000D02*
X52350000Y-85250000D01*
D12*
X55050000Y-75000000D02*
G75*
G02*
X54850000Y-75000000I-100000J0D01*
G01*
X54850000Y-75000000D02*
G75*
G02*
X55050000Y-75000000I100000J0D01*
G01*
D14*
X70640000Y-51500000D02*
X70640000Y-52000000D01*
X70640000Y-51500000D02*
X71140000Y-51500000D01*
X70640000Y-54500000D02*
X70640000Y-54000000D01*
X70640000Y-54500000D02*
X71140000Y-54500000D01*
D11*
X51000000Y-121750000D02*
X51000000Y-126250000D01*
X53500000Y-127500000D02*
X55000000Y-127500000D01*
X55000000Y-120500000D02*
X53500000Y-120500000D01*
X57500000Y-126250000D02*
X57500000Y-121750000D01*
D12*
X106770000Y-72400000D02*
X106770000Y-69500000D01*
X106770000Y-78500000D02*
X106770000Y-75600000D01*
X117270000Y-69500000D02*
X106770000Y-69500000D01*
X117270000Y-72500000D02*
X117270000Y-69500000D01*
X117270000Y-78500000D02*
X106770000Y-78500000D01*
X117270000Y-78500000D02*
X117270000Y-75500000D01*
D11*
X109875000Y-74000000D02*
G75*
G02*
X115358576Y-72703737I2895000J0D01*
G01*
X115358577Y-75296263D02*
G75*
G02*
X109874999Y-74000000I-2588577J1296263D01*
G01*
X101430000Y-110764000D02*
X101430000Y-110920000D01*
X101430000Y-113080000D02*
X101430000Y-113236000D01*
X101430000Y-110764484D02*
G75*
G02*
X104662335Y-110921392I1560000J-1235516D01*
G01*
X101949039Y-110920000D02*
G75*
G02*
X104031130Y-110920163I1040961J-1080000D01*
G01*
X104031130Y-113079837D02*
G75*
G02*
X101949039Y-113080000I-1041130J1079837D01*
G01*
X104662335Y-113078608D02*
G75*
G02*
X101430000Y-113235516I-1672335J1078608D01*
G01*
X76980000Y-146920000D02*
X76980000Y-146764000D01*
X76980000Y-149236000D02*
X76980000Y-149080000D01*
X73747665Y-146921392D02*
G75*
G02*
X76980000Y-146764484I1672335J-1078608D01*
G01*
X74378870Y-146920163D02*
G75*
G02*
X76460961Y-146920000I1041130J-1079837D01*
G01*
X76460961Y-149080000D02*
G75*
G02*
X74378870Y-149079837I-1040961J1080000D01*
G01*
X76980000Y-149235516D02*
G75*
G02*
X73747665Y-149078608I-1560000J1235516D01*
G01*
X77450000Y-82000000D02*
X77450000Y-83500000D01*
X78700000Y-86000000D02*
X83200000Y-86000000D01*
X83200000Y-79500000D02*
X78700000Y-79500000D01*
X84450000Y-83500000D02*
X84450000Y-82000000D01*
X66950000Y-82000000D02*
X66950000Y-83500000D01*
X68200000Y-86000000D02*
X72700000Y-86000000D01*
X72700000Y-79500000D02*
X68200000Y-79500000D01*
X73950000Y-83500000D02*
X73950000Y-82000000D01*
M02*
