G04 #@! TF.GenerationSoftware,KiCad,Pcbnew,8.0.5*
G04 #@! TF.CreationDate,2024-10-23T08:14:31-07:00*
G04 #@! TF.ProjectId,panel,70616e65-6c2e-46b6-9963-61645f706362,2.1*
G04 #@! TF.SameCoordinates,Original*
G04 #@! TF.FileFunction,Copper,L1,Top*
G04 #@! TF.FilePolarity,Positive*
%FSLAX46Y46*%
G04 Gerber Fmt 4.6, Leading zero omitted, Abs format (unit mm)*
G04 Created by KiCad (PCBNEW 8.0.5) date 2024-10-23 08:14:31*
%MOMM*%
%LPD*%
G01*
G04 APERTURE LIST*
G04 #@! TA.AperFunction,ComponentPad*
%ADD10O,8.000000X5.000000*%
G04 #@! TD*
G04 #@! TA.AperFunction,WasherPad*
%ADD11C,9.500000*%
G04 #@! TD*
G04 #@! TA.AperFunction,ComponentPad*
%ADD12C,7.500000*%
G04 #@! TD*
G04 APERTURE END LIST*
D10*
X62500000Y-43750000D03*
X108220000Y-43750000D03*
X108220000Y-166150000D03*
X62500000Y-166150000D03*
D11*
X75700000Y-93600000D03*
D12*
X65370000Y-136000000D03*
X65370000Y-148000000D03*
X112770000Y-62000000D03*
X112770000Y-74000000D03*
X112770000Y-86000000D03*
X65370000Y-112000000D03*
X82870000Y-112000000D03*
X112770000Y-148000000D03*
X112770000Y-112000000D03*
X82870000Y-136000000D03*
X112770000Y-98000000D03*
X112770000Y-136000000D03*
X112770000Y-124000000D03*
X65370000Y-124000000D03*
G04 #@! TA.AperFunction,Conductor*
G36*
X59759958Y-40795502D02*
G01*
X59806451Y-40849158D01*
X59816555Y-40919432D01*
X59787061Y-40984012D01*
X59746506Y-41015022D01*
X59542677Y-41113180D01*
X59256613Y-41292927D01*
X58992467Y-41503576D01*
X58753576Y-41742467D01*
X58542927Y-42006613D01*
X58363180Y-42292677D01*
X58216595Y-42597064D01*
X58216584Y-42597091D01*
X58105007Y-42915960D01*
X58029827Y-43245344D01*
X58001586Y-43496000D01*
X59520285Y-43496000D01*
X59500000Y-43624077D01*
X59500000Y-43875923D01*
X59520285Y-44004000D01*
X58001586Y-44004000D01*
X58029827Y-44254655D01*
X58105008Y-44584039D01*
X58105007Y-44584039D01*
X58216584Y-44902908D01*
X58216595Y-44902935D01*
X58363180Y-45207322D01*
X58542927Y-45493386D01*
X58753576Y-45757532D01*
X58992467Y-45996423D01*
X59256613Y-46207072D01*
X59542677Y-46386819D01*
X59847064Y-46533404D01*
X59847091Y-46533415D01*
X60165960Y-46644992D01*
X60495342Y-46720172D01*
X60831073Y-46758000D01*
X62246000Y-46758000D01*
X62246000Y-45350000D01*
X62754000Y-45350000D01*
X62754000Y-46758000D01*
X64168927Y-46758000D01*
X64504657Y-46720172D01*
X64834039Y-46644992D01*
X65152908Y-46533415D01*
X65152935Y-46533404D01*
X65457322Y-46386819D01*
X65743386Y-46207072D01*
X66007532Y-45996423D01*
X66246423Y-45757532D01*
X66457072Y-45493386D01*
X66636819Y-45207322D01*
X66783404Y-44902935D01*
X66783415Y-44902908D01*
X66894992Y-44584039D01*
X66970172Y-44254655D01*
X66998414Y-44004000D01*
X65479715Y-44004000D01*
X65500000Y-43875923D01*
X65500000Y-43624077D01*
X65479715Y-43496000D01*
X66998414Y-43496000D01*
X66970172Y-43245344D01*
X66894991Y-42915960D01*
X66894992Y-42915960D01*
X66783415Y-42597091D01*
X66783404Y-42597064D01*
X66636819Y-42292677D01*
X66457072Y-42006613D01*
X66246423Y-41742467D01*
X66007532Y-41503576D01*
X65743386Y-41292927D01*
X65457322Y-41113180D01*
X65253494Y-41015022D01*
X65200797Y-40967444D01*
X65182189Y-40898930D01*
X65203577Y-40831231D01*
X65258170Y-40785842D01*
X65308163Y-40775500D01*
X105411837Y-40775500D01*
X105479958Y-40795502D01*
X105526451Y-40849158D01*
X105536555Y-40919432D01*
X105507061Y-40984012D01*
X105466506Y-41015022D01*
X105262677Y-41113180D01*
X104976613Y-41292927D01*
X104712467Y-41503576D01*
X104473576Y-41742467D01*
X104262927Y-42006613D01*
X104083180Y-42292677D01*
X103936595Y-42597064D01*
X103936584Y-42597091D01*
X103825007Y-42915960D01*
X103749827Y-43245344D01*
X103721586Y-43496000D01*
X105240285Y-43496000D01*
X105220000Y-43624077D01*
X105220000Y-43875923D01*
X105240285Y-44004000D01*
X103721586Y-44004000D01*
X103749827Y-44254655D01*
X103825008Y-44584039D01*
X103825007Y-44584039D01*
X103936584Y-44902908D01*
X103936595Y-44902935D01*
X104083180Y-45207322D01*
X104262927Y-45493386D01*
X104473576Y-45757532D01*
X104712467Y-45996423D01*
X104976613Y-46207072D01*
X105262677Y-46386819D01*
X105567064Y-46533404D01*
X105567091Y-46533415D01*
X105885960Y-46644992D01*
X106215342Y-46720172D01*
X106551073Y-46758000D01*
X107966000Y-46758000D01*
X107966000Y-45350000D01*
X108474000Y-45350000D01*
X108474000Y-46758000D01*
X109888927Y-46758000D01*
X110224657Y-46720172D01*
X110554039Y-46644992D01*
X110872908Y-46533415D01*
X110872935Y-46533404D01*
X111177322Y-46386819D01*
X111463386Y-46207072D01*
X111727532Y-45996423D01*
X111966423Y-45757532D01*
X112177072Y-45493386D01*
X112356819Y-45207322D01*
X112503404Y-44902935D01*
X112503415Y-44902908D01*
X112614992Y-44584039D01*
X112690172Y-44254655D01*
X112718414Y-44004000D01*
X111199715Y-44004000D01*
X111220000Y-43875923D01*
X111220000Y-43624077D01*
X111199715Y-43496000D01*
X112718414Y-43496000D01*
X112690172Y-43245344D01*
X112614991Y-42915960D01*
X112614992Y-42915960D01*
X112503415Y-42597091D01*
X112503404Y-42597064D01*
X112356819Y-42292677D01*
X112177072Y-42006613D01*
X111966423Y-41742467D01*
X111727532Y-41503576D01*
X111463386Y-41292927D01*
X111177322Y-41113180D01*
X110973494Y-41015022D01*
X110920797Y-40967444D01*
X110902189Y-40898930D01*
X110923577Y-40831231D01*
X110978170Y-40785842D01*
X111028163Y-40775500D01*
X120574000Y-40775500D01*
X120642121Y-40795502D01*
X120688614Y-40849158D01*
X120700000Y-40901500D01*
X120700000Y-168998500D01*
X120679998Y-169066621D01*
X120626342Y-169113114D01*
X120574000Y-169124500D01*
X111028163Y-169124500D01*
X110960042Y-169104498D01*
X110913549Y-169050842D01*
X110903445Y-168980568D01*
X110932939Y-168915988D01*
X110973494Y-168884978D01*
X111177322Y-168786819D01*
X111463386Y-168607072D01*
X111727532Y-168396423D01*
X111966423Y-168157532D01*
X112177072Y-167893386D01*
X112356819Y-167607322D01*
X112503404Y-167302935D01*
X112503415Y-167302908D01*
X112614992Y-166984039D01*
X112690172Y-166654655D01*
X112718414Y-166404000D01*
X111199715Y-166404000D01*
X111220000Y-166275923D01*
X111220000Y-166024077D01*
X111199715Y-165896000D01*
X112718414Y-165896000D01*
X112690172Y-165645344D01*
X112614991Y-165315960D01*
X112614992Y-165315960D01*
X112503415Y-164997091D01*
X112503404Y-164997064D01*
X112356819Y-164692677D01*
X112177072Y-164406613D01*
X111966423Y-164142467D01*
X111727532Y-163903576D01*
X111463386Y-163692927D01*
X111177322Y-163513180D01*
X110872935Y-163366595D01*
X110872908Y-163366584D01*
X110554039Y-163255007D01*
X110224657Y-163179827D01*
X109888927Y-163142000D01*
X108474000Y-163142000D01*
X108474000Y-164550000D01*
X107966000Y-164550000D01*
X107966000Y-163142000D01*
X106551073Y-163142000D01*
X106215342Y-163179827D01*
X105885960Y-163255007D01*
X105567091Y-163366584D01*
X105567064Y-163366595D01*
X105262677Y-163513180D01*
X104976613Y-163692927D01*
X104712467Y-163903576D01*
X104473576Y-164142467D01*
X104262927Y-164406613D01*
X104083180Y-164692677D01*
X103936595Y-164997064D01*
X103936584Y-164997091D01*
X103825007Y-165315960D01*
X103749827Y-165645344D01*
X103721586Y-165896000D01*
X105240285Y-165896000D01*
X105220000Y-166024077D01*
X105220000Y-166275923D01*
X105240285Y-166404000D01*
X103721586Y-166404000D01*
X103749827Y-166654655D01*
X103825008Y-166984039D01*
X103825007Y-166984039D01*
X103936584Y-167302908D01*
X103936595Y-167302935D01*
X104083180Y-167607322D01*
X104262927Y-167893386D01*
X104473576Y-168157532D01*
X104712467Y-168396423D01*
X104976613Y-168607072D01*
X105262677Y-168786819D01*
X105466506Y-168884978D01*
X105519203Y-168932556D01*
X105537811Y-169001070D01*
X105516423Y-169068769D01*
X105461830Y-169114158D01*
X105411837Y-169124500D01*
X65308163Y-169124500D01*
X65240042Y-169104498D01*
X65193549Y-169050842D01*
X65183445Y-168980568D01*
X65212939Y-168915988D01*
X65253494Y-168884978D01*
X65457322Y-168786819D01*
X65743386Y-168607072D01*
X66007532Y-168396423D01*
X66246423Y-168157532D01*
X66457072Y-167893386D01*
X66636819Y-167607322D01*
X66783404Y-167302935D01*
X66783415Y-167302908D01*
X66894992Y-166984039D01*
X66970172Y-166654655D01*
X66998414Y-166404000D01*
X65479715Y-166404000D01*
X65500000Y-166275923D01*
X65500000Y-166024077D01*
X65479715Y-165896000D01*
X66998414Y-165896000D01*
X66970172Y-165645344D01*
X66894991Y-165315960D01*
X66894992Y-165315960D01*
X66783415Y-164997091D01*
X66783404Y-164997064D01*
X66636819Y-164692677D01*
X66457072Y-164406613D01*
X66246423Y-164142467D01*
X66007532Y-163903576D01*
X65743386Y-163692927D01*
X65457322Y-163513180D01*
X65152935Y-163366595D01*
X65152908Y-163366584D01*
X64834039Y-163255007D01*
X64504657Y-163179827D01*
X64168927Y-163142000D01*
X62754000Y-163142000D01*
X62754000Y-164550000D01*
X62246000Y-164550000D01*
X62246000Y-163142000D01*
X60831073Y-163142000D01*
X60495342Y-163179827D01*
X60165960Y-163255007D01*
X59847091Y-163366584D01*
X59847064Y-163366595D01*
X59542677Y-163513180D01*
X59256613Y-163692927D01*
X58992467Y-163903576D01*
X58753576Y-164142467D01*
X58542927Y-164406613D01*
X58363180Y-164692677D01*
X58216595Y-164997064D01*
X58216584Y-164997091D01*
X58105007Y-165315960D01*
X58029827Y-165645344D01*
X58001586Y-165896000D01*
X59520285Y-165896000D01*
X59500000Y-166024077D01*
X59500000Y-166275923D01*
X59520285Y-166404000D01*
X58001586Y-166404000D01*
X58029827Y-166654655D01*
X58105008Y-166984039D01*
X58105007Y-166984039D01*
X58216584Y-167302908D01*
X58216595Y-167302935D01*
X58363180Y-167607322D01*
X58542927Y-167893386D01*
X58753576Y-168157532D01*
X58992467Y-168396423D01*
X59256613Y-168607072D01*
X59542677Y-168786819D01*
X59746506Y-168884978D01*
X59799203Y-168932556D01*
X59817811Y-169001070D01*
X59796423Y-169068769D01*
X59741830Y-169114158D01*
X59691837Y-169124500D01*
X50151500Y-169124500D01*
X50083379Y-169104498D01*
X50036886Y-169050842D01*
X50025500Y-168998500D01*
X50025500Y-147862323D01*
X52149500Y-147862323D01*
X52149500Y-148137676D01*
X52185438Y-148410659D01*
X52256705Y-148676631D01*
X52362077Y-148931022D01*
X52362083Y-148931033D01*
X52499748Y-149169475D01*
X52667372Y-149387928D01*
X52667381Y-149387938D01*
X52862061Y-149582618D01*
X52862071Y-149582627D01*
X52862072Y-149582628D01*
X52864536Y-149584519D01*
X53080524Y-149750251D01*
X53318966Y-149887916D01*
X53318977Y-149887922D01*
X53318979Y-149887923D01*
X53573368Y-149993295D01*
X53839334Y-150064560D01*
X53839338Y-150064560D01*
X53839340Y-150064561D01*
X53909696Y-150073823D01*
X54112326Y-150100500D01*
X54112333Y-150100500D01*
X54387667Y-150100500D01*
X54387674Y-150100500D01*
X54634391Y-150068019D01*
X54660659Y-150064561D01*
X54660659Y-150064560D01*
X54660666Y-150064560D01*
X54926632Y-149993295D01*
X55181021Y-149887923D01*
X55419479Y-149750249D01*
X55637928Y-149582628D01*
X55832628Y-149387928D01*
X56000249Y-149169479D01*
X56137923Y-148931021D01*
X56243295Y-148676632D01*
X56314560Y-148410666D01*
X56315275Y-148405239D01*
X56318019Y-148384391D01*
X56350500Y-148137674D01*
X56350500Y-147999994D01*
X61106671Y-147999994D01*
X61106671Y-148000000D01*
X61125974Y-148405239D01*
X61125974Y-148405240D01*
X61183714Y-148806834D01*
X61183716Y-148806844D01*
X61279364Y-149201112D01*
X61279367Y-149201123D01*
X61412062Y-149584519D01*
X61412063Y-149584523D01*
X61580600Y-149953568D01*
X61783454Y-150304922D01*
X61783459Y-150304930D01*
X62018797Y-150635415D01*
X62284484Y-150942034D01*
X62578113Y-151222009D01*
X62897027Y-151472805D01*
X63043389Y-151566866D01*
X63238330Y-151692148D01*
X63238336Y-151692151D01*
X63598949Y-151878060D01*
X63598955Y-151878062D01*
X63598963Y-151878066D01*
X63786475Y-151953134D01*
X63975602Y-152028849D01*
X64364882Y-152143152D01*
X64605481Y-152189523D01*
X64763252Y-152219932D01*
X64763257Y-152219932D01*
X64763265Y-152219934D01*
X65167143Y-152258500D01*
X65167145Y-152258500D01*
X65572855Y-152258500D01*
X65572857Y-152258500D01*
X65976735Y-152219934D01*
X65976743Y-152219932D01*
X65976747Y-152219932D01*
X66074369Y-152201116D01*
X66375118Y-152143152D01*
X66764398Y-152028849D01*
X67141051Y-151878060D01*
X67501665Y-151692151D01*
X67842973Y-151472805D01*
X68161887Y-151222009D01*
X68455516Y-150942034D01*
X68721203Y-150635415D01*
X68956541Y-150304930D01*
X69159398Y-149953570D01*
X69327938Y-149584519D01*
X69364113Y-149479999D01*
X73989999Y-149479999D01*
X73990000Y-149480000D01*
X76880000Y-149460000D01*
X76880000Y-148000000D01*
X80850000Y-148000000D01*
X84850000Y-148000000D01*
X84850000Y-147862323D01*
X94369500Y-147862323D01*
X94369500Y-148137676D01*
X94405438Y-148410659D01*
X94476705Y-148676631D01*
X94582077Y-148931022D01*
X94582083Y-148931033D01*
X94719748Y-149169475D01*
X94887372Y-149387928D01*
X94887381Y-149387938D01*
X95082061Y-149582618D01*
X95082071Y-149582627D01*
X95082072Y-149582628D01*
X95084536Y-149584519D01*
X95300524Y-149750251D01*
X95538966Y-149887916D01*
X95538977Y-149887922D01*
X95538979Y-149887923D01*
X95793368Y-149993295D01*
X96059334Y-150064560D01*
X96059338Y-150064560D01*
X96059340Y-150064561D01*
X96129696Y-150073823D01*
X96332326Y-150100500D01*
X96332333Y-150100500D01*
X96607667Y-150100500D01*
X96607674Y-150100500D01*
X96854391Y-150068019D01*
X96880659Y-150064561D01*
X96880659Y-150064560D01*
X96880666Y-150064560D01*
X97121608Y-150000000D01*
X100970000Y-150000000D01*
X104970000Y-150000000D01*
X104970000Y-147999994D01*
X108506671Y-147999994D01*
X108506671Y-148000000D01*
X108525974Y-148405239D01*
X108525974Y-148405240D01*
X108583714Y-148806834D01*
X108583716Y-148806844D01*
X108679364Y-149201112D01*
X108679367Y-149201123D01*
X108812062Y-149584519D01*
X108812063Y-149584523D01*
X108980600Y-149953568D01*
X109183454Y-150304922D01*
X109183459Y-150304930D01*
X109418797Y-150635415D01*
X109684484Y-150942034D01*
X109978113Y-151222009D01*
X110297027Y-151472805D01*
X110443389Y-151566866D01*
X110638330Y-151692148D01*
X110638336Y-151692151D01*
X110998949Y-151878060D01*
X110998955Y-151878062D01*
X110998963Y-151878066D01*
X111186475Y-151953134D01*
X111375602Y-152028849D01*
X111764882Y-152143152D01*
X112005481Y-152189523D01*
X112163252Y-152219932D01*
X112163257Y-152219932D01*
X112163265Y-152219934D01*
X112567143Y-152258500D01*
X112567145Y-152258500D01*
X112972855Y-152258500D01*
X112972857Y-152258500D01*
X113376735Y-152219934D01*
X113376743Y-152219932D01*
X113376747Y-152219932D01*
X113474369Y-152201116D01*
X113775118Y-152143152D01*
X114164398Y-152028849D01*
X114541051Y-151878060D01*
X114901665Y-151692151D01*
X115242973Y-151472805D01*
X115561887Y-151222009D01*
X115855516Y-150942034D01*
X116121203Y-150635415D01*
X116356541Y-150304930D01*
X116559398Y-149953570D01*
X116727938Y-149584519D01*
X116860634Y-149201119D01*
X116956285Y-148806840D01*
X117014024Y-148405255D01*
X117033329Y-148000000D01*
X117014024Y-147594745D01*
X116956285Y-147193160D01*
X116860634Y-146798881D01*
X116727938Y-146415481D01*
X116652252Y-146249751D01*
X116559399Y-146046431D01*
X116356545Y-145695077D01*
X116356541Y-145695070D01*
X116121203Y-145364585D01*
X115855516Y-145057966D01*
X115561887Y-144777991D01*
X115242973Y-144527195D01*
X114901665Y-144307849D01*
X114901662Y-144307847D01*
X114541058Y-144121943D01*
X114541036Y-144121933D01*
X114164401Y-143971152D01*
X113775129Y-143856851D01*
X113775123Y-143856849D01*
X113775118Y-143856848D01*
X113775113Y-143856847D01*
X113376747Y-143780067D01*
X113376727Y-143780065D01*
X112972876Y-143741501D01*
X112972858Y-143741500D01*
X112972857Y-143741500D01*
X112567143Y-143741500D01*
X112567141Y-143741500D01*
X112567123Y-143741501D01*
X112163272Y-143780065D01*
X112163252Y-143780067D01*
X111764886Y-143856847D01*
X111764870Y-143856851D01*
X111375598Y-143971152D01*
X110998963Y-144121933D01*
X110998941Y-144121943D01*
X110638330Y-144307851D01*
X110297028Y-144527194D01*
X110297022Y-144527198D01*
X109978121Y-144777984D01*
X109978116Y-144777988D01*
X109978113Y-144777991D01*
X109737858Y-145007073D01*
X109684487Y-145057963D01*
X109418802Y-145364578D01*
X109418801Y-145364579D01*
X109183454Y-145695077D01*
X108980600Y-146046431D01*
X108812063Y-146415476D01*
X108812062Y-146415480D01*
X108679367Y-146798876D01*
X108679364Y-146798887D01*
X108583716Y-147193155D01*
X108583714Y-147193165D01*
X108525974Y-147594759D01*
X108525974Y-147594760D01*
X108506671Y-147999994D01*
X104970000Y-147999994D01*
X104970000Y-146000000D01*
X100970000Y-146000000D01*
X100970000Y-150000000D01*
X97121608Y-150000000D01*
X97146632Y-149993295D01*
X97401021Y-149887923D01*
X97639479Y-149750249D01*
X97857928Y-149582628D01*
X98052628Y-149387928D01*
X98220249Y-149169479D01*
X98357923Y-148931021D01*
X98463295Y-148676632D01*
X98534560Y-148410666D01*
X98535275Y-148405239D01*
X98538019Y-148384391D01*
X98570500Y-148137674D01*
X98570500Y-147862326D01*
X98543823Y-147659696D01*
X98534561Y-147589340D01*
X98534560Y-147589338D01*
X98534560Y-147589334D01*
X98463295Y-147323368D01*
X98357923Y-147068979D01*
X98357922Y-147068977D01*
X98357916Y-147068966D01*
X98220251Y-146830524D01*
X98052627Y-146612071D01*
X98052618Y-146612061D01*
X97857938Y-146417381D01*
X97857928Y-146417372D01*
X97639475Y-146249748D01*
X97401033Y-146112083D01*
X97401022Y-146112077D01*
X97242536Y-146046430D01*
X97146632Y-146006705D01*
X96880666Y-145935440D01*
X96880659Y-145935438D01*
X96607676Y-145899500D01*
X96607674Y-145899500D01*
X96332326Y-145899500D01*
X96332323Y-145899500D01*
X96059340Y-145935438D01*
X95793368Y-146006705D01*
X95538977Y-146112077D01*
X95538966Y-146112083D01*
X95300524Y-146249748D01*
X95082071Y-146417372D01*
X95082061Y-146417381D01*
X94887381Y-146612061D01*
X94887372Y-146612071D01*
X94719748Y-146830524D01*
X94582083Y-147068966D01*
X94582077Y-147068977D01*
X94476705Y-147323368D01*
X94405438Y-147589340D01*
X94369500Y-147862323D01*
X84850000Y-147862323D01*
X84850000Y-144000000D01*
X80850000Y-144000000D01*
X80850000Y-148000000D01*
X76880000Y-148000000D01*
X76880000Y-146490000D01*
X76879999Y-146490000D01*
X73999999Y-146510000D01*
X73989999Y-149479999D01*
X69364113Y-149479999D01*
X69460634Y-149201119D01*
X69556285Y-148806840D01*
X69614024Y-148405255D01*
X69633329Y-148000000D01*
X69614024Y-147594745D01*
X69556285Y-147193160D01*
X69460634Y-146798881D01*
X69327938Y-146415481D01*
X69252252Y-146249751D01*
X69159399Y-146046431D01*
X68956545Y-145695077D01*
X68956541Y-145695070D01*
X68721203Y-145364585D01*
X68455516Y-145057966D01*
X68161887Y-144777991D01*
X67842973Y-144527195D01*
X67501665Y-144307849D01*
X67501662Y-144307847D01*
X67141058Y-144121943D01*
X67141036Y-144121933D01*
X66764401Y-143971152D01*
X66375129Y-143856851D01*
X66375123Y-143856849D01*
X66375118Y-143856848D01*
X66375113Y-143856847D01*
X65976747Y-143780067D01*
X65976727Y-143780065D01*
X65572876Y-143741501D01*
X65572858Y-143741500D01*
X65572857Y-143741500D01*
X65167143Y-143741500D01*
X65167141Y-143741500D01*
X65167123Y-143741501D01*
X64763272Y-143780065D01*
X64763252Y-143780067D01*
X64364886Y-143856847D01*
X64364870Y-143856851D01*
X63975598Y-143971152D01*
X63598963Y-144121933D01*
X63598941Y-144121943D01*
X63238330Y-144307851D01*
X62897028Y-144527194D01*
X62897022Y-144527198D01*
X62578121Y-144777984D01*
X62578116Y-144777988D01*
X62578113Y-144777991D01*
X62337858Y-145007073D01*
X62284487Y-145057963D01*
X62018802Y-145364578D01*
X62018801Y-145364579D01*
X61783454Y-145695077D01*
X61580600Y-146046431D01*
X61412063Y-146415476D01*
X61412062Y-146415480D01*
X61279367Y-146798876D01*
X61279364Y-146798887D01*
X61183716Y-147193155D01*
X61183714Y-147193165D01*
X61125974Y-147594759D01*
X61125974Y-147594760D01*
X61106671Y-147999994D01*
X56350500Y-147999994D01*
X56350500Y-147862326D01*
X56323823Y-147659696D01*
X56314561Y-147589340D01*
X56314560Y-147589338D01*
X56314560Y-147589334D01*
X56243295Y-147323368D01*
X56137923Y-147068979D01*
X56137922Y-147068977D01*
X56137916Y-147068966D01*
X56000251Y-146830524D01*
X55832627Y-146612071D01*
X55832618Y-146612061D01*
X55637938Y-146417381D01*
X55637928Y-146417372D01*
X55419475Y-146249748D01*
X55181033Y-146112083D01*
X55181022Y-146112077D01*
X55022536Y-146046430D01*
X54926632Y-146006705D01*
X54660666Y-145935440D01*
X54660659Y-145935438D01*
X54387676Y-145899500D01*
X54387674Y-145899500D01*
X54112326Y-145899500D01*
X54112323Y-145899500D01*
X53839340Y-145935438D01*
X53573368Y-146006705D01*
X53318977Y-146112077D01*
X53318966Y-146112083D01*
X53080524Y-146249748D01*
X52862071Y-146417372D01*
X52862061Y-146417381D01*
X52667381Y-146612061D01*
X52667372Y-146612071D01*
X52499748Y-146830524D01*
X52362083Y-147068966D01*
X52362077Y-147068977D01*
X52256705Y-147323368D01*
X52185438Y-147589340D01*
X52149500Y-147862323D01*
X50025500Y-147862323D01*
X50025500Y-135862323D01*
X52149500Y-135862323D01*
X52149500Y-136137676D01*
X52185438Y-136410659D01*
X52256705Y-136676631D01*
X52362077Y-136931022D01*
X52362083Y-136931033D01*
X52499748Y-137169475D01*
X52667372Y-137387928D01*
X52667381Y-137387938D01*
X52862061Y-137582618D01*
X52862071Y-137582627D01*
X52862072Y-137582628D01*
X52864536Y-137584519D01*
X53080524Y-137750251D01*
X53318966Y-137887916D01*
X53318977Y-137887922D01*
X53318979Y-137887923D01*
X53573368Y-137993295D01*
X53839334Y-138064560D01*
X53839338Y-138064560D01*
X53839340Y-138064561D01*
X53909696Y-138073823D01*
X54112326Y-138100500D01*
X54112333Y-138100500D01*
X54387667Y-138100500D01*
X54387674Y-138100500D01*
X54634391Y-138068019D01*
X54660659Y-138064561D01*
X54660659Y-138064560D01*
X54660666Y-138064560D01*
X54926632Y-137993295D01*
X55181021Y-137887923D01*
X55419479Y-137750249D01*
X55637928Y-137582628D01*
X55832628Y-137387928D01*
X56000249Y-137169479D01*
X56137923Y-136931021D01*
X56243295Y-136676632D01*
X56314560Y-136410666D01*
X56315275Y-136405239D01*
X56318019Y-136384391D01*
X56350500Y-136137674D01*
X56350500Y-135999994D01*
X61106671Y-135999994D01*
X61106671Y-136000005D01*
X61125974Y-136405239D01*
X61125974Y-136405240D01*
X61183714Y-136806834D01*
X61183716Y-136806844D01*
X61279364Y-137201112D01*
X61279367Y-137201123D01*
X61412062Y-137584519D01*
X61412063Y-137584523D01*
X61580600Y-137953568D01*
X61783454Y-138304922D01*
X61783459Y-138304930D01*
X62018797Y-138635415D01*
X62284484Y-138942034D01*
X62578113Y-139222009D01*
X62897027Y-139472805D01*
X63043389Y-139566866D01*
X63238330Y-139692148D01*
X63238336Y-139692151D01*
X63598949Y-139878060D01*
X63598955Y-139878062D01*
X63598963Y-139878066D01*
X63786475Y-139953134D01*
X63975602Y-140028849D01*
X64364882Y-140143152D01*
X64605481Y-140189523D01*
X64763252Y-140219932D01*
X64763257Y-140219932D01*
X64763265Y-140219934D01*
X65167143Y-140258500D01*
X65167145Y-140258500D01*
X65572855Y-140258500D01*
X65572857Y-140258500D01*
X65976735Y-140219934D01*
X65976743Y-140219932D01*
X65976747Y-140219932D01*
X66074369Y-140201116D01*
X66375118Y-140143152D01*
X66764398Y-140028849D01*
X67141051Y-139878060D01*
X67501665Y-139692151D01*
X67842973Y-139472805D01*
X68161887Y-139222009D01*
X68455516Y-138942034D01*
X68721203Y-138635415D01*
X68956541Y-138304930D01*
X69159398Y-137953570D01*
X69327938Y-137584519D01*
X69364113Y-137479999D01*
X73989999Y-137479999D01*
X73990000Y-137480000D01*
X76880000Y-137460000D01*
X76880000Y-135999994D01*
X78606671Y-135999994D01*
X78606671Y-136000005D01*
X78625974Y-136405239D01*
X78625974Y-136405240D01*
X78683714Y-136806834D01*
X78683716Y-136806844D01*
X78779364Y-137201112D01*
X78779367Y-137201123D01*
X78912062Y-137584519D01*
X78912063Y-137584523D01*
X79080600Y-137953568D01*
X79283454Y-138304922D01*
X79283459Y-138304930D01*
X79518797Y-138635415D01*
X79784484Y-138942034D01*
X80078113Y-139222009D01*
X80397027Y-139472805D01*
X80543389Y-139566866D01*
X80738330Y-139692148D01*
X80738336Y-139692151D01*
X81098949Y-139878060D01*
X81098955Y-139878062D01*
X81098963Y-139878066D01*
X81286475Y-139953134D01*
X81475602Y-140028849D01*
X81864882Y-140143152D01*
X82105481Y-140189523D01*
X82263252Y-140219932D01*
X82263257Y-140219932D01*
X82263265Y-140219934D01*
X82667143Y-140258500D01*
X82667145Y-140258500D01*
X83072855Y-140258500D01*
X83072857Y-140258500D01*
X83476735Y-140219934D01*
X83476743Y-140219932D01*
X83476747Y-140219932D01*
X83574369Y-140201116D01*
X83875118Y-140143152D01*
X84264398Y-140028849D01*
X84641051Y-139878060D01*
X85001665Y-139692151D01*
X85342973Y-139472805D01*
X85661887Y-139222009D01*
X85955516Y-138942034D01*
X86221203Y-138635415D01*
X86456541Y-138304930D01*
X86659398Y-137953570D01*
X86827938Y-137584519D01*
X86960634Y-137201119D01*
X87056285Y-136806840D01*
X87114024Y-136405255D01*
X87133329Y-136000000D01*
X87126771Y-135862323D01*
X94369500Y-135862323D01*
X94369500Y-136137676D01*
X94405438Y-136410659D01*
X94476705Y-136676631D01*
X94582077Y-136931022D01*
X94582083Y-136931033D01*
X94719748Y-137169475D01*
X94887372Y-137387928D01*
X94887381Y-137387938D01*
X95082061Y-137582618D01*
X95082071Y-137582627D01*
X95082072Y-137582628D01*
X95084536Y-137584519D01*
X95300524Y-137750251D01*
X95538966Y-137887916D01*
X95538977Y-137887922D01*
X95538979Y-137887923D01*
X95793368Y-137993295D01*
X96059334Y-138064560D01*
X96059338Y-138064560D01*
X96059340Y-138064561D01*
X96129696Y-138073823D01*
X96332326Y-138100500D01*
X96332333Y-138100500D01*
X96607667Y-138100500D01*
X96607674Y-138100500D01*
X96854391Y-138068019D01*
X96880659Y-138064561D01*
X96880659Y-138064560D01*
X96880666Y-138064560D01*
X97121608Y-138000000D01*
X100970000Y-138000000D01*
X104970000Y-138000000D01*
X104970000Y-135999994D01*
X108506671Y-135999994D01*
X108506671Y-136000005D01*
X108525974Y-136405239D01*
X108525974Y-136405240D01*
X108583714Y-136806834D01*
X108583716Y-136806844D01*
X108679364Y-137201112D01*
X108679367Y-137201123D01*
X108812062Y-137584519D01*
X108812063Y-137584523D01*
X108980600Y-137953568D01*
X109183454Y-138304922D01*
X109183459Y-138304930D01*
X109418797Y-138635415D01*
X109684484Y-138942034D01*
X109978113Y-139222009D01*
X110297027Y-139472805D01*
X110443389Y-139566866D01*
X110638330Y-139692148D01*
X110638336Y-139692151D01*
X110998949Y-139878060D01*
X110998955Y-139878062D01*
X110998963Y-139878066D01*
X111186475Y-139953134D01*
X111375602Y-140028849D01*
X111764882Y-140143152D01*
X112005481Y-140189523D01*
X112163252Y-140219932D01*
X112163257Y-140219932D01*
X112163265Y-140219934D01*
X112567143Y-140258500D01*
X112567145Y-140258500D01*
X112972855Y-140258500D01*
X112972857Y-140258500D01*
X113376735Y-140219934D01*
X113376743Y-140219932D01*
X113376747Y-140219932D01*
X113474369Y-140201116D01*
X113775118Y-140143152D01*
X114164398Y-140028849D01*
X114541051Y-139878060D01*
X114901665Y-139692151D01*
X115242973Y-139472805D01*
X115561887Y-139222009D01*
X115855516Y-138942034D01*
X116121203Y-138635415D01*
X116356541Y-138304930D01*
X116559398Y-137953570D01*
X116727938Y-137584519D01*
X116860634Y-137201119D01*
X116956285Y-136806840D01*
X117014024Y-136405255D01*
X117033329Y-136000000D01*
X117014024Y-135594745D01*
X116956285Y-135193160D01*
X116860634Y-134798881D01*
X116727938Y-134415481D01*
X116652252Y-134249751D01*
X116559399Y-134046431D01*
X116356545Y-133695077D01*
X116356541Y-133695070D01*
X116121203Y-133364585D01*
X115855516Y-133057966D01*
X115561887Y-132777991D01*
X115242973Y-132527195D01*
X114901665Y-132307849D01*
X114901662Y-132307847D01*
X114541058Y-132121943D01*
X114541036Y-132121933D01*
X114164401Y-131971152D01*
X113775129Y-131856851D01*
X113775123Y-131856849D01*
X113775118Y-131856848D01*
X113775113Y-131856847D01*
X113376747Y-131780067D01*
X113376727Y-131780065D01*
X112972876Y-131741501D01*
X112972858Y-131741500D01*
X112972857Y-131741500D01*
X112567143Y-131741500D01*
X112567141Y-131741500D01*
X112567123Y-131741501D01*
X112163272Y-131780065D01*
X112163252Y-131780067D01*
X111764886Y-131856847D01*
X111764870Y-131856851D01*
X111375598Y-131971152D01*
X110998963Y-132121933D01*
X110998941Y-132121943D01*
X110638330Y-132307851D01*
X110297028Y-132527194D01*
X110297022Y-132527198D01*
X109978121Y-132777984D01*
X109978116Y-132777988D01*
X109978113Y-132777991D01*
X109737858Y-133007073D01*
X109684487Y-133057963D01*
X109418802Y-133364578D01*
X109418801Y-133364579D01*
X109183454Y-133695077D01*
X108980600Y-134046431D01*
X108812063Y-134415476D01*
X108812062Y-134415480D01*
X108679367Y-134798876D01*
X108679364Y-134798887D01*
X108583716Y-135193155D01*
X108583714Y-135193165D01*
X108525974Y-135594759D01*
X108525974Y-135594760D01*
X108506671Y-135999994D01*
X104970000Y-135999994D01*
X104970000Y-134000000D01*
X100970000Y-134000000D01*
X100970000Y-138000000D01*
X97121608Y-138000000D01*
X97146632Y-137993295D01*
X97401021Y-137887923D01*
X97639479Y-137750249D01*
X97857928Y-137582628D01*
X98052628Y-137387928D01*
X98220249Y-137169479D01*
X98357923Y-136931021D01*
X98463295Y-136676632D01*
X98534560Y-136410666D01*
X98535275Y-136405239D01*
X98538019Y-136384391D01*
X98570500Y-136137674D01*
X98570500Y-135862326D01*
X98543823Y-135659696D01*
X98534561Y-135589340D01*
X98534560Y-135589338D01*
X98534560Y-135589334D01*
X98463295Y-135323368D01*
X98357923Y-135068979D01*
X98357922Y-135068977D01*
X98357916Y-135068966D01*
X98220251Y-134830524D01*
X98052627Y-134612071D01*
X98052618Y-134612061D01*
X97857938Y-134417381D01*
X97857928Y-134417372D01*
X97639475Y-134249748D01*
X97401033Y-134112083D01*
X97401022Y-134112077D01*
X97242536Y-134046430D01*
X97146632Y-134006705D01*
X96880666Y-133935440D01*
X96880659Y-133935438D01*
X96607676Y-133899500D01*
X96607674Y-133899500D01*
X96332326Y-133899500D01*
X96332323Y-133899500D01*
X96059340Y-133935438D01*
X95793368Y-134006705D01*
X95538977Y-134112077D01*
X95538966Y-134112083D01*
X95300524Y-134249748D01*
X95082071Y-134417372D01*
X95082061Y-134417381D01*
X94887381Y-134612061D01*
X94887372Y-134612071D01*
X94719748Y-134830524D01*
X94582083Y-135068966D01*
X94582077Y-135068977D01*
X94476705Y-135323368D01*
X94405438Y-135589340D01*
X94369500Y-135862323D01*
X87126771Y-135862323D01*
X87114024Y-135594745D01*
X87056285Y-135193160D01*
X86960634Y-134798881D01*
X86827938Y-134415481D01*
X86752252Y-134249751D01*
X86659399Y-134046431D01*
X86456545Y-133695077D01*
X86456541Y-133695070D01*
X86221203Y-133364585D01*
X85955516Y-133057966D01*
X85661887Y-132777991D01*
X85342973Y-132527195D01*
X85001665Y-132307849D01*
X85001662Y-132307847D01*
X84641058Y-132121943D01*
X84641036Y-132121933D01*
X84264401Y-131971152D01*
X83875129Y-131856851D01*
X83875123Y-131856849D01*
X83875118Y-131856848D01*
X83875113Y-131856847D01*
X83476747Y-131780067D01*
X83476727Y-131780065D01*
X83072876Y-131741501D01*
X83072858Y-131741500D01*
X83072857Y-131741500D01*
X82667143Y-131741500D01*
X82667141Y-131741500D01*
X82667123Y-131741501D01*
X82263272Y-131780065D01*
X82263252Y-131780067D01*
X81864886Y-131856847D01*
X81864870Y-131856851D01*
X81475598Y-131971152D01*
X81098963Y-132121933D01*
X81098941Y-132121943D01*
X80738330Y-132307851D01*
X80397028Y-132527194D01*
X80397022Y-132527198D01*
X80078121Y-132777984D01*
X80078116Y-132777988D01*
X80078113Y-132777991D01*
X79837858Y-133007073D01*
X79784487Y-133057963D01*
X79518802Y-133364578D01*
X79518801Y-133364579D01*
X79283454Y-133695077D01*
X79080600Y-134046431D01*
X78912063Y-134415476D01*
X78912062Y-134415480D01*
X78779367Y-134798876D01*
X78779364Y-134798887D01*
X78683716Y-135193155D01*
X78683714Y-135193165D01*
X78625974Y-135594759D01*
X78625974Y-135594760D01*
X78606671Y-135999994D01*
X76880000Y-135999994D01*
X76880000Y-134490000D01*
X76879999Y-134490000D01*
X73999999Y-134510000D01*
X73989999Y-137479999D01*
X69364113Y-137479999D01*
X69460634Y-137201119D01*
X69556285Y-136806840D01*
X69614024Y-136405255D01*
X69633329Y-136000000D01*
X69614024Y-135594745D01*
X69556285Y-135193160D01*
X69460634Y-134798881D01*
X69327938Y-134415481D01*
X69252252Y-134249751D01*
X69159399Y-134046431D01*
X68956545Y-133695077D01*
X68956541Y-133695070D01*
X68721203Y-133364585D01*
X68455516Y-133057966D01*
X68161887Y-132777991D01*
X67842973Y-132527195D01*
X67501665Y-132307849D01*
X67501662Y-132307847D01*
X67141058Y-132121943D01*
X67141036Y-132121933D01*
X66764401Y-131971152D01*
X66375129Y-131856851D01*
X66375123Y-131856849D01*
X66375118Y-131856848D01*
X66375113Y-131856847D01*
X65976747Y-131780067D01*
X65976727Y-131780065D01*
X65572876Y-131741501D01*
X65572858Y-131741500D01*
X65572857Y-131741500D01*
X65167143Y-131741500D01*
X65167141Y-131741500D01*
X65167123Y-131741501D01*
X64763272Y-131780065D01*
X64763252Y-131780067D01*
X64364886Y-131856847D01*
X64364870Y-131856851D01*
X63975598Y-131971152D01*
X63598963Y-132121933D01*
X63598941Y-132121943D01*
X63238330Y-132307851D01*
X62897028Y-132527194D01*
X62897022Y-132527198D01*
X62578121Y-132777984D01*
X62578116Y-132777988D01*
X62578113Y-132777991D01*
X62337858Y-133007073D01*
X62284487Y-133057963D01*
X62018802Y-133364578D01*
X62018801Y-133364579D01*
X61783454Y-133695077D01*
X61580600Y-134046431D01*
X61412063Y-134415476D01*
X61412062Y-134415480D01*
X61279367Y-134798876D01*
X61279364Y-134798887D01*
X61183716Y-135193155D01*
X61183714Y-135193165D01*
X61125974Y-135594759D01*
X61125974Y-135594760D01*
X61106671Y-135999994D01*
X56350500Y-135999994D01*
X56350500Y-135862326D01*
X56323823Y-135659696D01*
X56314561Y-135589340D01*
X56314560Y-135589338D01*
X56314560Y-135589334D01*
X56243295Y-135323368D01*
X56137923Y-135068979D01*
X56137922Y-135068977D01*
X56137916Y-135068966D01*
X56000251Y-134830524D01*
X55832627Y-134612071D01*
X55832618Y-134612061D01*
X55637938Y-134417381D01*
X55637928Y-134417372D01*
X55419475Y-134249748D01*
X55181033Y-134112083D01*
X55181022Y-134112077D01*
X55022536Y-134046430D01*
X54926632Y-134006705D01*
X54660666Y-133935440D01*
X54660659Y-133935438D01*
X54387676Y-133899500D01*
X54387674Y-133899500D01*
X54112326Y-133899500D01*
X54112323Y-133899500D01*
X53839340Y-133935438D01*
X53573368Y-134006705D01*
X53318977Y-134112077D01*
X53318966Y-134112083D01*
X53080524Y-134249748D01*
X52862071Y-134417372D01*
X52862061Y-134417381D01*
X52667381Y-134612061D01*
X52667372Y-134612071D01*
X52499748Y-134830524D01*
X52362083Y-135068966D01*
X52362077Y-135068977D01*
X52256705Y-135323368D01*
X52185438Y-135589340D01*
X52149500Y-135862323D01*
X50025500Y-135862323D01*
X50025500Y-123862323D01*
X52149500Y-123862323D01*
X52149500Y-124137676D01*
X52185438Y-124410659D01*
X52256705Y-124676631D01*
X52362077Y-124931022D01*
X52362083Y-124931033D01*
X52499748Y-125169475D01*
X52667372Y-125387928D01*
X52667381Y-125387938D01*
X52862061Y-125582618D01*
X52862071Y-125582627D01*
X52862072Y-125582628D01*
X52864536Y-125584519D01*
X53080524Y-125750251D01*
X53318966Y-125887916D01*
X53318977Y-125887922D01*
X53318979Y-125887923D01*
X53573368Y-125993295D01*
X53839334Y-126064560D01*
X53839338Y-126064560D01*
X53839340Y-126064561D01*
X53909696Y-126073823D01*
X54112326Y-126100500D01*
X54112333Y-126100500D01*
X54387667Y-126100500D01*
X54387674Y-126100500D01*
X54634391Y-126068019D01*
X54660659Y-126064561D01*
X54660659Y-126064560D01*
X54660666Y-126064560D01*
X54926632Y-125993295D01*
X55181021Y-125887923D01*
X55419479Y-125750249D01*
X55637928Y-125582628D01*
X55832628Y-125387928D01*
X56000249Y-125169479D01*
X56137923Y-124931021D01*
X56243295Y-124676632D01*
X56314560Y-124410666D01*
X56315275Y-124405239D01*
X56318019Y-124384391D01*
X56350500Y-124137674D01*
X56350500Y-123999994D01*
X61106671Y-123999994D01*
X61106671Y-124000000D01*
X61125974Y-124405239D01*
X61125974Y-124405240D01*
X61183714Y-124806834D01*
X61183716Y-124806844D01*
X61279364Y-125201112D01*
X61279367Y-125201123D01*
X61412062Y-125584519D01*
X61412063Y-125584523D01*
X61580600Y-125953568D01*
X61783454Y-126304922D01*
X61783459Y-126304930D01*
X62018797Y-126635415D01*
X62284484Y-126942034D01*
X62578113Y-127222009D01*
X62897027Y-127472805D01*
X63043389Y-127566866D01*
X63238330Y-127692148D01*
X63238336Y-127692151D01*
X63598949Y-127878060D01*
X63598955Y-127878062D01*
X63598963Y-127878066D01*
X63786475Y-127953134D01*
X63975602Y-128028849D01*
X64364882Y-128143152D01*
X64605481Y-128189523D01*
X64763252Y-128219932D01*
X64763257Y-128219932D01*
X64763265Y-128219934D01*
X65167143Y-128258500D01*
X65167145Y-128258500D01*
X65572855Y-128258500D01*
X65572857Y-128258500D01*
X65976735Y-128219934D01*
X65976743Y-128219932D01*
X65976747Y-128219932D01*
X66074369Y-128201116D01*
X66375118Y-128143152D01*
X66764398Y-128028849D01*
X67141051Y-127878060D01*
X67501665Y-127692151D01*
X67842973Y-127472805D01*
X68161887Y-127222009D01*
X68455516Y-126942034D01*
X68721203Y-126635415D01*
X68956541Y-126304930D01*
X69159398Y-125953570D01*
X69327938Y-125584519D01*
X69364113Y-125479999D01*
X73989999Y-125479999D01*
X73990000Y-125480000D01*
X76880000Y-125460000D01*
X76880000Y-124000000D01*
X80850000Y-124000000D01*
X84850000Y-124000000D01*
X84850000Y-123862323D01*
X94369500Y-123862323D01*
X94369500Y-124137676D01*
X94405438Y-124410659D01*
X94476705Y-124676631D01*
X94582077Y-124931022D01*
X94582083Y-124931033D01*
X94719748Y-125169475D01*
X94887372Y-125387928D01*
X94887381Y-125387938D01*
X95082061Y-125582618D01*
X95082071Y-125582627D01*
X95082072Y-125582628D01*
X95084536Y-125584519D01*
X95300524Y-125750251D01*
X95538966Y-125887916D01*
X95538977Y-125887922D01*
X95538979Y-125887923D01*
X95793368Y-125993295D01*
X96059334Y-126064560D01*
X96059338Y-126064560D01*
X96059340Y-126064561D01*
X96129696Y-126073823D01*
X96332326Y-126100500D01*
X96332333Y-126100500D01*
X96607667Y-126100500D01*
X96607674Y-126100500D01*
X96854391Y-126068019D01*
X96880659Y-126064561D01*
X96880659Y-126064560D01*
X96880666Y-126064560D01*
X97121608Y-126000000D01*
X100970000Y-126000000D01*
X104970000Y-126000000D01*
X104970000Y-123999994D01*
X108506671Y-123999994D01*
X108506671Y-124000000D01*
X108525974Y-124405239D01*
X108525974Y-124405240D01*
X108583714Y-124806834D01*
X108583716Y-124806844D01*
X108679364Y-125201112D01*
X108679367Y-125201123D01*
X108812062Y-125584519D01*
X108812063Y-125584523D01*
X108980600Y-125953568D01*
X109183454Y-126304922D01*
X109183459Y-126304930D01*
X109418797Y-126635415D01*
X109684484Y-126942034D01*
X109978113Y-127222009D01*
X110297027Y-127472805D01*
X110443389Y-127566866D01*
X110638330Y-127692148D01*
X110638336Y-127692151D01*
X110998949Y-127878060D01*
X110998955Y-127878062D01*
X110998963Y-127878066D01*
X111186475Y-127953134D01*
X111375602Y-128028849D01*
X111764882Y-128143152D01*
X112005481Y-128189523D01*
X112163252Y-128219932D01*
X112163257Y-128219932D01*
X112163265Y-128219934D01*
X112567143Y-128258500D01*
X112567145Y-128258500D01*
X112972855Y-128258500D01*
X112972857Y-128258500D01*
X113376735Y-128219934D01*
X113376743Y-128219932D01*
X113376747Y-128219932D01*
X113474369Y-128201116D01*
X113775118Y-128143152D01*
X114164398Y-128028849D01*
X114541051Y-127878060D01*
X114901665Y-127692151D01*
X115242973Y-127472805D01*
X115561887Y-127222009D01*
X115855516Y-126942034D01*
X116121203Y-126635415D01*
X116356541Y-126304930D01*
X116559398Y-125953570D01*
X116727938Y-125584519D01*
X116860634Y-125201119D01*
X116956285Y-124806840D01*
X117014024Y-124405255D01*
X117033329Y-124000000D01*
X117014024Y-123594745D01*
X116956285Y-123193160D01*
X116860634Y-122798881D01*
X116727938Y-122415481D01*
X116652252Y-122249751D01*
X116559399Y-122046431D01*
X116356545Y-121695077D01*
X116356541Y-121695070D01*
X116121203Y-121364585D01*
X115855516Y-121057966D01*
X115561887Y-120777991D01*
X115242973Y-120527195D01*
X114901665Y-120307849D01*
X114901662Y-120307847D01*
X114541058Y-120121943D01*
X114541036Y-120121933D01*
X114164401Y-119971152D01*
X113775129Y-119856851D01*
X113775123Y-119856849D01*
X113775118Y-119856848D01*
X113775113Y-119856847D01*
X113376747Y-119780067D01*
X113376727Y-119780065D01*
X112972876Y-119741501D01*
X112972858Y-119741500D01*
X112972857Y-119741500D01*
X112567143Y-119741500D01*
X112567141Y-119741500D01*
X112567123Y-119741501D01*
X112163272Y-119780065D01*
X112163252Y-119780067D01*
X111764886Y-119856847D01*
X111764870Y-119856851D01*
X111375598Y-119971152D01*
X110998963Y-120121933D01*
X110998941Y-120121943D01*
X110638330Y-120307851D01*
X110297028Y-120527194D01*
X110297022Y-120527198D01*
X109978121Y-120777984D01*
X109978116Y-120777988D01*
X109978113Y-120777991D01*
X109737858Y-121007073D01*
X109684487Y-121057963D01*
X109418802Y-121364578D01*
X109418801Y-121364579D01*
X109183454Y-121695077D01*
X108980600Y-122046431D01*
X108812063Y-122415476D01*
X108812062Y-122415480D01*
X108679367Y-122798876D01*
X108679364Y-122798887D01*
X108583716Y-123193155D01*
X108583714Y-123193165D01*
X108525974Y-123594759D01*
X108525974Y-123594760D01*
X108506671Y-123999994D01*
X104970000Y-123999994D01*
X104970000Y-122000000D01*
X100970000Y-122000000D01*
X100970000Y-126000000D01*
X97121608Y-126000000D01*
X97146632Y-125993295D01*
X97401021Y-125887923D01*
X97639479Y-125750249D01*
X97857928Y-125582628D01*
X98052628Y-125387928D01*
X98220249Y-125169479D01*
X98357923Y-124931021D01*
X98463295Y-124676632D01*
X98534560Y-124410666D01*
X98535275Y-124405239D01*
X98538019Y-124384391D01*
X98570500Y-124137674D01*
X98570500Y-123862326D01*
X98543823Y-123659696D01*
X98534561Y-123589340D01*
X98534560Y-123589338D01*
X98534560Y-123589334D01*
X98463295Y-123323368D01*
X98357923Y-123068979D01*
X98357922Y-123068977D01*
X98357916Y-123068966D01*
X98220251Y-122830524D01*
X98052627Y-122612071D01*
X98052618Y-122612061D01*
X97857938Y-122417381D01*
X97857928Y-122417372D01*
X97639475Y-122249748D01*
X97401033Y-122112083D01*
X97401022Y-122112077D01*
X97242536Y-122046430D01*
X97146632Y-122006705D01*
X96880666Y-121935440D01*
X96880659Y-121935438D01*
X96607676Y-121899500D01*
X96607674Y-121899500D01*
X96332326Y-121899500D01*
X96332323Y-121899500D01*
X96059340Y-121935438D01*
X95793368Y-122006705D01*
X95538977Y-122112077D01*
X95538966Y-122112083D01*
X95300524Y-122249748D01*
X95082071Y-122417372D01*
X95082061Y-122417381D01*
X94887381Y-122612061D01*
X94887372Y-122612071D01*
X94719748Y-122830524D01*
X94582083Y-123068966D01*
X94582077Y-123068977D01*
X94476705Y-123323368D01*
X94405438Y-123589340D01*
X94369500Y-123862323D01*
X84850000Y-123862323D01*
X84850000Y-120000000D01*
X80850000Y-120000000D01*
X80850000Y-124000000D01*
X76880000Y-124000000D01*
X76880000Y-122490000D01*
X76879999Y-122490000D01*
X73999999Y-122510000D01*
X73989999Y-125479999D01*
X69364113Y-125479999D01*
X69460634Y-125201119D01*
X69556285Y-124806840D01*
X69614024Y-124405255D01*
X69633329Y-124000000D01*
X69614024Y-123594745D01*
X69556285Y-123193160D01*
X69460634Y-122798881D01*
X69327938Y-122415481D01*
X69252252Y-122249751D01*
X69159399Y-122046431D01*
X68956545Y-121695077D01*
X68956541Y-121695070D01*
X68721203Y-121364585D01*
X68455516Y-121057966D01*
X68161887Y-120777991D01*
X67842973Y-120527195D01*
X67501665Y-120307849D01*
X67501662Y-120307847D01*
X67141058Y-120121943D01*
X67141036Y-120121933D01*
X66764401Y-119971152D01*
X66375129Y-119856851D01*
X66375123Y-119856849D01*
X66375118Y-119856848D01*
X66375113Y-119856847D01*
X65976747Y-119780067D01*
X65976727Y-119780065D01*
X65572876Y-119741501D01*
X65572858Y-119741500D01*
X65572857Y-119741500D01*
X65167143Y-119741500D01*
X65167141Y-119741500D01*
X65167123Y-119741501D01*
X64763272Y-119780065D01*
X64763252Y-119780067D01*
X64364886Y-119856847D01*
X64364870Y-119856851D01*
X63975598Y-119971152D01*
X63598963Y-120121933D01*
X63598941Y-120121943D01*
X63238330Y-120307851D01*
X62897028Y-120527194D01*
X62897022Y-120527198D01*
X62578121Y-120777984D01*
X62578116Y-120777988D01*
X62578113Y-120777991D01*
X62337858Y-121007073D01*
X62284487Y-121057963D01*
X62018802Y-121364578D01*
X62018801Y-121364579D01*
X61783454Y-121695077D01*
X61580600Y-122046431D01*
X61412063Y-122415476D01*
X61412062Y-122415480D01*
X61279367Y-122798876D01*
X61279364Y-122798887D01*
X61183716Y-123193155D01*
X61183714Y-123193165D01*
X61125974Y-123594759D01*
X61125974Y-123594760D01*
X61106671Y-123999994D01*
X56350500Y-123999994D01*
X56350500Y-123862326D01*
X56323823Y-123659696D01*
X56314561Y-123589340D01*
X56314560Y-123589338D01*
X56314560Y-123589334D01*
X56243295Y-123323368D01*
X56137923Y-123068979D01*
X56137922Y-123068977D01*
X56137916Y-123068966D01*
X56000251Y-122830524D01*
X55832627Y-122612071D01*
X55832618Y-122612061D01*
X55637938Y-122417381D01*
X55637928Y-122417372D01*
X55419475Y-122249748D01*
X55181033Y-122112083D01*
X55181022Y-122112077D01*
X55022536Y-122046430D01*
X54926632Y-122006705D01*
X54660666Y-121935440D01*
X54660659Y-121935438D01*
X54387676Y-121899500D01*
X54387674Y-121899500D01*
X54112326Y-121899500D01*
X54112323Y-121899500D01*
X53839340Y-121935438D01*
X53573368Y-122006705D01*
X53318977Y-122112077D01*
X53318966Y-122112083D01*
X53080524Y-122249748D01*
X52862071Y-122417372D01*
X52862061Y-122417381D01*
X52667381Y-122612061D01*
X52667372Y-122612071D01*
X52499748Y-122830524D01*
X52362083Y-123068966D01*
X52362077Y-123068977D01*
X52256705Y-123323368D01*
X52185438Y-123589340D01*
X52149500Y-123862323D01*
X50025500Y-123862323D01*
X50025500Y-111862323D01*
X52149500Y-111862323D01*
X52149500Y-112137676D01*
X52185438Y-112410659D01*
X52256705Y-112676631D01*
X52362077Y-112931022D01*
X52362083Y-112931033D01*
X52499748Y-113169475D01*
X52667372Y-113387928D01*
X52667381Y-113387938D01*
X52862061Y-113582618D01*
X52862071Y-113582627D01*
X52862072Y-113582628D01*
X52864536Y-113584519D01*
X53080524Y-113750251D01*
X53318966Y-113887916D01*
X53318977Y-113887922D01*
X53318979Y-113887923D01*
X53573368Y-113993295D01*
X53839334Y-114064560D01*
X53839338Y-114064560D01*
X53839340Y-114064561D01*
X53909696Y-114073823D01*
X54112326Y-114100500D01*
X54112333Y-114100500D01*
X54387667Y-114100500D01*
X54387674Y-114100500D01*
X54634391Y-114068019D01*
X54660659Y-114064561D01*
X54660659Y-114064560D01*
X54660666Y-114064560D01*
X54926632Y-113993295D01*
X55181021Y-113887923D01*
X55419479Y-113750249D01*
X55637928Y-113582628D01*
X55832628Y-113387928D01*
X56000249Y-113169479D01*
X56137923Y-112931021D01*
X56243295Y-112676632D01*
X56314560Y-112410666D01*
X56315275Y-112405239D01*
X56318019Y-112384391D01*
X56350500Y-112137674D01*
X56350500Y-111999994D01*
X61106671Y-111999994D01*
X61106671Y-112000005D01*
X61125974Y-112405239D01*
X61125974Y-112405240D01*
X61183714Y-112806834D01*
X61183716Y-112806844D01*
X61279364Y-113201112D01*
X61279367Y-113201123D01*
X61412062Y-113584519D01*
X61412063Y-113584523D01*
X61580600Y-113953568D01*
X61783454Y-114304922D01*
X61783459Y-114304930D01*
X62018797Y-114635415D01*
X62284484Y-114942034D01*
X62578113Y-115222009D01*
X62897027Y-115472805D01*
X63043389Y-115566866D01*
X63238330Y-115692148D01*
X63238336Y-115692151D01*
X63598949Y-115878060D01*
X63598955Y-115878062D01*
X63598963Y-115878066D01*
X63786475Y-115953134D01*
X63975602Y-116028849D01*
X64364882Y-116143152D01*
X64605481Y-116189523D01*
X64763252Y-116219932D01*
X64763257Y-116219932D01*
X64763265Y-116219934D01*
X65167143Y-116258500D01*
X65167145Y-116258500D01*
X65572855Y-116258500D01*
X65572857Y-116258500D01*
X65976735Y-116219934D01*
X65976743Y-116219932D01*
X65976747Y-116219932D01*
X66074369Y-116201116D01*
X66375118Y-116143152D01*
X66764398Y-116028849D01*
X67141051Y-115878060D01*
X67501665Y-115692151D01*
X67842973Y-115472805D01*
X68161887Y-115222009D01*
X68455516Y-114942034D01*
X68721203Y-114635415D01*
X68956541Y-114304930D01*
X69159398Y-113953570D01*
X69327938Y-113584519D01*
X69364113Y-113479999D01*
X73989999Y-113479999D01*
X73990000Y-113480000D01*
X76880000Y-113460000D01*
X76880000Y-111999994D01*
X78606671Y-111999994D01*
X78606671Y-112000005D01*
X78625974Y-112405239D01*
X78625974Y-112405240D01*
X78683714Y-112806834D01*
X78683716Y-112806844D01*
X78779364Y-113201112D01*
X78779367Y-113201123D01*
X78912062Y-113584519D01*
X78912063Y-113584523D01*
X79080600Y-113953568D01*
X79283454Y-114304922D01*
X79283459Y-114304930D01*
X79518797Y-114635415D01*
X79784484Y-114942034D01*
X80078113Y-115222009D01*
X80397027Y-115472805D01*
X80543389Y-115566866D01*
X80738330Y-115692148D01*
X80738336Y-115692151D01*
X81098949Y-115878060D01*
X81098955Y-115878062D01*
X81098963Y-115878066D01*
X81286475Y-115953134D01*
X81475602Y-116028849D01*
X81864882Y-116143152D01*
X82105481Y-116189523D01*
X82263252Y-116219932D01*
X82263257Y-116219932D01*
X82263265Y-116219934D01*
X82667143Y-116258500D01*
X82667145Y-116258500D01*
X83072855Y-116258500D01*
X83072857Y-116258500D01*
X83476735Y-116219934D01*
X83476743Y-116219932D01*
X83476747Y-116219932D01*
X83574369Y-116201116D01*
X83875118Y-116143152D01*
X84264398Y-116028849D01*
X84641051Y-115878060D01*
X85001665Y-115692151D01*
X85342973Y-115472805D01*
X85661887Y-115222009D01*
X85955516Y-114942034D01*
X86221203Y-114635415D01*
X86456541Y-114304930D01*
X86659398Y-113953570D01*
X86827938Y-113584519D01*
X86960634Y-113201119D01*
X87056285Y-112806840D01*
X87114024Y-112405255D01*
X87133329Y-112000000D01*
X87126771Y-111862323D01*
X94369500Y-111862323D01*
X94369500Y-112137676D01*
X94405438Y-112410659D01*
X94476705Y-112676631D01*
X94582077Y-112931022D01*
X94582083Y-112931033D01*
X94719748Y-113169475D01*
X94887372Y-113387928D01*
X94887381Y-113387938D01*
X95082061Y-113582618D01*
X95082071Y-113582627D01*
X95082072Y-113582628D01*
X95084536Y-113584519D01*
X95300524Y-113750251D01*
X95538966Y-113887916D01*
X95538977Y-113887922D01*
X95538979Y-113887923D01*
X95793368Y-113993295D01*
X96059334Y-114064560D01*
X96059338Y-114064560D01*
X96059340Y-114064561D01*
X96129696Y-114073823D01*
X96332326Y-114100500D01*
X96332333Y-114100500D01*
X96607667Y-114100500D01*
X96607674Y-114100500D01*
X96854391Y-114068019D01*
X96880659Y-114064561D01*
X96880659Y-114064560D01*
X96880666Y-114064560D01*
X97121608Y-114000000D01*
X100970000Y-114000000D01*
X104970000Y-114000000D01*
X104970000Y-111999994D01*
X108506671Y-111999994D01*
X108506671Y-112000005D01*
X108525974Y-112405239D01*
X108525974Y-112405240D01*
X108583714Y-112806834D01*
X108583716Y-112806844D01*
X108679364Y-113201112D01*
X108679367Y-113201123D01*
X108812062Y-113584519D01*
X108812063Y-113584523D01*
X108980600Y-113953568D01*
X109183454Y-114304922D01*
X109183459Y-114304930D01*
X109418797Y-114635415D01*
X109684484Y-114942034D01*
X109978113Y-115222009D01*
X110297027Y-115472805D01*
X110443389Y-115566866D01*
X110638330Y-115692148D01*
X110638336Y-115692151D01*
X110998949Y-115878060D01*
X110998955Y-115878062D01*
X110998963Y-115878066D01*
X111186475Y-115953134D01*
X111375602Y-116028849D01*
X111764882Y-116143152D01*
X112005481Y-116189523D01*
X112163252Y-116219932D01*
X112163257Y-116219932D01*
X112163265Y-116219934D01*
X112567143Y-116258500D01*
X112567145Y-116258500D01*
X112972855Y-116258500D01*
X112972857Y-116258500D01*
X113376735Y-116219934D01*
X113376743Y-116219932D01*
X113376747Y-116219932D01*
X113474369Y-116201116D01*
X113775118Y-116143152D01*
X114164398Y-116028849D01*
X114541051Y-115878060D01*
X114901665Y-115692151D01*
X115242973Y-115472805D01*
X115561887Y-115222009D01*
X115855516Y-114942034D01*
X116121203Y-114635415D01*
X116356541Y-114304930D01*
X116559398Y-113953570D01*
X116727938Y-113584519D01*
X116860634Y-113201119D01*
X116956285Y-112806840D01*
X117014024Y-112405255D01*
X117033329Y-112000000D01*
X117014024Y-111594745D01*
X116956285Y-111193160D01*
X116860634Y-110798881D01*
X116727938Y-110415481D01*
X116652252Y-110249751D01*
X116559399Y-110046431D01*
X116356545Y-109695077D01*
X116356541Y-109695070D01*
X116121203Y-109364585D01*
X115855516Y-109057966D01*
X115561887Y-108777991D01*
X115242973Y-108527195D01*
X114901665Y-108307849D01*
X114901662Y-108307847D01*
X114541058Y-108121943D01*
X114541036Y-108121933D01*
X114164401Y-107971152D01*
X113775129Y-107856851D01*
X113775123Y-107856849D01*
X113775118Y-107856848D01*
X113775113Y-107856847D01*
X113376747Y-107780067D01*
X113376727Y-107780065D01*
X112972876Y-107741501D01*
X112972858Y-107741500D01*
X112972857Y-107741500D01*
X112567143Y-107741500D01*
X112567141Y-107741500D01*
X112567123Y-107741501D01*
X112163272Y-107780065D01*
X112163252Y-107780067D01*
X111764886Y-107856847D01*
X111764870Y-107856851D01*
X111375598Y-107971152D01*
X110998963Y-108121933D01*
X110998941Y-108121943D01*
X110638330Y-108307851D01*
X110297028Y-108527194D01*
X110297022Y-108527198D01*
X109978121Y-108777984D01*
X109978116Y-108777988D01*
X109978113Y-108777991D01*
X109737858Y-109007073D01*
X109684487Y-109057963D01*
X109418802Y-109364578D01*
X109418801Y-109364579D01*
X109183454Y-109695077D01*
X108980600Y-110046431D01*
X108812063Y-110415476D01*
X108812062Y-110415480D01*
X108679367Y-110798876D01*
X108679364Y-110798887D01*
X108583716Y-111193155D01*
X108583714Y-111193165D01*
X108525974Y-111594759D01*
X108525974Y-111594760D01*
X108506671Y-111999994D01*
X104970000Y-111999994D01*
X104970000Y-110000000D01*
X100970000Y-110000000D01*
X100970000Y-114000000D01*
X97121608Y-114000000D01*
X97146632Y-113993295D01*
X97401021Y-113887923D01*
X97639479Y-113750249D01*
X97857928Y-113582628D01*
X98052628Y-113387928D01*
X98220249Y-113169479D01*
X98357923Y-112931021D01*
X98463295Y-112676632D01*
X98534560Y-112410666D01*
X98535275Y-112405239D01*
X98538019Y-112384391D01*
X98570500Y-112137674D01*
X98570500Y-111862326D01*
X98543823Y-111659696D01*
X98534561Y-111589340D01*
X98534560Y-111589338D01*
X98534560Y-111589334D01*
X98463295Y-111323368D01*
X98357923Y-111068979D01*
X98357922Y-111068977D01*
X98357916Y-111068966D01*
X98220251Y-110830524D01*
X98052627Y-110612071D01*
X98052618Y-110612061D01*
X97857938Y-110417381D01*
X97857928Y-110417372D01*
X97639475Y-110249748D01*
X97401033Y-110112083D01*
X97401022Y-110112077D01*
X97242536Y-110046430D01*
X97146632Y-110006705D01*
X96880666Y-109935440D01*
X96880659Y-109935438D01*
X96607676Y-109899500D01*
X96607674Y-109899500D01*
X96332326Y-109899500D01*
X96332323Y-109899500D01*
X96059340Y-109935438D01*
X95793368Y-110006705D01*
X95538977Y-110112077D01*
X95538966Y-110112083D01*
X95300524Y-110249748D01*
X95082071Y-110417372D01*
X95082061Y-110417381D01*
X94887381Y-110612061D01*
X94887372Y-110612071D01*
X94719748Y-110830524D01*
X94582083Y-111068966D01*
X94582077Y-111068977D01*
X94476705Y-111323368D01*
X94405438Y-111589340D01*
X94369500Y-111862323D01*
X87126771Y-111862323D01*
X87114024Y-111594745D01*
X87056285Y-111193160D01*
X86960634Y-110798881D01*
X86827938Y-110415481D01*
X86752252Y-110249751D01*
X86659399Y-110046431D01*
X86456545Y-109695077D01*
X86456541Y-109695070D01*
X86221203Y-109364585D01*
X85955516Y-109057966D01*
X85661887Y-108777991D01*
X85342973Y-108527195D01*
X85001665Y-108307849D01*
X85001662Y-108307847D01*
X84641058Y-108121943D01*
X84641036Y-108121933D01*
X84264401Y-107971152D01*
X83875129Y-107856851D01*
X83875123Y-107856849D01*
X83875118Y-107856848D01*
X83875113Y-107856847D01*
X83476747Y-107780067D01*
X83476727Y-107780065D01*
X83072876Y-107741501D01*
X83072858Y-107741500D01*
X83072857Y-107741500D01*
X82667143Y-107741500D01*
X82667141Y-107741500D01*
X82667123Y-107741501D01*
X82263272Y-107780065D01*
X82263252Y-107780067D01*
X81864886Y-107856847D01*
X81864870Y-107856851D01*
X81475598Y-107971152D01*
X81098963Y-108121933D01*
X81098941Y-108121943D01*
X80738330Y-108307851D01*
X80397028Y-108527194D01*
X80397022Y-108527198D01*
X80078121Y-108777984D01*
X80078116Y-108777988D01*
X80078113Y-108777991D01*
X79837858Y-109007073D01*
X79784487Y-109057963D01*
X79518802Y-109364578D01*
X79518801Y-109364579D01*
X79283454Y-109695077D01*
X79080600Y-110046431D01*
X78912063Y-110415476D01*
X78912062Y-110415480D01*
X78779367Y-110798876D01*
X78779364Y-110798887D01*
X78683716Y-111193155D01*
X78683714Y-111193165D01*
X78625974Y-111594759D01*
X78625974Y-111594760D01*
X78606671Y-111999994D01*
X76880000Y-111999994D01*
X76880000Y-110490000D01*
X76879999Y-110490000D01*
X73999999Y-110510000D01*
X73989999Y-113479999D01*
X69364113Y-113479999D01*
X69460634Y-113201119D01*
X69556285Y-112806840D01*
X69614024Y-112405255D01*
X69633329Y-112000000D01*
X69614024Y-111594745D01*
X69556285Y-111193160D01*
X69460634Y-110798881D01*
X69327938Y-110415481D01*
X69252252Y-110249751D01*
X69159399Y-110046431D01*
X68956545Y-109695077D01*
X68956541Y-109695070D01*
X68721203Y-109364585D01*
X68455516Y-109057966D01*
X68161887Y-108777991D01*
X67842973Y-108527195D01*
X67501665Y-108307849D01*
X67501662Y-108307847D01*
X67141058Y-108121943D01*
X67141036Y-108121933D01*
X66764401Y-107971152D01*
X66375129Y-107856851D01*
X66375123Y-107856849D01*
X66375118Y-107856848D01*
X66375113Y-107856847D01*
X65976747Y-107780067D01*
X65976727Y-107780065D01*
X65572876Y-107741501D01*
X65572858Y-107741500D01*
X65572857Y-107741500D01*
X65167143Y-107741500D01*
X65167141Y-107741500D01*
X65167123Y-107741501D01*
X64763272Y-107780065D01*
X64763252Y-107780067D01*
X64364886Y-107856847D01*
X64364870Y-107856851D01*
X63975598Y-107971152D01*
X63598963Y-108121933D01*
X63598941Y-108121943D01*
X63238330Y-108307851D01*
X62897028Y-108527194D01*
X62897022Y-108527198D01*
X62578121Y-108777984D01*
X62578116Y-108777988D01*
X62578113Y-108777991D01*
X62337858Y-109007073D01*
X62284487Y-109057963D01*
X62018802Y-109364578D01*
X62018801Y-109364579D01*
X61783454Y-109695077D01*
X61580600Y-110046431D01*
X61412063Y-110415476D01*
X61412062Y-110415480D01*
X61279367Y-110798876D01*
X61279364Y-110798887D01*
X61183716Y-111193155D01*
X61183714Y-111193165D01*
X61125974Y-111594759D01*
X61125974Y-111594760D01*
X61106671Y-111999994D01*
X56350500Y-111999994D01*
X56350500Y-111862326D01*
X56323823Y-111659696D01*
X56314561Y-111589340D01*
X56314560Y-111589338D01*
X56314560Y-111589334D01*
X56243295Y-111323368D01*
X56137923Y-111068979D01*
X56137922Y-111068977D01*
X56137916Y-111068966D01*
X56000251Y-110830524D01*
X55832627Y-110612071D01*
X55832618Y-110612061D01*
X55637938Y-110417381D01*
X55637928Y-110417372D01*
X55419475Y-110249748D01*
X55181033Y-110112083D01*
X55181022Y-110112077D01*
X55022536Y-110046430D01*
X54926632Y-110006705D01*
X54660666Y-109935440D01*
X54660659Y-109935438D01*
X54387676Y-109899500D01*
X54387674Y-109899500D01*
X54112326Y-109899500D01*
X54112323Y-109899500D01*
X53839340Y-109935438D01*
X53573368Y-110006705D01*
X53318977Y-110112077D01*
X53318966Y-110112083D01*
X53080524Y-110249748D01*
X52862071Y-110417372D01*
X52862061Y-110417381D01*
X52667381Y-110612061D01*
X52667372Y-110612071D01*
X52499748Y-110830524D01*
X52362083Y-111068966D01*
X52362077Y-111068977D01*
X52256705Y-111323368D01*
X52185438Y-111589340D01*
X52149500Y-111862323D01*
X50025500Y-111862323D01*
X50025500Y-93599998D01*
X70436490Y-93599998D01*
X70436490Y-93600001D01*
X70456519Y-94058746D01*
X70516455Y-94513997D01*
X70516456Y-94514004D01*
X70615836Y-94962282D01*
X70615845Y-94962316D01*
X70753911Y-95400206D01*
X70753919Y-95400228D01*
X70929642Y-95824462D01*
X71141659Y-96231742D01*
X71141673Y-96231766D01*
X71383948Y-96612061D01*
X71388385Y-96619025D01*
X71667917Y-96983319D01*
X71746398Y-97068966D01*
X71978135Y-97321864D01*
X72184666Y-97511113D01*
X72316681Y-97632083D01*
X72680975Y-97911615D01*
X72680977Y-97911616D01*
X73068233Y-98158326D01*
X73068257Y-98158340D01*
X73475537Y-98370357D01*
X73572835Y-98410659D01*
X73899774Y-98546082D01*
X73899792Y-98546087D01*
X73899793Y-98546088D01*
X74337683Y-98684154D01*
X74337689Y-98684155D01*
X74337703Y-98684160D01*
X74786001Y-98783545D01*
X75241255Y-98843481D01*
X75678053Y-98862551D01*
X75699999Y-98863510D01*
X75700000Y-98863510D01*
X75700001Y-98863510D01*
X75720030Y-98862635D01*
X76158745Y-98843481D01*
X76613999Y-98783545D01*
X77062297Y-98684160D01*
X77500226Y-98546082D01*
X77924455Y-98370360D01*
X77924455Y-98370359D01*
X77924462Y-98370357D01*
X78331742Y-98158340D01*
X78331745Y-98158337D01*
X78331755Y-98158333D01*
X78719025Y-97911615D01*
X78783264Y-97862323D01*
X94369500Y-97862323D01*
X94369500Y-98137676D01*
X94405438Y-98410659D01*
X94405440Y-98410666D01*
X94476705Y-98676632D01*
X94520989Y-98783543D01*
X94582077Y-98931022D01*
X94582083Y-98931033D01*
X94719748Y-99169475D01*
X94887372Y-99387928D01*
X94887381Y-99387938D01*
X95082061Y-99582618D01*
X95082071Y-99582627D01*
X95082072Y-99582628D01*
X95084536Y-99584519D01*
X95300524Y-99750251D01*
X95538966Y-99887916D01*
X95538977Y-99887922D01*
X95538979Y-99887923D01*
X95793368Y-99993295D01*
X96059334Y-100064560D01*
X96059338Y-100064560D01*
X96059340Y-100064561D01*
X96129696Y-100073823D01*
X96332326Y-100100500D01*
X96332333Y-100100500D01*
X96607667Y-100100500D01*
X96607674Y-100100500D01*
X96854391Y-100068019D01*
X96880659Y-100064561D01*
X96880659Y-100064560D01*
X96880666Y-100064560D01*
X97121608Y-100000000D01*
X100970000Y-100000000D01*
X104970000Y-100000000D01*
X104970000Y-97999994D01*
X108506671Y-97999994D01*
X108506671Y-98000005D01*
X108525974Y-98405239D01*
X108525974Y-98405240D01*
X108583714Y-98806834D01*
X108583716Y-98806844D01*
X108679364Y-99201112D01*
X108679367Y-99201123D01*
X108812062Y-99584519D01*
X108812063Y-99584523D01*
X108980600Y-99953568D01*
X109183454Y-100304922D01*
X109183459Y-100304930D01*
X109418797Y-100635415D01*
X109684484Y-100942034D01*
X109978113Y-101222009D01*
X110297027Y-101472805D01*
X110443389Y-101566866D01*
X110638330Y-101692148D01*
X110638336Y-101692151D01*
X110998949Y-101878060D01*
X110998955Y-101878062D01*
X110998963Y-101878066D01*
X111186475Y-101953134D01*
X111375602Y-102028849D01*
X111764882Y-102143152D01*
X112005481Y-102189523D01*
X112163252Y-102219932D01*
X112163257Y-102219932D01*
X112163265Y-102219934D01*
X112567143Y-102258500D01*
X112567145Y-102258500D01*
X112972855Y-102258500D01*
X112972857Y-102258500D01*
X113376735Y-102219934D01*
X113376743Y-102219932D01*
X113376747Y-102219932D01*
X113474369Y-102201116D01*
X113775118Y-102143152D01*
X114164398Y-102028849D01*
X114541051Y-101878060D01*
X114901665Y-101692151D01*
X115242973Y-101472805D01*
X115561887Y-101222009D01*
X115855516Y-100942034D01*
X116121203Y-100635415D01*
X116356541Y-100304930D01*
X116559398Y-99953570D01*
X116727938Y-99584519D01*
X116860634Y-99201119D01*
X116956285Y-98806840D01*
X117014024Y-98405255D01*
X117014025Y-98405239D01*
X117033329Y-98000005D01*
X117033329Y-97999994D01*
X117014025Y-97594760D01*
X117014025Y-97594759D01*
X117014024Y-97594755D01*
X117014024Y-97594745D01*
X116956285Y-97193160D01*
X116860634Y-96798881D01*
X116727938Y-96415481D01*
X116652252Y-96249751D01*
X116559399Y-96046431D01*
X116356545Y-95695077D01*
X116356541Y-95695070D01*
X116121203Y-95364585D01*
X115855516Y-95057966D01*
X115561887Y-94777991D01*
X115242973Y-94527195D01*
X114901665Y-94307849D01*
X114901662Y-94307847D01*
X114541058Y-94121943D01*
X114541036Y-94121933D01*
X114164401Y-93971152D01*
X113775129Y-93856851D01*
X113775123Y-93856849D01*
X113775118Y-93856848D01*
X113775113Y-93856847D01*
X113376747Y-93780067D01*
X113376727Y-93780065D01*
X112972876Y-93741501D01*
X112972858Y-93741500D01*
X112972857Y-93741500D01*
X112567143Y-93741500D01*
X112567141Y-93741500D01*
X112567123Y-93741501D01*
X112163272Y-93780065D01*
X112163252Y-93780067D01*
X111764886Y-93856847D01*
X111764870Y-93856851D01*
X111375598Y-93971152D01*
X110998963Y-94121933D01*
X110998941Y-94121943D01*
X110638330Y-94307851D01*
X110297028Y-94527194D01*
X110297022Y-94527198D01*
X109978121Y-94777984D01*
X109978116Y-94777988D01*
X109978113Y-94777991D01*
X109784819Y-94962297D01*
X109684487Y-95057963D01*
X109418802Y-95364578D01*
X109418801Y-95364579D01*
X109183454Y-95695077D01*
X108980600Y-96046431D01*
X108812063Y-96415476D01*
X108812062Y-96415480D01*
X108679367Y-96798876D01*
X108679364Y-96798887D01*
X108583716Y-97193155D01*
X108583714Y-97193165D01*
X108525974Y-97594759D01*
X108525974Y-97594760D01*
X108506671Y-97999994D01*
X104970000Y-97999994D01*
X104970000Y-96000000D01*
X100970000Y-96000000D01*
X100970000Y-100000000D01*
X97121608Y-100000000D01*
X97146632Y-99993295D01*
X97401021Y-99887923D01*
X97639479Y-99750249D01*
X97857928Y-99582628D01*
X98052628Y-99387928D01*
X98220249Y-99169479D01*
X98357923Y-98931021D01*
X98463295Y-98676632D01*
X98534560Y-98410666D01*
X98535275Y-98405239D01*
X98567780Y-98158333D01*
X98570500Y-98137674D01*
X98570500Y-97862326D01*
X98540187Y-97632076D01*
X98534561Y-97589340D01*
X98534560Y-97589338D01*
X98534560Y-97589334D01*
X98463295Y-97323368D01*
X98357923Y-97068979D01*
X98357922Y-97068977D01*
X98357916Y-97068966D01*
X98220251Y-96830524D01*
X98057961Y-96619023D01*
X98052628Y-96612072D01*
X98052627Y-96612071D01*
X98052618Y-96612061D01*
X97857938Y-96417381D01*
X97857928Y-96417372D01*
X97639475Y-96249748D01*
X97401033Y-96112083D01*
X97401022Y-96112077D01*
X97242536Y-96046430D01*
X97146632Y-96006705D01*
X96880666Y-95935440D01*
X96880659Y-95935438D01*
X96607676Y-95899500D01*
X96607674Y-95899500D01*
X96332326Y-95899500D01*
X96332323Y-95899500D01*
X96059340Y-95935438D01*
X95793368Y-96006705D01*
X95538977Y-96112077D01*
X95538966Y-96112083D01*
X95300524Y-96249748D01*
X95082071Y-96417372D01*
X95082061Y-96417381D01*
X94887381Y-96612061D01*
X94887372Y-96612071D01*
X94719748Y-96830524D01*
X94582083Y-97068966D01*
X94582077Y-97068977D01*
X94476705Y-97323368D01*
X94405438Y-97589340D01*
X94369500Y-97862323D01*
X78783264Y-97862323D01*
X79083319Y-97632083D01*
X79421864Y-97321864D01*
X79732083Y-96983319D01*
X80011615Y-96619025D01*
X80258333Y-96231755D01*
X80258340Y-96231742D01*
X80470357Y-95824462D01*
X80523953Y-95695070D01*
X80646082Y-95400226D01*
X80784160Y-94962297D01*
X80883545Y-94513999D01*
X80943481Y-94058745D01*
X80963510Y-93600000D01*
X80943481Y-93141255D01*
X80883545Y-92686001D01*
X80784160Y-92237703D01*
X80646082Y-91799774D01*
X80470360Y-91375545D01*
X80470357Y-91375537D01*
X80258340Y-90968257D01*
X80258326Y-90968233D01*
X80011616Y-90580977D01*
X80011615Y-90580975D01*
X79732083Y-90216681D01*
X79559965Y-90028847D01*
X79421864Y-89878135D01*
X79196474Y-89671604D01*
X79083319Y-89567917D01*
X79083315Y-89567914D01*
X79083313Y-89567912D01*
X78928293Y-89448962D01*
X78719025Y-89288385D01*
X78614845Y-89222015D01*
X78331766Y-89041673D01*
X78331742Y-89041659D01*
X77924462Y-88829642D01*
X77500228Y-88653919D01*
X77500226Y-88653918D01*
X77500220Y-88653916D01*
X77500206Y-88653911D01*
X77062316Y-88515845D01*
X77062282Y-88515836D01*
X76614004Y-88416456D01*
X76614002Y-88416455D01*
X76613999Y-88416455D01*
X76310496Y-88376497D01*
X76158746Y-88356519D01*
X76158747Y-88356519D01*
X75700001Y-88336490D01*
X75699999Y-88336490D01*
X75241253Y-88356519D01*
X74937752Y-88396476D01*
X74786001Y-88416455D01*
X74785999Y-88416455D01*
X74785995Y-88416456D01*
X74337717Y-88515836D01*
X74337683Y-88515845D01*
X73899793Y-88653911D01*
X73899771Y-88653919D01*
X73475537Y-88829642D01*
X73068257Y-89041659D01*
X73068233Y-89041673D01*
X72680977Y-89288383D01*
X72680976Y-89288384D01*
X72316686Y-89567912D01*
X72316674Y-89567923D01*
X71978135Y-89878135D01*
X71667923Y-90216674D01*
X71667912Y-90216686D01*
X71388384Y-90580976D01*
X71388383Y-90580977D01*
X71141673Y-90968233D01*
X71141659Y-90968257D01*
X70929642Y-91375537D01*
X70753919Y-91799771D01*
X70753911Y-91799793D01*
X70615845Y-92237683D01*
X70615836Y-92237717D01*
X70516456Y-92685995D01*
X70516455Y-92686002D01*
X70456519Y-93141253D01*
X70436490Y-93599998D01*
X50025500Y-93599998D01*
X50025500Y-85862323D01*
X94369500Y-85862323D01*
X94369500Y-86137676D01*
X94405438Y-86410659D01*
X94476705Y-86676631D01*
X94582077Y-86931022D01*
X94582083Y-86931033D01*
X94719748Y-87169475D01*
X94887372Y-87387928D01*
X94887381Y-87387938D01*
X95082061Y-87582618D01*
X95082071Y-87582627D01*
X95082072Y-87582628D01*
X95084536Y-87584519D01*
X95300524Y-87750251D01*
X95538966Y-87887916D01*
X95538977Y-87887922D01*
X95538979Y-87887923D01*
X95793368Y-87993295D01*
X96059334Y-88064560D01*
X96059338Y-88064560D01*
X96059340Y-88064561D01*
X96129696Y-88073823D01*
X96332326Y-88100500D01*
X96332333Y-88100500D01*
X96607667Y-88100500D01*
X96607674Y-88100500D01*
X96854391Y-88068019D01*
X96880659Y-88064561D01*
X96880659Y-88064560D01*
X96880666Y-88064560D01*
X97121608Y-88000000D01*
X100970000Y-88000000D01*
X104970000Y-88000000D01*
X104970000Y-85999994D01*
X108506671Y-85999994D01*
X108506671Y-86000005D01*
X108525974Y-86405239D01*
X108525974Y-86405240D01*
X108583714Y-86806834D01*
X108583716Y-86806844D01*
X108679364Y-87201112D01*
X108679367Y-87201123D01*
X108812062Y-87584519D01*
X108812063Y-87584523D01*
X108980600Y-87953568D01*
X109183454Y-88304922D01*
X109183459Y-88304930D01*
X109418797Y-88635415D01*
X109684484Y-88942034D01*
X109978113Y-89222009D01*
X110297027Y-89472805D01*
X110443389Y-89566866D01*
X110638330Y-89692148D01*
X110638336Y-89692151D01*
X110998949Y-89878060D01*
X110998955Y-89878062D01*
X110998963Y-89878066D01*
X111186475Y-89953134D01*
X111375602Y-90028849D01*
X111764882Y-90143152D01*
X112005481Y-90189523D01*
X112163252Y-90219932D01*
X112163257Y-90219932D01*
X112163265Y-90219934D01*
X112567143Y-90258500D01*
X112567145Y-90258500D01*
X112972855Y-90258500D01*
X112972857Y-90258500D01*
X113376735Y-90219934D01*
X113376743Y-90219932D01*
X113376747Y-90219932D01*
X113474369Y-90201116D01*
X113775118Y-90143152D01*
X114164398Y-90028849D01*
X114541051Y-89878060D01*
X114901665Y-89692151D01*
X115242973Y-89472805D01*
X115561887Y-89222009D01*
X115855516Y-88942034D01*
X116121203Y-88635415D01*
X116356541Y-88304930D01*
X116559398Y-87953570D01*
X116727938Y-87584519D01*
X116860634Y-87201119D01*
X116956285Y-86806840D01*
X117014024Y-86405255D01*
X117033329Y-86000000D01*
X117014024Y-85594745D01*
X116956285Y-85193160D01*
X116860634Y-84798881D01*
X116727938Y-84415481D01*
X116693338Y-84339717D01*
X116559399Y-84046431D01*
X116356545Y-83695077D01*
X116356541Y-83695070D01*
X116121203Y-83364585D01*
X115855516Y-83057966D01*
X115561887Y-82777991D01*
X115242973Y-82527195D01*
X114901665Y-82307849D01*
X114901662Y-82307847D01*
X114541058Y-82121943D01*
X114541036Y-82121933D01*
X114164401Y-81971152D01*
X113775129Y-81856851D01*
X113775123Y-81856849D01*
X113775118Y-81856848D01*
X113775113Y-81856847D01*
X113376747Y-81780067D01*
X113376727Y-81780065D01*
X112972876Y-81741501D01*
X112972858Y-81741500D01*
X112972857Y-81741500D01*
X112567143Y-81741500D01*
X112567141Y-81741500D01*
X112567123Y-81741501D01*
X112163272Y-81780065D01*
X112163252Y-81780067D01*
X111764886Y-81856847D01*
X111764870Y-81856851D01*
X111375598Y-81971152D01*
X110998963Y-82121933D01*
X110998941Y-82121943D01*
X110638330Y-82307851D01*
X110297028Y-82527194D01*
X110297022Y-82527198D01*
X109978121Y-82777984D01*
X109978116Y-82777988D01*
X109978113Y-82777991D01*
X109863081Y-82887674D01*
X109684487Y-83057963D01*
X109418802Y-83364578D01*
X109418801Y-83364579D01*
X109183454Y-83695077D01*
X108980600Y-84046431D01*
X108812063Y-84415476D01*
X108812062Y-84415480D01*
X108679367Y-84798876D01*
X108679364Y-84798887D01*
X108583716Y-85193155D01*
X108583714Y-85193165D01*
X108525974Y-85594759D01*
X108525974Y-85594760D01*
X108506671Y-85999994D01*
X104970000Y-85999994D01*
X104970000Y-84000000D01*
X100970000Y-84000000D01*
X100970000Y-88000000D01*
X97121608Y-88000000D01*
X97146632Y-87993295D01*
X97401021Y-87887923D01*
X97639479Y-87750249D01*
X97857928Y-87582628D01*
X98052628Y-87387928D01*
X98220249Y-87169479D01*
X98357923Y-86931021D01*
X98463295Y-86676632D01*
X98534560Y-86410666D01*
X98535275Y-86405239D01*
X98538019Y-86384391D01*
X98570500Y-86137674D01*
X98570500Y-85862326D01*
X98543823Y-85659696D01*
X98534561Y-85589340D01*
X98534560Y-85589338D01*
X98534560Y-85589334D01*
X98463295Y-85323368D01*
X98357923Y-85068979D01*
X98357922Y-85068977D01*
X98357916Y-85068966D01*
X98220251Y-84830524D01*
X98208002Y-84814561D01*
X98052628Y-84612072D01*
X98052627Y-84612071D01*
X98052618Y-84612061D01*
X97857938Y-84417381D01*
X97857928Y-84417372D01*
X97747474Y-84332618D01*
X97639479Y-84249751D01*
X97639478Y-84249750D01*
X97639475Y-84249748D01*
X97401033Y-84112083D01*
X97401022Y-84112077D01*
X97242536Y-84046430D01*
X97146632Y-84006705D01*
X96880666Y-83935440D01*
X96880659Y-83935438D01*
X96607676Y-83899500D01*
X96607674Y-83899500D01*
X96332326Y-83899500D01*
X96332323Y-83899500D01*
X96059340Y-83935438D01*
X95793368Y-84006705D01*
X95538977Y-84112077D01*
X95538966Y-84112083D01*
X95300524Y-84249748D01*
X95082071Y-84417372D01*
X95082061Y-84417381D01*
X94887381Y-84612061D01*
X94887372Y-84612071D01*
X94719748Y-84830524D01*
X94582083Y-85068966D01*
X94582077Y-85068977D01*
X94476705Y-85323368D01*
X94405438Y-85589340D01*
X94369500Y-85862323D01*
X50025500Y-85862323D01*
X50025500Y-76660280D01*
X52324500Y-76660280D01*
X52324500Y-76739438D01*
X52324500Y-84241715D01*
X52324500Y-84250000D01*
X52324500Y-84339720D01*
X52352582Y-84498980D01*
X52355661Y-84516439D01*
X52355661Y-84516440D01*
X52417027Y-84685043D01*
X52417033Y-84685054D01*
X52506748Y-84840446D01*
X52506750Y-84840448D01*
X52506751Y-84840449D01*
X52622092Y-84977908D01*
X52730625Y-85068977D01*
X52759551Y-85093249D01*
X52759553Y-85093251D01*
X52914945Y-85182966D01*
X52914956Y-85182972D01*
X53083560Y-85244338D01*
X53083562Y-85244338D01*
X53083567Y-85244340D01*
X53260280Y-85275500D01*
X53260282Y-85275500D01*
X55239718Y-85275500D01*
X55239720Y-85275500D01*
X55416433Y-85244340D01*
X55416438Y-85244338D01*
X55416439Y-85244338D01*
X55416440Y-85244338D01*
X55585043Y-85182972D01*
X55585045Y-85182970D01*
X55585050Y-85182969D01*
X55740449Y-85093249D01*
X55877908Y-84977908D01*
X55993249Y-84840449D01*
X56082969Y-84685050D01*
X56100122Y-84637923D01*
X56144338Y-84516440D01*
X56144338Y-84516439D01*
X56144338Y-84516438D01*
X56144340Y-84516433D01*
X56175500Y-84339720D01*
X56175500Y-84250000D01*
X56175500Y-84241715D01*
X56175500Y-82612323D01*
X68349500Y-82612323D01*
X68349500Y-82887676D01*
X68385438Y-83160659D01*
X68456705Y-83426631D01*
X68562077Y-83681022D01*
X68562083Y-83681033D01*
X68699748Y-83919475D01*
X68867372Y-84137928D01*
X68867381Y-84137938D01*
X69062061Y-84332618D01*
X69062071Y-84332627D01*
X69062072Y-84332628D01*
X69174921Y-84419220D01*
X69280524Y-84500251D01*
X69518966Y-84637916D01*
X69518977Y-84637922D01*
X69518979Y-84637923D01*
X69773368Y-84743295D01*
X70039334Y-84814560D01*
X70039338Y-84814560D01*
X70039340Y-84814561D01*
X70109696Y-84823823D01*
X70312326Y-84850500D01*
X70312333Y-84850500D01*
X70587667Y-84850500D01*
X70587674Y-84850500D01*
X70834391Y-84818019D01*
X70860659Y-84814561D01*
X70860659Y-84814560D01*
X70860666Y-84814560D01*
X71126632Y-84743295D01*
X71381021Y-84637923D01*
X71619479Y-84500249D01*
X71837928Y-84332628D01*
X72032628Y-84137928D01*
X72200249Y-83919479D01*
X72337923Y-83681021D01*
X72443295Y-83426632D01*
X72514560Y-83160666D01*
X72550500Y-82887674D01*
X72550500Y-82612326D01*
X72550500Y-82612323D01*
X78849500Y-82612323D01*
X78849500Y-82887676D01*
X78885438Y-83160659D01*
X78956705Y-83426631D01*
X79062077Y-83681022D01*
X79062083Y-83681033D01*
X79199748Y-83919475D01*
X79367372Y-84137928D01*
X79367381Y-84137938D01*
X79562061Y-84332618D01*
X79562071Y-84332627D01*
X79562072Y-84332628D01*
X79674921Y-84419220D01*
X79780524Y-84500251D01*
X80018966Y-84637916D01*
X80018977Y-84637922D01*
X80018979Y-84637923D01*
X80273368Y-84743295D01*
X80539334Y-84814560D01*
X80539338Y-84814560D01*
X80539340Y-84814561D01*
X80609696Y-84823823D01*
X80812326Y-84850500D01*
X80812333Y-84850500D01*
X81087667Y-84850500D01*
X81087674Y-84850500D01*
X81334391Y-84818019D01*
X81360659Y-84814561D01*
X81360659Y-84814560D01*
X81360666Y-84814560D01*
X81626632Y-84743295D01*
X81881021Y-84637923D01*
X82119479Y-84500249D01*
X82337928Y-84332628D01*
X82532628Y-84137928D01*
X82700249Y-83919479D01*
X82837923Y-83681021D01*
X82943295Y-83426632D01*
X83014560Y-83160666D01*
X83050500Y-82887674D01*
X83050500Y-82612326D01*
X83014560Y-82339334D01*
X82943295Y-82073368D01*
X82837923Y-81818979D01*
X82837922Y-81818977D01*
X82837916Y-81818966D01*
X82700251Y-81580524D01*
X82532627Y-81362071D01*
X82532618Y-81362061D01*
X82337938Y-81167381D01*
X82337928Y-81167372D01*
X82119475Y-80999748D01*
X81881033Y-80862083D01*
X81881022Y-80862077D01*
X81753826Y-80809391D01*
X81626632Y-80756705D01*
X81360666Y-80685440D01*
X81360659Y-80685438D01*
X81087676Y-80649500D01*
X81087674Y-80649500D01*
X80812326Y-80649500D01*
X80812323Y-80649500D01*
X80539340Y-80685438D01*
X80273368Y-80756705D01*
X80018977Y-80862077D01*
X80018966Y-80862083D01*
X79780524Y-80999748D01*
X79562071Y-81167372D01*
X79562061Y-81167381D01*
X79367381Y-81362061D01*
X79367372Y-81362071D01*
X79199748Y-81580524D01*
X79062083Y-81818966D01*
X79062077Y-81818977D01*
X78956705Y-82073368D01*
X78885438Y-82339340D01*
X78849500Y-82612323D01*
X72550500Y-82612323D01*
X72514560Y-82339334D01*
X72443295Y-82073368D01*
X72337923Y-81818979D01*
X72337922Y-81818977D01*
X72337916Y-81818966D01*
X72200251Y-81580524D01*
X72032627Y-81362071D01*
X72032618Y-81362061D01*
X71837938Y-81167381D01*
X71837928Y-81167372D01*
X71619475Y-80999748D01*
X71381033Y-80862083D01*
X71381022Y-80862077D01*
X71253826Y-80809391D01*
X71126632Y-80756705D01*
X70860666Y-80685440D01*
X70860659Y-80685438D01*
X70587676Y-80649500D01*
X70587674Y-80649500D01*
X70312326Y-80649500D01*
X70312323Y-80649500D01*
X70039340Y-80685438D01*
X69773368Y-80756705D01*
X69518977Y-80862077D01*
X69518966Y-80862083D01*
X69280524Y-80999748D01*
X69062071Y-81167372D01*
X69062061Y-81167381D01*
X68867381Y-81362061D01*
X68867372Y-81362071D01*
X68699748Y-81580524D01*
X68562083Y-81818966D01*
X68562077Y-81818977D01*
X68456705Y-82073368D01*
X68385438Y-82339340D01*
X68349500Y-82612323D01*
X56175500Y-82612323D01*
X56175500Y-76739438D01*
X56175500Y-76660280D01*
X56144340Y-76483567D01*
X56144338Y-76483562D01*
X56144338Y-76483560D01*
X56144338Y-76483559D01*
X56082972Y-76314956D01*
X56082966Y-76314945D01*
X55993251Y-76159553D01*
X55993249Y-76159551D01*
X55963085Y-76123603D01*
X55877908Y-76022092D01*
X55740449Y-75906751D01*
X55740448Y-75906750D01*
X55740446Y-75906748D01*
X55585054Y-75817033D01*
X55585043Y-75817027D01*
X55416439Y-75755661D01*
X55385746Y-75750249D01*
X55239720Y-75724500D01*
X55160562Y-75724500D01*
X53358285Y-75724500D01*
X53350000Y-75724500D01*
X53260280Y-75724500D01*
X53154106Y-75743221D01*
X53083560Y-75755661D01*
X53083559Y-75755661D01*
X52914956Y-75817027D01*
X52914945Y-75817033D01*
X52759553Y-75906748D01*
X52759551Y-75906750D01*
X52622092Y-76022092D01*
X52506750Y-76159551D01*
X52506748Y-76159553D01*
X52417033Y-76314945D01*
X52417027Y-76314956D01*
X52355661Y-76483559D01*
X52355661Y-76483560D01*
X52355660Y-76483567D01*
X52324500Y-76660280D01*
X50025500Y-76660280D01*
X50025500Y-73862323D01*
X94369500Y-73862323D01*
X94369500Y-74137676D01*
X94405438Y-74410659D01*
X94476705Y-74676631D01*
X94582077Y-74931022D01*
X94582083Y-74931033D01*
X94719748Y-75169475D01*
X94887372Y-75387928D01*
X94887381Y-75387938D01*
X95082061Y-75582618D01*
X95082071Y-75582627D01*
X95082072Y-75582628D01*
X95084536Y-75584519D01*
X95300524Y-75750251D01*
X95538966Y-75887916D01*
X95538977Y-75887922D01*
X95538979Y-75887923D01*
X95793368Y-75993295D01*
X96059334Y-76064560D01*
X96059338Y-76064560D01*
X96059340Y-76064561D01*
X96129696Y-76073823D01*
X96332326Y-76100500D01*
X96332333Y-76100500D01*
X96607667Y-76100500D01*
X96607674Y-76100500D01*
X96854391Y-76068019D01*
X96880659Y-76064561D01*
X96880659Y-76064560D01*
X96880666Y-76064560D01*
X97121608Y-76000000D01*
X100970000Y-76000000D01*
X104970000Y-76000000D01*
X104970000Y-73999994D01*
X108506671Y-73999994D01*
X108506671Y-74000005D01*
X108525974Y-74405239D01*
X108525974Y-74405240D01*
X108583714Y-74806834D01*
X108583716Y-74806844D01*
X108679364Y-75201112D01*
X108679367Y-75201123D01*
X108812062Y-75584519D01*
X108812063Y-75584523D01*
X108980600Y-75953568D01*
X109159106Y-76262750D01*
X109183459Y-76304930D01*
X109418797Y-76635415D01*
X109684484Y-76942034D01*
X109978113Y-77222009D01*
X110297027Y-77472805D01*
X110443389Y-77566866D01*
X110638330Y-77692148D01*
X110638336Y-77692151D01*
X110998949Y-77878060D01*
X110998955Y-77878062D01*
X110998963Y-77878066D01*
X111186475Y-77953134D01*
X111375602Y-78028849D01*
X111764882Y-78143152D01*
X112005481Y-78189523D01*
X112163252Y-78219932D01*
X112163257Y-78219932D01*
X112163265Y-78219934D01*
X112567143Y-78258500D01*
X112567145Y-78258500D01*
X112972855Y-78258500D01*
X112972857Y-78258500D01*
X113376735Y-78219934D01*
X113376743Y-78219932D01*
X113376747Y-78219932D01*
X113474369Y-78201116D01*
X113775118Y-78143152D01*
X114164398Y-78028849D01*
X114541051Y-77878060D01*
X114901665Y-77692151D01*
X115242973Y-77472805D01*
X115561887Y-77222009D01*
X115855516Y-76942034D01*
X116121203Y-76635415D01*
X116356541Y-76304930D01*
X116559398Y-75953570D01*
X116727938Y-75584519D01*
X116860634Y-75201119D01*
X116956285Y-74806840D01*
X117014024Y-74405255D01*
X117033329Y-74000000D01*
X117014024Y-73594745D01*
X116956285Y-73193160D01*
X116860634Y-72798881D01*
X116727938Y-72415481D01*
X116652252Y-72249751D01*
X116559399Y-72046431D01*
X116356545Y-71695077D01*
X116356541Y-71695070D01*
X116121203Y-71364585D01*
X115855516Y-71057966D01*
X115561887Y-70777991D01*
X115242973Y-70527195D01*
X114901665Y-70307849D01*
X114901662Y-70307847D01*
X114541058Y-70121943D01*
X114541036Y-70121933D01*
X114164401Y-69971152D01*
X113775129Y-69856851D01*
X113775123Y-69856849D01*
X113775118Y-69856848D01*
X113775113Y-69856847D01*
X113376747Y-69780067D01*
X113376727Y-69780065D01*
X112972876Y-69741501D01*
X112972858Y-69741500D01*
X112972857Y-69741500D01*
X112567143Y-69741500D01*
X112567141Y-69741500D01*
X112567123Y-69741501D01*
X112163272Y-69780065D01*
X112163252Y-69780067D01*
X111764886Y-69856847D01*
X111764870Y-69856851D01*
X111375598Y-69971152D01*
X110998963Y-70121933D01*
X110998941Y-70121943D01*
X110638330Y-70307851D01*
X110297028Y-70527194D01*
X110297022Y-70527198D01*
X109978121Y-70777984D01*
X109978116Y-70777988D01*
X109978113Y-70777991D01*
X109737858Y-71007073D01*
X109684487Y-71057963D01*
X109418802Y-71364578D01*
X109418801Y-71364579D01*
X109183454Y-71695077D01*
X108980600Y-72046431D01*
X108812063Y-72415476D01*
X108812062Y-72415480D01*
X108679367Y-72798876D01*
X108679364Y-72798887D01*
X108583716Y-73193155D01*
X108583714Y-73193165D01*
X108525974Y-73594759D01*
X108525974Y-73594760D01*
X108506671Y-73999994D01*
X104970000Y-73999994D01*
X104970000Y-72000000D01*
X100970000Y-72000000D01*
X100970000Y-76000000D01*
X97121608Y-76000000D01*
X97146632Y-75993295D01*
X97401021Y-75887923D01*
X97639479Y-75750249D01*
X97857928Y-75582628D01*
X98052628Y-75387928D01*
X98220249Y-75169479D01*
X98357923Y-74931021D01*
X98463295Y-74676632D01*
X98534560Y-74410666D01*
X98535275Y-74405239D01*
X98538019Y-74384391D01*
X98570500Y-74137674D01*
X98570500Y-73862326D01*
X98543823Y-73659696D01*
X98534561Y-73589340D01*
X98534560Y-73589338D01*
X98534560Y-73589334D01*
X98463295Y-73323368D01*
X98357923Y-73068979D01*
X98357922Y-73068977D01*
X98357916Y-73068966D01*
X98220251Y-72830524D01*
X98052627Y-72612071D01*
X98052618Y-72612061D01*
X97857938Y-72417381D01*
X97857928Y-72417372D01*
X97639475Y-72249748D01*
X97401033Y-72112083D01*
X97401022Y-72112077D01*
X97242536Y-72046430D01*
X97146632Y-72006705D01*
X96880666Y-71935440D01*
X96880659Y-71935438D01*
X96607676Y-71899500D01*
X96607674Y-71899500D01*
X96332326Y-71899500D01*
X96332323Y-71899500D01*
X96059340Y-71935438D01*
X95793368Y-72006705D01*
X95538977Y-72112077D01*
X95538966Y-72112083D01*
X95300524Y-72249748D01*
X95082071Y-72417372D01*
X95082061Y-72417381D01*
X94887381Y-72612061D01*
X94887372Y-72612071D01*
X94719748Y-72830524D01*
X94582083Y-73068966D01*
X94582077Y-73068977D01*
X94476705Y-73323368D01*
X94405438Y-73589340D01*
X94369500Y-73862323D01*
X50025500Y-73862323D01*
X50025500Y-67412323D01*
X55749500Y-67412323D01*
X55749500Y-67687676D01*
X55785438Y-67960659D01*
X55856705Y-68226631D01*
X55962077Y-68481022D01*
X55962083Y-68481033D01*
X56099748Y-68719475D01*
X56267372Y-68937928D01*
X56267381Y-68937938D01*
X56462061Y-69132618D01*
X56462071Y-69132627D01*
X56680524Y-69300251D01*
X56918966Y-69437916D01*
X56918977Y-69437922D01*
X56918979Y-69437923D01*
X57173368Y-69543295D01*
X57439334Y-69614560D01*
X57439338Y-69614560D01*
X57439340Y-69614561D01*
X57509696Y-69623823D01*
X57712326Y-69650500D01*
X57712333Y-69650500D01*
X57987667Y-69650500D01*
X57987674Y-69650500D01*
X58234391Y-69618019D01*
X58260659Y-69614561D01*
X58260659Y-69614560D01*
X58260666Y-69614560D01*
X58526632Y-69543295D01*
X58781021Y-69437923D01*
X59019479Y-69300249D01*
X59237928Y-69132628D01*
X59432628Y-68937928D01*
X59600249Y-68719479D01*
X59737923Y-68481021D01*
X59843295Y-68226632D01*
X59914560Y-67960666D01*
X59950500Y-67687674D01*
X59950500Y-67412326D01*
X59914560Y-67139334D01*
X59843295Y-66873368D01*
X59737923Y-66618979D01*
X59737922Y-66618977D01*
X59737916Y-66618966D01*
X59600251Y-66380524D01*
X59432627Y-66162071D01*
X59432618Y-66162061D01*
X59237938Y-65967381D01*
X59237928Y-65967372D01*
X59019475Y-65799748D01*
X58781033Y-65662083D01*
X58781022Y-65662077D01*
X58653826Y-65609391D01*
X58526632Y-65556705D01*
X58260666Y-65485440D01*
X58260659Y-65485438D01*
X57987676Y-65449500D01*
X57987674Y-65449500D01*
X57712326Y-65449500D01*
X57712323Y-65449500D01*
X57439340Y-65485438D01*
X57173368Y-65556705D01*
X56918977Y-65662077D01*
X56918966Y-65662083D01*
X56680524Y-65799748D01*
X56462071Y-65967372D01*
X56462061Y-65967381D01*
X56267381Y-66162061D01*
X56267372Y-66162071D01*
X56099748Y-66380524D01*
X55962083Y-66618966D01*
X55962077Y-66618977D01*
X55856705Y-66873368D01*
X55785438Y-67139340D01*
X55749500Y-67412323D01*
X50025500Y-67412323D01*
X50025500Y-59712323D01*
X55749500Y-59712323D01*
X55749500Y-59987676D01*
X55785438Y-60260659D01*
X55856705Y-60526631D01*
X55962077Y-60781022D01*
X55962083Y-60781033D01*
X56099748Y-61019475D01*
X56267372Y-61237928D01*
X56267381Y-61237938D01*
X56462061Y-61432618D01*
X56462071Y-61432627D01*
X56462072Y-61432628D01*
X56673366Y-61594759D01*
X56680524Y-61600251D01*
X56918966Y-61737916D01*
X56918977Y-61737922D01*
X56918979Y-61737923D01*
X57173368Y-61843295D01*
X57439334Y-61914560D01*
X57439338Y-61914560D01*
X57439340Y-61914561D01*
X57509696Y-61923823D01*
X57712326Y-61950500D01*
X57712333Y-61950500D01*
X57987667Y-61950500D01*
X57987674Y-61950500D01*
X58234391Y-61918019D01*
X58260659Y-61914561D01*
X58260659Y-61914560D01*
X58260666Y-61914560D01*
X58526632Y-61843295D01*
X58781021Y-61737923D01*
X59019479Y-61600249D01*
X59237928Y-61432628D01*
X59432628Y-61237928D01*
X59600249Y-61019479D01*
X59737923Y-60781021D01*
X59843295Y-60526632D01*
X59914560Y-60260666D01*
X59950500Y-59987674D01*
X59950500Y-59712326D01*
X59914560Y-59439334D01*
X59843295Y-59173368D01*
X59737923Y-58918979D01*
X59737922Y-58918977D01*
X59737916Y-58918966D01*
X59600251Y-58680524D01*
X59482600Y-58527198D01*
X59432628Y-58462072D01*
X59432627Y-58462071D01*
X59432618Y-58462061D01*
X59237938Y-58267381D01*
X59237928Y-58267372D01*
X59019475Y-58099748D01*
X58781033Y-57962083D01*
X58781022Y-57962077D01*
X58653826Y-57909391D01*
X58526632Y-57856705D01*
X58260666Y-57785440D01*
X58260659Y-57785438D01*
X57987676Y-57749500D01*
X57987674Y-57749500D01*
X57712326Y-57749500D01*
X57712323Y-57749500D01*
X57439340Y-57785438D01*
X57173368Y-57856705D01*
X56918977Y-57962077D01*
X56918966Y-57962083D01*
X56680524Y-58099748D01*
X56462071Y-58267372D01*
X56462061Y-58267381D01*
X56267381Y-58462061D01*
X56267372Y-58462071D01*
X56099748Y-58680524D01*
X55962083Y-58918966D01*
X55962077Y-58918977D01*
X55856705Y-59173368D01*
X55785438Y-59439340D01*
X55749500Y-59712323D01*
X50025500Y-59712323D01*
X50025500Y-56839436D01*
X62974500Y-56839436D01*
X62974500Y-69710563D01*
X62989436Y-69725499D01*
X62989438Y-69725500D01*
X88710562Y-69725500D01*
X88725500Y-69710562D01*
X88725500Y-62212323D01*
X94369500Y-62212323D01*
X94369500Y-62487676D01*
X94405438Y-62760659D01*
X94476705Y-63026631D01*
X94582077Y-63281022D01*
X94582083Y-63281033D01*
X94719748Y-63519475D01*
X94887372Y-63737928D01*
X94887381Y-63737938D01*
X95082061Y-63932618D01*
X95082071Y-63932627D01*
X95082072Y-63932628D01*
X95109364Y-63953570D01*
X95300524Y-64100251D01*
X95538966Y-64237916D01*
X95538977Y-64237922D01*
X95538979Y-64237923D01*
X95793368Y-64343295D01*
X96059334Y-64414560D01*
X96059338Y-64414560D01*
X96059340Y-64414561D01*
X96129696Y-64423823D01*
X96332326Y-64450500D01*
X96332333Y-64450500D01*
X96607667Y-64450500D01*
X96607674Y-64450500D01*
X96854391Y-64418019D01*
X96880659Y-64414561D01*
X96880659Y-64414560D01*
X96880666Y-64414560D01*
X97121608Y-64350000D01*
X100970000Y-64350000D01*
X104970000Y-64350000D01*
X104970000Y-61999994D01*
X108506671Y-61999994D01*
X108506671Y-62000005D01*
X108525974Y-62405239D01*
X108525974Y-62405240D01*
X108583714Y-62806834D01*
X108583716Y-62806844D01*
X108679364Y-63201112D01*
X108679367Y-63201123D01*
X108812062Y-63584519D01*
X108812063Y-63584523D01*
X108980600Y-63953568D01*
X109183454Y-64304922D01*
X109183459Y-64304930D01*
X109418797Y-64635415D01*
X109684484Y-64942034D01*
X109978113Y-65222009D01*
X110297027Y-65472805D01*
X110427578Y-65556705D01*
X110638330Y-65692148D01*
X110638336Y-65692151D01*
X110998949Y-65878060D01*
X110998955Y-65878062D01*
X110998963Y-65878066D01*
X111186475Y-65953134D01*
X111375602Y-66028849D01*
X111764882Y-66143152D01*
X112005481Y-66189523D01*
X112163252Y-66219932D01*
X112163257Y-66219932D01*
X112163265Y-66219934D01*
X112567143Y-66258500D01*
X112567145Y-66258500D01*
X112972855Y-66258500D01*
X112972857Y-66258500D01*
X113376735Y-66219934D01*
X113376743Y-66219932D01*
X113376747Y-66219932D01*
X113474369Y-66201116D01*
X113775118Y-66143152D01*
X114164398Y-66028849D01*
X114541051Y-65878060D01*
X114901665Y-65692151D01*
X115242973Y-65472805D01*
X115561887Y-65222009D01*
X115855516Y-64942034D01*
X116121203Y-64635415D01*
X116356541Y-64304930D01*
X116559398Y-63953570D01*
X116568967Y-63932618D01*
X116727936Y-63584523D01*
X116727935Y-63584523D01*
X116727938Y-63584519D01*
X116860634Y-63201119D01*
X116956285Y-62806840D01*
X117014024Y-62405255D01*
X117023214Y-62212333D01*
X117033329Y-62000005D01*
X117033329Y-61999994D01*
X117014025Y-61594760D01*
X117014025Y-61594759D01*
X117014024Y-61594755D01*
X117014024Y-61594745D01*
X116956285Y-61193160D01*
X116860634Y-60798881D01*
X116727938Y-60415481D01*
X116698034Y-60350000D01*
X116559399Y-60046431D01*
X116356545Y-59695077D01*
X116356541Y-59695070D01*
X116121203Y-59364585D01*
X115855516Y-59057966D01*
X115561887Y-58777991D01*
X115242973Y-58527195D01*
X114901665Y-58307849D01*
X114901662Y-58307847D01*
X114541058Y-58121943D01*
X114541036Y-58121933D01*
X114164401Y-57971152D01*
X113775129Y-57856851D01*
X113775123Y-57856849D01*
X113775118Y-57856848D01*
X113774376Y-57856705D01*
X113376747Y-57780067D01*
X113376727Y-57780065D01*
X112972876Y-57741501D01*
X112972858Y-57741500D01*
X112972857Y-57741500D01*
X112567143Y-57741500D01*
X112567141Y-57741500D01*
X112567123Y-57741501D01*
X112163272Y-57780065D01*
X112163252Y-57780067D01*
X111764886Y-57856847D01*
X111764870Y-57856851D01*
X111375598Y-57971152D01*
X110998963Y-58121933D01*
X110998941Y-58121943D01*
X110638330Y-58307851D01*
X110297028Y-58527194D01*
X110297022Y-58527198D01*
X109978121Y-58777984D01*
X109978116Y-58777988D01*
X109978113Y-58777991D01*
X109830249Y-58918979D01*
X109684487Y-59057963D01*
X109418802Y-59364578D01*
X109418801Y-59364579D01*
X109183454Y-59695077D01*
X108980600Y-60046431D01*
X108812063Y-60415476D01*
X108812062Y-60415480D01*
X108679367Y-60798876D01*
X108679364Y-60798887D01*
X108583716Y-61193155D01*
X108583714Y-61193165D01*
X108525974Y-61594759D01*
X108525974Y-61594760D01*
X108506671Y-61999994D01*
X104970000Y-61999994D01*
X104970000Y-60350000D01*
X100970000Y-60350000D01*
X100970000Y-64350000D01*
X97121608Y-64350000D01*
X97146632Y-64343295D01*
X97401021Y-64237923D01*
X97639479Y-64100249D01*
X97857928Y-63932628D01*
X98052628Y-63737928D01*
X98220249Y-63519479D01*
X98357923Y-63281021D01*
X98463295Y-63026632D01*
X98534560Y-62760666D01*
X98570500Y-62487674D01*
X98570500Y-62212326D01*
X98543823Y-62009696D01*
X98534561Y-61939340D01*
X98534560Y-61939338D01*
X98534560Y-61939334D01*
X98463295Y-61673368D01*
X98357923Y-61418979D01*
X98357922Y-61418977D01*
X98357916Y-61418966D01*
X98220251Y-61180524D01*
X98096677Y-61019479D01*
X98052628Y-60962072D01*
X98052627Y-60962071D01*
X98052618Y-60962061D01*
X97857938Y-60767381D01*
X97857928Y-60767372D01*
X97639475Y-60599748D01*
X97401033Y-60462083D01*
X97401022Y-60462077D01*
X97273826Y-60409391D01*
X97146632Y-60356705D01*
X96880666Y-60285440D01*
X96880659Y-60285438D01*
X96607676Y-60249500D01*
X96607674Y-60249500D01*
X96332326Y-60249500D01*
X96332323Y-60249500D01*
X96059340Y-60285438D01*
X95793368Y-60356705D01*
X95538977Y-60462077D01*
X95538966Y-60462083D01*
X95300524Y-60599748D01*
X95082071Y-60767372D01*
X95082061Y-60767381D01*
X94887381Y-60962061D01*
X94887372Y-60962071D01*
X94719748Y-61180524D01*
X94582083Y-61418966D01*
X94582077Y-61418977D01*
X94476705Y-61673368D01*
X94405438Y-61939340D01*
X94369500Y-62212323D01*
X88725500Y-62212323D01*
X88725500Y-56839438D01*
X88725499Y-56839436D01*
X88710563Y-56824500D01*
X88710562Y-56824500D01*
X63010562Y-56824500D01*
X62989438Y-56824500D01*
X62989436Y-56824500D01*
X62974500Y-56839436D01*
X50025500Y-56839436D01*
X50025500Y-53612323D01*
X98549500Y-53612323D01*
X98549500Y-53887676D01*
X98585438Y-54160659D01*
X98656705Y-54426631D01*
X98762077Y-54681022D01*
X98762083Y-54681033D01*
X98899748Y-54919475D01*
X99067372Y-55137928D01*
X99067381Y-55137938D01*
X99262061Y-55332618D01*
X99262071Y-55332627D01*
X99480524Y-55500251D01*
X99718966Y-55637916D01*
X99718977Y-55637922D01*
X99718979Y-55637923D01*
X99973368Y-55743295D01*
X100239334Y-55814560D01*
X100239338Y-55814560D01*
X100239340Y-55814561D01*
X100309696Y-55823823D01*
X100512326Y-55850500D01*
X100512333Y-55850500D01*
X100787667Y-55850500D01*
X100787674Y-55850500D01*
X101034391Y-55818019D01*
X101060659Y-55814561D01*
X101060659Y-55814560D01*
X101060666Y-55814560D01*
X101326632Y-55743295D01*
X101581021Y-55637923D01*
X101819479Y-55500249D01*
X102037928Y-55332628D01*
X102232628Y-55137928D01*
X102400249Y-54919479D01*
X102537923Y-54681021D01*
X102643295Y-54426632D01*
X102714560Y-54160666D01*
X102750500Y-53887674D01*
X102750500Y-53612326D01*
X102714560Y-53339334D01*
X102643295Y-53073368D01*
X102537923Y-52818979D01*
X102537922Y-52818977D01*
X102537916Y-52818966D01*
X102400251Y-52580524D01*
X102232627Y-52362071D01*
X102232618Y-52362061D01*
X102037938Y-52167381D01*
X102037928Y-52167372D01*
X101819475Y-51999748D01*
X101581033Y-51862083D01*
X101581022Y-51862077D01*
X101453826Y-51809391D01*
X101326632Y-51756705D01*
X101060666Y-51685440D01*
X101060659Y-51685438D01*
X100787676Y-51649500D01*
X100787674Y-51649500D01*
X100512326Y-51649500D01*
X100512323Y-51649500D01*
X100239340Y-51685438D01*
X99973368Y-51756705D01*
X99718977Y-51862077D01*
X99718966Y-51862083D01*
X99480524Y-51999748D01*
X99262071Y-52167372D01*
X99262061Y-52167381D01*
X99067381Y-52362061D01*
X99067372Y-52362071D01*
X98899748Y-52580524D01*
X98762083Y-52818966D01*
X98762077Y-52818977D01*
X98656705Y-53073368D01*
X98585438Y-53339340D01*
X98549500Y-53612323D01*
X50025500Y-53612323D01*
X50025500Y-40901500D01*
X50045502Y-40833379D01*
X50099158Y-40786886D01*
X50151500Y-40775500D01*
X59691837Y-40775500D01*
X59759958Y-40795502D01*
G37*
G04 #@! TD.AperFunction*
M02*
