G04 #@! TF.GenerationSoftware,KiCad,Pcbnew,8.0.5*
G04 #@! TF.CreationDate,2024-10-23T08:14:31-07:00*
G04 #@! TF.ProjectId,panel,70616e65-6c2e-46b6-9963-61645f706362,2.1*
G04 #@! TF.SameCoordinates,Original*
G04 #@! TF.FileFunction,Soldermask,Top*
G04 #@! TF.FilePolarity,Negative*
%FSLAX46Y46*%
G04 Gerber Fmt 4.6, Leading zero omitted, Abs format (unit mm)*
G04 Created by KiCad (PCBNEW 8.0.5) date 2024-10-23 08:14:31*
%MOMM*%
%LPD*%
G01*
G04 APERTURE LIST*
G04 APERTURE END LIST*
G36*
X64143036Y-163603013D02*
G01*
X64427308Y-163635043D01*
X64706207Y-163698700D01*
X64976225Y-163793183D01*
X65233967Y-163917305D01*
X65476190Y-164069504D01*
X65699850Y-164247867D01*
X65902133Y-164450150D01*
X66080496Y-164673810D01*
X66232695Y-164916033D01*
X66356817Y-165173775D01*
X66451300Y-165443793D01*
X66514957Y-165722692D01*
X66546987Y-166006964D01*
X66546987Y-166293036D01*
X66514957Y-166577308D01*
X66451300Y-166856207D01*
X66356817Y-167126225D01*
X66232695Y-167383967D01*
X66080496Y-167626190D01*
X65902133Y-167849850D01*
X65699850Y-168052133D01*
X65476190Y-168230496D01*
X65233967Y-168382695D01*
X64976225Y-168506817D01*
X64706207Y-168601300D01*
X64427308Y-168664957D01*
X64143036Y-168696987D01*
X64000000Y-168701000D01*
X63998240Y-168701000D01*
X61001760Y-168701000D01*
X61000000Y-168701000D01*
X60856964Y-168696987D01*
X60572692Y-168664957D01*
X60293793Y-168601300D01*
X60023775Y-168506817D01*
X59766033Y-168382695D01*
X59523810Y-168230496D01*
X59300150Y-168052133D01*
X59097867Y-167849850D01*
X58919504Y-167626190D01*
X58767305Y-167383967D01*
X58643183Y-167126225D01*
X58548700Y-166856207D01*
X58485043Y-166577308D01*
X58453013Y-166293036D01*
X58453013Y-166006964D01*
X58485043Y-165722692D01*
X58548700Y-165443793D01*
X58643183Y-165173775D01*
X58767305Y-164916033D01*
X58919504Y-164673810D01*
X59097867Y-164450150D01*
X59300150Y-164247867D01*
X59523810Y-164069504D01*
X59766033Y-163917305D01*
X60023775Y-163793183D01*
X60293793Y-163698700D01*
X60572692Y-163635043D01*
X60856964Y-163603013D01*
X61000000Y-163599000D01*
X64000000Y-163599000D01*
X64143036Y-163603013D01*
G37*
G36*
X109863036Y-163603013D02*
G01*
X110147308Y-163635043D01*
X110426207Y-163698700D01*
X110696225Y-163793183D01*
X110953967Y-163917305D01*
X111196190Y-164069504D01*
X111419850Y-164247867D01*
X111622133Y-164450150D01*
X111800496Y-164673810D01*
X111952695Y-164916033D01*
X112076817Y-165173775D01*
X112171300Y-165443793D01*
X112234957Y-165722692D01*
X112266987Y-166006964D01*
X112266987Y-166293036D01*
X112234957Y-166577308D01*
X112171300Y-166856207D01*
X112076817Y-167126225D01*
X111952695Y-167383967D01*
X111800496Y-167626190D01*
X111622133Y-167849850D01*
X111419850Y-168052133D01*
X111196190Y-168230496D01*
X110953967Y-168382695D01*
X110696225Y-168506817D01*
X110426207Y-168601300D01*
X110147308Y-168664957D01*
X109863036Y-168696987D01*
X109720000Y-168701000D01*
X109718240Y-168701000D01*
X106721760Y-168701000D01*
X106720000Y-168701000D01*
X106576964Y-168696987D01*
X106292692Y-168664957D01*
X106013793Y-168601300D01*
X105743775Y-168506817D01*
X105486033Y-168382695D01*
X105243810Y-168230496D01*
X105020150Y-168052133D01*
X104817867Y-167849850D01*
X104639504Y-167626190D01*
X104487305Y-167383967D01*
X104363183Y-167126225D01*
X104268700Y-166856207D01*
X104205043Y-166577308D01*
X104173013Y-166293036D01*
X104173013Y-166006964D01*
X104205043Y-165722692D01*
X104268700Y-165443793D01*
X104363183Y-165173775D01*
X104487305Y-164916033D01*
X104639504Y-164673810D01*
X104817867Y-164450150D01*
X105020150Y-164247867D01*
X105243810Y-164069504D01*
X105486033Y-163917305D01*
X105743775Y-163793183D01*
X106013793Y-163698700D01*
X106292692Y-163635043D01*
X106576964Y-163603013D01*
X106720000Y-163599000D01*
X109720000Y-163599000D01*
X109863036Y-163603013D01*
G37*
G36*
X65945577Y-144242832D02*
G01*
X66322730Y-144320339D01*
X66690107Y-144435604D01*
X67043938Y-144587445D01*
X67380592Y-144774303D01*
X67696615Y-144994261D01*
X67988763Y-145245063D01*
X68254040Y-145524133D01*
X68489722Y-145828610D01*
X68693391Y-146155367D01*
X68862959Y-146501053D01*
X68996683Y-146862121D01*
X69093193Y-147234864D01*
X69151498Y-147615459D01*
X69171000Y-148000000D01*
X69151498Y-148384541D01*
X69093193Y-148765136D01*
X68996683Y-149137879D01*
X68862959Y-149498947D01*
X68693391Y-149844633D01*
X68489722Y-150171390D01*
X68254040Y-150475867D01*
X67988763Y-150754937D01*
X67696615Y-151005739D01*
X67380592Y-151225697D01*
X67043938Y-151412555D01*
X66690107Y-151564396D01*
X66322730Y-151679661D01*
X65945577Y-151757168D01*
X65562517Y-151796121D01*
X65177483Y-151796121D01*
X64794423Y-151757168D01*
X64417270Y-151679661D01*
X64049893Y-151564396D01*
X63696062Y-151412555D01*
X63359408Y-151225697D01*
X63043385Y-151005739D01*
X62751237Y-150754937D01*
X62485960Y-150475867D01*
X62250278Y-150171390D01*
X62046609Y-149844633D01*
X61877041Y-149498947D01*
X61743317Y-149137879D01*
X61646807Y-148765136D01*
X61588502Y-148384541D01*
X61569000Y-148000000D01*
X61588502Y-147615459D01*
X61646807Y-147234864D01*
X61743317Y-146862121D01*
X61877041Y-146501053D01*
X62046609Y-146155367D01*
X62250278Y-145828610D01*
X62485960Y-145524133D01*
X62751237Y-145245063D01*
X63043385Y-144994261D01*
X63359408Y-144774303D01*
X63696062Y-144587445D01*
X64049893Y-144435604D01*
X64417270Y-144320339D01*
X64794423Y-144242832D01*
X65177483Y-144203879D01*
X65562517Y-144203879D01*
X65945577Y-144242832D01*
G37*
G36*
X113345577Y-144242832D02*
G01*
X113722730Y-144320339D01*
X114090107Y-144435604D01*
X114443938Y-144587445D01*
X114780592Y-144774303D01*
X115096615Y-144994261D01*
X115388763Y-145245063D01*
X115654040Y-145524133D01*
X115889722Y-145828610D01*
X116093391Y-146155367D01*
X116262959Y-146501053D01*
X116396683Y-146862121D01*
X116493193Y-147234864D01*
X116551498Y-147615459D01*
X116571000Y-148000000D01*
X116551498Y-148384541D01*
X116493193Y-148765136D01*
X116396683Y-149137879D01*
X116262959Y-149498947D01*
X116093391Y-149844633D01*
X115889722Y-150171390D01*
X115654040Y-150475867D01*
X115388763Y-150754937D01*
X115096615Y-151005739D01*
X114780592Y-151225697D01*
X114443938Y-151412555D01*
X114090107Y-151564396D01*
X113722730Y-151679661D01*
X113345577Y-151757168D01*
X112962517Y-151796121D01*
X112577483Y-151796121D01*
X112194423Y-151757168D01*
X111817270Y-151679661D01*
X111449893Y-151564396D01*
X111096062Y-151412555D01*
X110759408Y-151225697D01*
X110443385Y-151005739D01*
X110151237Y-150754937D01*
X109885960Y-150475867D01*
X109650278Y-150171390D01*
X109446609Y-149844633D01*
X109277041Y-149498947D01*
X109143317Y-149137879D01*
X109046807Y-148765136D01*
X108988502Y-148384541D01*
X108969000Y-148000000D01*
X108988502Y-147615459D01*
X109046807Y-147234864D01*
X109143317Y-146862121D01*
X109277041Y-146501053D01*
X109446609Y-146155367D01*
X109650278Y-145828610D01*
X109885960Y-145524133D01*
X110151237Y-145245063D01*
X110443385Y-144994261D01*
X110759408Y-144774303D01*
X111096062Y-144587445D01*
X111449893Y-144435604D01*
X111817270Y-144320339D01*
X112194423Y-144242832D01*
X112577483Y-144203879D01*
X112962517Y-144203879D01*
X113345577Y-144242832D01*
G37*
G36*
X54316038Y-146103723D02*
G01*
X54379707Y-146103723D01*
X54448778Y-146113216D01*
X54520541Y-146118349D01*
X54579609Y-146131198D01*
X54636711Y-146139047D01*
X54709714Y-146159501D01*
X54785574Y-146176004D01*
X54836788Y-146195106D01*
X54886512Y-146209038D01*
X54961688Y-146241691D01*
X55039704Y-146270790D01*
X55082578Y-146294201D01*
X55124442Y-146312385D01*
X55199755Y-146358184D01*
X55277758Y-146400777D01*
X55312229Y-146426582D01*
X55346106Y-146447183D01*
X55419352Y-146506773D01*
X55494890Y-146563320D01*
X55521212Y-146589642D01*
X55547333Y-146610893D01*
X55616174Y-146684604D01*
X55686680Y-146755110D01*
X55705494Y-146780242D01*
X55724399Y-146800485D01*
X55786409Y-146888333D01*
X55849223Y-146972242D01*
X55861464Y-146994660D01*
X55874002Y-147012422D01*
X55926752Y-147114227D01*
X55979210Y-147210296D01*
X55986093Y-147228751D01*
X55993348Y-147242752D01*
X56034429Y-147358345D01*
X56073996Y-147464426D01*
X56076939Y-147477955D01*
X56080225Y-147487201D01*
X56107442Y-147618176D01*
X56131651Y-147729459D01*
X56132219Y-147737404D01*
X56133004Y-147741181D01*
X56144284Y-147906105D01*
X56151000Y-148000000D01*
X56144284Y-148093902D01*
X56133004Y-148258818D01*
X56132219Y-148262593D01*
X56131651Y-148270541D01*
X56107437Y-148381845D01*
X56080225Y-148512798D01*
X56076939Y-148522041D01*
X56073996Y-148535574D01*
X56034422Y-148641674D01*
X55993348Y-148757247D01*
X55986094Y-148771245D01*
X55979210Y-148789704D01*
X55926742Y-148885791D01*
X55874002Y-148987577D01*
X55861466Y-149005335D01*
X55849223Y-149027758D01*
X55786397Y-149111683D01*
X55724399Y-149199514D01*
X55705498Y-149219752D01*
X55686680Y-149244890D01*
X55616160Y-149315409D01*
X55547333Y-149389106D01*
X55521217Y-149410352D01*
X55494890Y-149436680D01*
X55419336Y-149493238D01*
X55346106Y-149552816D01*
X55312236Y-149573412D01*
X55277758Y-149599223D01*
X55199739Y-149641824D01*
X55124442Y-149687614D01*
X55082587Y-149705793D01*
X55039704Y-149729210D01*
X54961672Y-149758314D01*
X54886512Y-149790961D01*
X54836799Y-149804889D01*
X54785574Y-149823996D01*
X54709698Y-149840501D01*
X54636711Y-149860952D01*
X54579618Y-149868799D01*
X54520541Y-149881651D01*
X54448774Y-149886783D01*
X54379707Y-149896277D01*
X54316038Y-149896277D01*
X54250000Y-149901000D01*
X54183962Y-149896277D01*
X54120293Y-149896277D01*
X54051224Y-149886783D01*
X53979459Y-149881651D01*
X53920382Y-149868799D01*
X53863288Y-149860952D01*
X53790297Y-149840500D01*
X53714426Y-149823996D01*
X53663203Y-149804890D01*
X53613487Y-149790961D01*
X53538320Y-149758311D01*
X53460296Y-149729210D01*
X53417416Y-149705795D01*
X53375557Y-149687614D01*
X53300251Y-149641819D01*
X53222242Y-149599223D01*
X53187767Y-149573415D01*
X53153893Y-149552816D01*
X53080650Y-149493228D01*
X53005110Y-149436680D01*
X52978786Y-149410356D01*
X52952666Y-149389106D01*
X52883824Y-149315394D01*
X52813320Y-149244890D01*
X52794506Y-149219757D01*
X52775600Y-149199514D01*
X52713584Y-149111659D01*
X52650777Y-149027758D01*
X52638536Y-149005341D01*
X52625997Y-148987577D01*
X52573238Y-148885755D01*
X52520790Y-148789704D01*
X52513907Y-148771252D01*
X52506651Y-148757247D01*
X52465556Y-148641617D01*
X52426004Y-148535574D01*
X52423061Y-148522048D01*
X52419774Y-148512798D01*
X52392539Y-148381742D01*
X52368349Y-148270541D01*
X52367781Y-148262600D01*
X52366995Y-148258818D01*
X52355692Y-148093582D01*
X52349000Y-148000000D01*
X52355692Y-147906425D01*
X52366995Y-147741181D01*
X52367781Y-147737397D01*
X52368349Y-147729459D01*
X52392535Y-147618278D01*
X52419774Y-147487201D01*
X52423062Y-147477948D01*
X52426004Y-147464426D01*
X52465548Y-147358402D01*
X52506651Y-147242752D01*
X52513909Y-147228744D01*
X52520790Y-147210296D01*
X52573227Y-147114262D01*
X52625997Y-147012422D01*
X52638539Y-146994654D01*
X52650777Y-146972242D01*
X52713572Y-146888356D01*
X52775600Y-146800485D01*
X52794509Y-146780237D01*
X52813320Y-146755110D01*
X52883810Y-146684619D01*
X52952666Y-146610893D01*
X52978792Y-146589637D01*
X53005110Y-146563320D01*
X53080635Y-146506782D01*
X53153893Y-146447183D01*
X53187774Y-146426578D01*
X53222242Y-146400777D01*
X53300235Y-146358189D01*
X53375557Y-146312385D01*
X53417425Y-146294199D01*
X53460296Y-146270790D01*
X53538304Y-146241694D01*
X53613487Y-146209038D01*
X53663214Y-146195105D01*
X53714426Y-146176004D01*
X53790281Y-146159502D01*
X53863288Y-146139047D01*
X53920392Y-146131198D01*
X53979459Y-146118349D01*
X54051220Y-146113216D01*
X54120293Y-146103723D01*
X54183962Y-146103723D01*
X54250000Y-146099000D01*
X54316038Y-146103723D01*
G37*
G36*
X96536038Y-146103723D02*
G01*
X96599707Y-146103723D01*
X96668778Y-146113216D01*
X96740541Y-146118349D01*
X96799609Y-146131198D01*
X96856711Y-146139047D01*
X96929714Y-146159501D01*
X97005574Y-146176004D01*
X97056788Y-146195106D01*
X97106512Y-146209038D01*
X97181688Y-146241691D01*
X97259704Y-146270790D01*
X97302578Y-146294201D01*
X97344442Y-146312385D01*
X97419755Y-146358184D01*
X97497758Y-146400777D01*
X97532229Y-146426582D01*
X97566106Y-146447183D01*
X97639352Y-146506773D01*
X97714890Y-146563320D01*
X97741212Y-146589642D01*
X97767333Y-146610893D01*
X97836174Y-146684604D01*
X97906680Y-146755110D01*
X97925494Y-146780242D01*
X97944399Y-146800485D01*
X98006409Y-146888333D01*
X98069223Y-146972242D01*
X98081464Y-146994660D01*
X98094002Y-147012422D01*
X98146752Y-147114227D01*
X98199210Y-147210296D01*
X98206093Y-147228751D01*
X98213348Y-147242752D01*
X98254429Y-147358345D01*
X98293996Y-147464426D01*
X98296939Y-147477955D01*
X98300225Y-147487201D01*
X98327442Y-147618176D01*
X98351651Y-147729459D01*
X98352219Y-147737404D01*
X98353004Y-147741181D01*
X98364284Y-147906105D01*
X98371000Y-148000000D01*
X98364284Y-148093902D01*
X98353004Y-148258818D01*
X98352219Y-148262593D01*
X98351651Y-148270541D01*
X98327437Y-148381845D01*
X98300225Y-148512798D01*
X98296939Y-148522041D01*
X98293996Y-148535574D01*
X98254422Y-148641674D01*
X98213348Y-148757247D01*
X98206094Y-148771245D01*
X98199210Y-148789704D01*
X98146742Y-148885791D01*
X98094002Y-148987577D01*
X98081466Y-149005335D01*
X98069223Y-149027758D01*
X98006397Y-149111683D01*
X97944399Y-149199514D01*
X97925498Y-149219752D01*
X97906680Y-149244890D01*
X97836160Y-149315409D01*
X97767333Y-149389106D01*
X97741217Y-149410352D01*
X97714890Y-149436680D01*
X97639336Y-149493238D01*
X97566106Y-149552816D01*
X97532236Y-149573412D01*
X97497758Y-149599223D01*
X97419739Y-149641824D01*
X97344442Y-149687614D01*
X97302587Y-149705793D01*
X97259704Y-149729210D01*
X97181672Y-149758314D01*
X97106512Y-149790961D01*
X97056799Y-149804889D01*
X97005574Y-149823996D01*
X96929698Y-149840501D01*
X96856711Y-149860952D01*
X96799618Y-149868799D01*
X96740541Y-149881651D01*
X96668774Y-149886783D01*
X96599707Y-149896277D01*
X96536038Y-149896277D01*
X96470000Y-149901000D01*
X96403962Y-149896277D01*
X96340293Y-149896277D01*
X96271224Y-149886783D01*
X96199459Y-149881651D01*
X96140382Y-149868799D01*
X96083288Y-149860952D01*
X96010297Y-149840500D01*
X95934426Y-149823996D01*
X95883203Y-149804890D01*
X95833487Y-149790961D01*
X95758320Y-149758311D01*
X95680296Y-149729210D01*
X95637416Y-149705795D01*
X95595557Y-149687614D01*
X95520251Y-149641819D01*
X95442242Y-149599223D01*
X95407767Y-149573415D01*
X95373893Y-149552816D01*
X95300650Y-149493228D01*
X95225110Y-149436680D01*
X95198786Y-149410356D01*
X95172666Y-149389106D01*
X95103824Y-149315394D01*
X95033320Y-149244890D01*
X95014506Y-149219757D01*
X94995600Y-149199514D01*
X94933584Y-149111659D01*
X94870777Y-149027758D01*
X94858536Y-149005341D01*
X94845997Y-148987577D01*
X94793238Y-148885755D01*
X94740790Y-148789704D01*
X94733907Y-148771252D01*
X94726651Y-148757247D01*
X94685556Y-148641617D01*
X94646004Y-148535574D01*
X94643061Y-148522048D01*
X94639774Y-148512798D01*
X94612539Y-148381742D01*
X94588349Y-148270541D01*
X94587781Y-148262600D01*
X94586995Y-148258818D01*
X94575692Y-148093582D01*
X94569000Y-148000000D01*
X94575692Y-147906425D01*
X94586995Y-147741181D01*
X94587781Y-147737397D01*
X94588349Y-147729459D01*
X94612535Y-147618278D01*
X94639774Y-147487201D01*
X94643062Y-147477948D01*
X94646004Y-147464426D01*
X94685548Y-147358402D01*
X94726651Y-147242752D01*
X94733909Y-147228744D01*
X94740790Y-147210296D01*
X94793227Y-147114262D01*
X94845997Y-147012422D01*
X94858539Y-146994654D01*
X94870777Y-146972242D01*
X94933572Y-146888356D01*
X94995600Y-146800485D01*
X95014509Y-146780237D01*
X95033320Y-146755110D01*
X95103810Y-146684619D01*
X95172666Y-146610893D01*
X95198792Y-146589637D01*
X95225110Y-146563320D01*
X95300635Y-146506782D01*
X95373893Y-146447183D01*
X95407774Y-146426578D01*
X95442242Y-146400777D01*
X95520235Y-146358189D01*
X95595557Y-146312385D01*
X95637425Y-146294199D01*
X95680296Y-146270790D01*
X95758304Y-146241694D01*
X95833487Y-146209038D01*
X95883214Y-146195105D01*
X95934426Y-146176004D01*
X96010281Y-146159502D01*
X96083288Y-146139047D01*
X96140392Y-146131198D01*
X96199459Y-146118349D01*
X96271220Y-146113216D01*
X96340293Y-146103723D01*
X96403962Y-146103723D01*
X96470000Y-146099000D01*
X96536038Y-146103723D01*
G37*
G36*
X104851913Y-146115381D02*
G01*
X104854619Y-146118087D01*
X104855000Y-146120000D01*
X104855000Y-149880000D01*
X104854619Y-149881913D01*
X104851913Y-149884619D01*
X104850000Y-149885000D01*
X104843860Y-149885000D01*
X101096140Y-149885000D01*
X101090000Y-149885000D01*
X101088087Y-149884619D01*
X101085381Y-149881913D01*
X101085000Y-149880000D01*
X101085000Y-146120000D01*
X101085381Y-146118087D01*
X101088087Y-146115381D01*
X101090000Y-146115000D01*
X104850000Y-146115000D01*
X104851913Y-146115381D01*
G37*
G36*
X75478460Y-146544987D02*
G01*
X75540566Y-146544987D01*
X75596006Y-146554238D01*
X75648337Y-146558357D01*
X75711362Y-146573487D01*
X75778409Y-146584676D01*
X75825958Y-146600999D01*
X75871041Y-146611823D01*
X75936659Y-146639003D01*
X76006475Y-146662971D01*
X76045474Y-146684076D01*
X76082652Y-146699476D01*
X76148550Y-146739858D01*
X76218544Y-146777737D01*
X76248829Y-146801309D01*
X76277940Y-146819148D01*
X76341557Y-146873482D01*
X76408831Y-146925843D01*
X76430774Y-146949679D01*
X76452103Y-146967896D01*
X76510666Y-147036466D01*
X76572145Y-147103249D01*
X76586597Y-147125370D01*
X76600851Y-147142059D01*
X76651497Y-147224706D01*
X76704032Y-147305117D01*
X76712241Y-147323832D01*
X76720523Y-147337347D01*
X76760445Y-147433727D01*
X76800893Y-147525939D01*
X76804435Y-147539927D01*
X76808176Y-147548958D01*
X76834694Y-147659416D01*
X76860088Y-147759692D01*
X76860783Y-147768086D01*
X76861642Y-147771662D01*
X76872285Y-147906900D01*
X76880000Y-148000000D01*
X76872285Y-148093107D01*
X76861642Y-148228337D01*
X76860783Y-148231912D01*
X76860088Y-148240308D01*
X76834689Y-148340601D01*
X76808176Y-148451041D01*
X76804436Y-148460069D01*
X76800893Y-148474061D01*
X76760438Y-148566289D01*
X76720523Y-148662652D01*
X76712242Y-148676164D01*
X76704032Y-148694883D01*
X76651487Y-148775308D01*
X76600851Y-148857940D01*
X76586600Y-148874625D01*
X76572145Y-148896751D01*
X76510655Y-148963546D01*
X76452103Y-149032103D01*
X76430778Y-149050315D01*
X76408831Y-149074157D01*
X76341544Y-149126527D01*
X76277940Y-149180851D01*
X76248835Y-149198685D01*
X76218544Y-149222263D01*
X76148536Y-149260149D01*
X76082652Y-149300523D01*
X76045481Y-149315919D01*
X76006475Y-149337029D01*
X75936645Y-149361001D01*
X75871041Y-149388176D01*
X75825968Y-149398996D01*
X75778409Y-149415324D01*
X75711348Y-149426514D01*
X75648337Y-149441642D01*
X75596017Y-149445759D01*
X75540566Y-149455013D01*
X75478447Y-149455013D01*
X75420000Y-149459613D01*
X75361553Y-149455013D01*
X75299434Y-149455013D01*
X75243982Y-149445759D01*
X75191662Y-149441642D01*
X75128648Y-149426513D01*
X75061591Y-149415324D01*
X75014033Y-149398997D01*
X74968958Y-149388176D01*
X74903348Y-149360999D01*
X74833525Y-149337029D01*
X74794521Y-149315921D01*
X74757347Y-149300523D01*
X74691455Y-149260144D01*
X74621456Y-149222263D01*
X74591167Y-149198688D01*
X74562059Y-149180851D01*
X74498444Y-149126519D01*
X74431169Y-149074157D01*
X74409225Y-149050319D01*
X74387896Y-149032103D01*
X74329331Y-148963531D01*
X74267855Y-148896751D01*
X74253403Y-148874630D01*
X74239148Y-148857940D01*
X74188496Y-148775283D01*
X74135968Y-148694883D01*
X74127759Y-148676169D01*
X74119476Y-148662652D01*
X74079543Y-148566248D01*
X74039107Y-148474061D01*
X74035565Y-148460076D01*
X74031823Y-148451041D01*
X74005290Y-148340525D01*
X73979912Y-148240308D01*
X73979216Y-148231918D01*
X73978357Y-148228337D01*
X73967694Y-148092866D01*
X73960000Y-148000000D01*
X73967694Y-147907140D01*
X73978357Y-147771662D01*
X73979216Y-147768079D01*
X73979912Y-147759692D01*
X74005286Y-147659492D01*
X74031823Y-147548958D01*
X74035566Y-147539921D01*
X74039107Y-147525939D01*
X74079536Y-147433768D01*
X74119476Y-147337347D01*
X74127761Y-147323826D01*
X74135968Y-147305117D01*
X74188486Y-147224731D01*
X74239148Y-147142059D01*
X74253405Y-147125365D01*
X74267855Y-147103249D01*
X74329319Y-147036481D01*
X74387896Y-146967896D01*
X74409229Y-146949675D01*
X74431169Y-146925843D01*
X74498430Y-146873491D01*
X74562059Y-146819148D01*
X74591173Y-146801306D01*
X74621456Y-146777737D01*
X74691441Y-146739862D01*
X74757347Y-146699476D01*
X74794529Y-146684074D01*
X74833525Y-146662971D01*
X74903334Y-146639005D01*
X74968958Y-146611823D01*
X75014043Y-146600998D01*
X75061591Y-146584676D01*
X75128634Y-146573488D01*
X75191662Y-146558357D01*
X75243994Y-146554238D01*
X75299434Y-146544987D01*
X75361540Y-146544987D01*
X75420000Y-146540386D01*
X75478460Y-146544987D01*
G37*
G36*
X84731913Y-144115381D02*
G01*
X84734619Y-144118087D01*
X84735000Y-144120000D01*
X84735000Y-147880000D01*
X84734619Y-147881913D01*
X84731913Y-147884619D01*
X84730000Y-147885000D01*
X84723860Y-147885000D01*
X80976140Y-147885000D01*
X80970000Y-147885000D01*
X80968087Y-147884619D01*
X80965381Y-147881913D01*
X80965000Y-147880000D01*
X80965000Y-144120000D01*
X80965381Y-144118087D01*
X80968087Y-144115381D01*
X80970000Y-144115000D01*
X84730000Y-144115000D01*
X84731913Y-144115381D01*
G37*
G36*
X65945577Y-132242832D02*
G01*
X66322730Y-132320339D01*
X66690107Y-132435604D01*
X67043938Y-132587445D01*
X67380592Y-132774303D01*
X67696615Y-132994261D01*
X67988763Y-133245063D01*
X68254040Y-133524133D01*
X68489722Y-133828610D01*
X68693391Y-134155367D01*
X68862959Y-134501053D01*
X68996683Y-134862121D01*
X69093193Y-135234864D01*
X69151498Y-135615459D01*
X69171000Y-136000000D01*
X69151498Y-136384541D01*
X69093193Y-136765136D01*
X68996683Y-137137879D01*
X68862959Y-137498947D01*
X68693391Y-137844633D01*
X68489722Y-138171390D01*
X68254040Y-138475867D01*
X67988763Y-138754937D01*
X67696615Y-139005739D01*
X67380592Y-139225697D01*
X67043938Y-139412555D01*
X66690107Y-139564396D01*
X66322730Y-139679661D01*
X65945577Y-139757168D01*
X65562517Y-139796121D01*
X65177483Y-139796121D01*
X64794423Y-139757168D01*
X64417270Y-139679661D01*
X64049893Y-139564396D01*
X63696062Y-139412555D01*
X63359408Y-139225697D01*
X63043385Y-139005739D01*
X62751237Y-138754937D01*
X62485960Y-138475867D01*
X62250278Y-138171390D01*
X62046609Y-137844633D01*
X61877041Y-137498947D01*
X61743317Y-137137879D01*
X61646807Y-136765136D01*
X61588502Y-136384541D01*
X61569000Y-136000000D01*
X61588502Y-135615459D01*
X61646807Y-135234864D01*
X61743317Y-134862121D01*
X61877041Y-134501053D01*
X62046609Y-134155367D01*
X62250278Y-133828610D01*
X62485960Y-133524133D01*
X62751237Y-133245063D01*
X63043385Y-132994261D01*
X63359408Y-132774303D01*
X63696062Y-132587445D01*
X64049893Y-132435604D01*
X64417270Y-132320339D01*
X64794423Y-132242832D01*
X65177483Y-132203879D01*
X65562517Y-132203879D01*
X65945577Y-132242832D01*
G37*
G36*
X83445577Y-132242832D02*
G01*
X83822730Y-132320339D01*
X84190107Y-132435604D01*
X84543938Y-132587445D01*
X84880592Y-132774303D01*
X85196615Y-132994261D01*
X85488763Y-133245063D01*
X85754040Y-133524133D01*
X85989722Y-133828610D01*
X86193391Y-134155367D01*
X86362959Y-134501053D01*
X86496683Y-134862121D01*
X86593193Y-135234864D01*
X86651498Y-135615459D01*
X86671000Y-136000000D01*
X86651498Y-136384541D01*
X86593193Y-136765136D01*
X86496683Y-137137879D01*
X86362959Y-137498947D01*
X86193391Y-137844633D01*
X85989722Y-138171390D01*
X85754040Y-138475867D01*
X85488763Y-138754937D01*
X85196615Y-139005739D01*
X84880592Y-139225697D01*
X84543938Y-139412555D01*
X84190107Y-139564396D01*
X83822730Y-139679661D01*
X83445577Y-139757168D01*
X83062517Y-139796121D01*
X82677483Y-139796121D01*
X82294423Y-139757168D01*
X81917270Y-139679661D01*
X81549893Y-139564396D01*
X81196062Y-139412555D01*
X80859408Y-139225697D01*
X80543385Y-139005739D01*
X80251237Y-138754937D01*
X79985960Y-138475867D01*
X79750278Y-138171390D01*
X79546609Y-137844633D01*
X79377041Y-137498947D01*
X79243317Y-137137879D01*
X79146807Y-136765136D01*
X79088502Y-136384541D01*
X79069000Y-136000000D01*
X79088502Y-135615459D01*
X79146807Y-135234864D01*
X79243317Y-134862121D01*
X79377041Y-134501053D01*
X79546609Y-134155367D01*
X79750278Y-133828610D01*
X79985960Y-133524133D01*
X80251237Y-133245063D01*
X80543385Y-132994261D01*
X80859408Y-132774303D01*
X81196062Y-132587445D01*
X81549893Y-132435604D01*
X81917270Y-132320339D01*
X82294423Y-132242832D01*
X82677483Y-132203879D01*
X83062517Y-132203879D01*
X83445577Y-132242832D01*
G37*
G36*
X113345577Y-132242832D02*
G01*
X113722730Y-132320339D01*
X114090107Y-132435604D01*
X114443938Y-132587445D01*
X114780592Y-132774303D01*
X115096615Y-132994261D01*
X115388763Y-133245063D01*
X115654040Y-133524133D01*
X115889722Y-133828610D01*
X116093391Y-134155367D01*
X116262959Y-134501053D01*
X116396683Y-134862121D01*
X116493193Y-135234864D01*
X116551498Y-135615459D01*
X116571000Y-136000000D01*
X116551498Y-136384541D01*
X116493193Y-136765136D01*
X116396683Y-137137879D01*
X116262959Y-137498947D01*
X116093391Y-137844633D01*
X115889722Y-138171390D01*
X115654040Y-138475867D01*
X115388763Y-138754937D01*
X115096615Y-139005739D01*
X114780592Y-139225697D01*
X114443938Y-139412555D01*
X114090107Y-139564396D01*
X113722730Y-139679661D01*
X113345577Y-139757168D01*
X112962517Y-139796121D01*
X112577483Y-139796121D01*
X112194423Y-139757168D01*
X111817270Y-139679661D01*
X111449893Y-139564396D01*
X111096062Y-139412555D01*
X110759408Y-139225697D01*
X110443385Y-139005739D01*
X110151237Y-138754937D01*
X109885960Y-138475867D01*
X109650278Y-138171390D01*
X109446609Y-137844633D01*
X109277041Y-137498947D01*
X109143317Y-137137879D01*
X109046807Y-136765136D01*
X108988502Y-136384541D01*
X108969000Y-136000000D01*
X108988502Y-135615459D01*
X109046807Y-135234864D01*
X109143317Y-134862121D01*
X109277041Y-134501053D01*
X109446609Y-134155367D01*
X109650278Y-133828610D01*
X109885960Y-133524133D01*
X110151237Y-133245063D01*
X110443385Y-132994261D01*
X110759408Y-132774303D01*
X111096062Y-132587445D01*
X111449893Y-132435604D01*
X111817270Y-132320339D01*
X112194423Y-132242832D01*
X112577483Y-132203879D01*
X112962517Y-132203879D01*
X113345577Y-132242832D01*
G37*
G36*
X54316038Y-134103723D02*
G01*
X54379707Y-134103723D01*
X54448778Y-134113216D01*
X54520541Y-134118349D01*
X54579609Y-134131198D01*
X54636711Y-134139047D01*
X54709714Y-134159501D01*
X54785574Y-134176004D01*
X54836788Y-134195106D01*
X54886512Y-134209038D01*
X54961688Y-134241691D01*
X55039704Y-134270790D01*
X55082578Y-134294201D01*
X55124442Y-134312385D01*
X55199755Y-134358184D01*
X55277758Y-134400777D01*
X55312229Y-134426582D01*
X55346106Y-134447183D01*
X55419352Y-134506773D01*
X55494890Y-134563320D01*
X55521212Y-134589642D01*
X55547333Y-134610893D01*
X55616174Y-134684604D01*
X55686680Y-134755110D01*
X55705494Y-134780242D01*
X55724399Y-134800485D01*
X55786409Y-134888333D01*
X55849223Y-134972242D01*
X55861464Y-134994660D01*
X55874002Y-135012422D01*
X55926752Y-135114227D01*
X55979210Y-135210296D01*
X55986093Y-135228751D01*
X55993348Y-135242752D01*
X56034429Y-135358345D01*
X56073996Y-135464426D01*
X56076939Y-135477955D01*
X56080225Y-135487201D01*
X56107442Y-135618176D01*
X56131651Y-135729459D01*
X56132219Y-135737404D01*
X56133004Y-135741181D01*
X56144284Y-135906105D01*
X56151000Y-136000000D01*
X56144284Y-136093902D01*
X56133004Y-136258818D01*
X56132219Y-136262593D01*
X56131651Y-136270541D01*
X56107437Y-136381845D01*
X56080225Y-136512798D01*
X56076939Y-136522041D01*
X56073996Y-136535574D01*
X56034422Y-136641674D01*
X55993348Y-136757247D01*
X55986094Y-136771245D01*
X55979210Y-136789704D01*
X55926742Y-136885791D01*
X55874002Y-136987577D01*
X55861466Y-137005335D01*
X55849223Y-137027758D01*
X55786397Y-137111683D01*
X55724399Y-137199514D01*
X55705498Y-137219752D01*
X55686680Y-137244890D01*
X55616160Y-137315409D01*
X55547333Y-137389106D01*
X55521217Y-137410352D01*
X55494890Y-137436680D01*
X55419336Y-137493238D01*
X55346106Y-137552816D01*
X55312236Y-137573412D01*
X55277758Y-137599223D01*
X55199739Y-137641824D01*
X55124442Y-137687614D01*
X55082587Y-137705793D01*
X55039704Y-137729210D01*
X54961672Y-137758314D01*
X54886512Y-137790961D01*
X54836799Y-137804889D01*
X54785574Y-137823996D01*
X54709698Y-137840501D01*
X54636711Y-137860952D01*
X54579618Y-137868799D01*
X54520541Y-137881651D01*
X54448774Y-137886783D01*
X54379707Y-137896277D01*
X54316038Y-137896277D01*
X54250000Y-137901000D01*
X54183962Y-137896277D01*
X54120293Y-137896277D01*
X54051224Y-137886783D01*
X53979459Y-137881651D01*
X53920382Y-137868799D01*
X53863288Y-137860952D01*
X53790297Y-137840500D01*
X53714426Y-137823996D01*
X53663203Y-137804890D01*
X53613487Y-137790961D01*
X53538320Y-137758311D01*
X53460296Y-137729210D01*
X53417416Y-137705795D01*
X53375557Y-137687614D01*
X53300251Y-137641819D01*
X53222242Y-137599223D01*
X53187767Y-137573415D01*
X53153893Y-137552816D01*
X53080650Y-137493228D01*
X53005110Y-137436680D01*
X52978786Y-137410356D01*
X52952666Y-137389106D01*
X52883824Y-137315394D01*
X52813320Y-137244890D01*
X52794506Y-137219757D01*
X52775600Y-137199514D01*
X52713584Y-137111659D01*
X52650777Y-137027758D01*
X52638536Y-137005341D01*
X52625997Y-136987577D01*
X52573238Y-136885755D01*
X52520790Y-136789704D01*
X52513907Y-136771252D01*
X52506651Y-136757247D01*
X52465556Y-136641617D01*
X52426004Y-136535574D01*
X52423061Y-136522048D01*
X52419774Y-136512798D01*
X52392539Y-136381742D01*
X52368349Y-136270541D01*
X52367781Y-136262600D01*
X52366995Y-136258818D01*
X52355692Y-136093582D01*
X52349000Y-136000000D01*
X52355692Y-135906425D01*
X52366995Y-135741181D01*
X52367781Y-135737397D01*
X52368349Y-135729459D01*
X52392535Y-135618278D01*
X52419774Y-135487201D01*
X52423062Y-135477948D01*
X52426004Y-135464426D01*
X52465548Y-135358402D01*
X52506651Y-135242752D01*
X52513909Y-135228744D01*
X52520790Y-135210296D01*
X52573227Y-135114262D01*
X52625997Y-135012422D01*
X52638539Y-134994654D01*
X52650777Y-134972242D01*
X52713572Y-134888356D01*
X52775600Y-134800485D01*
X52794509Y-134780237D01*
X52813320Y-134755110D01*
X52883810Y-134684619D01*
X52952666Y-134610893D01*
X52978792Y-134589637D01*
X53005110Y-134563320D01*
X53080635Y-134506782D01*
X53153893Y-134447183D01*
X53187774Y-134426578D01*
X53222242Y-134400777D01*
X53300235Y-134358189D01*
X53375557Y-134312385D01*
X53417425Y-134294199D01*
X53460296Y-134270790D01*
X53538304Y-134241694D01*
X53613487Y-134209038D01*
X53663214Y-134195105D01*
X53714426Y-134176004D01*
X53790281Y-134159502D01*
X53863288Y-134139047D01*
X53920392Y-134131198D01*
X53979459Y-134118349D01*
X54051220Y-134113216D01*
X54120293Y-134103723D01*
X54183962Y-134103723D01*
X54250000Y-134099000D01*
X54316038Y-134103723D01*
G37*
G36*
X96536038Y-134103723D02*
G01*
X96599707Y-134103723D01*
X96668778Y-134113216D01*
X96740541Y-134118349D01*
X96799609Y-134131198D01*
X96856711Y-134139047D01*
X96929714Y-134159501D01*
X97005574Y-134176004D01*
X97056788Y-134195106D01*
X97106512Y-134209038D01*
X97181688Y-134241691D01*
X97259704Y-134270790D01*
X97302578Y-134294201D01*
X97344442Y-134312385D01*
X97419755Y-134358184D01*
X97497758Y-134400777D01*
X97532229Y-134426582D01*
X97566106Y-134447183D01*
X97639352Y-134506773D01*
X97714890Y-134563320D01*
X97741212Y-134589642D01*
X97767333Y-134610893D01*
X97836174Y-134684604D01*
X97906680Y-134755110D01*
X97925494Y-134780242D01*
X97944399Y-134800485D01*
X98006409Y-134888333D01*
X98069223Y-134972242D01*
X98081464Y-134994660D01*
X98094002Y-135012422D01*
X98146752Y-135114227D01*
X98199210Y-135210296D01*
X98206093Y-135228751D01*
X98213348Y-135242752D01*
X98254429Y-135358345D01*
X98293996Y-135464426D01*
X98296939Y-135477955D01*
X98300225Y-135487201D01*
X98327442Y-135618176D01*
X98351651Y-135729459D01*
X98352219Y-135737404D01*
X98353004Y-135741181D01*
X98364284Y-135906105D01*
X98371000Y-136000000D01*
X98364284Y-136093902D01*
X98353004Y-136258818D01*
X98352219Y-136262593D01*
X98351651Y-136270541D01*
X98327437Y-136381845D01*
X98300225Y-136512798D01*
X98296939Y-136522041D01*
X98293996Y-136535574D01*
X98254422Y-136641674D01*
X98213348Y-136757247D01*
X98206094Y-136771245D01*
X98199210Y-136789704D01*
X98146742Y-136885791D01*
X98094002Y-136987577D01*
X98081466Y-137005335D01*
X98069223Y-137027758D01*
X98006397Y-137111683D01*
X97944399Y-137199514D01*
X97925498Y-137219752D01*
X97906680Y-137244890D01*
X97836160Y-137315409D01*
X97767333Y-137389106D01*
X97741217Y-137410352D01*
X97714890Y-137436680D01*
X97639336Y-137493238D01*
X97566106Y-137552816D01*
X97532236Y-137573412D01*
X97497758Y-137599223D01*
X97419739Y-137641824D01*
X97344442Y-137687614D01*
X97302587Y-137705793D01*
X97259704Y-137729210D01*
X97181672Y-137758314D01*
X97106512Y-137790961D01*
X97056799Y-137804889D01*
X97005574Y-137823996D01*
X96929698Y-137840501D01*
X96856711Y-137860952D01*
X96799618Y-137868799D01*
X96740541Y-137881651D01*
X96668774Y-137886783D01*
X96599707Y-137896277D01*
X96536038Y-137896277D01*
X96470000Y-137901000D01*
X96403962Y-137896277D01*
X96340293Y-137896277D01*
X96271224Y-137886783D01*
X96199459Y-137881651D01*
X96140382Y-137868799D01*
X96083288Y-137860952D01*
X96010297Y-137840500D01*
X95934426Y-137823996D01*
X95883203Y-137804890D01*
X95833487Y-137790961D01*
X95758320Y-137758311D01*
X95680296Y-137729210D01*
X95637416Y-137705795D01*
X95595557Y-137687614D01*
X95520251Y-137641819D01*
X95442242Y-137599223D01*
X95407767Y-137573415D01*
X95373893Y-137552816D01*
X95300650Y-137493228D01*
X95225110Y-137436680D01*
X95198786Y-137410356D01*
X95172666Y-137389106D01*
X95103824Y-137315394D01*
X95033320Y-137244890D01*
X95014506Y-137219757D01*
X94995600Y-137199514D01*
X94933584Y-137111659D01*
X94870777Y-137027758D01*
X94858536Y-137005341D01*
X94845997Y-136987577D01*
X94793238Y-136885755D01*
X94740790Y-136789704D01*
X94733907Y-136771252D01*
X94726651Y-136757247D01*
X94685556Y-136641617D01*
X94646004Y-136535574D01*
X94643061Y-136522048D01*
X94639774Y-136512798D01*
X94612539Y-136381742D01*
X94588349Y-136270541D01*
X94587781Y-136262600D01*
X94586995Y-136258818D01*
X94575692Y-136093582D01*
X94569000Y-136000000D01*
X94575692Y-135906425D01*
X94586995Y-135741181D01*
X94587781Y-135737397D01*
X94588349Y-135729459D01*
X94612535Y-135618278D01*
X94639774Y-135487201D01*
X94643062Y-135477948D01*
X94646004Y-135464426D01*
X94685548Y-135358402D01*
X94726651Y-135242752D01*
X94733909Y-135228744D01*
X94740790Y-135210296D01*
X94793227Y-135114262D01*
X94845997Y-135012422D01*
X94858539Y-134994654D01*
X94870777Y-134972242D01*
X94933572Y-134888356D01*
X94995600Y-134800485D01*
X95014509Y-134780237D01*
X95033320Y-134755110D01*
X95103810Y-134684619D01*
X95172666Y-134610893D01*
X95198792Y-134589637D01*
X95225110Y-134563320D01*
X95300635Y-134506782D01*
X95373893Y-134447183D01*
X95407774Y-134426578D01*
X95442242Y-134400777D01*
X95520235Y-134358189D01*
X95595557Y-134312385D01*
X95637425Y-134294199D01*
X95680296Y-134270790D01*
X95758304Y-134241694D01*
X95833487Y-134209038D01*
X95883214Y-134195105D01*
X95934426Y-134176004D01*
X96010281Y-134159502D01*
X96083288Y-134139047D01*
X96140392Y-134131198D01*
X96199459Y-134118349D01*
X96271220Y-134113216D01*
X96340293Y-134103723D01*
X96403962Y-134103723D01*
X96470000Y-134099000D01*
X96536038Y-134103723D01*
G37*
G36*
X104851913Y-134115381D02*
G01*
X104854619Y-134118087D01*
X104855000Y-134120000D01*
X104855000Y-137880000D01*
X104854619Y-137881913D01*
X104851913Y-137884619D01*
X104850000Y-137885000D01*
X104843860Y-137885000D01*
X101096140Y-137885000D01*
X101090000Y-137885000D01*
X101088087Y-137884619D01*
X101085381Y-137881913D01*
X101085000Y-137880000D01*
X101085000Y-134120000D01*
X101085381Y-134118087D01*
X101088087Y-134115381D01*
X101090000Y-134115000D01*
X104850000Y-134115000D01*
X104851913Y-134115381D01*
G37*
G36*
X75478460Y-134544987D02*
G01*
X75540566Y-134544987D01*
X75596006Y-134554238D01*
X75648337Y-134558357D01*
X75711362Y-134573487D01*
X75778409Y-134584676D01*
X75825958Y-134600999D01*
X75871041Y-134611823D01*
X75936659Y-134639003D01*
X76006475Y-134662971D01*
X76045474Y-134684076D01*
X76082652Y-134699476D01*
X76148550Y-134739858D01*
X76218544Y-134777737D01*
X76248829Y-134801309D01*
X76277940Y-134819148D01*
X76341557Y-134873482D01*
X76408831Y-134925843D01*
X76430774Y-134949679D01*
X76452103Y-134967896D01*
X76510666Y-135036466D01*
X76572145Y-135103249D01*
X76586597Y-135125370D01*
X76600851Y-135142059D01*
X76651497Y-135224706D01*
X76704032Y-135305117D01*
X76712241Y-135323832D01*
X76720523Y-135337347D01*
X76760445Y-135433727D01*
X76800893Y-135525939D01*
X76804435Y-135539927D01*
X76808176Y-135548958D01*
X76834694Y-135659416D01*
X76860088Y-135759692D01*
X76860783Y-135768086D01*
X76861642Y-135771662D01*
X76872285Y-135906900D01*
X76880000Y-136000000D01*
X76872285Y-136093107D01*
X76861642Y-136228337D01*
X76860783Y-136231912D01*
X76860088Y-136240308D01*
X76834689Y-136340601D01*
X76808176Y-136451041D01*
X76804436Y-136460069D01*
X76800893Y-136474061D01*
X76760438Y-136566289D01*
X76720523Y-136662652D01*
X76712242Y-136676164D01*
X76704032Y-136694883D01*
X76651487Y-136775308D01*
X76600851Y-136857940D01*
X76586600Y-136874625D01*
X76572145Y-136896751D01*
X76510655Y-136963546D01*
X76452103Y-137032103D01*
X76430778Y-137050315D01*
X76408831Y-137074157D01*
X76341544Y-137126527D01*
X76277940Y-137180851D01*
X76248835Y-137198685D01*
X76218544Y-137222263D01*
X76148536Y-137260149D01*
X76082652Y-137300523D01*
X76045481Y-137315919D01*
X76006475Y-137337029D01*
X75936645Y-137361001D01*
X75871041Y-137388176D01*
X75825968Y-137398996D01*
X75778409Y-137415324D01*
X75711348Y-137426514D01*
X75648337Y-137441642D01*
X75596017Y-137445759D01*
X75540566Y-137455013D01*
X75478447Y-137455013D01*
X75420000Y-137459613D01*
X75361553Y-137455013D01*
X75299434Y-137455013D01*
X75243982Y-137445759D01*
X75191662Y-137441642D01*
X75128648Y-137426513D01*
X75061591Y-137415324D01*
X75014033Y-137398997D01*
X74968958Y-137388176D01*
X74903348Y-137360999D01*
X74833525Y-137337029D01*
X74794521Y-137315921D01*
X74757347Y-137300523D01*
X74691455Y-137260144D01*
X74621456Y-137222263D01*
X74591167Y-137198688D01*
X74562059Y-137180851D01*
X74498444Y-137126519D01*
X74431169Y-137074157D01*
X74409225Y-137050319D01*
X74387896Y-137032103D01*
X74329331Y-136963531D01*
X74267855Y-136896751D01*
X74253403Y-136874630D01*
X74239148Y-136857940D01*
X74188496Y-136775283D01*
X74135968Y-136694883D01*
X74127759Y-136676169D01*
X74119476Y-136662652D01*
X74079543Y-136566248D01*
X74039107Y-136474061D01*
X74035565Y-136460076D01*
X74031823Y-136451041D01*
X74005290Y-136340525D01*
X73979912Y-136240308D01*
X73979216Y-136231918D01*
X73978357Y-136228337D01*
X73967694Y-136092866D01*
X73960000Y-136000000D01*
X73967694Y-135907140D01*
X73978357Y-135771662D01*
X73979216Y-135768079D01*
X73979912Y-135759692D01*
X74005286Y-135659492D01*
X74031823Y-135548958D01*
X74035566Y-135539921D01*
X74039107Y-135525939D01*
X74079536Y-135433768D01*
X74119476Y-135337347D01*
X74127761Y-135323826D01*
X74135968Y-135305117D01*
X74188486Y-135224731D01*
X74239148Y-135142059D01*
X74253405Y-135125365D01*
X74267855Y-135103249D01*
X74329319Y-135036481D01*
X74387896Y-134967896D01*
X74409229Y-134949675D01*
X74431169Y-134925843D01*
X74498430Y-134873491D01*
X74562059Y-134819148D01*
X74591173Y-134801306D01*
X74621456Y-134777737D01*
X74691441Y-134739862D01*
X74757347Y-134699476D01*
X74794529Y-134684074D01*
X74833525Y-134662971D01*
X74903334Y-134639005D01*
X74968958Y-134611823D01*
X75014043Y-134600998D01*
X75061591Y-134584676D01*
X75128634Y-134573488D01*
X75191662Y-134558357D01*
X75243994Y-134554238D01*
X75299434Y-134544987D01*
X75361540Y-134544987D01*
X75420000Y-134540386D01*
X75478460Y-134544987D01*
G37*
G36*
X65945577Y-120242832D02*
G01*
X66322730Y-120320339D01*
X66690107Y-120435604D01*
X67043938Y-120587445D01*
X67380592Y-120774303D01*
X67696615Y-120994261D01*
X67988763Y-121245063D01*
X68254040Y-121524133D01*
X68489722Y-121828610D01*
X68693391Y-122155367D01*
X68862959Y-122501053D01*
X68996683Y-122862121D01*
X69093193Y-123234864D01*
X69151498Y-123615459D01*
X69171000Y-124000000D01*
X69151498Y-124384541D01*
X69093193Y-124765136D01*
X68996683Y-125137879D01*
X68862959Y-125498947D01*
X68693391Y-125844633D01*
X68489722Y-126171390D01*
X68254040Y-126475867D01*
X67988763Y-126754937D01*
X67696615Y-127005739D01*
X67380592Y-127225697D01*
X67043938Y-127412555D01*
X66690107Y-127564396D01*
X66322730Y-127679661D01*
X65945577Y-127757168D01*
X65562517Y-127796121D01*
X65177483Y-127796121D01*
X64794423Y-127757168D01*
X64417270Y-127679661D01*
X64049893Y-127564396D01*
X63696062Y-127412555D01*
X63359408Y-127225697D01*
X63043385Y-127005739D01*
X62751237Y-126754937D01*
X62485960Y-126475867D01*
X62250278Y-126171390D01*
X62046609Y-125844633D01*
X61877041Y-125498947D01*
X61743317Y-125137879D01*
X61646807Y-124765136D01*
X61588502Y-124384541D01*
X61569000Y-124000000D01*
X61588502Y-123615459D01*
X61646807Y-123234864D01*
X61743317Y-122862121D01*
X61877041Y-122501053D01*
X62046609Y-122155367D01*
X62250278Y-121828610D01*
X62485960Y-121524133D01*
X62751237Y-121245063D01*
X63043385Y-120994261D01*
X63359408Y-120774303D01*
X63696062Y-120587445D01*
X64049893Y-120435604D01*
X64417270Y-120320339D01*
X64794423Y-120242832D01*
X65177483Y-120203879D01*
X65562517Y-120203879D01*
X65945577Y-120242832D01*
G37*
G36*
X113345577Y-120242832D02*
G01*
X113722730Y-120320339D01*
X114090107Y-120435604D01*
X114443938Y-120587445D01*
X114780592Y-120774303D01*
X115096615Y-120994261D01*
X115388763Y-121245063D01*
X115654040Y-121524133D01*
X115889722Y-121828610D01*
X116093391Y-122155367D01*
X116262959Y-122501053D01*
X116396683Y-122862121D01*
X116493193Y-123234864D01*
X116551498Y-123615459D01*
X116571000Y-124000000D01*
X116551498Y-124384541D01*
X116493193Y-124765136D01*
X116396683Y-125137879D01*
X116262959Y-125498947D01*
X116093391Y-125844633D01*
X115889722Y-126171390D01*
X115654040Y-126475867D01*
X115388763Y-126754937D01*
X115096615Y-127005739D01*
X114780592Y-127225697D01*
X114443938Y-127412555D01*
X114090107Y-127564396D01*
X113722730Y-127679661D01*
X113345577Y-127757168D01*
X112962517Y-127796121D01*
X112577483Y-127796121D01*
X112194423Y-127757168D01*
X111817270Y-127679661D01*
X111449893Y-127564396D01*
X111096062Y-127412555D01*
X110759408Y-127225697D01*
X110443385Y-127005739D01*
X110151237Y-126754937D01*
X109885960Y-126475867D01*
X109650278Y-126171390D01*
X109446609Y-125844633D01*
X109277041Y-125498947D01*
X109143317Y-125137879D01*
X109046807Y-124765136D01*
X108988502Y-124384541D01*
X108969000Y-124000000D01*
X108988502Y-123615459D01*
X109046807Y-123234864D01*
X109143317Y-122862121D01*
X109277041Y-122501053D01*
X109446609Y-122155367D01*
X109650278Y-121828610D01*
X109885960Y-121524133D01*
X110151237Y-121245063D01*
X110443385Y-120994261D01*
X110759408Y-120774303D01*
X111096062Y-120587445D01*
X111449893Y-120435604D01*
X111817270Y-120320339D01*
X112194423Y-120242832D01*
X112577483Y-120203879D01*
X112962517Y-120203879D01*
X113345577Y-120242832D01*
G37*
G36*
X54316038Y-122103723D02*
G01*
X54379707Y-122103723D01*
X54448778Y-122113216D01*
X54520541Y-122118349D01*
X54579609Y-122131198D01*
X54636711Y-122139047D01*
X54709714Y-122159501D01*
X54785574Y-122176004D01*
X54836788Y-122195106D01*
X54886512Y-122209038D01*
X54961688Y-122241691D01*
X55039704Y-122270790D01*
X55082578Y-122294201D01*
X55124442Y-122312385D01*
X55199755Y-122358184D01*
X55277758Y-122400777D01*
X55312229Y-122426582D01*
X55346106Y-122447183D01*
X55419352Y-122506773D01*
X55494890Y-122563320D01*
X55521212Y-122589642D01*
X55547333Y-122610893D01*
X55616174Y-122684604D01*
X55686680Y-122755110D01*
X55705494Y-122780242D01*
X55724399Y-122800485D01*
X55786409Y-122888333D01*
X55849223Y-122972242D01*
X55861464Y-122994660D01*
X55874002Y-123012422D01*
X55926752Y-123114227D01*
X55979210Y-123210296D01*
X55986093Y-123228751D01*
X55993348Y-123242752D01*
X56034429Y-123358345D01*
X56073996Y-123464426D01*
X56076939Y-123477955D01*
X56080225Y-123487201D01*
X56107442Y-123618176D01*
X56131651Y-123729459D01*
X56132219Y-123737404D01*
X56133004Y-123741181D01*
X56144284Y-123906105D01*
X56151000Y-124000000D01*
X56144284Y-124093902D01*
X56133004Y-124258818D01*
X56132219Y-124262593D01*
X56131651Y-124270541D01*
X56107437Y-124381845D01*
X56080225Y-124512798D01*
X56076939Y-124522041D01*
X56073996Y-124535574D01*
X56034422Y-124641674D01*
X55993348Y-124757247D01*
X55986094Y-124771245D01*
X55979210Y-124789704D01*
X55926742Y-124885791D01*
X55874002Y-124987577D01*
X55861466Y-125005335D01*
X55849223Y-125027758D01*
X55786397Y-125111683D01*
X55724399Y-125199514D01*
X55705498Y-125219752D01*
X55686680Y-125244890D01*
X55616160Y-125315409D01*
X55547333Y-125389106D01*
X55521217Y-125410352D01*
X55494890Y-125436680D01*
X55419336Y-125493238D01*
X55346106Y-125552816D01*
X55312236Y-125573412D01*
X55277758Y-125599223D01*
X55199739Y-125641824D01*
X55124442Y-125687614D01*
X55082587Y-125705793D01*
X55039704Y-125729210D01*
X54961672Y-125758314D01*
X54886512Y-125790961D01*
X54836799Y-125804889D01*
X54785574Y-125823996D01*
X54709698Y-125840501D01*
X54636711Y-125860952D01*
X54579618Y-125868799D01*
X54520541Y-125881651D01*
X54448774Y-125886783D01*
X54379707Y-125896277D01*
X54316038Y-125896277D01*
X54250000Y-125901000D01*
X54183962Y-125896277D01*
X54120293Y-125896277D01*
X54051224Y-125886783D01*
X53979459Y-125881651D01*
X53920382Y-125868799D01*
X53863288Y-125860952D01*
X53790297Y-125840500D01*
X53714426Y-125823996D01*
X53663203Y-125804890D01*
X53613487Y-125790961D01*
X53538320Y-125758311D01*
X53460296Y-125729210D01*
X53417416Y-125705795D01*
X53375557Y-125687614D01*
X53300251Y-125641819D01*
X53222242Y-125599223D01*
X53187767Y-125573415D01*
X53153893Y-125552816D01*
X53080650Y-125493228D01*
X53005110Y-125436680D01*
X52978786Y-125410356D01*
X52952666Y-125389106D01*
X52883824Y-125315394D01*
X52813320Y-125244890D01*
X52794506Y-125219757D01*
X52775600Y-125199514D01*
X52713584Y-125111659D01*
X52650777Y-125027758D01*
X52638536Y-125005341D01*
X52625997Y-124987577D01*
X52573238Y-124885755D01*
X52520790Y-124789704D01*
X52513907Y-124771252D01*
X52506651Y-124757247D01*
X52465556Y-124641617D01*
X52426004Y-124535574D01*
X52423061Y-124522048D01*
X52419774Y-124512798D01*
X52392539Y-124381742D01*
X52368349Y-124270541D01*
X52367781Y-124262600D01*
X52366995Y-124258818D01*
X52355692Y-124093582D01*
X52349000Y-124000000D01*
X52355692Y-123906425D01*
X52366995Y-123741181D01*
X52367781Y-123737397D01*
X52368349Y-123729459D01*
X52392535Y-123618278D01*
X52419774Y-123487201D01*
X52423062Y-123477948D01*
X52426004Y-123464426D01*
X52465548Y-123358402D01*
X52506651Y-123242752D01*
X52513909Y-123228744D01*
X52520790Y-123210296D01*
X52573227Y-123114262D01*
X52625997Y-123012422D01*
X52638539Y-122994654D01*
X52650777Y-122972242D01*
X52713572Y-122888356D01*
X52775600Y-122800485D01*
X52794509Y-122780237D01*
X52813320Y-122755110D01*
X52883810Y-122684619D01*
X52952666Y-122610893D01*
X52978792Y-122589637D01*
X53005110Y-122563320D01*
X53080635Y-122506782D01*
X53153893Y-122447183D01*
X53187774Y-122426578D01*
X53222242Y-122400777D01*
X53300235Y-122358189D01*
X53375557Y-122312385D01*
X53417425Y-122294199D01*
X53460296Y-122270790D01*
X53538304Y-122241694D01*
X53613487Y-122209038D01*
X53663214Y-122195105D01*
X53714426Y-122176004D01*
X53790281Y-122159502D01*
X53863288Y-122139047D01*
X53920392Y-122131198D01*
X53979459Y-122118349D01*
X54051220Y-122113216D01*
X54120293Y-122103723D01*
X54183962Y-122103723D01*
X54250000Y-122099000D01*
X54316038Y-122103723D01*
G37*
G36*
X96536038Y-122103723D02*
G01*
X96599707Y-122103723D01*
X96668778Y-122113216D01*
X96740541Y-122118349D01*
X96799609Y-122131198D01*
X96856711Y-122139047D01*
X96929714Y-122159501D01*
X97005574Y-122176004D01*
X97056788Y-122195106D01*
X97106512Y-122209038D01*
X97181688Y-122241691D01*
X97259704Y-122270790D01*
X97302578Y-122294201D01*
X97344442Y-122312385D01*
X97419755Y-122358184D01*
X97497758Y-122400777D01*
X97532229Y-122426582D01*
X97566106Y-122447183D01*
X97639352Y-122506773D01*
X97714890Y-122563320D01*
X97741212Y-122589642D01*
X97767333Y-122610893D01*
X97836174Y-122684604D01*
X97906680Y-122755110D01*
X97925494Y-122780242D01*
X97944399Y-122800485D01*
X98006409Y-122888333D01*
X98069223Y-122972242D01*
X98081464Y-122994660D01*
X98094002Y-123012422D01*
X98146752Y-123114227D01*
X98199210Y-123210296D01*
X98206093Y-123228751D01*
X98213348Y-123242752D01*
X98254429Y-123358345D01*
X98293996Y-123464426D01*
X98296939Y-123477955D01*
X98300225Y-123487201D01*
X98327442Y-123618176D01*
X98351651Y-123729459D01*
X98352219Y-123737404D01*
X98353004Y-123741181D01*
X98364284Y-123906105D01*
X98371000Y-124000000D01*
X98364284Y-124093902D01*
X98353004Y-124258818D01*
X98352219Y-124262593D01*
X98351651Y-124270541D01*
X98327437Y-124381845D01*
X98300225Y-124512798D01*
X98296939Y-124522041D01*
X98293996Y-124535574D01*
X98254422Y-124641674D01*
X98213348Y-124757247D01*
X98206094Y-124771245D01*
X98199210Y-124789704D01*
X98146742Y-124885791D01*
X98094002Y-124987577D01*
X98081466Y-125005335D01*
X98069223Y-125027758D01*
X98006397Y-125111683D01*
X97944399Y-125199514D01*
X97925498Y-125219752D01*
X97906680Y-125244890D01*
X97836160Y-125315409D01*
X97767333Y-125389106D01*
X97741217Y-125410352D01*
X97714890Y-125436680D01*
X97639336Y-125493238D01*
X97566106Y-125552816D01*
X97532236Y-125573412D01*
X97497758Y-125599223D01*
X97419739Y-125641824D01*
X97344442Y-125687614D01*
X97302587Y-125705793D01*
X97259704Y-125729210D01*
X97181672Y-125758314D01*
X97106512Y-125790961D01*
X97056799Y-125804889D01*
X97005574Y-125823996D01*
X96929698Y-125840501D01*
X96856711Y-125860952D01*
X96799618Y-125868799D01*
X96740541Y-125881651D01*
X96668774Y-125886783D01*
X96599707Y-125896277D01*
X96536038Y-125896277D01*
X96470000Y-125901000D01*
X96403962Y-125896277D01*
X96340293Y-125896277D01*
X96271224Y-125886783D01*
X96199459Y-125881651D01*
X96140382Y-125868799D01*
X96083288Y-125860952D01*
X96010297Y-125840500D01*
X95934426Y-125823996D01*
X95883203Y-125804890D01*
X95833487Y-125790961D01*
X95758320Y-125758311D01*
X95680296Y-125729210D01*
X95637416Y-125705795D01*
X95595557Y-125687614D01*
X95520251Y-125641819D01*
X95442242Y-125599223D01*
X95407767Y-125573415D01*
X95373893Y-125552816D01*
X95300650Y-125493228D01*
X95225110Y-125436680D01*
X95198786Y-125410356D01*
X95172666Y-125389106D01*
X95103824Y-125315394D01*
X95033320Y-125244890D01*
X95014506Y-125219757D01*
X94995600Y-125199514D01*
X94933584Y-125111659D01*
X94870777Y-125027758D01*
X94858536Y-125005341D01*
X94845997Y-124987577D01*
X94793238Y-124885755D01*
X94740790Y-124789704D01*
X94733907Y-124771252D01*
X94726651Y-124757247D01*
X94685556Y-124641617D01*
X94646004Y-124535574D01*
X94643061Y-124522048D01*
X94639774Y-124512798D01*
X94612539Y-124381742D01*
X94588349Y-124270541D01*
X94587781Y-124262600D01*
X94586995Y-124258818D01*
X94575692Y-124093582D01*
X94569000Y-124000000D01*
X94575692Y-123906425D01*
X94586995Y-123741181D01*
X94587781Y-123737397D01*
X94588349Y-123729459D01*
X94612535Y-123618278D01*
X94639774Y-123487201D01*
X94643062Y-123477948D01*
X94646004Y-123464426D01*
X94685548Y-123358402D01*
X94726651Y-123242752D01*
X94733909Y-123228744D01*
X94740790Y-123210296D01*
X94793227Y-123114262D01*
X94845997Y-123012422D01*
X94858539Y-122994654D01*
X94870777Y-122972242D01*
X94933572Y-122888356D01*
X94995600Y-122800485D01*
X95014509Y-122780237D01*
X95033320Y-122755110D01*
X95103810Y-122684619D01*
X95172666Y-122610893D01*
X95198792Y-122589637D01*
X95225110Y-122563320D01*
X95300635Y-122506782D01*
X95373893Y-122447183D01*
X95407774Y-122426578D01*
X95442242Y-122400777D01*
X95520235Y-122358189D01*
X95595557Y-122312385D01*
X95637425Y-122294199D01*
X95680296Y-122270790D01*
X95758304Y-122241694D01*
X95833487Y-122209038D01*
X95883214Y-122195105D01*
X95934426Y-122176004D01*
X96010281Y-122159502D01*
X96083288Y-122139047D01*
X96140392Y-122131198D01*
X96199459Y-122118349D01*
X96271220Y-122113216D01*
X96340293Y-122103723D01*
X96403962Y-122103723D01*
X96470000Y-122099000D01*
X96536038Y-122103723D01*
G37*
G36*
X104851913Y-122115381D02*
G01*
X104854619Y-122118087D01*
X104855000Y-122120000D01*
X104855000Y-125880000D01*
X104854619Y-125881913D01*
X104851913Y-125884619D01*
X104850000Y-125885000D01*
X104843860Y-125885000D01*
X101096140Y-125885000D01*
X101090000Y-125885000D01*
X101088087Y-125884619D01*
X101085381Y-125881913D01*
X101085000Y-125880000D01*
X101085000Y-122120000D01*
X101085381Y-122118087D01*
X101088087Y-122115381D01*
X101090000Y-122115000D01*
X104850000Y-122115000D01*
X104851913Y-122115381D01*
G37*
G36*
X75478460Y-122544987D02*
G01*
X75540566Y-122544987D01*
X75596006Y-122554238D01*
X75648337Y-122558357D01*
X75711362Y-122573487D01*
X75778409Y-122584676D01*
X75825958Y-122600999D01*
X75871041Y-122611823D01*
X75936659Y-122639003D01*
X76006475Y-122662971D01*
X76045474Y-122684076D01*
X76082652Y-122699476D01*
X76148550Y-122739858D01*
X76218544Y-122777737D01*
X76248829Y-122801309D01*
X76277940Y-122819148D01*
X76341557Y-122873482D01*
X76408831Y-122925843D01*
X76430774Y-122949679D01*
X76452103Y-122967896D01*
X76510666Y-123036466D01*
X76572145Y-123103249D01*
X76586597Y-123125370D01*
X76600851Y-123142059D01*
X76651497Y-123224706D01*
X76704032Y-123305117D01*
X76712241Y-123323832D01*
X76720523Y-123337347D01*
X76760445Y-123433727D01*
X76800893Y-123525939D01*
X76804435Y-123539927D01*
X76808176Y-123548958D01*
X76834694Y-123659416D01*
X76860088Y-123759692D01*
X76860783Y-123768086D01*
X76861642Y-123771662D01*
X76872285Y-123906900D01*
X76880000Y-124000000D01*
X76872285Y-124093107D01*
X76861642Y-124228337D01*
X76860783Y-124231912D01*
X76860088Y-124240308D01*
X76834689Y-124340601D01*
X76808176Y-124451041D01*
X76804436Y-124460069D01*
X76800893Y-124474061D01*
X76760438Y-124566289D01*
X76720523Y-124662652D01*
X76712242Y-124676164D01*
X76704032Y-124694883D01*
X76651487Y-124775308D01*
X76600851Y-124857940D01*
X76586600Y-124874625D01*
X76572145Y-124896751D01*
X76510655Y-124963546D01*
X76452103Y-125032103D01*
X76430778Y-125050315D01*
X76408831Y-125074157D01*
X76341544Y-125126527D01*
X76277940Y-125180851D01*
X76248835Y-125198685D01*
X76218544Y-125222263D01*
X76148536Y-125260149D01*
X76082652Y-125300523D01*
X76045481Y-125315919D01*
X76006475Y-125337029D01*
X75936645Y-125361001D01*
X75871041Y-125388176D01*
X75825968Y-125398996D01*
X75778409Y-125415324D01*
X75711348Y-125426514D01*
X75648337Y-125441642D01*
X75596017Y-125445759D01*
X75540566Y-125455013D01*
X75478447Y-125455013D01*
X75420000Y-125459613D01*
X75361553Y-125455013D01*
X75299434Y-125455013D01*
X75243982Y-125445759D01*
X75191662Y-125441642D01*
X75128648Y-125426513D01*
X75061591Y-125415324D01*
X75014033Y-125398997D01*
X74968958Y-125388176D01*
X74903348Y-125360999D01*
X74833525Y-125337029D01*
X74794521Y-125315921D01*
X74757347Y-125300523D01*
X74691455Y-125260144D01*
X74621456Y-125222263D01*
X74591167Y-125198688D01*
X74562059Y-125180851D01*
X74498444Y-125126519D01*
X74431169Y-125074157D01*
X74409225Y-125050319D01*
X74387896Y-125032103D01*
X74329331Y-124963531D01*
X74267855Y-124896751D01*
X74253403Y-124874630D01*
X74239148Y-124857940D01*
X74188496Y-124775283D01*
X74135968Y-124694883D01*
X74127759Y-124676169D01*
X74119476Y-124662652D01*
X74079543Y-124566248D01*
X74039107Y-124474061D01*
X74035565Y-124460076D01*
X74031823Y-124451041D01*
X74005290Y-124340525D01*
X73979912Y-124240308D01*
X73979216Y-124231918D01*
X73978357Y-124228337D01*
X73967694Y-124092866D01*
X73960000Y-124000000D01*
X73967694Y-123907140D01*
X73978357Y-123771662D01*
X73979216Y-123768079D01*
X73979912Y-123759692D01*
X74005286Y-123659492D01*
X74031823Y-123548958D01*
X74035566Y-123539921D01*
X74039107Y-123525939D01*
X74079536Y-123433768D01*
X74119476Y-123337347D01*
X74127761Y-123323826D01*
X74135968Y-123305117D01*
X74188486Y-123224731D01*
X74239148Y-123142059D01*
X74253405Y-123125365D01*
X74267855Y-123103249D01*
X74329319Y-123036481D01*
X74387896Y-122967896D01*
X74409229Y-122949675D01*
X74431169Y-122925843D01*
X74498430Y-122873491D01*
X74562059Y-122819148D01*
X74591173Y-122801306D01*
X74621456Y-122777737D01*
X74691441Y-122739862D01*
X74757347Y-122699476D01*
X74794529Y-122684074D01*
X74833525Y-122662971D01*
X74903334Y-122639005D01*
X74968958Y-122611823D01*
X75014043Y-122600998D01*
X75061591Y-122584676D01*
X75128634Y-122573488D01*
X75191662Y-122558357D01*
X75243994Y-122554238D01*
X75299434Y-122544987D01*
X75361540Y-122544987D01*
X75420000Y-122540386D01*
X75478460Y-122544987D01*
G37*
G36*
X84731913Y-120115381D02*
G01*
X84734619Y-120118087D01*
X84735000Y-120120000D01*
X84735000Y-123880000D01*
X84734619Y-123881913D01*
X84731913Y-123884619D01*
X84730000Y-123885000D01*
X84723860Y-123885000D01*
X80976140Y-123885000D01*
X80970000Y-123885000D01*
X80968087Y-123884619D01*
X80965381Y-123881913D01*
X80965000Y-123880000D01*
X80965000Y-120120000D01*
X80965381Y-120118087D01*
X80968087Y-120115381D01*
X80970000Y-120115000D01*
X84730000Y-120115000D01*
X84731913Y-120115381D01*
G37*
G36*
X65945577Y-108242832D02*
G01*
X66322730Y-108320339D01*
X66690107Y-108435604D01*
X67043938Y-108587445D01*
X67380592Y-108774303D01*
X67696615Y-108994261D01*
X67988763Y-109245063D01*
X68254040Y-109524133D01*
X68489722Y-109828610D01*
X68693391Y-110155367D01*
X68862959Y-110501053D01*
X68996683Y-110862121D01*
X69093193Y-111234864D01*
X69151498Y-111615459D01*
X69171000Y-112000000D01*
X69151498Y-112384541D01*
X69093193Y-112765136D01*
X68996683Y-113137879D01*
X68862959Y-113498947D01*
X68693391Y-113844633D01*
X68489722Y-114171390D01*
X68254040Y-114475867D01*
X67988763Y-114754937D01*
X67696615Y-115005739D01*
X67380592Y-115225697D01*
X67043938Y-115412555D01*
X66690107Y-115564396D01*
X66322730Y-115679661D01*
X65945577Y-115757168D01*
X65562517Y-115796121D01*
X65177483Y-115796121D01*
X64794423Y-115757168D01*
X64417270Y-115679661D01*
X64049893Y-115564396D01*
X63696062Y-115412555D01*
X63359408Y-115225697D01*
X63043385Y-115005739D01*
X62751237Y-114754937D01*
X62485960Y-114475867D01*
X62250278Y-114171390D01*
X62046609Y-113844633D01*
X61877041Y-113498947D01*
X61743317Y-113137879D01*
X61646807Y-112765136D01*
X61588502Y-112384541D01*
X61569000Y-112000000D01*
X61588502Y-111615459D01*
X61646807Y-111234864D01*
X61743317Y-110862121D01*
X61877041Y-110501053D01*
X62046609Y-110155367D01*
X62250278Y-109828610D01*
X62485960Y-109524133D01*
X62751237Y-109245063D01*
X63043385Y-108994261D01*
X63359408Y-108774303D01*
X63696062Y-108587445D01*
X64049893Y-108435604D01*
X64417270Y-108320339D01*
X64794423Y-108242832D01*
X65177483Y-108203879D01*
X65562517Y-108203879D01*
X65945577Y-108242832D01*
G37*
G36*
X83445577Y-108242832D02*
G01*
X83822730Y-108320339D01*
X84190107Y-108435604D01*
X84543938Y-108587445D01*
X84880592Y-108774303D01*
X85196615Y-108994261D01*
X85488763Y-109245063D01*
X85754040Y-109524133D01*
X85989722Y-109828610D01*
X86193391Y-110155367D01*
X86362959Y-110501053D01*
X86496683Y-110862121D01*
X86593193Y-111234864D01*
X86651498Y-111615459D01*
X86671000Y-112000000D01*
X86651498Y-112384541D01*
X86593193Y-112765136D01*
X86496683Y-113137879D01*
X86362959Y-113498947D01*
X86193391Y-113844633D01*
X85989722Y-114171390D01*
X85754040Y-114475867D01*
X85488763Y-114754937D01*
X85196615Y-115005739D01*
X84880592Y-115225697D01*
X84543938Y-115412555D01*
X84190107Y-115564396D01*
X83822730Y-115679661D01*
X83445577Y-115757168D01*
X83062517Y-115796121D01*
X82677483Y-115796121D01*
X82294423Y-115757168D01*
X81917270Y-115679661D01*
X81549893Y-115564396D01*
X81196062Y-115412555D01*
X80859408Y-115225697D01*
X80543385Y-115005739D01*
X80251237Y-114754937D01*
X79985960Y-114475867D01*
X79750278Y-114171390D01*
X79546609Y-113844633D01*
X79377041Y-113498947D01*
X79243317Y-113137879D01*
X79146807Y-112765136D01*
X79088502Y-112384541D01*
X79069000Y-112000000D01*
X79088502Y-111615459D01*
X79146807Y-111234864D01*
X79243317Y-110862121D01*
X79377041Y-110501053D01*
X79546609Y-110155367D01*
X79750278Y-109828610D01*
X79985960Y-109524133D01*
X80251237Y-109245063D01*
X80543385Y-108994261D01*
X80859408Y-108774303D01*
X81196062Y-108587445D01*
X81549893Y-108435604D01*
X81917270Y-108320339D01*
X82294423Y-108242832D01*
X82677483Y-108203879D01*
X83062517Y-108203879D01*
X83445577Y-108242832D01*
G37*
G36*
X113345577Y-108242832D02*
G01*
X113722730Y-108320339D01*
X114090107Y-108435604D01*
X114443938Y-108587445D01*
X114780592Y-108774303D01*
X115096615Y-108994261D01*
X115388763Y-109245063D01*
X115654040Y-109524133D01*
X115889722Y-109828610D01*
X116093391Y-110155367D01*
X116262959Y-110501053D01*
X116396683Y-110862121D01*
X116493193Y-111234864D01*
X116551498Y-111615459D01*
X116571000Y-112000000D01*
X116551498Y-112384541D01*
X116493193Y-112765136D01*
X116396683Y-113137879D01*
X116262959Y-113498947D01*
X116093391Y-113844633D01*
X115889722Y-114171390D01*
X115654040Y-114475867D01*
X115388763Y-114754937D01*
X115096615Y-115005739D01*
X114780592Y-115225697D01*
X114443938Y-115412555D01*
X114090107Y-115564396D01*
X113722730Y-115679661D01*
X113345577Y-115757168D01*
X112962517Y-115796121D01*
X112577483Y-115796121D01*
X112194423Y-115757168D01*
X111817270Y-115679661D01*
X111449893Y-115564396D01*
X111096062Y-115412555D01*
X110759408Y-115225697D01*
X110443385Y-115005739D01*
X110151237Y-114754937D01*
X109885960Y-114475867D01*
X109650278Y-114171390D01*
X109446609Y-113844633D01*
X109277041Y-113498947D01*
X109143317Y-113137879D01*
X109046807Y-112765136D01*
X108988502Y-112384541D01*
X108969000Y-112000000D01*
X108988502Y-111615459D01*
X109046807Y-111234864D01*
X109143317Y-110862121D01*
X109277041Y-110501053D01*
X109446609Y-110155367D01*
X109650278Y-109828610D01*
X109885960Y-109524133D01*
X110151237Y-109245063D01*
X110443385Y-108994261D01*
X110759408Y-108774303D01*
X111096062Y-108587445D01*
X111449893Y-108435604D01*
X111817270Y-108320339D01*
X112194423Y-108242832D01*
X112577483Y-108203879D01*
X112962517Y-108203879D01*
X113345577Y-108242832D01*
G37*
G36*
X54316038Y-110103723D02*
G01*
X54379707Y-110103723D01*
X54448778Y-110113216D01*
X54520541Y-110118349D01*
X54579609Y-110131198D01*
X54636711Y-110139047D01*
X54709714Y-110159501D01*
X54785574Y-110176004D01*
X54836788Y-110195106D01*
X54886512Y-110209038D01*
X54961688Y-110241691D01*
X55039704Y-110270790D01*
X55082578Y-110294201D01*
X55124442Y-110312385D01*
X55199755Y-110358184D01*
X55277758Y-110400777D01*
X55312229Y-110426582D01*
X55346106Y-110447183D01*
X55419352Y-110506773D01*
X55494890Y-110563320D01*
X55521212Y-110589642D01*
X55547333Y-110610893D01*
X55616174Y-110684604D01*
X55686680Y-110755110D01*
X55705494Y-110780242D01*
X55724399Y-110800485D01*
X55786409Y-110888333D01*
X55849223Y-110972242D01*
X55861464Y-110994660D01*
X55874002Y-111012422D01*
X55926752Y-111114227D01*
X55979210Y-111210296D01*
X55986093Y-111228751D01*
X55993348Y-111242752D01*
X56034429Y-111358345D01*
X56073996Y-111464426D01*
X56076939Y-111477955D01*
X56080225Y-111487201D01*
X56107442Y-111618176D01*
X56131651Y-111729459D01*
X56132219Y-111737404D01*
X56133004Y-111741181D01*
X56144284Y-111906105D01*
X56151000Y-112000000D01*
X56144284Y-112093902D01*
X56133004Y-112258818D01*
X56132219Y-112262593D01*
X56131651Y-112270541D01*
X56107437Y-112381845D01*
X56080225Y-112512798D01*
X56076939Y-112522041D01*
X56073996Y-112535574D01*
X56034422Y-112641674D01*
X55993348Y-112757247D01*
X55986094Y-112771245D01*
X55979210Y-112789704D01*
X55926742Y-112885791D01*
X55874002Y-112987577D01*
X55861466Y-113005335D01*
X55849223Y-113027758D01*
X55786397Y-113111683D01*
X55724399Y-113199514D01*
X55705498Y-113219752D01*
X55686680Y-113244890D01*
X55616160Y-113315409D01*
X55547333Y-113389106D01*
X55521217Y-113410352D01*
X55494890Y-113436680D01*
X55419336Y-113493238D01*
X55346106Y-113552816D01*
X55312236Y-113573412D01*
X55277758Y-113599223D01*
X55199739Y-113641824D01*
X55124442Y-113687614D01*
X55082587Y-113705793D01*
X55039704Y-113729210D01*
X54961672Y-113758314D01*
X54886512Y-113790961D01*
X54836799Y-113804889D01*
X54785574Y-113823996D01*
X54709698Y-113840501D01*
X54636711Y-113860952D01*
X54579618Y-113868799D01*
X54520541Y-113881651D01*
X54448774Y-113886783D01*
X54379707Y-113896277D01*
X54316038Y-113896277D01*
X54250000Y-113901000D01*
X54183962Y-113896277D01*
X54120293Y-113896277D01*
X54051224Y-113886783D01*
X53979459Y-113881651D01*
X53920382Y-113868799D01*
X53863288Y-113860952D01*
X53790297Y-113840500D01*
X53714426Y-113823996D01*
X53663203Y-113804890D01*
X53613487Y-113790961D01*
X53538320Y-113758311D01*
X53460296Y-113729210D01*
X53417416Y-113705795D01*
X53375557Y-113687614D01*
X53300251Y-113641819D01*
X53222242Y-113599223D01*
X53187767Y-113573415D01*
X53153893Y-113552816D01*
X53080650Y-113493228D01*
X53005110Y-113436680D01*
X52978786Y-113410356D01*
X52952666Y-113389106D01*
X52883824Y-113315394D01*
X52813320Y-113244890D01*
X52794506Y-113219757D01*
X52775600Y-113199514D01*
X52713584Y-113111659D01*
X52650777Y-113027758D01*
X52638536Y-113005341D01*
X52625997Y-112987577D01*
X52573238Y-112885755D01*
X52520790Y-112789704D01*
X52513907Y-112771252D01*
X52506651Y-112757247D01*
X52465556Y-112641617D01*
X52426004Y-112535574D01*
X52423061Y-112522048D01*
X52419774Y-112512798D01*
X52392539Y-112381742D01*
X52368349Y-112270541D01*
X52367781Y-112262600D01*
X52366995Y-112258818D01*
X52355692Y-112093582D01*
X52349000Y-112000000D01*
X52355692Y-111906425D01*
X52366995Y-111741181D01*
X52367781Y-111737397D01*
X52368349Y-111729459D01*
X52392535Y-111618278D01*
X52419774Y-111487201D01*
X52423062Y-111477948D01*
X52426004Y-111464426D01*
X52465548Y-111358402D01*
X52506651Y-111242752D01*
X52513909Y-111228744D01*
X52520790Y-111210296D01*
X52573227Y-111114262D01*
X52625997Y-111012422D01*
X52638539Y-110994654D01*
X52650777Y-110972242D01*
X52713572Y-110888356D01*
X52775600Y-110800485D01*
X52794509Y-110780237D01*
X52813320Y-110755110D01*
X52883810Y-110684619D01*
X52952666Y-110610893D01*
X52978792Y-110589637D01*
X53005110Y-110563320D01*
X53080635Y-110506782D01*
X53153893Y-110447183D01*
X53187774Y-110426578D01*
X53222242Y-110400777D01*
X53300235Y-110358189D01*
X53375557Y-110312385D01*
X53417425Y-110294199D01*
X53460296Y-110270790D01*
X53538304Y-110241694D01*
X53613487Y-110209038D01*
X53663214Y-110195105D01*
X53714426Y-110176004D01*
X53790281Y-110159502D01*
X53863288Y-110139047D01*
X53920392Y-110131198D01*
X53979459Y-110118349D01*
X54051220Y-110113216D01*
X54120293Y-110103723D01*
X54183962Y-110103723D01*
X54250000Y-110099000D01*
X54316038Y-110103723D01*
G37*
G36*
X96536038Y-110103723D02*
G01*
X96599707Y-110103723D01*
X96668778Y-110113216D01*
X96740541Y-110118349D01*
X96799609Y-110131198D01*
X96856711Y-110139047D01*
X96929714Y-110159501D01*
X97005574Y-110176004D01*
X97056788Y-110195106D01*
X97106512Y-110209038D01*
X97181688Y-110241691D01*
X97259704Y-110270790D01*
X97302578Y-110294201D01*
X97344442Y-110312385D01*
X97419755Y-110358184D01*
X97497758Y-110400777D01*
X97532229Y-110426582D01*
X97566106Y-110447183D01*
X97639352Y-110506773D01*
X97714890Y-110563320D01*
X97741212Y-110589642D01*
X97767333Y-110610893D01*
X97836174Y-110684604D01*
X97906680Y-110755110D01*
X97925494Y-110780242D01*
X97944399Y-110800485D01*
X98006409Y-110888333D01*
X98069223Y-110972242D01*
X98081464Y-110994660D01*
X98094002Y-111012422D01*
X98146752Y-111114227D01*
X98199210Y-111210296D01*
X98206093Y-111228751D01*
X98213348Y-111242752D01*
X98254429Y-111358345D01*
X98293996Y-111464426D01*
X98296939Y-111477955D01*
X98300225Y-111487201D01*
X98327442Y-111618176D01*
X98351651Y-111729459D01*
X98352219Y-111737404D01*
X98353004Y-111741181D01*
X98364284Y-111906105D01*
X98371000Y-112000000D01*
X98364284Y-112093902D01*
X98353004Y-112258818D01*
X98352219Y-112262593D01*
X98351651Y-112270541D01*
X98327437Y-112381845D01*
X98300225Y-112512798D01*
X98296939Y-112522041D01*
X98293996Y-112535574D01*
X98254422Y-112641674D01*
X98213348Y-112757247D01*
X98206094Y-112771245D01*
X98199210Y-112789704D01*
X98146742Y-112885791D01*
X98094002Y-112987577D01*
X98081466Y-113005335D01*
X98069223Y-113027758D01*
X98006397Y-113111683D01*
X97944399Y-113199514D01*
X97925498Y-113219752D01*
X97906680Y-113244890D01*
X97836160Y-113315409D01*
X97767333Y-113389106D01*
X97741217Y-113410352D01*
X97714890Y-113436680D01*
X97639336Y-113493238D01*
X97566106Y-113552816D01*
X97532236Y-113573412D01*
X97497758Y-113599223D01*
X97419739Y-113641824D01*
X97344442Y-113687614D01*
X97302587Y-113705793D01*
X97259704Y-113729210D01*
X97181672Y-113758314D01*
X97106512Y-113790961D01*
X97056799Y-113804889D01*
X97005574Y-113823996D01*
X96929698Y-113840501D01*
X96856711Y-113860952D01*
X96799618Y-113868799D01*
X96740541Y-113881651D01*
X96668774Y-113886783D01*
X96599707Y-113896277D01*
X96536038Y-113896277D01*
X96470000Y-113901000D01*
X96403962Y-113896277D01*
X96340293Y-113896277D01*
X96271224Y-113886783D01*
X96199459Y-113881651D01*
X96140382Y-113868799D01*
X96083288Y-113860952D01*
X96010297Y-113840500D01*
X95934426Y-113823996D01*
X95883203Y-113804890D01*
X95833487Y-113790961D01*
X95758320Y-113758311D01*
X95680296Y-113729210D01*
X95637416Y-113705795D01*
X95595557Y-113687614D01*
X95520251Y-113641819D01*
X95442242Y-113599223D01*
X95407767Y-113573415D01*
X95373893Y-113552816D01*
X95300650Y-113493228D01*
X95225110Y-113436680D01*
X95198786Y-113410356D01*
X95172666Y-113389106D01*
X95103824Y-113315394D01*
X95033320Y-113244890D01*
X95014506Y-113219757D01*
X94995600Y-113199514D01*
X94933584Y-113111659D01*
X94870777Y-113027758D01*
X94858536Y-113005341D01*
X94845997Y-112987577D01*
X94793238Y-112885755D01*
X94740790Y-112789704D01*
X94733907Y-112771252D01*
X94726651Y-112757247D01*
X94685556Y-112641617D01*
X94646004Y-112535574D01*
X94643061Y-112522048D01*
X94639774Y-112512798D01*
X94612539Y-112381742D01*
X94588349Y-112270541D01*
X94587781Y-112262600D01*
X94586995Y-112258818D01*
X94575692Y-112093582D01*
X94569000Y-112000000D01*
X94575692Y-111906425D01*
X94586995Y-111741181D01*
X94587781Y-111737397D01*
X94588349Y-111729459D01*
X94612535Y-111618278D01*
X94639774Y-111487201D01*
X94643062Y-111477948D01*
X94646004Y-111464426D01*
X94685548Y-111358402D01*
X94726651Y-111242752D01*
X94733909Y-111228744D01*
X94740790Y-111210296D01*
X94793227Y-111114262D01*
X94845997Y-111012422D01*
X94858539Y-110994654D01*
X94870777Y-110972242D01*
X94933572Y-110888356D01*
X94995600Y-110800485D01*
X95014509Y-110780237D01*
X95033320Y-110755110D01*
X95103810Y-110684619D01*
X95172666Y-110610893D01*
X95198792Y-110589637D01*
X95225110Y-110563320D01*
X95300635Y-110506782D01*
X95373893Y-110447183D01*
X95407774Y-110426578D01*
X95442242Y-110400777D01*
X95520235Y-110358189D01*
X95595557Y-110312385D01*
X95637425Y-110294199D01*
X95680296Y-110270790D01*
X95758304Y-110241694D01*
X95833487Y-110209038D01*
X95883214Y-110195105D01*
X95934426Y-110176004D01*
X96010281Y-110159502D01*
X96083288Y-110139047D01*
X96140392Y-110131198D01*
X96199459Y-110118349D01*
X96271220Y-110113216D01*
X96340293Y-110103723D01*
X96403962Y-110103723D01*
X96470000Y-110099000D01*
X96536038Y-110103723D01*
G37*
G36*
X104851913Y-110115381D02*
G01*
X104854619Y-110118087D01*
X104855000Y-110120000D01*
X104855000Y-113880000D01*
X104854619Y-113881913D01*
X104851913Y-113884619D01*
X104850000Y-113885000D01*
X104843860Y-113885000D01*
X101096140Y-113885000D01*
X101090000Y-113885000D01*
X101088087Y-113884619D01*
X101085381Y-113881913D01*
X101085000Y-113880000D01*
X101085000Y-110120000D01*
X101085381Y-110118087D01*
X101088087Y-110115381D01*
X101090000Y-110115000D01*
X104850000Y-110115000D01*
X104851913Y-110115381D01*
G37*
G36*
X75478460Y-110544987D02*
G01*
X75540566Y-110544987D01*
X75596006Y-110554238D01*
X75648337Y-110558357D01*
X75711362Y-110573487D01*
X75778409Y-110584676D01*
X75825958Y-110600999D01*
X75871041Y-110611823D01*
X75936659Y-110639003D01*
X76006475Y-110662971D01*
X76045474Y-110684076D01*
X76082652Y-110699476D01*
X76148550Y-110739858D01*
X76218544Y-110777737D01*
X76248829Y-110801309D01*
X76277940Y-110819148D01*
X76341557Y-110873482D01*
X76408831Y-110925843D01*
X76430774Y-110949679D01*
X76452103Y-110967896D01*
X76510666Y-111036466D01*
X76572145Y-111103249D01*
X76586597Y-111125370D01*
X76600851Y-111142059D01*
X76651497Y-111224706D01*
X76704032Y-111305117D01*
X76712241Y-111323832D01*
X76720523Y-111337347D01*
X76760445Y-111433727D01*
X76800893Y-111525939D01*
X76804435Y-111539927D01*
X76808176Y-111548958D01*
X76834694Y-111659416D01*
X76860088Y-111759692D01*
X76860783Y-111768086D01*
X76861642Y-111771662D01*
X76872285Y-111906900D01*
X76880000Y-112000000D01*
X76872285Y-112093107D01*
X76861642Y-112228337D01*
X76860783Y-112231912D01*
X76860088Y-112240308D01*
X76834689Y-112340601D01*
X76808176Y-112451041D01*
X76804436Y-112460069D01*
X76800893Y-112474061D01*
X76760438Y-112566289D01*
X76720523Y-112662652D01*
X76712242Y-112676164D01*
X76704032Y-112694883D01*
X76651487Y-112775308D01*
X76600851Y-112857940D01*
X76586600Y-112874625D01*
X76572145Y-112896751D01*
X76510655Y-112963546D01*
X76452103Y-113032103D01*
X76430778Y-113050315D01*
X76408831Y-113074157D01*
X76341544Y-113126527D01*
X76277940Y-113180851D01*
X76248835Y-113198685D01*
X76218544Y-113222263D01*
X76148536Y-113260149D01*
X76082652Y-113300523D01*
X76045481Y-113315919D01*
X76006475Y-113337029D01*
X75936645Y-113361001D01*
X75871041Y-113388176D01*
X75825968Y-113398996D01*
X75778409Y-113415324D01*
X75711348Y-113426514D01*
X75648337Y-113441642D01*
X75596017Y-113445759D01*
X75540566Y-113455013D01*
X75478447Y-113455013D01*
X75420000Y-113459613D01*
X75361553Y-113455013D01*
X75299434Y-113455013D01*
X75243982Y-113445759D01*
X75191662Y-113441642D01*
X75128648Y-113426513D01*
X75061591Y-113415324D01*
X75014033Y-113398997D01*
X74968958Y-113388176D01*
X74903348Y-113360999D01*
X74833525Y-113337029D01*
X74794521Y-113315921D01*
X74757347Y-113300523D01*
X74691455Y-113260144D01*
X74621456Y-113222263D01*
X74591167Y-113198688D01*
X74562059Y-113180851D01*
X74498444Y-113126519D01*
X74431169Y-113074157D01*
X74409225Y-113050319D01*
X74387896Y-113032103D01*
X74329331Y-112963531D01*
X74267855Y-112896751D01*
X74253403Y-112874630D01*
X74239148Y-112857940D01*
X74188496Y-112775283D01*
X74135968Y-112694883D01*
X74127759Y-112676169D01*
X74119476Y-112662652D01*
X74079543Y-112566248D01*
X74039107Y-112474061D01*
X74035565Y-112460076D01*
X74031823Y-112451041D01*
X74005290Y-112340525D01*
X73979912Y-112240308D01*
X73979216Y-112231918D01*
X73978357Y-112228337D01*
X73967694Y-112092866D01*
X73960000Y-112000000D01*
X73967694Y-111907140D01*
X73978357Y-111771662D01*
X73979216Y-111768079D01*
X73979912Y-111759692D01*
X74005286Y-111659492D01*
X74031823Y-111548958D01*
X74035566Y-111539921D01*
X74039107Y-111525939D01*
X74079536Y-111433768D01*
X74119476Y-111337347D01*
X74127761Y-111323826D01*
X74135968Y-111305117D01*
X74188486Y-111224731D01*
X74239148Y-111142059D01*
X74253405Y-111125365D01*
X74267855Y-111103249D01*
X74329319Y-111036481D01*
X74387896Y-110967896D01*
X74409229Y-110949675D01*
X74431169Y-110925843D01*
X74498430Y-110873491D01*
X74562059Y-110819148D01*
X74591173Y-110801306D01*
X74621456Y-110777737D01*
X74691441Y-110739862D01*
X74757347Y-110699476D01*
X74794529Y-110684074D01*
X74833525Y-110662971D01*
X74903334Y-110639005D01*
X74968958Y-110611823D01*
X75014043Y-110600998D01*
X75061591Y-110584676D01*
X75128634Y-110573488D01*
X75191662Y-110558357D01*
X75243994Y-110554238D01*
X75299434Y-110544987D01*
X75361540Y-110544987D01*
X75420000Y-110540386D01*
X75478460Y-110544987D01*
G37*
G36*
X113345577Y-94242832D02*
G01*
X113722730Y-94320339D01*
X114090107Y-94435604D01*
X114443938Y-94587445D01*
X114780592Y-94774303D01*
X115096615Y-94994261D01*
X115388763Y-95245063D01*
X115654040Y-95524133D01*
X115889722Y-95828610D01*
X116093391Y-96155367D01*
X116262959Y-96501053D01*
X116396683Y-96862121D01*
X116493193Y-97234864D01*
X116551498Y-97615459D01*
X116571000Y-98000000D01*
X116551498Y-98384541D01*
X116493193Y-98765136D01*
X116396683Y-99137879D01*
X116262959Y-99498947D01*
X116093391Y-99844633D01*
X115889722Y-100171390D01*
X115654040Y-100475867D01*
X115388763Y-100754937D01*
X115096615Y-101005739D01*
X114780592Y-101225697D01*
X114443938Y-101412555D01*
X114090107Y-101564396D01*
X113722730Y-101679661D01*
X113345577Y-101757168D01*
X112962517Y-101796121D01*
X112577483Y-101796121D01*
X112194423Y-101757168D01*
X111817270Y-101679661D01*
X111449893Y-101564396D01*
X111096062Y-101412555D01*
X110759408Y-101225697D01*
X110443385Y-101005739D01*
X110151237Y-100754937D01*
X109885960Y-100475867D01*
X109650278Y-100171390D01*
X109446609Y-99844633D01*
X109277041Y-99498947D01*
X109143317Y-99137879D01*
X109046807Y-98765136D01*
X108988502Y-98384541D01*
X108969000Y-98000000D01*
X108988502Y-97615459D01*
X109046807Y-97234864D01*
X109143317Y-96862121D01*
X109277041Y-96501053D01*
X109446609Y-96155367D01*
X109650278Y-95828610D01*
X109885960Y-95524133D01*
X110151237Y-95245063D01*
X110443385Y-94994261D01*
X110759408Y-94774303D01*
X111096062Y-94587445D01*
X111449893Y-94435604D01*
X111817270Y-94320339D01*
X112194423Y-94242832D01*
X112577483Y-94203879D01*
X112962517Y-94203879D01*
X113345577Y-94242832D01*
G37*
G36*
X96536038Y-96103723D02*
G01*
X96599707Y-96103723D01*
X96668778Y-96113216D01*
X96740541Y-96118349D01*
X96799609Y-96131198D01*
X96856711Y-96139047D01*
X96929714Y-96159501D01*
X97005574Y-96176004D01*
X97056788Y-96195106D01*
X97106512Y-96209038D01*
X97181688Y-96241691D01*
X97259704Y-96270790D01*
X97302578Y-96294201D01*
X97344442Y-96312385D01*
X97419755Y-96358184D01*
X97497758Y-96400777D01*
X97532229Y-96426582D01*
X97566106Y-96447183D01*
X97639352Y-96506773D01*
X97714890Y-96563320D01*
X97741212Y-96589642D01*
X97767333Y-96610893D01*
X97836174Y-96684604D01*
X97906680Y-96755110D01*
X97925494Y-96780242D01*
X97944399Y-96800485D01*
X98006409Y-96888333D01*
X98069223Y-96972242D01*
X98081464Y-96994660D01*
X98094002Y-97012422D01*
X98146752Y-97114227D01*
X98199210Y-97210296D01*
X98206093Y-97228751D01*
X98213348Y-97242752D01*
X98254429Y-97358345D01*
X98293996Y-97464426D01*
X98296939Y-97477955D01*
X98300225Y-97487201D01*
X98327442Y-97618176D01*
X98351651Y-97729459D01*
X98352219Y-97737404D01*
X98353004Y-97741181D01*
X98364284Y-97906105D01*
X98371000Y-98000000D01*
X98364284Y-98093902D01*
X98353004Y-98258818D01*
X98352219Y-98262593D01*
X98351651Y-98270541D01*
X98327437Y-98381845D01*
X98300225Y-98512798D01*
X98296939Y-98522041D01*
X98293996Y-98535574D01*
X98254422Y-98641674D01*
X98213348Y-98757247D01*
X98206094Y-98771245D01*
X98199210Y-98789704D01*
X98146742Y-98885791D01*
X98094002Y-98987577D01*
X98081466Y-99005335D01*
X98069223Y-99027758D01*
X98006397Y-99111683D01*
X97944399Y-99199514D01*
X97925498Y-99219752D01*
X97906680Y-99244890D01*
X97836160Y-99315409D01*
X97767333Y-99389106D01*
X97741217Y-99410352D01*
X97714890Y-99436680D01*
X97639336Y-99493238D01*
X97566106Y-99552816D01*
X97532236Y-99573412D01*
X97497758Y-99599223D01*
X97419739Y-99641824D01*
X97344442Y-99687614D01*
X97302587Y-99705793D01*
X97259704Y-99729210D01*
X97181672Y-99758314D01*
X97106512Y-99790961D01*
X97056799Y-99804889D01*
X97005574Y-99823996D01*
X96929698Y-99840501D01*
X96856711Y-99860952D01*
X96799618Y-99868799D01*
X96740541Y-99881651D01*
X96668774Y-99886783D01*
X96599707Y-99896277D01*
X96536038Y-99896277D01*
X96470000Y-99901000D01*
X96403962Y-99896277D01*
X96340293Y-99896277D01*
X96271224Y-99886783D01*
X96199459Y-99881651D01*
X96140382Y-99868799D01*
X96083288Y-99860952D01*
X96010297Y-99840500D01*
X95934426Y-99823996D01*
X95883203Y-99804890D01*
X95833487Y-99790961D01*
X95758320Y-99758311D01*
X95680296Y-99729210D01*
X95637416Y-99705795D01*
X95595557Y-99687614D01*
X95520251Y-99641819D01*
X95442242Y-99599223D01*
X95407767Y-99573415D01*
X95373893Y-99552816D01*
X95300650Y-99493228D01*
X95225110Y-99436680D01*
X95198786Y-99410356D01*
X95172666Y-99389106D01*
X95103824Y-99315394D01*
X95033320Y-99244890D01*
X95014506Y-99219757D01*
X94995600Y-99199514D01*
X94933584Y-99111659D01*
X94870777Y-99027758D01*
X94858536Y-99005341D01*
X94845997Y-98987577D01*
X94793238Y-98885755D01*
X94740790Y-98789704D01*
X94733907Y-98771252D01*
X94726651Y-98757247D01*
X94685556Y-98641617D01*
X94646004Y-98535574D01*
X94643061Y-98522048D01*
X94639774Y-98512798D01*
X94612539Y-98381742D01*
X94588349Y-98270541D01*
X94587781Y-98262600D01*
X94586995Y-98258818D01*
X94575692Y-98093582D01*
X94569000Y-98000000D01*
X94575692Y-97906425D01*
X94586995Y-97741181D01*
X94587781Y-97737397D01*
X94588349Y-97729459D01*
X94612535Y-97618278D01*
X94639774Y-97487201D01*
X94643062Y-97477948D01*
X94646004Y-97464426D01*
X94685548Y-97358402D01*
X94726651Y-97242752D01*
X94733909Y-97228744D01*
X94740790Y-97210296D01*
X94793227Y-97114262D01*
X94845997Y-97012422D01*
X94858539Y-96994654D01*
X94870777Y-96972242D01*
X94933572Y-96888356D01*
X94995600Y-96800485D01*
X95014509Y-96780237D01*
X95033320Y-96755110D01*
X95103810Y-96684619D01*
X95172666Y-96610893D01*
X95198792Y-96589637D01*
X95225110Y-96563320D01*
X95300635Y-96506782D01*
X95373893Y-96447183D01*
X95407774Y-96426578D01*
X95442242Y-96400777D01*
X95520235Y-96358189D01*
X95595557Y-96312385D01*
X95637425Y-96294199D01*
X95680296Y-96270790D01*
X95758304Y-96241694D01*
X95833487Y-96209038D01*
X95883214Y-96195105D01*
X95934426Y-96176004D01*
X96010281Y-96159502D01*
X96083288Y-96139047D01*
X96140392Y-96131198D01*
X96199459Y-96118349D01*
X96271220Y-96113216D01*
X96340293Y-96103723D01*
X96403962Y-96103723D01*
X96470000Y-96099000D01*
X96536038Y-96103723D01*
G37*
G36*
X104851913Y-96115381D02*
G01*
X104854619Y-96118087D01*
X104855000Y-96120000D01*
X104855000Y-99880000D01*
X104854619Y-99881913D01*
X104851913Y-99884619D01*
X104850000Y-99885000D01*
X104843860Y-99885000D01*
X101096140Y-99885000D01*
X101090000Y-99885000D01*
X101088087Y-99884619D01*
X101085381Y-99881913D01*
X101085000Y-99880000D01*
X101085000Y-96120000D01*
X101085381Y-96118087D01*
X101088087Y-96115381D01*
X101090000Y-96115000D01*
X104850000Y-96115000D01*
X104851913Y-96115381D01*
G37*
G36*
X76344454Y-88842450D02*
G01*
X76768323Y-88919371D01*
X77183591Y-89033978D01*
X77586913Y-89185347D01*
X77975043Y-89372261D01*
X78344856Y-89593214D01*
X78693375Y-89846427D01*
X79017792Y-90129862D01*
X79315496Y-90441236D01*
X79584091Y-90778043D01*
X79821413Y-91137571D01*
X80025552Y-91516924D01*
X80194864Y-91913049D01*
X80327986Y-92322757D01*
X80423846Y-92742748D01*
X80481673Y-93169642D01*
X80501000Y-93600000D01*
X80481673Y-94030358D01*
X80423846Y-94457252D01*
X80327986Y-94877243D01*
X80194864Y-95286951D01*
X80025552Y-95683076D01*
X79821413Y-96062429D01*
X79584091Y-96421957D01*
X79315496Y-96758764D01*
X79017792Y-97070138D01*
X78693375Y-97353573D01*
X78344856Y-97606786D01*
X77975043Y-97827739D01*
X77586913Y-98014653D01*
X77183591Y-98166022D01*
X76768323Y-98280629D01*
X76344454Y-98357550D01*
X75915396Y-98396166D01*
X75484604Y-98396166D01*
X75055546Y-98357550D01*
X74631677Y-98280629D01*
X74216409Y-98166022D01*
X73813087Y-98014653D01*
X73424957Y-97827739D01*
X73055144Y-97606786D01*
X72706625Y-97353573D01*
X72382208Y-97070138D01*
X72084504Y-96758764D01*
X71815909Y-96421957D01*
X71578587Y-96062429D01*
X71374448Y-95683076D01*
X71205136Y-95286951D01*
X71072014Y-94877243D01*
X70976154Y-94457252D01*
X70918327Y-94030358D01*
X70899000Y-93600000D01*
X70918327Y-93169642D01*
X70976154Y-92742748D01*
X71072014Y-92322757D01*
X71205136Y-91913049D01*
X71374448Y-91516924D01*
X71578587Y-91137571D01*
X71815909Y-90778043D01*
X72084504Y-90441236D01*
X72382208Y-90129862D01*
X72706625Y-89846427D01*
X73055144Y-89593214D01*
X73424957Y-89372261D01*
X73813087Y-89185347D01*
X74216409Y-89033978D01*
X74631677Y-88919371D01*
X75055546Y-88842450D01*
X75484604Y-88803834D01*
X75915396Y-88803834D01*
X76344454Y-88842450D01*
G37*
G36*
X113345577Y-82242832D02*
G01*
X113722730Y-82320339D01*
X114090107Y-82435604D01*
X114443938Y-82587445D01*
X114780592Y-82774303D01*
X115096615Y-82994261D01*
X115388763Y-83245063D01*
X115654040Y-83524133D01*
X115889722Y-83828610D01*
X116093391Y-84155367D01*
X116262959Y-84501053D01*
X116396683Y-84862121D01*
X116493193Y-85234864D01*
X116551498Y-85615459D01*
X116571000Y-86000000D01*
X116551498Y-86384541D01*
X116493193Y-86765136D01*
X116396683Y-87137879D01*
X116262959Y-87498947D01*
X116093391Y-87844633D01*
X115889722Y-88171390D01*
X115654040Y-88475867D01*
X115388763Y-88754937D01*
X115096615Y-89005739D01*
X114780592Y-89225697D01*
X114443938Y-89412555D01*
X114090107Y-89564396D01*
X113722730Y-89679661D01*
X113345577Y-89757168D01*
X112962517Y-89796121D01*
X112577483Y-89796121D01*
X112194423Y-89757168D01*
X111817270Y-89679661D01*
X111449893Y-89564396D01*
X111096062Y-89412555D01*
X110759408Y-89225697D01*
X110443385Y-89005739D01*
X110151237Y-88754937D01*
X109885960Y-88475867D01*
X109650278Y-88171390D01*
X109446609Y-87844633D01*
X109277041Y-87498947D01*
X109143317Y-87137879D01*
X109046807Y-86765136D01*
X108988502Y-86384541D01*
X108969000Y-86000000D01*
X108988502Y-85615459D01*
X109046807Y-85234864D01*
X109143317Y-84862121D01*
X109277041Y-84501053D01*
X109446609Y-84155367D01*
X109650278Y-83828610D01*
X109885960Y-83524133D01*
X110151237Y-83245063D01*
X110443385Y-82994261D01*
X110759408Y-82774303D01*
X111096062Y-82587445D01*
X111449893Y-82435604D01*
X111817270Y-82320339D01*
X112194423Y-82242832D01*
X112577483Y-82203879D01*
X112962517Y-82203879D01*
X113345577Y-82242832D01*
G37*
G36*
X96536038Y-84103723D02*
G01*
X96599707Y-84103723D01*
X96668778Y-84113216D01*
X96740541Y-84118349D01*
X96799609Y-84131198D01*
X96856711Y-84139047D01*
X96929714Y-84159501D01*
X97005574Y-84176004D01*
X97056788Y-84195106D01*
X97106512Y-84209038D01*
X97181688Y-84241691D01*
X97259704Y-84270790D01*
X97302578Y-84294201D01*
X97344442Y-84312385D01*
X97419755Y-84358184D01*
X97497758Y-84400777D01*
X97532229Y-84426582D01*
X97566106Y-84447183D01*
X97639352Y-84506773D01*
X97714890Y-84563320D01*
X97741212Y-84589642D01*
X97767333Y-84610893D01*
X97836174Y-84684604D01*
X97906680Y-84755110D01*
X97925494Y-84780242D01*
X97944399Y-84800485D01*
X98006409Y-84888333D01*
X98069223Y-84972242D01*
X98081464Y-84994660D01*
X98094002Y-85012422D01*
X98146752Y-85114227D01*
X98199210Y-85210296D01*
X98206093Y-85228751D01*
X98213348Y-85242752D01*
X98254429Y-85358345D01*
X98293996Y-85464426D01*
X98296939Y-85477955D01*
X98300225Y-85487201D01*
X98327442Y-85618176D01*
X98351651Y-85729459D01*
X98352219Y-85737404D01*
X98353004Y-85741181D01*
X98364284Y-85906105D01*
X98371000Y-86000000D01*
X98364284Y-86093902D01*
X98353004Y-86258818D01*
X98352219Y-86262593D01*
X98351651Y-86270541D01*
X98327437Y-86381845D01*
X98300225Y-86512798D01*
X98296939Y-86522041D01*
X98293996Y-86535574D01*
X98254422Y-86641674D01*
X98213348Y-86757247D01*
X98206094Y-86771245D01*
X98199210Y-86789704D01*
X98146742Y-86885791D01*
X98094002Y-86987577D01*
X98081466Y-87005335D01*
X98069223Y-87027758D01*
X98006397Y-87111683D01*
X97944399Y-87199514D01*
X97925498Y-87219752D01*
X97906680Y-87244890D01*
X97836160Y-87315409D01*
X97767333Y-87389106D01*
X97741217Y-87410352D01*
X97714890Y-87436680D01*
X97639336Y-87493238D01*
X97566106Y-87552816D01*
X97532236Y-87573412D01*
X97497758Y-87599223D01*
X97419739Y-87641824D01*
X97344442Y-87687614D01*
X97302587Y-87705793D01*
X97259704Y-87729210D01*
X97181672Y-87758314D01*
X97106512Y-87790961D01*
X97056799Y-87804889D01*
X97005574Y-87823996D01*
X96929698Y-87840501D01*
X96856711Y-87860952D01*
X96799618Y-87868799D01*
X96740541Y-87881651D01*
X96668774Y-87886783D01*
X96599707Y-87896277D01*
X96536038Y-87896277D01*
X96470000Y-87901000D01*
X96403962Y-87896277D01*
X96340293Y-87896277D01*
X96271224Y-87886783D01*
X96199459Y-87881651D01*
X96140382Y-87868799D01*
X96083288Y-87860952D01*
X96010297Y-87840500D01*
X95934426Y-87823996D01*
X95883203Y-87804890D01*
X95833487Y-87790961D01*
X95758320Y-87758311D01*
X95680296Y-87729210D01*
X95637416Y-87705795D01*
X95595557Y-87687614D01*
X95520251Y-87641819D01*
X95442242Y-87599223D01*
X95407767Y-87573415D01*
X95373893Y-87552816D01*
X95300650Y-87493228D01*
X95225110Y-87436680D01*
X95198786Y-87410356D01*
X95172666Y-87389106D01*
X95103824Y-87315394D01*
X95033320Y-87244890D01*
X95014506Y-87219757D01*
X94995600Y-87199514D01*
X94933584Y-87111659D01*
X94870777Y-87027758D01*
X94858536Y-87005341D01*
X94845997Y-86987577D01*
X94793238Y-86885755D01*
X94740790Y-86789704D01*
X94733907Y-86771252D01*
X94726651Y-86757247D01*
X94685556Y-86641617D01*
X94646004Y-86535574D01*
X94643061Y-86522048D01*
X94639774Y-86512798D01*
X94612539Y-86381742D01*
X94588349Y-86270541D01*
X94587781Y-86262600D01*
X94586995Y-86258818D01*
X94575692Y-86093582D01*
X94569000Y-86000000D01*
X94575692Y-85906425D01*
X94586995Y-85741181D01*
X94587781Y-85737397D01*
X94588349Y-85729459D01*
X94612535Y-85618278D01*
X94639774Y-85487201D01*
X94643062Y-85477948D01*
X94646004Y-85464426D01*
X94685548Y-85358402D01*
X94726651Y-85242752D01*
X94733909Y-85228744D01*
X94740790Y-85210296D01*
X94793227Y-85114262D01*
X94845997Y-85012422D01*
X94858539Y-84994654D01*
X94870777Y-84972242D01*
X94933572Y-84888356D01*
X94995600Y-84800485D01*
X95014509Y-84780237D01*
X95033320Y-84755110D01*
X95103810Y-84684619D01*
X95172666Y-84610893D01*
X95198792Y-84589637D01*
X95225110Y-84563320D01*
X95300635Y-84506782D01*
X95373893Y-84447183D01*
X95407774Y-84426578D01*
X95442242Y-84400777D01*
X95520235Y-84358189D01*
X95595557Y-84312385D01*
X95637425Y-84294199D01*
X95680296Y-84270790D01*
X95758304Y-84241694D01*
X95833487Y-84209038D01*
X95883214Y-84195105D01*
X95934426Y-84176004D01*
X96010281Y-84159502D01*
X96083288Y-84139047D01*
X96140392Y-84131198D01*
X96199459Y-84118349D01*
X96271220Y-84113216D01*
X96340293Y-84103723D01*
X96403962Y-84103723D01*
X96470000Y-84099000D01*
X96536038Y-84103723D01*
G37*
G36*
X104851913Y-84115381D02*
G01*
X104854619Y-84118087D01*
X104855000Y-84120000D01*
X104855000Y-87880000D01*
X104854619Y-87881913D01*
X104851913Y-87884619D01*
X104850000Y-87885000D01*
X104843860Y-87885000D01*
X101096140Y-87885000D01*
X101090000Y-87885000D01*
X101088087Y-87884619D01*
X101085381Y-87881913D01*
X101085000Y-87880000D01*
X101085000Y-84120000D01*
X101085381Y-84118087D01*
X101088087Y-84115381D01*
X101090000Y-84115000D01*
X104850000Y-84115000D01*
X104851913Y-84115381D01*
G37*
G36*
X70516038Y-80853723D02*
G01*
X70579707Y-80853723D01*
X70648778Y-80863216D01*
X70720541Y-80868349D01*
X70779609Y-80881198D01*
X70836711Y-80889047D01*
X70909714Y-80909501D01*
X70985574Y-80926004D01*
X71036788Y-80945106D01*
X71086512Y-80959038D01*
X71161688Y-80991691D01*
X71239704Y-81020790D01*
X71282578Y-81044201D01*
X71324442Y-81062385D01*
X71399755Y-81108184D01*
X71477758Y-81150777D01*
X71512229Y-81176582D01*
X71546106Y-81197183D01*
X71619352Y-81256773D01*
X71694890Y-81313320D01*
X71721212Y-81339642D01*
X71747333Y-81360893D01*
X71816174Y-81434604D01*
X71886680Y-81505110D01*
X71905494Y-81530242D01*
X71924399Y-81550485D01*
X71986409Y-81638333D01*
X72049223Y-81722242D01*
X72061464Y-81744660D01*
X72074002Y-81762422D01*
X72126752Y-81864227D01*
X72179210Y-81960296D01*
X72186093Y-81978751D01*
X72193348Y-81992752D01*
X72234429Y-82108345D01*
X72273996Y-82214426D01*
X72276939Y-82227955D01*
X72280225Y-82237201D01*
X72307442Y-82368176D01*
X72331651Y-82479459D01*
X72332219Y-82487404D01*
X72333004Y-82491181D01*
X72344284Y-82656105D01*
X72351000Y-82750000D01*
X72344284Y-82843902D01*
X72333004Y-83008818D01*
X72332219Y-83012593D01*
X72331651Y-83020541D01*
X72307437Y-83131845D01*
X72280225Y-83262798D01*
X72276939Y-83272041D01*
X72273996Y-83285574D01*
X72234422Y-83391674D01*
X72193348Y-83507247D01*
X72186094Y-83521245D01*
X72179210Y-83539704D01*
X72126742Y-83635791D01*
X72074002Y-83737577D01*
X72061466Y-83755335D01*
X72049223Y-83777758D01*
X71986397Y-83861683D01*
X71924399Y-83949514D01*
X71905498Y-83969752D01*
X71886680Y-83994890D01*
X71816160Y-84065409D01*
X71747333Y-84139106D01*
X71721217Y-84160352D01*
X71694890Y-84186680D01*
X71619336Y-84243238D01*
X71546106Y-84302816D01*
X71512236Y-84323412D01*
X71477758Y-84349223D01*
X71399739Y-84391824D01*
X71324442Y-84437614D01*
X71282587Y-84455793D01*
X71239704Y-84479210D01*
X71161672Y-84508314D01*
X71086512Y-84540961D01*
X71036799Y-84554889D01*
X70985574Y-84573996D01*
X70909698Y-84590501D01*
X70836711Y-84610952D01*
X70779618Y-84618799D01*
X70720541Y-84631651D01*
X70648774Y-84636783D01*
X70579707Y-84646277D01*
X70516038Y-84646277D01*
X70450000Y-84651000D01*
X70383962Y-84646277D01*
X70320293Y-84646277D01*
X70251224Y-84636783D01*
X70179459Y-84631651D01*
X70120382Y-84618799D01*
X70063288Y-84610952D01*
X69990297Y-84590500D01*
X69914426Y-84573996D01*
X69863203Y-84554890D01*
X69813487Y-84540961D01*
X69738320Y-84508311D01*
X69660296Y-84479210D01*
X69617416Y-84455795D01*
X69575557Y-84437614D01*
X69500251Y-84391819D01*
X69422242Y-84349223D01*
X69387767Y-84323415D01*
X69353893Y-84302816D01*
X69280650Y-84243228D01*
X69205110Y-84186680D01*
X69178786Y-84160356D01*
X69152666Y-84139106D01*
X69083824Y-84065394D01*
X69013320Y-83994890D01*
X68994506Y-83969757D01*
X68975600Y-83949514D01*
X68913584Y-83861659D01*
X68850777Y-83777758D01*
X68838536Y-83755341D01*
X68825997Y-83737577D01*
X68773238Y-83635755D01*
X68720790Y-83539704D01*
X68713907Y-83521252D01*
X68706651Y-83507247D01*
X68665556Y-83391617D01*
X68626004Y-83285574D01*
X68623061Y-83272048D01*
X68619774Y-83262798D01*
X68592539Y-83131742D01*
X68568349Y-83020541D01*
X68567781Y-83012600D01*
X68566995Y-83008818D01*
X68555692Y-82843582D01*
X68549000Y-82750000D01*
X68555692Y-82656425D01*
X68566995Y-82491181D01*
X68567781Y-82487397D01*
X68568349Y-82479459D01*
X68592535Y-82368278D01*
X68619774Y-82237201D01*
X68623062Y-82227948D01*
X68626004Y-82214426D01*
X68665548Y-82108402D01*
X68706651Y-81992752D01*
X68713909Y-81978744D01*
X68720790Y-81960296D01*
X68773227Y-81864262D01*
X68825997Y-81762422D01*
X68838539Y-81744654D01*
X68850777Y-81722242D01*
X68913572Y-81638356D01*
X68975600Y-81550485D01*
X68994509Y-81530237D01*
X69013320Y-81505110D01*
X69083810Y-81434619D01*
X69152666Y-81360893D01*
X69178792Y-81339637D01*
X69205110Y-81313320D01*
X69280635Y-81256782D01*
X69353893Y-81197183D01*
X69387774Y-81176578D01*
X69422242Y-81150777D01*
X69500235Y-81108189D01*
X69575557Y-81062385D01*
X69617425Y-81044199D01*
X69660296Y-81020790D01*
X69738304Y-80991694D01*
X69813487Y-80959038D01*
X69863214Y-80945105D01*
X69914426Y-80926004D01*
X69990281Y-80909502D01*
X70063288Y-80889047D01*
X70120392Y-80881198D01*
X70179459Y-80868349D01*
X70251220Y-80863216D01*
X70320293Y-80853723D01*
X70383962Y-80853723D01*
X70450000Y-80849000D01*
X70516038Y-80853723D01*
G37*
G36*
X81016038Y-80853723D02*
G01*
X81079707Y-80853723D01*
X81148778Y-80863216D01*
X81220541Y-80868349D01*
X81279609Y-80881198D01*
X81336711Y-80889047D01*
X81409714Y-80909501D01*
X81485574Y-80926004D01*
X81536788Y-80945106D01*
X81586512Y-80959038D01*
X81661688Y-80991691D01*
X81739704Y-81020790D01*
X81782578Y-81044201D01*
X81824442Y-81062385D01*
X81899755Y-81108184D01*
X81977758Y-81150777D01*
X82012229Y-81176582D01*
X82046106Y-81197183D01*
X82119352Y-81256773D01*
X82194890Y-81313320D01*
X82221212Y-81339642D01*
X82247333Y-81360893D01*
X82316174Y-81434604D01*
X82386680Y-81505110D01*
X82405494Y-81530242D01*
X82424399Y-81550485D01*
X82486409Y-81638333D01*
X82549223Y-81722242D01*
X82561464Y-81744660D01*
X82574002Y-81762422D01*
X82626752Y-81864227D01*
X82679210Y-81960296D01*
X82686093Y-81978751D01*
X82693348Y-81992752D01*
X82734429Y-82108345D01*
X82773996Y-82214426D01*
X82776939Y-82227955D01*
X82780225Y-82237201D01*
X82807442Y-82368176D01*
X82831651Y-82479459D01*
X82832219Y-82487404D01*
X82833004Y-82491181D01*
X82844284Y-82656105D01*
X82851000Y-82750000D01*
X82844284Y-82843902D01*
X82833004Y-83008818D01*
X82832219Y-83012593D01*
X82831651Y-83020541D01*
X82807437Y-83131845D01*
X82780225Y-83262798D01*
X82776939Y-83272041D01*
X82773996Y-83285574D01*
X82734422Y-83391674D01*
X82693348Y-83507247D01*
X82686094Y-83521245D01*
X82679210Y-83539704D01*
X82626742Y-83635791D01*
X82574002Y-83737577D01*
X82561466Y-83755335D01*
X82549223Y-83777758D01*
X82486397Y-83861683D01*
X82424399Y-83949514D01*
X82405498Y-83969752D01*
X82386680Y-83994890D01*
X82316160Y-84065409D01*
X82247333Y-84139106D01*
X82221217Y-84160352D01*
X82194890Y-84186680D01*
X82119336Y-84243238D01*
X82046106Y-84302816D01*
X82012236Y-84323412D01*
X81977758Y-84349223D01*
X81899739Y-84391824D01*
X81824442Y-84437614D01*
X81782587Y-84455793D01*
X81739704Y-84479210D01*
X81661672Y-84508314D01*
X81586512Y-84540961D01*
X81536799Y-84554889D01*
X81485574Y-84573996D01*
X81409698Y-84590501D01*
X81336711Y-84610952D01*
X81279618Y-84618799D01*
X81220541Y-84631651D01*
X81148774Y-84636783D01*
X81079707Y-84646277D01*
X81016038Y-84646277D01*
X80950000Y-84651000D01*
X80883962Y-84646277D01*
X80820293Y-84646277D01*
X80751224Y-84636783D01*
X80679459Y-84631651D01*
X80620382Y-84618799D01*
X80563288Y-84610952D01*
X80490297Y-84590500D01*
X80414426Y-84573996D01*
X80363203Y-84554890D01*
X80313487Y-84540961D01*
X80238320Y-84508311D01*
X80160296Y-84479210D01*
X80117416Y-84455795D01*
X80075557Y-84437614D01*
X80000251Y-84391819D01*
X79922242Y-84349223D01*
X79887767Y-84323415D01*
X79853893Y-84302816D01*
X79780650Y-84243228D01*
X79705110Y-84186680D01*
X79678786Y-84160356D01*
X79652666Y-84139106D01*
X79583824Y-84065394D01*
X79513320Y-83994890D01*
X79494506Y-83969757D01*
X79475600Y-83949514D01*
X79413584Y-83861659D01*
X79350777Y-83777758D01*
X79338536Y-83755341D01*
X79325997Y-83737577D01*
X79273238Y-83635755D01*
X79220790Y-83539704D01*
X79213907Y-83521252D01*
X79206651Y-83507247D01*
X79165556Y-83391617D01*
X79126004Y-83285574D01*
X79123061Y-83272048D01*
X79119774Y-83262798D01*
X79092539Y-83131742D01*
X79068349Y-83020541D01*
X79067781Y-83012600D01*
X79066995Y-83008818D01*
X79055692Y-82843582D01*
X79049000Y-82750000D01*
X79055692Y-82656425D01*
X79066995Y-82491181D01*
X79067781Y-82487397D01*
X79068349Y-82479459D01*
X79092535Y-82368278D01*
X79119774Y-82237201D01*
X79123062Y-82227948D01*
X79126004Y-82214426D01*
X79165548Y-82108402D01*
X79206651Y-81992752D01*
X79213909Y-81978744D01*
X79220790Y-81960296D01*
X79273227Y-81864262D01*
X79325997Y-81762422D01*
X79338539Y-81744654D01*
X79350777Y-81722242D01*
X79413572Y-81638356D01*
X79475600Y-81550485D01*
X79494509Y-81530237D01*
X79513320Y-81505110D01*
X79583810Y-81434619D01*
X79652666Y-81360893D01*
X79678792Y-81339637D01*
X79705110Y-81313320D01*
X79780635Y-81256782D01*
X79853893Y-81197183D01*
X79887774Y-81176578D01*
X79922242Y-81150777D01*
X80000235Y-81108189D01*
X80075557Y-81062385D01*
X80117425Y-81044199D01*
X80160296Y-81020790D01*
X80238304Y-80991694D01*
X80313487Y-80959038D01*
X80363214Y-80945105D01*
X80414426Y-80926004D01*
X80490281Y-80909502D01*
X80563288Y-80889047D01*
X80620392Y-80881198D01*
X80679459Y-80868349D01*
X80751220Y-80863216D01*
X80820293Y-80853723D01*
X80883962Y-80853723D01*
X80950000Y-80849000D01*
X81016038Y-80853723D01*
G37*
G36*
X113345577Y-70242832D02*
G01*
X113722730Y-70320339D01*
X114090107Y-70435604D01*
X114443938Y-70587445D01*
X114780592Y-70774303D01*
X115096615Y-70994261D01*
X115388763Y-71245063D01*
X115654040Y-71524133D01*
X115889722Y-71828610D01*
X116093391Y-72155367D01*
X116262959Y-72501053D01*
X116396683Y-72862121D01*
X116493193Y-73234864D01*
X116551498Y-73615459D01*
X116571000Y-74000000D01*
X116551498Y-74384541D01*
X116493193Y-74765136D01*
X116396683Y-75137879D01*
X116262959Y-75498947D01*
X116093391Y-75844633D01*
X115889722Y-76171390D01*
X115654040Y-76475867D01*
X115388763Y-76754937D01*
X115096615Y-77005739D01*
X114780592Y-77225697D01*
X114443938Y-77412555D01*
X114090107Y-77564396D01*
X113722730Y-77679661D01*
X113345577Y-77757168D01*
X112962517Y-77796121D01*
X112577483Y-77796121D01*
X112194423Y-77757168D01*
X111817270Y-77679661D01*
X111449893Y-77564396D01*
X111096062Y-77412555D01*
X110759408Y-77225697D01*
X110443385Y-77005739D01*
X110151237Y-76754937D01*
X109885960Y-76475867D01*
X109650278Y-76171390D01*
X109446609Y-75844633D01*
X109277041Y-75498947D01*
X109143317Y-75137879D01*
X109046807Y-74765136D01*
X108988502Y-74384541D01*
X108969000Y-74000000D01*
X108988502Y-73615459D01*
X109046807Y-73234864D01*
X109143317Y-72862121D01*
X109277041Y-72501053D01*
X109446609Y-72155367D01*
X109650278Y-71828610D01*
X109885960Y-71524133D01*
X110151237Y-71245063D01*
X110443385Y-70994261D01*
X110759408Y-70774303D01*
X111096062Y-70587445D01*
X111449893Y-70435604D01*
X111817270Y-70320339D01*
X112194423Y-70242832D01*
X112577483Y-70203879D01*
X112962517Y-70203879D01*
X113345577Y-70242832D01*
G37*
G36*
X96536038Y-72103723D02*
G01*
X96599707Y-72103723D01*
X96668778Y-72113216D01*
X96740541Y-72118349D01*
X96799609Y-72131198D01*
X96856711Y-72139047D01*
X96929714Y-72159501D01*
X97005574Y-72176004D01*
X97056788Y-72195106D01*
X97106512Y-72209038D01*
X97181688Y-72241691D01*
X97259704Y-72270790D01*
X97302578Y-72294201D01*
X97344442Y-72312385D01*
X97419755Y-72358184D01*
X97497758Y-72400777D01*
X97532229Y-72426582D01*
X97566106Y-72447183D01*
X97639352Y-72506773D01*
X97714890Y-72563320D01*
X97741212Y-72589642D01*
X97767333Y-72610893D01*
X97836174Y-72684604D01*
X97906680Y-72755110D01*
X97925494Y-72780242D01*
X97944399Y-72800485D01*
X98006409Y-72888333D01*
X98069223Y-72972242D01*
X98081464Y-72994660D01*
X98094002Y-73012422D01*
X98146752Y-73114227D01*
X98199210Y-73210296D01*
X98206093Y-73228751D01*
X98213348Y-73242752D01*
X98254429Y-73358345D01*
X98293996Y-73464426D01*
X98296939Y-73477955D01*
X98300225Y-73487201D01*
X98327442Y-73618176D01*
X98351651Y-73729459D01*
X98352219Y-73737404D01*
X98353004Y-73741181D01*
X98364284Y-73906105D01*
X98371000Y-74000000D01*
X98364284Y-74093902D01*
X98353004Y-74258818D01*
X98352219Y-74262593D01*
X98351651Y-74270541D01*
X98327437Y-74381845D01*
X98300225Y-74512798D01*
X98296939Y-74522041D01*
X98293996Y-74535574D01*
X98254422Y-74641674D01*
X98213348Y-74757247D01*
X98206094Y-74771245D01*
X98199210Y-74789704D01*
X98146742Y-74885791D01*
X98094002Y-74987577D01*
X98081466Y-75005335D01*
X98069223Y-75027758D01*
X98006397Y-75111683D01*
X97944399Y-75199514D01*
X97925498Y-75219752D01*
X97906680Y-75244890D01*
X97836160Y-75315409D01*
X97767333Y-75389106D01*
X97741217Y-75410352D01*
X97714890Y-75436680D01*
X97639336Y-75493238D01*
X97566106Y-75552816D01*
X97532236Y-75573412D01*
X97497758Y-75599223D01*
X97419739Y-75641824D01*
X97344442Y-75687614D01*
X97302587Y-75705793D01*
X97259704Y-75729210D01*
X97181672Y-75758314D01*
X97106512Y-75790961D01*
X97056799Y-75804889D01*
X97005574Y-75823996D01*
X96929698Y-75840501D01*
X96856711Y-75860952D01*
X96799618Y-75868799D01*
X96740541Y-75881651D01*
X96668774Y-75886783D01*
X96599707Y-75896277D01*
X96536038Y-75896277D01*
X96470000Y-75901000D01*
X96403962Y-75896277D01*
X96340293Y-75896277D01*
X96271224Y-75886783D01*
X96199459Y-75881651D01*
X96140382Y-75868799D01*
X96083288Y-75860952D01*
X96010297Y-75840500D01*
X95934426Y-75823996D01*
X95883203Y-75804890D01*
X95833487Y-75790961D01*
X95758320Y-75758311D01*
X95680296Y-75729210D01*
X95637416Y-75705795D01*
X95595557Y-75687614D01*
X95520251Y-75641819D01*
X95442242Y-75599223D01*
X95407767Y-75573415D01*
X95373893Y-75552816D01*
X95300650Y-75493228D01*
X95225110Y-75436680D01*
X95198786Y-75410356D01*
X95172666Y-75389106D01*
X95103824Y-75315394D01*
X95033320Y-75244890D01*
X95014506Y-75219757D01*
X94995600Y-75199514D01*
X94933584Y-75111659D01*
X94870777Y-75027758D01*
X94858536Y-75005341D01*
X94845997Y-74987577D01*
X94793238Y-74885755D01*
X94740790Y-74789704D01*
X94733907Y-74771252D01*
X94726651Y-74757247D01*
X94685556Y-74641617D01*
X94646004Y-74535574D01*
X94643061Y-74522048D01*
X94639774Y-74512798D01*
X94612539Y-74381742D01*
X94588349Y-74270541D01*
X94587781Y-74262600D01*
X94586995Y-74258818D01*
X94575692Y-74093582D01*
X94569000Y-74000000D01*
X94575692Y-73906425D01*
X94586995Y-73741181D01*
X94587781Y-73737397D01*
X94588349Y-73729459D01*
X94612535Y-73618278D01*
X94639774Y-73487201D01*
X94643062Y-73477948D01*
X94646004Y-73464426D01*
X94685548Y-73358402D01*
X94726651Y-73242752D01*
X94733909Y-73228744D01*
X94740790Y-73210296D01*
X94793227Y-73114262D01*
X94845997Y-73012422D01*
X94858539Y-72994654D01*
X94870777Y-72972242D01*
X94933572Y-72888356D01*
X94995600Y-72800485D01*
X95014509Y-72780237D01*
X95033320Y-72755110D01*
X95103810Y-72684619D01*
X95172666Y-72610893D01*
X95198792Y-72589637D01*
X95225110Y-72563320D01*
X95300635Y-72506782D01*
X95373893Y-72447183D01*
X95407774Y-72426578D01*
X95442242Y-72400777D01*
X95520235Y-72358189D01*
X95595557Y-72312385D01*
X95637425Y-72294199D01*
X95680296Y-72270790D01*
X95758304Y-72241694D01*
X95833487Y-72209038D01*
X95883214Y-72195105D01*
X95934426Y-72176004D01*
X96010281Y-72159502D01*
X96083288Y-72139047D01*
X96140392Y-72131198D01*
X96199459Y-72118349D01*
X96271220Y-72113216D01*
X96340293Y-72103723D01*
X96403962Y-72103723D01*
X96470000Y-72099000D01*
X96536038Y-72103723D01*
G37*
G36*
X104851913Y-72115381D02*
G01*
X104854619Y-72118087D01*
X104855000Y-72120000D01*
X104855000Y-75880000D01*
X104854619Y-75881913D01*
X104851913Y-75884619D01*
X104850000Y-75885000D01*
X104843860Y-75885000D01*
X101096140Y-75885000D01*
X101090000Y-75885000D01*
X101088087Y-75884619D01*
X101085381Y-75881913D01*
X101085000Y-75880000D01*
X101085000Y-72120000D01*
X101085381Y-72118087D01*
X101088087Y-72115381D01*
X101090000Y-72115000D01*
X104850000Y-72115000D01*
X104851913Y-72115381D01*
G37*
G36*
X57916038Y-65653723D02*
G01*
X57979707Y-65653723D01*
X58048778Y-65663216D01*
X58120541Y-65668349D01*
X58179609Y-65681198D01*
X58236711Y-65689047D01*
X58309714Y-65709501D01*
X58385574Y-65726004D01*
X58436788Y-65745106D01*
X58486512Y-65759038D01*
X58561688Y-65791691D01*
X58639704Y-65820790D01*
X58682578Y-65844201D01*
X58724442Y-65862385D01*
X58799755Y-65908184D01*
X58877758Y-65950777D01*
X58912229Y-65976582D01*
X58946106Y-65997183D01*
X59019352Y-66056773D01*
X59094890Y-66113320D01*
X59121212Y-66139642D01*
X59147333Y-66160893D01*
X59216174Y-66234604D01*
X59286680Y-66305110D01*
X59305494Y-66330242D01*
X59324399Y-66350485D01*
X59386409Y-66438333D01*
X59449223Y-66522242D01*
X59461464Y-66544660D01*
X59474002Y-66562422D01*
X59526752Y-66664227D01*
X59579210Y-66760296D01*
X59586093Y-66778751D01*
X59593348Y-66792752D01*
X59634429Y-66908345D01*
X59673996Y-67014426D01*
X59676939Y-67027955D01*
X59680225Y-67037201D01*
X59707442Y-67168176D01*
X59731651Y-67279459D01*
X59732219Y-67287404D01*
X59733004Y-67291181D01*
X59744284Y-67456105D01*
X59751000Y-67550000D01*
X59744284Y-67643902D01*
X59733004Y-67808818D01*
X59732219Y-67812593D01*
X59731651Y-67820541D01*
X59707437Y-67931845D01*
X59680225Y-68062798D01*
X59676939Y-68072041D01*
X59673996Y-68085574D01*
X59634422Y-68191674D01*
X59593348Y-68307247D01*
X59586094Y-68321245D01*
X59579210Y-68339704D01*
X59526742Y-68435791D01*
X59474002Y-68537577D01*
X59461466Y-68555335D01*
X59449223Y-68577758D01*
X59386397Y-68661683D01*
X59324399Y-68749514D01*
X59305498Y-68769752D01*
X59286680Y-68794890D01*
X59216160Y-68865409D01*
X59147333Y-68939106D01*
X59121217Y-68960352D01*
X59094890Y-68986680D01*
X59019336Y-69043238D01*
X58946106Y-69102816D01*
X58912236Y-69123412D01*
X58877758Y-69149223D01*
X58799739Y-69191824D01*
X58724442Y-69237614D01*
X58682587Y-69255793D01*
X58639704Y-69279210D01*
X58561672Y-69308314D01*
X58486512Y-69340961D01*
X58436799Y-69354889D01*
X58385574Y-69373996D01*
X58309698Y-69390501D01*
X58236711Y-69410952D01*
X58179618Y-69418799D01*
X58120541Y-69431651D01*
X58048774Y-69436783D01*
X57979707Y-69446277D01*
X57916038Y-69446277D01*
X57850000Y-69451000D01*
X57783962Y-69446277D01*
X57720293Y-69446277D01*
X57651224Y-69436783D01*
X57579459Y-69431651D01*
X57520382Y-69418799D01*
X57463288Y-69410952D01*
X57390297Y-69390500D01*
X57314426Y-69373996D01*
X57263203Y-69354890D01*
X57213487Y-69340961D01*
X57138320Y-69308311D01*
X57060296Y-69279210D01*
X57017416Y-69255795D01*
X56975557Y-69237614D01*
X56900251Y-69191819D01*
X56822242Y-69149223D01*
X56787767Y-69123415D01*
X56753893Y-69102816D01*
X56680650Y-69043228D01*
X56605110Y-68986680D01*
X56578786Y-68960356D01*
X56552666Y-68939106D01*
X56483824Y-68865394D01*
X56413320Y-68794890D01*
X56394506Y-68769757D01*
X56375600Y-68749514D01*
X56313584Y-68661659D01*
X56250777Y-68577758D01*
X56238536Y-68555341D01*
X56225997Y-68537577D01*
X56173238Y-68435755D01*
X56120790Y-68339704D01*
X56113907Y-68321252D01*
X56106651Y-68307247D01*
X56065556Y-68191617D01*
X56026004Y-68085574D01*
X56023061Y-68072048D01*
X56019774Y-68062798D01*
X55992539Y-67931742D01*
X55968349Y-67820541D01*
X55967781Y-67812600D01*
X55966995Y-67808818D01*
X55955692Y-67643582D01*
X55949000Y-67550000D01*
X55955692Y-67456425D01*
X55966995Y-67291181D01*
X55967781Y-67287397D01*
X55968349Y-67279459D01*
X55992535Y-67168278D01*
X56019774Y-67037201D01*
X56023062Y-67027948D01*
X56026004Y-67014426D01*
X56065548Y-66908402D01*
X56106651Y-66792752D01*
X56113909Y-66778744D01*
X56120790Y-66760296D01*
X56173227Y-66664262D01*
X56225997Y-66562422D01*
X56238539Y-66544654D01*
X56250777Y-66522242D01*
X56313572Y-66438356D01*
X56375600Y-66350485D01*
X56394509Y-66330237D01*
X56413320Y-66305110D01*
X56483810Y-66234619D01*
X56552666Y-66160893D01*
X56578792Y-66139637D01*
X56605110Y-66113320D01*
X56680635Y-66056782D01*
X56753893Y-65997183D01*
X56787774Y-65976578D01*
X56822242Y-65950777D01*
X56900235Y-65908189D01*
X56975557Y-65862385D01*
X57017425Y-65844199D01*
X57060296Y-65820790D01*
X57138304Y-65791694D01*
X57213487Y-65759038D01*
X57263214Y-65745105D01*
X57314426Y-65726004D01*
X57390281Y-65709502D01*
X57463288Y-65689047D01*
X57520392Y-65681198D01*
X57579459Y-65668349D01*
X57651220Y-65663216D01*
X57720293Y-65653723D01*
X57783962Y-65653723D01*
X57850000Y-65649000D01*
X57916038Y-65653723D01*
G37*
G36*
X113345577Y-58242832D02*
G01*
X113722730Y-58320339D01*
X114090107Y-58435604D01*
X114443938Y-58587445D01*
X114780592Y-58774303D01*
X115096615Y-58994261D01*
X115388763Y-59245063D01*
X115654040Y-59524133D01*
X115889722Y-59828610D01*
X116093391Y-60155367D01*
X116262959Y-60501053D01*
X116396683Y-60862121D01*
X116493193Y-61234864D01*
X116551498Y-61615459D01*
X116571000Y-62000000D01*
X116551498Y-62384541D01*
X116493193Y-62765136D01*
X116396683Y-63137879D01*
X116262959Y-63498947D01*
X116093391Y-63844633D01*
X115889722Y-64171390D01*
X115654040Y-64475867D01*
X115388763Y-64754937D01*
X115096615Y-65005739D01*
X114780592Y-65225697D01*
X114443938Y-65412555D01*
X114090107Y-65564396D01*
X113722730Y-65679661D01*
X113345577Y-65757168D01*
X112962517Y-65796121D01*
X112577483Y-65796121D01*
X112194423Y-65757168D01*
X111817270Y-65679661D01*
X111449893Y-65564396D01*
X111096062Y-65412555D01*
X110759408Y-65225697D01*
X110443385Y-65005739D01*
X110151237Y-64754937D01*
X109885960Y-64475867D01*
X109650278Y-64171390D01*
X109446609Y-63844633D01*
X109277041Y-63498947D01*
X109143317Y-63137879D01*
X109046807Y-62765136D01*
X108988502Y-62384541D01*
X108969000Y-62000000D01*
X108988502Y-61615459D01*
X109046807Y-61234864D01*
X109143317Y-60862121D01*
X109277041Y-60501053D01*
X109446609Y-60155367D01*
X109650278Y-59828610D01*
X109885960Y-59524133D01*
X110151237Y-59245063D01*
X110443385Y-58994261D01*
X110759408Y-58774303D01*
X111096062Y-58587445D01*
X111449893Y-58435604D01*
X111817270Y-58320339D01*
X112194423Y-58242832D01*
X112577483Y-58203879D01*
X112962517Y-58203879D01*
X113345577Y-58242832D01*
G37*
G36*
X96536038Y-60453723D02*
G01*
X96599707Y-60453723D01*
X96668778Y-60463216D01*
X96740541Y-60468349D01*
X96799609Y-60481198D01*
X96856711Y-60489047D01*
X96929714Y-60509501D01*
X97005574Y-60526004D01*
X97056788Y-60545106D01*
X97106512Y-60559038D01*
X97181688Y-60591691D01*
X97259704Y-60620790D01*
X97302578Y-60644201D01*
X97344442Y-60662385D01*
X97419755Y-60708184D01*
X97497758Y-60750777D01*
X97532229Y-60776582D01*
X97566106Y-60797183D01*
X97639352Y-60856773D01*
X97714890Y-60913320D01*
X97741212Y-60939642D01*
X97767333Y-60960893D01*
X97836174Y-61034604D01*
X97906680Y-61105110D01*
X97925494Y-61130242D01*
X97944399Y-61150485D01*
X98006409Y-61238333D01*
X98069223Y-61322242D01*
X98081464Y-61344660D01*
X98094002Y-61362422D01*
X98146752Y-61464227D01*
X98199210Y-61560296D01*
X98206093Y-61578751D01*
X98213348Y-61592752D01*
X98254429Y-61708345D01*
X98293996Y-61814426D01*
X98296939Y-61827955D01*
X98300225Y-61837201D01*
X98327442Y-61968176D01*
X98351651Y-62079459D01*
X98352219Y-62087404D01*
X98353004Y-62091181D01*
X98364284Y-62256105D01*
X98371000Y-62350000D01*
X98364284Y-62443902D01*
X98353004Y-62608818D01*
X98352219Y-62612593D01*
X98351651Y-62620541D01*
X98327437Y-62731845D01*
X98300225Y-62862798D01*
X98296939Y-62872041D01*
X98293996Y-62885574D01*
X98254422Y-62991674D01*
X98213348Y-63107247D01*
X98206094Y-63121245D01*
X98199210Y-63139704D01*
X98146742Y-63235791D01*
X98094002Y-63337577D01*
X98081466Y-63355335D01*
X98069223Y-63377758D01*
X98006397Y-63461683D01*
X97944399Y-63549514D01*
X97925498Y-63569752D01*
X97906680Y-63594890D01*
X97836160Y-63665409D01*
X97767333Y-63739106D01*
X97741217Y-63760352D01*
X97714890Y-63786680D01*
X97639336Y-63843238D01*
X97566106Y-63902816D01*
X97532236Y-63923412D01*
X97497758Y-63949223D01*
X97419739Y-63991824D01*
X97344442Y-64037614D01*
X97302587Y-64055793D01*
X97259704Y-64079210D01*
X97181672Y-64108314D01*
X97106512Y-64140961D01*
X97056799Y-64154889D01*
X97005574Y-64173996D01*
X96929698Y-64190501D01*
X96856711Y-64210952D01*
X96799618Y-64218799D01*
X96740541Y-64231651D01*
X96668774Y-64236783D01*
X96599707Y-64246277D01*
X96536038Y-64246277D01*
X96470000Y-64251000D01*
X96403962Y-64246277D01*
X96340293Y-64246277D01*
X96271224Y-64236783D01*
X96199459Y-64231651D01*
X96140382Y-64218799D01*
X96083288Y-64210952D01*
X96010297Y-64190500D01*
X95934426Y-64173996D01*
X95883203Y-64154890D01*
X95833487Y-64140961D01*
X95758320Y-64108311D01*
X95680296Y-64079210D01*
X95637416Y-64055795D01*
X95595557Y-64037614D01*
X95520251Y-63991819D01*
X95442242Y-63949223D01*
X95407767Y-63923415D01*
X95373893Y-63902816D01*
X95300650Y-63843228D01*
X95225110Y-63786680D01*
X95198786Y-63760356D01*
X95172666Y-63739106D01*
X95103824Y-63665394D01*
X95033320Y-63594890D01*
X95014506Y-63569757D01*
X94995600Y-63549514D01*
X94933584Y-63461659D01*
X94870777Y-63377758D01*
X94858536Y-63355341D01*
X94845997Y-63337577D01*
X94793238Y-63235755D01*
X94740790Y-63139704D01*
X94733907Y-63121252D01*
X94726651Y-63107247D01*
X94685556Y-62991617D01*
X94646004Y-62885574D01*
X94643061Y-62872048D01*
X94639774Y-62862798D01*
X94612539Y-62731742D01*
X94588349Y-62620541D01*
X94587781Y-62612600D01*
X94586995Y-62608818D01*
X94575692Y-62443582D01*
X94569000Y-62350000D01*
X94575692Y-62256425D01*
X94586995Y-62091181D01*
X94587781Y-62087397D01*
X94588349Y-62079459D01*
X94612535Y-61968278D01*
X94639774Y-61837201D01*
X94643062Y-61827948D01*
X94646004Y-61814426D01*
X94685548Y-61708402D01*
X94726651Y-61592752D01*
X94733909Y-61578744D01*
X94740790Y-61560296D01*
X94793227Y-61464262D01*
X94845997Y-61362422D01*
X94858539Y-61344654D01*
X94870777Y-61322242D01*
X94933572Y-61238356D01*
X94995600Y-61150485D01*
X95014509Y-61130237D01*
X95033320Y-61105110D01*
X95103810Y-61034619D01*
X95172666Y-60960893D01*
X95198792Y-60939637D01*
X95225110Y-60913320D01*
X95300635Y-60856782D01*
X95373893Y-60797183D01*
X95407774Y-60776578D01*
X95442242Y-60750777D01*
X95520235Y-60708189D01*
X95595557Y-60662385D01*
X95637425Y-60644199D01*
X95680296Y-60620790D01*
X95758304Y-60591694D01*
X95833487Y-60559038D01*
X95883214Y-60545105D01*
X95934426Y-60526004D01*
X96010281Y-60509502D01*
X96083288Y-60489047D01*
X96140392Y-60481198D01*
X96199459Y-60468349D01*
X96271220Y-60463216D01*
X96340293Y-60453723D01*
X96403962Y-60453723D01*
X96470000Y-60449000D01*
X96536038Y-60453723D01*
G37*
G36*
X104851913Y-60465381D02*
G01*
X104854619Y-60468087D01*
X104855000Y-60470000D01*
X104855000Y-64230000D01*
X104854619Y-64231913D01*
X104851913Y-64234619D01*
X104850000Y-64235000D01*
X104843860Y-64235000D01*
X101096140Y-64235000D01*
X101090000Y-64235000D01*
X101088087Y-64234619D01*
X101085381Y-64231913D01*
X101085000Y-64230000D01*
X101085000Y-60470000D01*
X101085381Y-60468087D01*
X101088087Y-60465381D01*
X101090000Y-60465000D01*
X104850000Y-60465000D01*
X104851913Y-60465381D01*
G37*
G36*
X57916038Y-57953723D02*
G01*
X57979707Y-57953723D01*
X58048778Y-57963216D01*
X58120541Y-57968349D01*
X58179609Y-57981198D01*
X58236711Y-57989047D01*
X58309714Y-58009501D01*
X58385574Y-58026004D01*
X58436788Y-58045106D01*
X58486512Y-58059038D01*
X58561688Y-58091691D01*
X58639704Y-58120790D01*
X58682578Y-58144201D01*
X58724442Y-58162385D01*
X58799755Y-58208184D01*
X58877758Y-58250777D01*
X58912229Y-58276582D01*
X58946106Y-58297183D01*
X59019352Y-58356773D01*
X59094890Y-58413320D01*
X59121212Y-58439642D01*
X59147333Y-58460893D01*
X59216174Y-58534604D01*
X59286680Y-58605110D01*
X59305494Y-58630242D01*
X59324399Y-58650485D01*
X59386409Y-58738333D01*
X59449223Y-58822242D01*
X59461464Y-58844660D01*
X59474002Y-58862422D01*
X59526752Y-58964227D01*
X59579210Y-59060296D01*
X59586093Y-59078751D01*
X59593348Y-59092752D01*
X59634429Y-59208345D01*
X59673996Y-59314426D01*
X59676939Y-59327955D01*
X59680225Y-59337201D01*
X59707442Y-59468176D01*
X59731651Y-59579459D01*
X59732219Y-59587404D01*
X59733004Y-59591181D01*
X59744284Y-59756105D01*
X59751000Y-59850000D01*
X59744284Y-59943902D01*
X59733004Y-60108818D01*
X59732219Y-60112593D01*
X59731651Y-60120541D01*
X59707437Y-60231845D01*
X59680225Y-60362798D01*
X59676939Y-60372041D01*
X59673996Y-60385574D01*
X59634422Y-60491674D01*
X59593348Y-60607247D01*
X59586094Y-60621245D01*
X59579210Y-60639704D01*
X59526742Y-60735791D01*
X59474002Y-60837577D01*
X59461466Y-60855335D01*
X59449223Y-60877758D01*
X59386397Y-60961683D01*
X59324399Y-61049514D01*
X59305498Y-61069752D01*
X59286680Y-61094890D01*
X59216160Y-61165409D01*
X59147333Y-61239106D01*
X59121217Y-61260352D01*
X59094890Y-61286680D01*
X59019336Y-61343238D01*
X58946106Y-61402816D01*
X58912236Y-61423412D01*
X58877758Y-61449223D01*
X58799739Y-61491824D01*
X58724442Y-61537614D01*
X58682587Y-61555793D01*
X58639704Y-61579210D01*
X58561672Y-61608314D01*
X58486512Y-61640961D01*
X58436799Y-61654889D01*
X58385574Y-61673996D01*
X58309698Y-61690501D01*
X58236711Y-61710952D01*
X58179618Y-61718799D01*
X58120541Y-61731651D01*
X58048774Y-61736783D01*
X57979707Y-61746277D01*
X57916038Y-61746277D01*
X57850000Y-61751000D01*
X57783962Y-61746277D01*
X57720293Y-61746277D01*
X57651224Y-61736783D01*
X57579459Y-61731651D01*
X57520382Y-61718799D01*
X57463288Y-61710952D01*
X57390297Y-61690500D01*
X57314426Y-61673996D01*
X57263203Y-61654890D01*
X57213487Y-61640961D01*
X57138320Y-61608311D01*
X57060296Y-61579210D01*
X57017416Y-61555795D01*
X56975557Y-61537614D01*
X56900251Y-61491819D01*
X56822242Y-61449223D01*
X56787767Y-61423415D01*
X56753893Y-61402816D01*
X56680650Y-61343228D01*
X56605110Y-61286680D01*
X56578786Y-61260356D01*
X56552666Y-61239106D01*
X56483824Y-61165394D01*
X56413320Y-61094890D01*
X56394506Y-61069757D01*
X56375600Y-61049514D01*
X56313584Y-60961659D01*
X56250777Y-60877758D01*
X56238536Y-60855341D01*
X56225997Y-60837577D01*
X56173238Y-60735755D01*
X56120790Y-60639704D01*
X56113907Y-60621252D01*
X56106651Y-60607247D01*
X56065556Y-60491617D01*
X56026004Y-60385574D01*
X56023061Y-60372048D01*
X56019774Y-60362798D01*
X55992539Y-60231742D01*
X55968349Y-60120541D01*
X55967781Y-60112600D01*
X55966995Y-60108818D01*
X55955692Y-59943582D01*
X55949000Y-59850000D01*
X55955692Y-59756425D01*
X55966995Y-59591181D01*
X55967781Y-59587397D01*
X55968349Y-59579459D01*
X55992535Y-59468278D01*
X56019774Y-59337201D01*
X56023062Y-59327948D01*
X56026004Y-59314426D01*
X56065548Y-59208402D01*
X56106651Y-59092752D01*
X56113909Y-59078744D01*
X56120790Y-59060296D01*
X56173227Y-58964262D01*
X56225997Y-58862422D01*
X56238539Y-58844654D01*
X56250777Y-58822242D01*
X56313572Y-58738356D01*
X56375600Y-58650485D01*
X56394509Y-58630237D01*
X56413320Y-58605110D01*
X56483810Y-58534619D01*
X56552666Y-58460893D01*
X56578792Y-58439637D01*
X56605110Y-58413320D01*
X56680635Y-58356782D01*
X56753893Y-58297183D01*
X56787774Y-58276578D01*
X56822242Y-58250777D01*
X56900235Y-58208189D01*
X56975557Y-58162385D01*
X57017425Y-58144199D01*
X57060296Y-58120790D01*
X57138304Y-58091694D01*
X57213487Y-58059038D01*
X57263214Y-58045105D01*
X57314426Y-58026004D01*
X57390281Y-58009502D01*
X57463288Y-57989047D01*
X57520392Y-57981198D01*
X57579459Y-57968349D01*
X57651220Y-57963216D01*
X57720293Y-57953723D01*
X57783962Y-57953723D01*
X57850000Y-57949000D01*
X57916038Y-57953723D01*
G37*
G36*
X100716038Y-51853723D02*
G01*
X100779707Y-51853723D01*
X100848778Y-51863216D01*
X100920541Y-51868349D01*
X100979609Y-51881198D01*
X101036711Y-51889047D01*
X101109714Y-51909501D01*
X101185574Y-51926004D01*
X101236788Y-51945106D01*
X101286512Y-51959038D01*
X101361688Y-51991691D01*
X101439704Y-52020790D01*
X101482578Y-52044201D01*
X101524442Y-52062385D01*
X101599755Y-52108184D01*
X101677758Y-52150777D01*
X101712229Y-52176582D01*
X101746106Y-52197183D01*
X101819352Y-52256773D01*
X101894890Y-52313320D01*
X101921212Y-52339642D01*
X101947333Y-52360893D01*
X102016174Y-52434604D01*
X102086680Y-52505110D01*
X102105494Y-52530242D01*
X102124399Y-52550485D01*
X102186409Y-52638333D01*
X102249223Y-52722242D01*
X102261464Y-52744660D01*
X102274002Y-52762422D01*
X102326752Y-52864227D01*
X102379210Y-52960296D01*
X102386093Y-52978751D01*
X102393348Y-52992752D01*
X102434429Y-53108345D01*
X102473996Y-53214426D01*
X102476939Y-53227955D01*
X102480225Y-53237201D01*
X102507442Y-53368176D01*
X102531651Y-53479459D01*
X102532219Y-53487404D01*
X102533004Y-53491181D01*
X102544284Y-53656105D01*
X102551000Y-53750000D01*
X102544284Y-53843902D01*
X102533004Y-54008818D01*
X102532219Y-54012593D01*
X102531651Y-54020541D01*
X102507437Y-54131845D01*
X102480225Y-54262798D01*
X102476939Y-54272041D01*
X102473996Y-54285574D01*
X102434422Y-54391674D01*
X102393348Y-54507247D01*
X102386094Y-54521245D01*
X102379210Y-54539704D01*
X102326742Y-54635791D01*
X102274002Y-54737577D01*
X102261466Y-54755335D01*
X102249223Y-54777758D01*
X102186397Y-54861683D01*
X102124399Y-54949514D01*
X102105498Y-54969752D01*
X102086680Y-54994890D01*
X102016160Y-55065409D01*
X101947333Y-55139106D01*
X101921217Y-55160352D01*
X101894890Y-55186680D01*
X101819336Y-55243238D01*
X101746106Y-55302816D01*
X101712236Y-55323412D01*
X101677758Y-55349223D01*
X101599739Y-55391824D01*
X101524442Y-55437614D01*
X101482587Y-55455793D01*
X101439704Y-55479210D01*
X101361672Y-55508314D01*
X101286512Y-55540961D01*
X101236799Y-55554889D01*
X101185574Y-55573996D01*
X101109698Y-55590501D01*
X101036711Y-55610952D01*
X100979618Y-55618799D01*
X100920541Y-55631651D01*
X100848774Y-55636783D01*
X100779707Y-55646277D01*
X100716038Y-55646277D01*
X100650000Y-55651000D01*
X100583962Y-55646277D01*
X100520293Y-55646277D01*
X100451224Y-55636783D01*
X100379459Y-55631651D01*
X100320382Y-55618799D01*
X100263288Y-55610952D01*
X100190297Y-55590500D01*
X100114426Y-55573996D01*
X100063203Y-55554890D01*
X100013487Y-55540961D01*
X99938320Y-55508311D01*
X99860296Y-55479210D01*
X99817416Y-55455795D01*
X99775557Y-55437614D01*
X99700251Y-55391819D01*
X99622242Y-55349223D01*
X99587767Y-55323415D01*
X99553893Y-55302816D01*
X99480650Y-55243228D01*
X99405110Y-55186680D01*
X99378786Y-55160356D01*
X99352666Y-55139106D01*
X99283824Y-55065394D01*
X99213320Y-54994890D01*
X99194506Y-54969757D01*
X99175600Y-54949514D01*
X99113584Y-54861659D01*
X99050777Y-54777758D01*
X99038536Y-54755341D01*
X99025997Y-54737577D01*
X98973238Y-54635755D01*
X98920790Y-54539704D01*
X98913907Y-54521252D01*
X98906651Y-54507247D01*
X98865556Y-54391617D01*
X98826004Y-54285574D01*
X98823061Y-54272048D01*
X98819774Y-54262798D01*
X98792539Y-54131742D01*
X98768349Y-54020541D01*
X98767781Y-54012600D01*
X98766995Y-54008818D01*
X98755692Y-53843582D01*
X98749000Y-53750000D01*
X98755692Y-53656425D01*
X98766995Y-53491181D01*
X98767781Y-53487397D01*
X98768349Y-53479459D01*
X98792535Y-53368278D01*
X98819774Y-53237201D01*
X98823062Y-53227948D01*
X98826004Y-53214426D01*
X98865548Y-53108402D01*
X98906651Y-52992752D01*
X98913909Y-52978744D01*
X98920790Y-52960296D01*
X98973227Y-52864262D01*
X99025997Y-52762422D01*
X99038539Y-52744654D01*
X99050777Y-52722242D01*
X99113572Y-52638356D01*
X99175600Y-52550485D01*
X99194509Y-52530237D01*
X99213320Y-52505110D01*
X99283810Y-52434619D01*
X99352666Y-52360893D01*
X99378792Y-52339637D01*
X99405110Y-52313320D01*
X99480635Y-52256782D01*
X99553893Y-52197183D01*
X99587774Y-52176578D01*
X99622242Y-52150777D01*
X99700235Y-52108189D01*
X99775557Y-52062385D01*
X99817425Y-52044199D01*
X99860296Y-52020790D01*
X99938304Y-51991694D01*
X100013487Y-51959038D01*
X100063214Y-51945105D01*
X100114426Y-51926004D01*
X100190281Y-51909502D01*
X100263288Y-51889047D01*
X100320392Y-51881198D01*
X100379459Y-51868349D01*
X100451220Y-51863216D01*
X100520293Y-51853723D01*
X100583962Y-51853723D01*
X100650000Y-51849000D01*
X100716038Y-51853723D01*
G37*
G36*
X64143036Y-41203013D02*
G01*
X64427308Y-41235043D01*
X64706207Y-41298700D01*
X64976225Y-41393183D01*
X65233967Y-41517305D01*
X65476190Y-41669504D01*
X65699850Y-41847867D01*
X65902133Y-42050150D01*
X66080496Y-42273810D01*
X66232695Y-42516033D01*
X66356817Y-42773775D01*
X66451300Y-43043793D01*
X66514957Y-43322692D01*
X66546987Y-43606964D01*
X66546987Y-43893036D01*
X66514957Y-44177308D01*
X66451300Y-44456207D01*
X66356817Y-44726225D01*
X66232695Y-44983967D01*
X66080496Y-45226190D01*
X65902133Y-45449850D01*
X65699850Y-45652133D01*
X65476190Y-45830496D01*
X65233967Y-45982695D01*
X64976225Y-46106817D01*
X64706207Y-46201300D01*
X64427308Y-46264957D01*
X64143036Y-46296987D01*
X64000000Y-46301000D01*
X63998240Y-46301000D01*
X61001760Y-46301000D01*
X61000000Y-46301000D01*
X60856964Y-46296987D01*
X60572692Y-46264957D01*
X60293793Y-46201300D01*
X60023775Y-46106817D01*
X59766033Y-45982695D01*
X59523810Y-45830496D01*
X59300150Y-45652133D01*
X59097867Y-45449850D01*
X58919504Y-45226190D01*
X58767305Y-44983967D01*
X58643183Y-44726225D01*
X58548700Y-44456207D01*
X58485043Y-44177308D01*
X58453013Y-43893036D01*
X58453013Y-43606964D01*
X58485043Y-43322692D01*
X58548700Y-43043793D01*
X58643183Y-42773775D01*
X58767305Y-42516033D01*
X58919504Y-42273810D01*
X59097867Y-42050150D01*
X59300150Y-41847867D01*
X59523810Y-41669504D01*
X59766033Y-41517305D01*
X60023775Y-41393183D01*
X60293793Y-41298700D01*
X60572692Y-41235043D01*
X60856964Y-41203013D01*
X61000000Y-41199000D01*
X64000000Y-41199000D01*
X64143036Y-41203013D01*
G37*
G36*
X109863036Y-41203013D02*
G01*
X110147308Y-41235043D01*
X110426207Y-41298700D01*
X110696225Y-41393183D01*
X110953967Y-41517305D01*
X111196190Y-41669504D01*
X111419850Y-41847867D01*
X111622133Y-42050150D01*
X111800496Y-42273810D01*
X111952695Y-42516033D01*
X112076817Y-42773775D01*
X112171300Y-43043793D01*
X112234957Y-43322692D01*
X112266987Y-43606964D01*
X112266987Y-43893036D01*
X112234957Y-44177308D01*
X112171300Y-44456207D01*
X112076817Y-44726225D01*
X111952695Y-44983967D01*
X111800496Y-45226190D01*
X111622133Y-45449850D01*
X111419850Y-45652133D01*
X111196190Y-45830496D01*
X110953967Y-45982695D01*
X110696225Y-46106817D01*
X110426207Y-46201300D01*
X110147308Y-46264957D01*
X109863036Y-46296987D01*
X109720000Y-46301000D01*
X109718240Y-46301000D01*
X106721760Y-46301000D01*
X106720000Y-46301000D01*
X106576964Y-46296987D01*
X106292692Y-46264957D01*
X106013793Y-46201300D01*
X105743775Y-46106817D01*
X105486033Y-45982695D01*
X105243810Y-45830496D01*
X105020150Y-45652133D01*
X104817867Y-45449850D01*
X104639504Y-45226190D01*
X104487305Y-44983967D01*
X104363183Y-44726225D01*
X104268700Y-44456207D01*
X104205043Y-44177308D01*
X104173013Y-43893036D01*
X104173013Y-43606964D01*
X104205043Y-43322692D01*
X104268700Y-43043793D01*
X104363183Y-42773775D01*
X104487305Y-42516033D01*
X104639504Y-42273810D01*
X104817867Y-42050150D01*
X105020150Y-41847867D01*
X105243810Y-41669504D01*
X105486033Y-41517305D01*
X105743775Y-41393183D01*
X106013793Y-41298700D01*
X106292692Y-41235043D01*
X106576964Y-41203013D01*
X106720000Y-41199000D01*
X109720000Y-41199000D01*
X109863036Y-41203013D01*
G37*
M02*
