M48
; DRILL file {KiCad 8.0.5} date 2024-10-23T08:14:28-0700
; FORMAT={-:-/ absolute / inch / decimal}
; #@! TF.CreationDate,2024-10-23T08:14:28-07:00
; #@! TF.GenerationSoftware,Kicad,Pcbnew,8.0.5
; #@! TF.FileFunction,Plated,1,2,PTH
FMAT,2
INCH
; #@! TA.AperFunction,Plated,PTH,ComponentDrill
T1C0.1260
; #@! TA.AperFunction,Plated,PTH,ComponentDrill
T2C0.2559
%
G90
G05
T2
X2.5736Y-4.4094
X2.5736Y-4.8819
X2.5736Y-5.3543
X2.5736Y-5.8268
X3.2626Y-4.4094
X3.2626Y-5.3543
X4.4398Y-2.4409
X4.4398Y-2.9134
X4.4398Y-3.3858
X4.4398Y-3.8583
X4.4398Y-4.4094
X4.4398Y-4.8819
X4.4398Y-5.3543
X4.4398Y-5.8268
T1
G00X2.4055Y-1.7224
M15
G01X2.5157Y-1.7224
M16
G05
G00X2.4055Y-6.5413
M15
G01X2.5157Y-6.5413
M16
G05
G00X4.2055Y-1.7224
M15
G01X4.3157Y-1.7224
M16
G05
G00X4.2055Y-6.5413
M15
G01X4.3157Y-6.5413
M16
G05
M30
